<?xml version="1.0" encoding="UTF-8"?>
<svg id="Ebene_2" data-name="Ebene 2" xmlns="http://www.w3.org/2000/svg" viewBox="0 0 115.03 56.02">
  <defs>
    <style>
      .cls-1 {
        fill: #fe6847;
      }

      .cls-2 {
        opacity: .3;
      }
    </style>
  </defs>
  <g id="Ebene_1-2" data-name="Ebene 1">
    <g>
      <g>
        <path class="cls-1" d="M59.07,.63c3.93-.76,7.94-.47,11.89-.62,3.1-.12,6.24,.41,9.39,1.46,3.99,1.32,5.81,4.57,8.49,7.08,2.59,2.42,4.97,5.03,7.24,7.74,.5,.6,1.18,.4,1.77,.37,3.35-.19,6.65,.39,9.97,.53,4.72,.19,7.36,3.25,7.2,8.1-.18,5.19-.64,10.36-.53,15.56,.06,3.1-.79,4.05-3.88,4.45-3.05,.4-6.12,.68-9.18,.9-1.06,.08-1.47,.32-1.59,1.48-.65,6.11-7.69,9.01-12.21,7.96-2.23-.52-4.09-2.28-5.25-4.47-.87-1.65-1.73-2.35-4.11-2.26-11.58,.43-23.17,1.02-34.77,.69-.47-.01-.93-.2-1.39-.23-2.95-.2-6-1.24-7.93,2.5-1.16,2.24-3.86,2.93-6.14,3.73-2.44,.85-6.4-1.41-8.11-4.73-.72-1.39-1.47-2.12-3.09-1.81-6.02,1.18-10.15-1.26-13.11-6.5-1.72-3.03-2.62-6.23-3.32-9.55-.02-.08,0-.16,0-.24-1.48-7.94,1.51-7.25,6.16-10.48,4.82-3.35,10.03-2.8,15.13-3.64,3.58-.59,5.66-3.18,7.87-5.55,1.92-2.07,3.58-4.38,5.4-6.56,2.12-2.55,4.54-4.14,7.81-4.36,3.55-.24,6.92-1.68,10.53-1.44,1.29,.08,4.99,.05,5.79-.1Zm53.02,26.09s.02,0,.03,0c0-.48,0-.96,0-1.43-.02-4.11-.83-5.17-4.99-5.64-3.15-.36-6.34-.48-9.51-.5-3.41-.02-6.83,.29-10.25,.31-8.52,.07-17.04,.12-25.56-.17-3.93-.13-3.9,.61-3.35,3.41,.12,.61,0,1.27-.04,1.9-.43,6.89-.84,13.78-1.33,20.67-.11,1.5,.44,2.06,1.85,2.01,6.2-.21,12.4-.41,18.6-.64,.63-.02,1.25-.23,1.88-.34,.67-.11,1.28-.41,1.47-1.07,.76-2.64,3.08-3.77,5.03-5.21,4.55-3.36,9.93-2.35,12.91,2.45,.62,1.01,1.22,1.18,2.31,1.05,2.6-.31,5.21-.52,7.83-.63,2.22-.09,3.13-1.17,3.11-3.31-.04-4.29-.01-8.59-.01-12.88ZM45.51,47.24s0,0,0,0c2.31,0,4.62-.03,6.93,.01,1.49,.03,2.22-.7,2.32-2.12,.55-7.77,1.01-15.53,1.03-23.32,0-1.84-.77-2.32-2.45-2.29-3.5,.05-7,0-10.5,.4-7.26,.83-14.59,.18-21.87,1-5.95,.67-11.55,1.99-16.61,5.31-1.22,.8-2.18,1.58-1.91,3.21,.75,4.54,1.34,9.04,4.21,12.99,2.73,3.77,4.61,4.86,9.23,4.24,1.72-.23,2.69-.91,3.01-2.73,.38-2.16,1.3-4.2,3.31-5.32,6.28-3.51,14.03,.06,14.11,6.49,.02,1.6,.93,2.2,2.5,2.14,2.23-.07,4.45-.02,6.68-.02Zm46.98-30.04c-3.19-4.58-6.52-8.52-10.29-12.07-1.15-1.09-2.52-1.65-4.02-1.97-6.32-1.35-12.67-.47-19.01-.25-1.13,.04-1.81,.4-1.64,1.94,.36,3.31,.22,6.65,.6,9.98,.2,1.72,.66,2.34,2.42,2.32,5.42-.06,10.83,.02,16.25,.04,5.23,.01,10.46,0,15.69,0Zm-64.29,.88c9.15,.12,17.54-.79,25.96-.9,1.68-.02,1.65-1.17,1.56-2.33-.17-2.06-.35-4.12-.57-6.17-.69-6.34,.45-5.95-5.83-5.19-.39,.05-.8,.01-1.19,.09-3.25,.67-7.07,.36-9.53,2.65-3.67,3.43-6.69,7.54-10.4,11.84Zm61.35,34.96c4.43,0,7.32-1.86,7.86-5.04,.83-4.85-4.58-9.16-9.36-7.32-1.78,.69-3.85,1.2-4.68,3.34-1.66,4.25,1.6,9.03,6.18,9.02Zm-62.68-.37c3.98,0,7.06-2.74,7.21-6.44,.15-3.64-3.12-6.61-7.31-6.65-3.03-.03-6.33,3.51-6.41,6.89-.07,2.78,3.52,6.19,6.51,6.2Z"/>
        <path class="cls-1" d="M49.99,29.55c-.83-.03-1.34-.47-1.39-1.3-.04-.77,.22-1.5,1.07-1.61,.94-.12,1.51,.5,1.55,1.41,.04,.78-.37,1.36-1.23,1.5Z"/>
      </g>
      <g class="cls-2">
        <path class="cls-1" d="M59.06,.8c3.93-.76,7.94-.47,11.89-.62,3.1-.12,6.24,.41,9.39,1.46,3.99,1.32,5.81,4.57,8.49,7.08,2.59,2.42,4.97,5.03,7.24,7.74,.5,.6,1.18,.4,1.77,.37,3.35-.19,6.65,.39,9.97,.53,4.72,.19,7.36,3.25,7.2,8.1-.18,5.19-.64,10.36-.53,15.56,.06,3.1-.79,4.05-3.88,4.45-3.05,.4-6.12,.68-9.18,.9-1.06,.08-1.47,.32-1.59,1.48-.65,6.11-7.69,9.01-12.21,7.96-2.23-.52-4.09-2.28-5.25-4.47-.87-1.65-1.73-2.35-4.11-2.26-11.58,.43-23.17,1.02-34.77,.69-.47-.01-.93-.2-1.39-.23-2.95-.2-6-1.24-7.93,2.5-1.16,2.24-3.86,2.93-6.14,3.73-2.44,.85-6.4-1.41-8.11-4.73-.72-1.39-1.47-2.12-3.09-1.81-6.02,1.18-10.15-1.26-13.11-6.5-1.72-3.03-2.62-6.23-3.32-9.55-.02-.08,0-.16,0-.24-1.48-7.94,1.51-7.25,6.16-10.48,4.82-3.35,10.03-2.8,15.13-3.64,3.58-.59,5.66-3.18,7.87-5.55,1.92-2.07,3.58-4.38,5.4-6.56,2.12-2.55,4.54-4.14,7.81-4.36,3.55-.24,6.92-1.68,10.53-1.44,1.29,.08,4.99,.05,5.79-.1Z"/>
      </g>
    </g>
  </g>
</svg>