<?xml version="1.0" encoding="UTF-8"?>
<svg id="Ebene_2" data-name="Ebene 2" xmlns="http://www.w3.org/2000/svg" viewBox="0 0 461.18 198.96">
  <defs>
    <style>
      .cls-1 {
        opacity: .3;
      }

      .cls-1, .cls-2 {
        fill: #fe6847;
      }
    </style>
  </defs>
  <g id="Ebene_1-2" data-name="Ebene 1">
    <g>
      <g>
        <path class="cls-2" d="M97.2,135.95c-7.37-.43-14.78-.41-22.07-1.82-2.59-.5-4.38-2.12-5.17-4.8-.77-2.63-1.6-5.17-1.32-8.01,.3-3,1.56-5.05,4.37-6.32,8.8-3.94,18.11-5.25,27.61-5.26,6.34,0,12.65-.5,18.98-.68,6.13-.18,14.86,5.8,16.49,12.08,.69,2.65,.5,5.32-.25,7.91-.5,1.73-2.01,2.36-3.7,2.7-7.87,1.59-15.84,2.43-23.79,3.39-3.71,.45-7.41,.8-11.15,.81Zm-4.34-23.71c-4.55-.06-8.76,1.44-12.86,3.72-3.09,1.72-5.7,3.51-6.88,7.08-1.11,3.36,.25,6.66,3.59,7.71,.88,.28,1.88,.39,2.57,1.05,1.14,1.09,2.2,.95,3.54,.29,2.22-1.09,4.36-2.09,7.15-1.07,2.14,.78,4.6,1.76,7.07,.64,3.75-1.7,7.77-1.95,11.78-2.16,4.46-.24,8.95,.29,13.41-.35,1.08-.15,2.24-.23,3.33,.15,3.03,1.08,5.77-.18,6.91-3.22,.99-2.63-.2-6.79-2.79-8.49-4.44-2.9-9.02-5.59-14.7-4.94-.86,.1-1.79,.16-2.54-.37-1-.71-2.04-.63-3.19-.52-1.79,.18-3.7,.9-5.32-.64-.33-.32-.82-.31-1.2,.02-.37,.32-.32,.73-.26,1.2,.45,3.25,.87,6.5,1.28,9.76,.13,1.01-.63,1.53-1.38,1.74-.92,.25-1.13-.59-1.2-1.27-.3-3.15-1.11-6.26-1.02-9.44,.04-1.37-.47-1.77-1.77-1.58-1.78,.26-3.52,.81-5.52,.67Z"/>
        <path class="cls-2" d="M101.7,103.24c-4.42,.07-7.75-2-10.58-5.06-1.1-1.19-1.98-2.44-3.72-3.08-2.41-.88-2.88-4.1-1.05-5.82,.6-.56,.63-1.09,.6-1.8-.09-2.15-.12-4.31,.31-6.44,.7-3.45,3.06-5.45,6.52-6.05,3.65-.63,7.31-.81,10.98-1.07,2.37-.17,4.71,1.64,6.01,4.76,.59,1.42,1.19,2.84,1.39,4.4,.22,1.76,.44,3.42,2.24,4.56,1.17,.75,.39,4.21-1.16,5.2-.58,.37-.75,.75-.81,1.26-.43,4.31-3.22,6.66-6.92,8.13-1.23,.49-2.44,1.32-3.82,1Zm1.5-26.37c-3.26,.31-6.39,.23-9.42,1.04-1.35,.36-2.78,.86-3.29,2.2-1.03,2.68-1.72,5.49-.63,8.35,.41,1.08,.09,1.76-.79,2.38-1.25,.87-1.27,1.76,.13,2.14,1.79,.49,2.78,1.76,3.93,2.96,1.25,1.31,2.64,2.46,4.21,3.37,4.09,2.35,10.51,.3,12.02-3.89,.42-1.18,.87-2.31,1.51-3.38,.67-1.11,1.64-2.27-.25-3.29-.5-.27-.63-1.03-.73-1.66-.24-1.47-.53-2.93-.81-4.4-.77-4.05-2.71-5.91-5.87-5.8Z"/>
        <path class="cls-2" d="M58.61,108.34c-.27-2.46,1.03-4.17,2.35-5.8,1.45-1.81,4.12-2.29,6.27-1.3,1.92,.88,3.29,3.38,3.02,5.53-.4,3.15-2.02,5.14-4.7,5.65-1.78,.34-3.21-.49-4.61-1.46-.63-.43-.81-1.33-2.14-1.02-1.03,.24,.22-1.17-.18-1.6Zm6,1.05c2.23-.11,3.21-.94,3.13-2.67-.1-2.23-1.36-3.62-3.21-3.54-1.53,.06-3.24,1.7-3.19,3.07,.06,1.95,1.4,3.22,3.27,3.13Z"/>
        <path class="cls-2" d="M104.3,58.38c.03,2.57-2.9,5.69-5.29,5.87-2.25,.17-5.59-2.95-5.52-5.36,.12-4.04,2.14-6.35,6.01-6.5,2.16-.08,4.76,3.16,4.79,5.98Zm-5.46-3.26c-1.55,.02-3.1,1.36-3.09,2.68,.01,1.52,1.92,3.78,3.14,3.72,1.22-.06,2.77-1.88,2.81-3.3,.05-1.5-1.45-3.11-2.87-3.1Z"/>
        <path class="cls-2" d="M68.82,73.14c2.92,.14,5.02,2.02,5.39,4.83,.26,1.98-1.87,4.93-4.08,5.65-2.23,.73-6.78-1.6-7.33-3.83-.17-.69-.49-1.72,.84-1.81,.8-.06,.57-.67,.63-1.1,.37-3.04,1.38-3.88,4.55-3.74Zm-.28,2.48c-1.54-.04-2.78,1.36-2.88,3.24-.05,1.01,1.55,2.07,3.22,2.13,1.26,.04,2.66-1.26,2.73-2.53,.09-1.45-1.37-2.79-3.07-2.84Z"/>
        <path class="cls-2" d="M131.92,79.8c-1.12,0-2.04-.53-2.6-1.49-1.25-2.16-1.62-4.48-.86-6.9,.49-1.56,2.65-2.99,4.49-2.66,4.15,.75,6.42,3.62,4.05,7.56-1.12,1.86-2.51,3.6-5.09,3.49Zm3.16-6.06c-.02-1.3-1.29-2.45-2.61-2.37-1.18,.07-2.58,1.67-2.51,2.86,.06,1,1.63,2.72,2.46,2.69,1.22-.04,2.69-1.79,2.66-3.18Z"/>
        <path class="cls-2" d="M135.22,96.88c2.81-.04,5.46,2.45,5.45,5.11,0,2.5-2.64,5.7-4.68,5.67-2.37-.03-5.44-3.04-5.28-5.46,.26-4.01,1.6-5.28,4.52-5.33Zm.12,2.6c-1.23-.03-2.52,1.13-2.53,2.27-.01,.99,1.99,3.27,2.89,3.29,1.13,.02,2.46-1.67,2.45-3.11-.01-1.29-1.3-2.41-2.8-2.45Z"/>
        <path class="cls-2" d="M81.02,83.82c-.07,.7-.08,1.49-.93,1.37-1.02-.15-1.96-.75-1.98-1.86-.01-.72,.63-1.21,1.55-1.19,1.3,.03,1.23,.94,1.36,1.69Z"/>
        <path class="cls-2" d="M121.38,66.69c-.31,.85-.23,1.94-1.39,1.99-1.25,.05-1.49-1.12-1.56-1.91-.09-1.07,1.06-1.01,1.78-1.12,.72-.11,1.08,.4,1.17,1.04Z"/>
        <path class="cls-2" d="M122.77,98.53c-.63,.56-.61,1.91-1.64,1.9-.92-.01-1.34-.93-1.35-1.91,0-1.27,1.02-1.06,1.72-1.13,.64-.07,1.16,.31,1.27,1.14Z"/>
        <path class="cls-2" d="M121.76,80.08c-.19,.85-.56,1.79-1.4,1.95-.81,.15-1.59-.55-1.61-1.44-.01-.85,.59-1.42,1.53-1.49,.75-.06,1.36,.07,1.49,.99Z"/>
        <path class="cls-2" d="M99.78,69.24c-.49,.36,.17,1.57-1.13,1.59-1.26,.02-1.59-.83-1.7-1.79-.06-.6,.45-1.16,1.02-.97,.63,.21,1.81-.32,1.8,1.17Z"/>
        <path class="cls-2" d="M136.55,86.48c-.41,.52,.02,1.65-.97,1.72-1.08,.07-1.6-.83-1.8-1.76-.17-.8,.43-1.02,1.13-1.03,.77-.01,1.49,.02,1.64,1.06Z"/>
        <path class="cls-2" d="M137.42,92.16c-.35,.9-.77,1.73-1.63,1.75-1,.02-1.25-.95-1.29-1.75-.05-.96,.77-1.02,1.46-1.02,.73,0,1.28,.32,1.47,1.02Z"/>
        <path class="cls-2" d="M114.1,62.45c-.14,.85-.67,1.56-1.48,1.56-.82,0-1.15-.84-1.15-1.63,0-.78,.57-1.35,1.24-1.27,.59,.07,1.6,.19,1.38,1.35Z"/>
        <path class="cls-2" d="M67.57,90.1c.16,.84-.04,1.75-.92,1.61-.97-.15-1.16-1.25-1.23-2.17-.07-.93,.6-.94,1.22-.92,1.03,.02,1.19,.65,.94,1.49Z"/>
        <path class="cls-2" d="M80.11,101.11c-.51,.61-.5,1.76-1.52,1.7-.87-.05-1.52-.83-1.47-1.66,.06-1.03,1.07-.76,1.74-.8,.54-.03,1.11,.05,1.24,.76Z"/>
        <path class="cls-2" d="M77.66,70.48c-.82-.36-1.21-.76-1.22-1.48,0-1.12,.8-1.28,1.61-1.35,.58-.04,1.4,.36,1.09,.86-.42,.68-1.15,1.23-1.49,1.97Z"/>
        <path class="cls-2" d="M87.02,64.89c-.6,.46-1.23,1.3-1.97,1.41-.72,.11-.8-.89-.81-1.57-.02-1.1,.92-1.06,1.57-1.14,.67-.08,1.11,.41,1.21,1.3Z"/>
        <path class="cls-2" d="M68.55,96.63c-.34,.68-.34,1.75-1.44,1.6-.75-.1-1.04-.81-1.03-1.54,.01-.95,.71-1.02,1.42-.97,.54,.04,1.16,.08,1.06,.91Z"/>
        <path class="cls-2" d="M99.67,95.11c-.47-.1-.84-.14-1.19-.26-1.01-.35-1.92-1.08-1.58-2.12,.35-1.09,1.47-.88,2.36-.45,.8,.38,1.64,.47,2.5,.58,.44,.06,.84,.26,.9,.78,.06,.54-.34,.76-.77,.88-.76,.22-1.54,.41-2.22,.58Z"/>
        <path class="cls-2" d="M105.54,84.71c-.13,.91-.34,1.89-1.56,1.89-1.05,0-1.49-.82-1.57-1.76-.1-1.2,.79-1.41,1.7-1.5,.95-.1,1.35,.44,1.42,1.38Z"/>
        <path class="cls-2" d="M97.78,85.83c-.1,.95-.63,1.49-1.57,1.43-.92-.06-1.46-.66-1.45-1.59,.01-.96,.62-1.45,1.56-1.43,1,.02,1.32,.74,1.46,1.59Z"/>
      </g>
      <path class="cls-1" d="M133.76,129.56c-9.92,2.99-24.18,5.9-41.21,4.78-7.44-.49-14.08-1.66-19.8-3.07-.66-1-2.35-3.82-2.26-7.78,.08-3.6,1.58-6.15,2.26-7.17,6.52-2.32,15.99-4.89,27.62-5.42,12.44-.57,22.69,1.41,29.6,3.31,1.02,1.15,2.65,3.3,3.59,6.44,1.19,3.99,.58,7.37,.2,8.92Z"/>
      <ellipse class="cls-1" cx="99.91" cy="88.6" rx="12.89" ry="13.66"/>
      <ellipse class="cls-1" cx="99.39" cy="58.28" rx="4.18" ry="3.65"/>
      <ellipse class="cls-1" cx="68.59" cy="78.3" rx="4.18" ry="3.65"/>
      <ellipse class="cls-1" cx="63.57" cy="106.61" rx="4.18" ry="3.65"/>
      <ellipse class="cls-1" cx="132.88" cy="74.51" rx="3.3" ry="3.65"/>
      <ellipse class="cls-1" cx="135.68" cy="102.35" rx="4.18" ry="3.65"/>
    </g>
    <g>
      <path class="cls-2" d="M11.62,115.48c-1.35-.06-2.45,.12-3.48,.59-.14,.06-.24,.05-.3-.06-.12-.23-.4-.4-.33-.7,.33-1.37-.28-2.12-1.56-2.48-.08-.02-.22-.13-.21-.17,.14-.91-.57-1.65-.42-2.59,.09-.61,.05-1.27-.22-1.87-.09-.2-.15-.4-.22-.6-.19-.6,.07-.83,.6-.84,.52-.01,.58-.18,.45-.67-.31-1.18-.4-2.41-.85-3.56-.51-1.3-1.15-2.52-1.84-3.74-.94-1.66-2.07-3.24-2.65-5.07-.57-1.83-.83-3.75-.32-5.62,.43-1.58,.9-3.28,1.94-4.51,.92-1.08,1.92-2.24,3.49-2.69,1.05-.3,2.05-.68,3.13-.51,1.89,.3,3.71,.72,5.41,1.73,1.69,1.01,2.18,2.69,2.9,4.28,.48,1.07,.63,2.27,.57,3.37-.07,1.36-.23,2.75-.62,4.1-.49,1.69-1.21,3.27-1.92,4.86-.49,1.1-.74,2.25-.87,3.47-.12,1.09,.24,2.08,.26,3.12,0,.42,.38,.38,.65,.38,.96,.02,1.58,.44,1.41,1.32-.1,.52,.17,1.12-.08,1.41-.56,.69,.06,1.29-.01,1.94-.11,.98-.35,1.99-1.33,2.23-.72,.18-.55,.68-.63,1.11-.01,.06,.06,.13,.07,.2,.35,1.24,.25,1.35-1.04,1.37-.74,.01-1.47,.28-2,.19Zm4.68-25.36c.01-.89-.04-1.72-.19-2.56-.34-1.9-.93-3.53-2.74-4.62-1.7-1.02-3.35-1.94-5.42-1.65-1.6,.22-3.08,.54-4.29,1.83-1.23,1.32-1.79,2.91-2.36,4.53-.41,1.18-.58,2.41-.29,3.64,.59,2.55,1.8,4.84,3.12,7.08,1.41,2.39,2.76,4.8,2.59,7.72-.02,.43,.23,.56,.61,.5,.67-.11,1.33-.24,2-.36,.23-.04,.32-.15,.31-.4-.04-.99-.02-1.98-.11-2.96-.11-1.17-.15-2.29-1.4-3.08-1.18-.74-1.36-2.33-.86-3.65,.33-.87,.91-1.6,1.34-2.41,.35-.66,.75-1.29,1.09-1.96,.11-.22-.02-.62,.34-.63,.37,0,.37,.38,.45,.66,.24,.84,.52,1.64,1.04,2.38,.47,.68,1.05,1.34,1.04,2.27-.01,1.35-.42,2.52-1.34,3.5-.31,.33-.51,.68-.51,1.15,.01,1.51-.33,3.01-.15,4.54,.03,.25,.1,.41,.32,.34,.81-.24,1.64-.08,2.46-.17,.42-.05,.42-.18,.32-.56-.56-2.1-.61-4.19,.23-6.25,.52-1.27,1.32-2.39,1.63-3.78,.38-1.7,.9-3.37,.79-5.1Zm-6.45,2.75c-.69,1.05-1.06,2.13-1.65,3.09-.8,1.28-.53,2.53,.62,3.48,.15,.12,.29,.3,.5,.22,.23-.09,.18-.32,.18-.51,.01-.68,.02-1.35,.03-2.03,0-.31,.17-.53,.46-.55,.35-.02,.43,.28,.44,.55,0,.26-.05,.53-.05,.79,0,.66-.22,1.32-.03,2.02,1-.87,1.93-2.97,1.01-4.49-.5-.82-1.07-1.59-1.52-2.57Zm-1.42,21.44c-.1,.59,.05,.89,.72,.74,1.28-.28,2.59-.31,3.89-.35,.35-.01,.78,.07,.78-.5,0-.85-.28-1.3-.87-1.19-1.26,.25-2.56,.06-3.82,.39-.52,.14-.87,.3-.71,.9Zm5.94-5.06c-.87,.27-1.87,.3-2.85,.45-1.46,.22-2.92,.36-4.38,.49-.28,.02-.6-.05-.76,.29-.1,.21-.07,.43,.08,.62,.23,.27,.51,.17,.8,.12,1.12-.17,2.25-.31,3.37-.47,1.43-.2,2.9-.13,4.3-.56,.21-.06,.6-.04,.4-.4-.17-.29-.46-.58-.97-.54Zm-6.54,3.42s0,.02,0,.02c.19,0,.39,.03,.57,0,1.62-.33,3.27-.37,4.91-.45,.49-.02,.96-.06,1.43-.21,.38-.12,.68-.33,.59-.78-.1-.45-.5-.31-.79-.29-.72,.04-1.4,.37-2.14,.36-1.7-.03-3.35,.38-5.03,.6-.23,.03-.63,.03-.59,.38,.04,.3,.35,.44,.68,.4,.12-.01,.24-.02,.36-.03Zm7.44-4.22c-.32-.41-.61-.54-.97-.51-2.36,.21-4.71,.47-7.08,.58-.26,.01-.52,.13-.76,.23-.22,.09-.32,.3-.28,.54,.05,.3,.29,.17,.47,.17,.95,.04,1.88-.18,2.82-.22,1.93-.08,3.82-.5,5.81-.8Zm-2.04-1.86c-1.65,.06-3.29,.44-4.96,.45-.41,0-.81,.09-1.21,.18-.23,.05-.5,.16-.46,.47,.04,.3,.32,.22,.53,.24,.56,.05,1.09-.17,1.65-.18,1.18-.01,2.36-.09,3.53-.24,.72-.09,1.45-.07,2.15-.32,.14-.05,.39,.02,.38-.23,0-.18-.21-.28-.37-.3-.41-.04-.82-.06-1.24-.08Z"/>
      <path class="cls-1" d="M14.43,114.79c-2.17,.26-4.34,.51-6.51,.77,.04-.38,.05-.97-.19-1.6-.33-.88-.94-1.28-1.28-1.66-1.04-1.18-.34-3.14-.13-4.79,.26-2.03-.93-4.89-3.32-10.6-.56-1.34-1.26-2.91-2.11-4.66-1.52-5.71,2.44-11.04,7.09-11.55,4.56-.5,9.5,3.66,9.45,9.45-.13,.75-.37,1.91-.76,3.3-.92,3.23-1.68,4.06-2.43,7.04-.28,1.12-1.15,4.72,.13,5.55,.27,.18,.5,.14,.83,.45,.45,.42,.53,.96,.64,2.43,.2,2.59,.1,2.89-.13,3.13-.47,.49-1.03,.26-1.39,.76-.37,.52-.16,1.33,.12,1.99Z"/>
    </g>
    <g>
      <g>
        <path class="cls-2" d="M49.75,11.96c2.05,0,3.65,.43,4.89,1.77,.31,.34,.43,.28,.67-.07,.69-1.03,1.66-1.75,2.8-2.2,1.03-.41,2.94,.25,3.63,1.22,.96,1.34,.78,2.53-.51,3.6-.43,.36-.86,.73-1.33,1.04-.17,.11-.35,.28-.16,.45,.85,.77,.98,1.81,1.08,2.84,.14,1.57,.15,3.11-.93,4.46-.96,1.19-2.12,1.81-3.66,1.75-1.37-.06-2.76-.04-3.89-1.01-.19-.16-.28-.02-.42,.06-.56,.31-1.16,.51-1.81,.6-.85,.12-1.34,.81-1.74,1.46-.24,.38,.18,.82,.46,1.11,.44,.47,.42,.8-.13,1.12-.14,.08-.25,.21-.38,.32-1.07,.87-1.08,.89-2.18,.05-.25-.19-.33-.11-.51,.04-1.3,1.06-2.57,2.18-3.73,3.39-.12,.12-.5,.21-.23,.53,.2,.23,.4,.3,.65,.07,.32-.29,.67-.16,1-.02,.61,.26,1,.78,1.49,1.19,.16,.14,.14,.35,.07,.53-.05,.13-.15,.24-.22,.37q-.58,1.01,.55,1.31c.74,.2,.9,.63,.37,1.18-.85,.9-1.81,1.67-2.87,2.31-.34,.2-.64,.21-1.01-.09-1.21-.99-2.25-2.15-3.35-3.25-.16-.16-.32-.37-.4-.58-.13-.34-.25-.41-.62-.26-.95,.4-.98,.42-.49,1.31,.18,.34,.33,.67,.37,1.06,.04,.4-.12,.66-.46,.78-.5,.18-.93,.46-1.36,.74-.4,.26-.73,.3-1.08-.17-.3-.4-.52-.84-.78-1.26-.18-.3-.36-.4-.66-.12-.56,.51-1.12,1.02-1.73,1.48-.5,.38-1.12,.86-1.73,.49-.75-.44-1.52-.95-1.58-2.02-.03-.54,.26-.81,.58-1.05,2.78-2.13,5.59-4.2,8.35-6.35,2.55-1.99,5.08-4.01,7.47-6.19,.12-.11,.26-.2,.38-.32,.62-.58,1.46-1,1.06-2.15-.21-.61,.48-1.33,.27-1.88-.22-.55-.71-1.04-.95-1.64-1.18-2.89-.2-5.32,2.35-7.13,.83-.59,1.71-.89,2.43-.84Zm6.25,13.87c1.17,.03,2.12-.11,2.84-1.05,1.49-1.94,1.44-4.87-.21-6.79-.31-.37-.33-.67,.1-.94,.65-.41,1.23-.9,1.79-1.41,1.22-1.12,.86-2.72-.73-3.21-.61-.19-1.2-.14-1.8,.12-1.13,.49-1.76,1.49-2.53,2.35-.58,.65-.87,.68-1.21-.07-.68-1.54-3.58-2.17-4.9-1.9-2.83,.58-5.15,3.93-3.24,7.37,.33,.6,.87,1,1.28,1.52,.2,.26,.34,.6-.16,.56-.62-.05-.59,.33-.6,.71,0,.43,.05,.85,.28,1.23,.15,.25,.11,.45-.16,.59-1.07,.56-1.87,1.46-2.76,2.23-1.85,1.59-3.7,3.19-5.64,4.68-3.01,2.31-6.1,4.52-9,6.99-.42,.36-.71,.72-.3,1.26,.37,.48,.81,.71,1.41,.35,.42-.25,.73-.6,1.07-.93,1.56-1.48,1.85-1.46,3.11,.28,.23,.31,.4,.45,.8,.22,.83-.46,.85-.43,.4-1.3-.08-.15-.14-.3-.22-.45-.31-.56-.19-1.03,.36-1.33,.56-.31,1.15-.57,1.74-.81,.26-.11,.53-.03,.67,.25,.59,1.2,1.61,2.04,2.52,2.96,1.38,1.4,1.58,1.36,3.05,.04,.5-.45,.44-.63-.14-.89-.85-.39-.93-.75-.44-1.56,.06-.1,.13-.2,.19-.3,.14-.25,.16-.5-.08-.71-.26-.23-.52-.67-.88-.42-.77,.55-1.16,.12-1.65-.4-.66-.7-.67-.84,.01-1.56,1.28-1.34,2.73-2.49,4.09-3.75,.76-.71,.81-.72,1.58-.05,.3,.26,.55,.42,.93,.12,.37-.29,.3-.57,.1-.93-.41-.75-.36-1.43,.3-2.06,.32-.3,.65-.61,.81-1.07,.12-.35,.41-.41,.76-.33,.51,.12,.99-.06,1.46-.19,.19-.05,.38-.13,.19-.39-.21-.28-.28-.58,.07-.8,.32-.2,.6-.06,.82,.2,1.04,1.29,2.45,1.63,3.9,1.54Z"/>
        <path class="cls-2" d="M59.18,12.81c.54-.03,.98,.26,1.18,.83,.19,.53,.18,1.07-.28,1.51-.43,.42-.88,.77-1.47,.96-.66,.22-1.11-.06-1.49-.52-.36-.44-.26-.88,.01-1.37,.44-.8,.97-1.4,2.04-1.41Zm-.87,2.46c.47-.02,1.28-.73,1.25-1.06-.03-.29-.2-.47-.51-.46-.47,.01-1.19,.65-1.18,1.06,.01,.31,.2,.46,.45,.46Z"/>
      </g>
      <path class="cls-1" d="M61.69,14.43c-.12,1.33-1.2,2.52-2.74,3.03,.25,.28,1.91,2.21,1.5,4.85-.06,.39-.42,2.66-2.33,3.7-1.83,1-4.38,.51-6.19-1.31-1.31,.93-2.62,1.85-3.93,2.78,.48,1.6,.3,2.82-.22,3.03-.54,.22-1.4-.67-1.53-.81-1.72,1.47-3.45,2.95-5.17,4.42,.3,.36,.6,.72,.89,1.09,.6-.29,1.32-.17,1.76,.29,.51,.52,.55,1.39,.06,2.01,1.01,.36,1.15,.85,1.18,.96,.19,.8-.87,2.01-2.87,2.68l-4.36-4.45c-.62,.27-1.25,.55-1.87,.82,.29,.77,.57,1.53,.86,2.3-.6,.35-1.19,.7-1.79,1.05-.49-.65-.98-1.3-1.47-1.95-1.13,.77-2.26,1.53-3.38,2.3-.66-.61-1.32-1.21-1.98-1.82,5.98-4.88,11.96-9.77,17.94-14.65,.15-.99,.3-1.98,.45-2.97-1.41-1.51-1.91-3.64-1.31-5.59,.04-.14,1.02-3.09,3.99-3.77,2.22-.5,4.58,.49,5.9,2.49,.07-.22,.66-1.93,2.49-2.62,1.92-.72,3.56,.3,3.73,.41,.2,.37,.45,.98,.38,1.72Z"/>
    </g>
    <g>
      <path class="cls-2" d="M38.39,174.78c.7-.02,1.33,.12,1.89,.49,.25,.17,.38,.2,.48-.14,.71-2.5,2.19-4.53,3.92-6.4,2.37-2.57,5.06-4.78,7.69-7.05,1.4-1.21,2.73-2.51,4.12-3.74,1.8-1.59,3.54-3.25,5.38-4.8,.48-.4,.92-.84,1.37-1.29,.13-.13,.23-.32,.44-.22,.2,.09,.35,.24,.39,.5,.09,.57-.17,1.05-.34,1.55-.37,1.07-.59,2.15-.62,3.29-.02,.98-.33,1.88-1.19,2.44-.75,.49-1.28,1.2-1.92,1.79-1.51,1.38-3.04,2.73-4.65,3.98-1.32,1.02-2.46,2.2-3.69,3.3-2.1,1.87-4.27,3.66-6.4,5.49-.47,.4-.91,.82-1.35,1.25-.4,.39-.87,.65-1.38,.85-.65,.25-1.13,.96-.89,1.57,.3,.77-.08,1.32-.47,1.85-.93,1.28-2.3,1.85-3.78,2.2-.96,.23-1.93,.46-2.89,.7-.41,.1-.76,.34-.98,.69-.18,.29-.52,.49-.71,.39-.27-.14-.26-.54-.19-.86,.06-.28,.22-.49,.41-.69,.42-.45,.6-.99,.62-1.61,.08-2.14,.94-3.88,2.79-5.02,.59-.36,1.26-.59,1.96-.53Zm24.6-21.57c-2.02,1.38-3.57,3.03-5.27,4.49-1.65,1.42-3.22,2.94-4.85,4.39-1.85,1.64-3.78,3.18-5.54,4.91-1.3,1.27-2.62,2.52-3.67,4.02-.6,.86-.64,1.38-.06,2.34,.42,.7,.53,.73,1.13,.23,1.61-1.36,3.2-2.76,4.82-4.11,1.93-1.61,3.64-3.47,5.66-5,2.38-1.79,4.45-3.95,6.6-6,.24-.23,.38-.53,.4-.85,.1-1.45,.34-2.87,.79-4.42Zm-26.04,27.77c.95-.02,1.77-.39,2.51-.86,2.02-1.28,1.87-3.05,.11-4.36-.26-.2-.56-.27-.9-.27-1.03,0-1.87,.38-2.67,1.02-1.71,1.37-1.46,3.37-1.87,5.24,.47-.13,.52-.46,.59-.77,.13-.55,.25-1.11,.37-1.66,.3-1.38,1.83-2.87,3.06-2.97,.19-.01,.49-.11,.54,.13,.05,.29-.27,.31-.48,.36-1.69,.33-2.77,1.78-2.57,3.58,.36-.53,.69-1.01,1.19-1.35,.46-.31,.86-.71,1.31-1.1-.33,1.29-1.38,1.96-2.14,2.86,.59-.45,1.18-.88,1.82-1.21,.83-.43,1.43-1.01,1.72-1.9,.05-.15,.16-.31,.35-.26,.21,.05,.16,.26,.12,.4-.19,.66-.4,1.31-1,1.73-.69,.48-1.35,.99-2.08,1.4Zm5.58-8.23c-.54,.91-.93,1.76-1.18,2.68-.06,.23-.05,.38,.24,.29,.63-.19,1.25-.4,1.73-.88,.25-.25,.3-.49,0-.75-.37-.32-.53-.77-.79-1.34Z"/>
      <path class="cls-1" d="M62.54,158.17c-1.59,1.51-3.17,3.02-4.76,4.53-4.48,3.9-8.96,7.81-13.44,11.71-.83,.54-1.66,1.08-2.48,1.62-.19,.26-.39,.51-.58,.77,.25,.91,.12,1.55-.03,1.95-.67,1.8-3.2,2.47-4.03,2.69-.85,.23-1.58,.28-2.8,.82-.51,.22-.91,.45-1.18,.61,.33-1.24,.66-2.49,.99-3.73,.03-.58,.19-1.54,.86-2.36,1.19-1.45,3.52-1.89,5.78-1.02,.55-1.32,1.11-2.64,1.66-3.96,.95-1.17,2.01-2.4,3.19-3.64,1.81-1.89,3.59-3.51,5.27-4.88,4.18-3.68,8.36-7.36,12.54-11.04-.33,1.98-.66,3.96-.99,5.94Z"/>
    </g>
    <g>
      <path class="cls-2" d="M159.77,18.83c.61,.13,.58,.75,.78,1.14,.63,1.19,1.19,2.41,1.64,3.68,.11,.3,.14,.61,.18,.93,.05,.37-.09,.47-.36,.56-.79,.27-1.6,.51-2.37,.83-2.18,.89-4.4,1.68-6.67,2.29-1.75,.47-3.45,1.07-5.2,1.55-1.92,.52-3.79,1.23-5.69,1.83-1.9,.61-3.82,1.17-5.72,1.8-.62,.21-1.25,.4-1.75,.92-.38,.4-.97,.09-1.45,.05-1.34-.1-2.67-.19-4.02-.16-1.29,.02-2.59-.13-3.89,.01-.28,.03-.62-.64-.46-.92,.1-.16,.2-.34,.37-.47,1-.73,2-1.47,2.98-2.24,.56-.44,1.09-.93,1.63-1.4,.74-.66,1.66-.99,2.56-1.36,2.2-.9,4.4-1.82,6.6-2.7,.67-.27,1.37-.48,2.07-.68,1.02-.29,1.94-.84,2.95-1.09,1.73-.44,3.36-1.17,5.1-1.62,1.37-.36,2.71-.88,4.08-1.25,1.3-.34,2.61-.63,3.93-.88,.58-.11,.9-.68,1.49-.75,.41-.05,.79-.47,1.22-.08Zm-25.84,12.83c.29,.18,.5,.2,.73,.11,.81-.32,1.68-.44,2.51-.71,4.21-1.36,8.42-2.73,12.61-4.14,2.79-.94,5.56-1.97,8.33-2.96,.78-.28,1.56-.55,2.35-.81,.41-.14,.6-.34,.44-.81-.18-.53-.5-.38-.87-.29-1.92,.51-3.65,1.53-5.55,2.11-1.68,.51-3.35,1.03-5.01,1.62-4.27,1.5-8.58,2.88-12.83,4.45-.87,.32-1.74,.66-2.6,.99-.13,.05-.31,.08-.28,.26,.02,.09,.16,.16,.17,.17Zm-1.85-2.27c.24,.13,.48,.06,.7-.04,1.78-.84,3.73-1.19,5.54-1.94,.85-.35,1.75-.62,2.61-.95,1.85-.7,3.68-1.46,5.54-2.12,1.35-.48,2.73-.84,4.1-1.26,1.98-.61,3.97-1.22,5.94-1.85,.94-.3,1.88-.64,2.81-.96,.13-.04,.32-.07,.28-.25-.04-.19-.22-.12-.36-.1-1.79,.31-3.56,.7-5.32,1.14-1.61,.4-3.2,.85-4.77,1.36-1.82,.6-3.7,1.06-5.48,1.77-1.88,.75-3.81,1.32-5.7,2.03-1.99,.76-3.92,1.65-5.89,2.46-.14,.06-.35,.03-.32,.28,.03,.19,.13,.34,.3,.42Zm2.27,3.82c.18,.11,.42,.04,.65-.05,.45-.18,.89-.41,1.35-.53,2.66-.67,5.25-1.6,7.88-2.36,3.07-.89,6.05-2.04,9.16-2.8,1.94-.47,3.81-1.22,5.65-1.99,.69-.29,1.38-.56,2.09-.81,.3-.1,.63-.1,.47-.57-.14-.42-.34-.58-.81-.42-.84,.29-1.65,.66-2.49,.95-2.35,.81-4.69,1.64-7.03,2.46-5.59,1.94-11.2,3.83-16.88,5.5-.13,.04-.3,.01-.32,.21-.02,.18,.08,.31,.29,.41Zm25.86-12.03c.04-.1,.04-.21-.05-.32-.19-.23-.41-.13-.61-.04-1.01,.46-2.07,.82-3.12,1.15-1.91,.6-3.84,1.13-5.76,1.68-2.8,.79-5.5,1.89-8.21,2.94-2.98,1.15-5.99,2.18-9,3.24-.3,.11-.4,.21-.28,.51,.11,.28,.25,.36,.55,.23,.71-.3,1.39-.64,2.13-.86,.72-.21,1.43-.43,2.13-.68,1.54-.55,3.06-1.14,4.6-1.67,1.34-.46,2.69-.88,4.03-1.32,2.58-.85,5.13-1.81,7.77-2.49,.37-.1,.74-.22,1.08-.39,1.33-.68,2.73-1.2,4.16-1.62,.22-.06,.41-.16,.58-.36Zm-26.75,12.52c-.38-.35-.37-.77-.31-1.2,.03-.2-.09-.34-.19-.49-.48-.74-.8-1.6-1.67-2.03-.06-.03-.12-.12-.15-.19-.18-.44-.41-.39-.73-.13-.77,.62-1.51,1.27-2.29,1.88-.57,.44-.76,.93-.81,1.58-.02,.32,.1,.45,.4,.45,.46,0,.93,0,1.39,0,1.45,.04,2.89,.09,4.34,.13Z"/>
      <path class="cls-1" d="M162.1,24.67c-1.9,.83-4.72,1.98-8.23,3.11-4.36,1.41-6.46,1.73-11.01,3.16-2.12,.67-5.08,1.67-8.57,3.11-2.9-.11-5.81-.22-8.71-.34,1.72-1.61,3.45-3.22,5.17-4.84,3.96-1.66,8.21-3.29,12.73-4.84,5.64-1.93,11.03-3.5,16.09-4.79,.85,1.8,1.69,3.61,2.54,5.41Z"/>
    </g>
    <g>
      <g>
        <path class="cls-2" d="M194.69,98.83c-1.64-.05-3.07-.41-4.45-.99-.38-.16-.56-.12-.66,.31-.23,.96-.5,1.91-.77,2.86-.24,.84-.69,1.57-1.14,2.3-1.3,2.1-4.09,1.72-5.38,.41-.85-.86-1.2-1.97-1.61-3.05-.17-.44-.29-.45-.66-.28-1.3,.6-2.63,1.09-4.12,1.02-2.12-.1-3.35-1.44-3.68-3.45-.3-1.81,.44-3.33,1.38-4.76,.82-1.24,1.74-2.41,2.85-3.41,.45-.41,.27-.67-.12-.83-1.34-.54-2.34-1.55-3.28-2.56-1.33-1.42-2.36-3.04-2.35-5.13,0-1.47,1.11-2.77,2.69-2.84,1.71-.07,3.2,.54,4.71,1.14,.62,.24,1.22,.53,1.81,.84,.33,.17,.47,.11,.62-.23,.61-1.35,1.29-2.66,2.15-3.88,.93-1.31,2.07-2.33,3.71-2.45,.63-.05,1.38,.13,1.96,.57,.96,.72,1.56,1.7,1.91,2.82,.26,.82,.53,1.63,.62,2.49,.05,.46,.17,.65,.72,.48,2-.62,4-1.28,6.07-1.66,.95-.17,1.9-.29,2.85,.06,1.07,.39,1.34,1.01,1.14,2.13-.22,1.23-.36,2.48-1.07,3.54-1.43,2.13-3,4.14-5.03,5.74-.45,.35-.32,.52,0,.81,1.15,.98,2.22,2.02,2.87,3.43,.78,1.69,.28,3.69-1.92,4.23-.64,.16-1.27,.42-1.82,.33Zm-3.61-12.84s.06,0,.08,0c0,.17,.02,.35,0,.52-.08,.69,.17,1.16,.79,1.53,.74,.44,1.43,.96,2.1,1.5,.44,.35,.75,.31,1.17-.04,1.51-1.27,2.77-2.76,3.92-4.34,.78-1.07,1.4-2.2,1.57-3.56,.15-1.23-.78-2.55-1.82-2.42-2.48,.3-4.9,.88-7.24,1.78-.47,.18-.6,.44-.59,.92,.03,1.37,0,2.75,0,4.13Zm-11.46,2.89c.04,1.45-.19,1.16,.88,1.89,1.76,1.19,3.53,2.38,5.3,3.56,1.58,1.05,1.66,1.03,3.12,.11,.45-.29,.63-.63,.62-1.17-.05-1.64,.18-3.26,.35-4.88,.07-.69-.11-1.03-.68-1.32-1.49-.77-2.99-1.53-4.39-2.45-.24-.16-.43-.12-.65,.03-1.18,.82-2.46,1.48-3.57,2.42-.66,.56-1.17,1.06-.96,1.82Zm-5.59-9.63c-2.47-.05-2.84,1.4-2.38,3.21,.4,1.58,1.34,2.85,2.54,3.96,.91,.84,1.98,1.44,2.97,2.16,.13,.09,.29,.21,.4,.09,.56-.61,1.45-.94,1.52-1.97,.11-1.65,.35-3.29,.85-4.88,.11-.35-.03-.51-.32-.66-.85-.46-1.72-.89-2.63-1.22-.97-.35-1.93-.76-2.95-.68Zm-1,17.98c-.01,2.33,1.43,3.43,3.24,3.44,1.17,0,2.28-.35,3.36-.82,.52-.22,.61-.48,.45-.99-.31-.98-.64-1.96-.73-3-.15-1.54-.3-3.08-.45-4.62-.04-.39-.95-1.31-1.32-1.33-.17-.01-.28,.09-.38,.2-1.4,1.44-2.68,2.97-3.59,4.77-.38,.74-.58,1.52-.57,2.35Zm17.15-16.93c.03-1.34-.72-3.57-1.53-4.6-.96-1.23-2.49-1.53-3.71-.58-1.82,1.42-3,3.33-3.88,5.45-.11,.27,0,.44,.24,.59,1.03,.67,2.05,1.34,3.07,2.02,.26,.17,.51,.19,.78,.02,1.44-.91,2.99-1.61,4.56-2.23,.31-.12,.51-.32,.48-.66Zm4.03,17.58c1.32,.06,2.15-.25,2.94-.62,.44-.21,.72-.63,.79-1.12,.09-.65,.01-1.28-.32-1.87-.68-1.22-1.72-2.13-2.71-3.09-.29-.28-.53-.14-.78,.08-.77,.66-1.49,1.39-2.33,1.93-1.08,.69-1.75,1.52-1.7,2.84,0,.02,0,.04-.01,.06-.15,.46,.02,.73,.47,.89,1.31,.48,2.64,.92,3.65,.9Zm-8.99,6.07c.56,.02,1.26-.3,1.77-.99,1.17-1.62,1.42-3.58,1.91-5.44,.06-.21-.08-.36-.25-.48-1.09-.79-1.39-.83-2.52-.09-1.43,.92-3.04,1.53-4.37,2.61-.25,.21-.49,.35-.33,.72,.32,.75,.57,1.54,1.04,2.22,.59,.85,1.36,1.43,2.75,1.46Zm-5.38-12.61c-.21,.04-.17,.18-.16,.3,.24,2.29,.36,4.59,1.12,6.8,.16,.46,.36,.5,.75,.27,1.34-.81,2.76-1.49,4.07-2.36,.89-.59,.89-.66-.02-1.25-1.76-1.16-3.52-2.32-5.28-3.48-.16-.11-.34-.19-.49-.28Zm10.19-4.77c.3-1.43,.24-2.87,.26-4.31,0-.67-.13-.73-.78-.47-1.21,.48-2.46,.88-3.54,1.66-.6,.43-.66,.45-.03,.83,1.03,.62,2.07,1.22,3.11,1.82,.31,.18,.58,.44,.99,.47Zm-10.28,.14c1.32-.89,2.53-1.69,3.73-2.5,.31-.21,.15-.38-.05-.55-.71-.59-1.44-1.16-2.2-1.67-.37-.25-.61-.22-.74,.26-.38,1.41-.61,2.84-.73,4.46Zm10.76,6.52c1.21-.82,2.22-1.68,3.24-2.52,.3-.25,.15-.44-.09-.61-.67-.47-1.34-.93-2-1.42-.45-.33-.59-.15-.58,.32,.06,1.39-.33,2.71-.57,4.23Zm-1.23,2.34c-.02-.16,.09-.42-.18-.38-.31,.04-.68,.17-.76,.48-.05,.2,.3,.34,.52,.39,.4,.09,.34-.28,.42-.48Zm-10.35-6.94c-.34,.23-.68,.27-.62,.64,.03,.17,.25,.31,.39,.24,.32-.15,.13-.47,.22-.88Z"/>
        <path class="cls-2" d="M187.16,89.24c-.02,1.39-1.1,2-2.27,1.34-.72-.41-1.14-1.04-1.25-1.86-.09-.68,.23-1.29,.8-1.55,.62-.28,1.6-.1,2.1,.42,.45,.48,.67,1.05,.62,1.65Zm-1.99-1.38c-.22,0-.43,.07-.53,.29-.21,.43-.14,.83,.14,1.2,.3,.4,.66,.68,1.19,.62,.18-.02,.3-.14,.38-.31,.35-.72-.37-1.82-1.17-1.8Z"/>
      </g>
      <path class="cls-1" d="M198.19,96.79c-.79,1.57-4.65,2.24-8.9,0,.03,.94-.06,2.68-1.01,4.5-.54,1.04-1.59,3.06-3.21,3.21-1.66,.16-3.63-1.67-4.4-4.6-3.3,1.15-6.57,1.09-7.71-.43-1.42-1.89-.02-6.64,4.98-10.24-1.37-.52-3.46-1.56-5.03-3.69-.51-.69-2.66-3.6-1.6-5.47,.26-.45,.61-.69,.78-.8,2.6-1.7,8,1.58,8.62,1.96,.15-.91,.54-2.54,1.77-4.12,.48-.62,2.44-3.13,4.47-2.84,1.94,.28,3.74,3.12,3.58,6.96,4.96-2.33,9.42-2.99,10.48-1.48,1.14,1.61-1.27,6.16-6.51,10.63,2.96,2.15,4.4,5,3.69,6.41Z"/>
    </g>
    <g>
      <g>
        <path class="cls-2" d="M143.81,158.35c2.13-.33,4.46-.11,6.77-.27,1.39-.1,2.76,0,4.13,.03,.66,.02,.84-.23,.73-.92-.44-2.57-.16-5.04,.8-7.48,1.27-3.26,3.81-4.91,6.99-5.85,1.97-.58,3.78-.02,5.58,.72,2.65,1.1,3.82,3.22,4.33,5.92,.21,1.1,.06,2.2,.32,3.3,.14,.6,.06,1.36,.08,2.04,0,.31-.17,.56-.41,.52-.71-.09-1.36,.8-2.02,.21-.34-.3-.32-.9-.41-1.39-.25-1.4-.29-2.86-1.08-4.11-.82-1.31-1.64-2.62-3.1-3.33-3.04-1.47-5.5-.02-6.59,2.8-.7,1.8-1.11,3.65-1.14,5.6,0,.61,.51,1.09,.25,1.76-.1,.27,.37,.32,.63,.31,1.56-.01,1.56-.02,2.06,1.39,.29,.81,.28,1.64,.23,2.49-.13,2.24-.32,4.48,.02,6.72,.07,.46,.02,.94,0,1.42-.04,1.1,.31,2.17,.21,3.27,0,.07-.03,.17,0,.22,.67,.95-.35,.78-.66,.89-.94,.33-1.96,.29-2.93,.36-2.7,.19-5.4,.44-8.12,.43-2.18,0-4.36,.04-6.53,.22-.7,.06-1.44,0-2.15,.32-.22,.1-.61-.5-.83-.88-.35-.62-.2-1.31-.32-1.96-.31-1.66-.49-3.36-.59-5.06-.1-1.72,0-3.45-.03-5.18-.01-.88-.15-1.76-.16-2.64-.01-1.16,.1-1.57,1.48-1.73,.77-.09,1.52-.24,2.48-.14Zm17.09,12.85c0-.49,0-.94,0-1.39,.04-2.64-.12-5.29,.17-7.92,.06-.54-.07-.79-.72-.79-3.53,0-7.06,.15-10.59,.13-2.76-.02-5.52,.19-8.28,.39-.69,.05-.81,.25-.78,.85,.06,1.54,.07,3.09,.14,4.63,.08,1.69,.25,3.37,.45,5.04,.06,.52,.29,.77,.89,.7,1.83-.19,3.67-.22,5.5-.36,2.91-.21,5.8-.48,8.69-.86,1.5-.2,2.99-.49,4.52-.43Zm11.71-17.44c-.09-1.19-.19-2.53-.45-3.85-.3-1.49-1.01-2.79-2.21-3.71-1.81-1.39-3.86-2.02-6.17-1.53-2.87,.6-5.1,2.02-6.46,4.7-1.27,2.5-1.36,5.15-1.13,7.85,.01,.12,.05,.25,.1,.36,.28,.63,.88,.52,1.37,.48,.56-.05,.22-.52,.2-.78-.24-2.54,.18-4.97,1.19-7.29,1.68-3.84,5.32-4.94,8.71-2.58,1.71,1.19,2.76,2.99,3.46,4.96,.04,.11,.03,.25,.05,.37,.13,.81,.26,1.62,.39,2.43,.03,.2,.1,.42,.33,.45,.27,.04,.4-.17,.49-.38,.19-.43,.07-.89,.12-1.48Zm-19.96,20.84c2.98-.08,4.95-.45,6.94-.47,.39,0,.77-.18,1.18-.16,.15,0,.32-.03,.33-.23,0-.5,0-1-.04-1.49-.01-.22-.19-.25-.39-.23-2.77,.3-5.53,.61-8.3,.88-2.05,.2-4.11,.42-6.17,.48-1.3,.03-2.57,.3-3.87,.25-.62-.02-.75,.4-.66,.91,.09,.51,.51,.39,.84,.39,3.71,.02,7.42-.2,10.14-.32Zm3.43-14.23c1.41-.07,2.79,.11,4.15-.16,.62-.12,.7-.41,.31-.91-.2-.25-.46-.26-.74-.26-.72-.01-1.46,.06-2.17-.06-2.01-.36-4.03-.14-6.04-.21-1.71-.06-3.45-.02-5.16,.1-1.69,.12-3.39,.04-5.06,.41-.84,.19-.89,.31-.68,1.12,.17,.67,.74,.43,1.1,.42,2.44-.1,4.88-.37,7.31-.37,2.34,0,4.68-.13,6.98-.08Z"/>
        <path class="cls-2" d="M150.35,163.6c1.47,0,2.23,1.51,1.24,2.79-.92,1.19-.77,2.33-.42,3.57,.08,.3,.15,.59-.14,.82-.2,.16-.41,.29-.68,.16-.32-.15-.37-.42-.39-.74-.06-.89-.27-1.77-.19-2.68,.03-.4-.21-.62-.51-.84-.66-.48-.95-1.27-.73-1.89,.24-.66,1.06-1.2,1.83-1.2Z"/>
      </g>
      <path class="cls-1" d="M161.38,174.45c-6.62,.26-13.24,.52-19.87,.78-.52-2.14-.98-4.68-1.2-7.56-.26-3.35-.12-6.31,.14-8.76,5.2-.21,10.4-.41,15.61-.62-.24-.84-.5-2.1-.43-3.64,.17-3.63,2.18-8.07,6.18-9.77,.63-.27,2.64-1.09,5.12-.53,.4,.09,3.53,.85,5.03,3.59,.68,1.24,.77,2.44,.96,4.84,.1,1.34,.08,2.45,.05,3.21-.61,.12-1.22,.24-1.83,.36,.06-.52,.46-4.65-2.6-7.49-.31-.29-2.78-2.58-5.25-2.05-2.99,.63-5.51,5.31-4.64,11.48l2.14,.58c.1,.38,.27,1.05,.42,1.9,.59,3.28,.24,5.32,.17,10.4-.01,.72-.02,1.86,0,3.29Z"/>
    </g>
    <g>
      <g>
        <path class="cls-2" d="M308.15,60.06c21.81,.12,43.52-1.95,65.27-2.72,5.51-.2,11.03-.33,16.45,1,2.28,.56,4.65,1.46,4.18,4.32-.43,2.59-2.76,3.52-5.16,3.4-5-.24-9.99-1.19-14.96-1.04-22.51,.68-45.02,1.53-67.53,2.55-8,.36-15.94-1.62-23.97-.1-2.72,.52-6.05,.13-6.09-3.7-.03-3.85,2.99-4.92,6.29-4.81,8.51,.29,17.01,.73,25.51,1.1Z"/>
        <g>
          <path class="cls-2" d="M317.61,189.86c-3.79-2.15-2.5-4.35-.89-6.44,3.3-4.27,2.98-8.64,1.58-13.66-.95-3.4-2.83-4.25-5.48-4.44-3.32-.24-6.74-.41-10.02,.07-17.48,2.55-35.05,2.81-52.65,2.47-4.8-.1-9.88-1.37-13.26-4.54-3.47-3.26-4.41-8.46-4.95-13.3-1.47-13.19-2.35-26.48-4.49-39.56-.82-5.01-.81-9.91-1.15-14.86-1.23-18.12-3.25-36.24-3.36-54.38-.05-7.98-1.43-16.76,3.5-24.36,2.99-4.61,6.85-6.97,12.42-6.95,11.44,.04,22.88,.51,34.33,.12,21.43-.74,42.81-2.24,64.23-3.16,19.95-.86,39.86-2.89,59.82-4.15,12.61-.8,25.19-.51,37.77-1.15,2.97-.15,5.67-1.53,8.79-1.56,3.76-.04,5.43,1.82,5.65,4.84,1.01,13.93,4.33,27.51,5.89,41.37,1.23,10.89,2.69,21.77,2.91,32.7,.15,7.46,1.8,14.81,1.07,22.33-1.12,11.54,2.49,22.87,1.76,34.47-.63,9.98-8.19,19.35-18.02,21.05-8.89,1.54-17.86,2.23-26.85,3.02-15.6,1.38-31.16,3.27-46.82,4.23-4.4,.27-5.97,3.2-4.8,7.51,.96,3.51-.22,7.27,1.54,10.82,.77,1.55,1.1,2.62,2.98,2.47,7.75-.6,15.58-.33,23.17-2.49,1.58-.45,3.31-.48,4.98-.5,2.49-.04,5.42,.55,4.93,3.52-.45,2.7-3.27,4.21-6.18,4.34-7.05,.3-14.29-.43-21.11,.94-5.23,1.05-10.62,1.57-15.71,1.91-14.47,.97-28.88,2.81-43.38,3.62-10.07,.56-20.33,.84-30.41,2.36-1.66,.25-4.61,1.64-4.95-2.2-.32-3.51,2.15-2.76,4.2-3.31,7.11-1.9,14.33-.97,21.49-1.15,3.72-.09,7.19-.73,11.45-1.99Zm135.29-83.7c.65-10.86-1.13-25.58-1.82-40.33-.54-11.48-2.47-22.91-4.12-34.31-1.02-7.1-2.6-14.12-4.04-21.16-.64-3.11-2.48-4.06-5.86-3.94-13.09,.47-26.13,1.71-39.25,1.58-10.74-.1-21.58-.33-32.22,.89-22.87,2.61-45.85,3.48-68.78,4.86-18.72,1.13-37.55,.26-56.19,3.29-8.04,1.31-11.52,4.69-11.63,12.89-.06,4.71-.12,9.41-.05,14.12,.25,16.77,3.15,33.39,2.86,50.19,0,.5,.14,1,.21,1.49,1.33,9.92,2.52,19.85,4.03,29.74,1.49,9.73,2.03,19.62,4.85,29.15,.9,3.06,2.42,4.97,5.58,5.73,9.07,2.19,18.25,3,27.5,1.71,11.33-1.58,22.8-1.95,34.12-1.85,20.14,.19,40.26-.64,60.34-1.23,18.35-.53,36.59-4.16,55.05-4.86,5.8-.22,11.67-1.43,17.27-3.02,7.05-2,12.68-6.02,12.27-14.35-.44-8.87-.1-17.78-.1-30.62Zm-131.53,83.57c6.46-1.13,11.65-.58,16.8-.92,5.81-.38,11.6-1.19,17.4-1.79,3.49-.36,4.54-2.21,3.64-5.51-1.1-4.02-1.86-8.06-1.44-12.3,.27-2.74-1.57-3.78-4.15-3.83-8.05-.15-16.07,.05-24.05,1.24-1.93,.29-3.45,1.05-3.26,3.04,.69,6.89-1.23,13.18-4.95,20.07Z"/>
          <path class="cls-2" d="M286.6,136.23c19.24-.6,37.39-.79,55.49-1.81,24.92-1.4,49.8-3.38,74.7-5.22,3.99-.29,7.87-1.79,11.97-1.33,2.33,.26,4.77,.96,4.66,3.56-.12,2.56-2.79,1.78-4.49,1.84-14.9,.51-29.66,2.55-44.47,4-2.83,.28-5.71,.08-8.56,.15-22.46,.56-44.83,2.7-67.31,3.26-15.01,.37-30.13,1.18-45.05,3.55-2.01,.32-3.92-.06-4.06-2.53-.15-2.75,1.8-3.64,4.2-4.04,7.97-1.34,15.97-1.95,22.93-1.42Z"/>
          <path class="cls-2" d="M266.56,36.25c21.27-.84,42.5-2.42,63.77-3.26,19.34-.76,38.56-4.09,58.05-3.91,6.82,.06,13.67-1.32,20.57-1.14,2.36,.06,4.71-.01,6.94,.9,1.14,.47,3.04,.39,2.64,2.32-.37,1.79-1.99,2.34-3.56,1.9-6.78-1.92-13.74-1.35-20.51-.79-17.01,1.42-34.08,1.32-51.08,3.4-9.9,1.21-20.06,2.06-30.09,1.69-18-.67-35.68,3.4-53.63,2.98-1.17-.03-2.36,.11-3.52-.01-1.57-.16-4.19,.57-4.26-1.45-.1-2.56,2.57-2.59,4.61-2.61,3.36-.03,6.72,0,10.08,0Z"/>
          <path class="cls-2" d="M343.91,154.28c-2.48-.11-4.7-.71-4.36-3.25,.35-2.65,2.77-3.61,5.26-3.6,2.11,.01,3.55,1.33,3.43,3.46-.16,2.75-2.29,3.34-4.32,3.39Z"/>
          <path class="cls-2" d="M333.46,25.02c-2.25-.06-4.13-.5-3.89-2.99,.21-2.15,1.47-3.78,3.85-3.83,2.21-.05,4.22,1.06,4.33,3.26,.14,2.74-2.44,3.08-4.29,3.56Z"/>
        </g>
        <path class="cls-2" d="M308.15,83.05c21.81,.04,43.52-.73,65.27-1.02,5.51-.07,11.03-.13,16.45,.38,2.28,.21,4.65,.55,4.18,1.62-.43,.97-2.76,1.32-5.16,1.28-5-.09-9.99-.45-14.96-.39-22.51,.25-45.02,.58-67.53,.96-8,.14-15.94-.61-23.97-.04-2.72,.19-6.05,.05-6.09-1.39-.03-1.45,2.99-1.85,6.29-1.81,8.51,.11,17.01,.27,25.51,.42Z"/>
        <path class="cls-2" d="M308.15,97.22c21.81,.04,43.52-.73,65.27-1.02,5.51-.07,11.03-.13,16.45,.38,2.28,.21,4.65,.55,4.18,1.62-.43,.97-2.76,1.32-5.16,1.28-5-.09-9.99-.45-14.96-.39-22.51,.25-45.02,.58-67.53,.96-8,.14-15.94-.61-23.97-.04-2.72,.19-6.05,.05-6.09-1.39-.03-1.45,2.99-1.85,6.29-1.81,8.51,.11,17.01,.27,25.51,.42Z"/>
        <path class="cls-2" d="M308.15,109.97c21.81,.04,43.52-.73,65.27-1.02,5.51-.07,11.03-.13,16.45,.38,2.28,.21,4.65,.55,4.18,1.62-.43,.97-2.76,1.32-5.16,1.28-5-.09-9.99-.45-14.96-.39-22.51,.25-45.02,.58-67.53,.96-8,.14-15.94-.61-23.97-.04-2.72,.19-6.05,.05-6.09-1.39-.03-1.45,2.99-1.85,6.29-1.81,8.51,.11,17.01,.27,25.51,.42Z"/>
      </g>
      <path class="cls-1" d="M452.4,151.33c-34.04,6.2-73.22,11.17-116.73,12.95-35.52,1.45-68.22,.53-97.52-1.67-4.2-24.84-6.84-46.04-8.56-62.44-3.01-28.74-3.14-42.24-2.92-51.79,.29-13.06,1.34-23.95,2.3-31.74,33.66-2.84,68.2-5.3,103.58-7.28,38.75-2.18,76.56-3.69,113.38-4.62,4.64,21.43,8.57,47.42,9.61,77.05,.92,26.23-.64,49.66-3.13,69.54Z"/>
    </g>
  </g>
</svg>