<?xml version="1.0" encoding="UTF-8"?>
<svg id="Ebene_2" data-name="Ebene 2" xmlns="http://www.w3.org/2000/svg" viewBox="0 0 102.36 109.48">
  <defs>
    <style>
      .cls-1 {
        opacity: .3;
      }

      .cls-1, .cls-2 {
        fill: #fe6847;
      }
    </style>
  </defs>
  <g id="Ebene_1-2" data-name="Ebene 1">
    <g>
      <path class="cls-2" d="M79.43,0c7.69,.17,13.8,2.07,18.53,7.23,2.55,2.79,2.8,6.46,3.41,9.93,.44,2.51-.51,5.16,.83,7.63,.62,1.14-.76,2.01-.75,3.31,.06,5.65-.74,11.07-4.14,15.96-3.35,4.82-7.8,5.36-12.88,3.37-6.05-2.38-9.61-6.97-11.7-12.91-1.09-3.11-4.02-5.3-7.36-5.45-5.76-.25-9.29-5.67-7.4-11.22,2.38-6.99,6.9-12.22,13.33-15.66,2.71-1.45,5.83-2.18,8.12-2.2Zm19.91,25.44c.36-2.94-.08-5.94-.54-8.91-.75-4.92-2.91-8.98-7.39-11.67-5.77-3.47-11.87-2.71-17.69-1.01-6.63,1.94-10.42,7.3-12.94,13.48-2.05,5.03,.77,9.1,6.14,8.96,1.35-.03,2.41,.28,3.51,1.08,2.06,1.51,3.36,3.4,4.35,5.79,2.47,5.99,5.97,11.1,12.97,12.49,2.25,.45,4.28,.08,5.97-1.53,2.31-2.2,3.84-4.87,4.57-7.97,.83-3.49,1.36-7.02,1.05-10.73Z"/>
      <path class="cls-2" d="M5.26,109.48c-1.31-.39-1.2-1.16-.62-1.99,.84-1.19,2.14-1.85,3.23-2.76,8.81-7.43,17.62-14.85,26.42-22.3,4.89-4.15,9.37-8.74,13.96-13.21,.89-.87,1.84-1.72,3.16-1.86,.45-.05,1.02-.18,1.26,.36,.21,.47,.04,.91-.43,1.23-6.51,4.4-11.6,10.42-17.79,15.26-8.07,6.31-16.19,12.67-23.48,19.94-1.65,1.64-4.03,2.58-4.91,5-.07,.19-.54,.22-.81,.32Z"/>
      <path class="cls-2" d="M82.07,55.74c-.07,.86-.67,1.06-1.08,1.39-5.28,4.13-9.82,9.07-14.86,13.47-3.74,3.26-7.03,7.05-10.65,10.46-6.65,6.24-13.4,12.37-20.09,18.57-.54,.5-.99,.82-1.57,.12-.63-.76,.04-1.23,.49-1.56,3.21-2.33,5.91-5.22,8.92-7.77,4.36-3.69,8.47-7.64,12.6-11.58,6.38-6.08,12.26-12.66,18.78-18.59,1.86-1.7,3.64-3.45,5.74-4.85,.75-.51,1.46-.63,1.73,.36Z"/>
      <path class="cls-2" d="M53.76,28.88c-.02,.7-.62,.75-.98,1.01-3.57,2.6-7.11,5.25-10.62,7.92-3.65,2.77-7.22,5.68-10.91,8.4-3.49,2.57-7.1,4.98-10.52,7.64-4.3,3.34-8.46,6.87-12.67,10.32-.49,.4-.91,.89-1.4,1.29-.35,.28-.8,.25-1.08-.06-.37-.41,.03-.73,.31-.97,1.76-1.46,3.5-2.94,5.31-4.34,7.66-5.97,15.33-11.92,23-17.87,4.86-3.76,9.93-7.26,14.36-11.57,.95-.92,2.18-1.57,3.33-2.26,.75-.45,1.51-.48,1.89,.49Z"/>
      <path class="cls-2" d="M.85,89.02c-.2-.12-.43-.2-.56-.36-.34-.41-.41-.94-.07-1.31,.7-.76,1.4-1.55,2.24-2.12,5.58-3.79,10.48-8.43,15.78-12.57,5.75-4.5,10.78-9.84,16.79-14.06,1.4-.98,2.66-2.19,4.21-2.95,.59-.29,1.39-.98,1.87-.35,.53,.71-.33,1.27-.89,1.68-1.84,1.36-3.76,2.62-5.55,4.06-9.02,7.24-18,14.53-27,21.8-2.2,1.78-4.63,3.29-6.24,5.71-.12,.18-.36,.29-.59,.47Z"/>
      <path class="cls-2" d="M55.13,58.45c1.67-3.3,4.25-5.11,6.7-6.91,2.93-2.15,5.67-4.51,8.53-6.74,.73-.57,1.56-1.65,2.36-.54,.67,.94-.63,1.47-1.24,1.94-3.41,2.68-6.78,5.42-10.37,7.84-1.94,1.3-3.4,3.22-5.97,4.41Z"/>
      <path class="cls-2" d="M48.08,47.51c.41-2.33,1.83-3.29,2.83-4.35,3.16-3.31,6.84-6.04,10.64-8.59,.59-.39,1.47-1.16,2.04-.18,.49,.84-.52,1.14-1.08,1.53-4.91,3.43-9.61,7.14-14.44,11.59Z"/>
      <path class="cls-2" d="M89.32,29.14c3-.08,5.7,2.64,5.79,5.83,.1,3.71-2.56,7.11-5.61,7.17-3.57,.06-5.55-2.41-5.77-7.19-.12-2.74,2.76-5.74,5.59-5.81Zm3.27,6.45c.03-2.02-1.23-3.76-2.8-3.84-1.6-.08-4.1,1.9-4.2,3.32-.13,1.9,1.82,4.4,3.5,4.49,1.96,.1,3.47-1.61,3.5-3.97Z"/>
      <path class="cls-2" d="M82.05,8.9c-.41,1.39-.82,2.97-2.5,3.32-1.24,.26-1.98-.92-1.89-1.91,.14-1.55,1.18-2.77,2.76-3.09,1.03-.21,1.48,.65,1.62,1.68Z"/>
      <path class="cls-2" d="M89.95,18.08c1.1,.04,2.08,.34,1.88,1.6-.23,1.46-1.25,2.43-2.74,2.52-1.17,.07-1.65-.89-1.62-1.91,.04-1.58,1.12-2.12,2.48-2.21Z"/>
      <path class="cls-2" d="M75.88,24.69c.09-1.59,1.05-2.54,2.61-2.74,.93-.12,1.49,.57,1.32,1.5-.27,1.51-.81,3.03-2.54,3.28-1.32,.19-1.33-1.01-1.39-2.04Z"/>
      <path class="cls-2" d="M67.73,18.72c-.21,.74-.66,1.25-1.46,1.27-.57,.01-.79-.43-.78-.95,.01-.72,.4-1.21,1.11-1.26,.59-.04,1.04,.28,1.12,.95Z"/>
      <path class="cls-1" d="M79.36,.09c7.69,.17,13.8,2.07,18.53,7.23,2.55,2.79,2.8,6.46,3.41,9.93,.44,2.51-.51,5.16,.83,7.63,.62,1.14-.76,2.01-.75,3.31,.06,5.65-.74,11.07-4.14,15.96-3.35,4.82-7.8,5.36-12.88,3.37-6.05-2.38-9.61-6.97-11.7-12.91-1.09-3.11-4.02-5.3-7.36-5.45-5.76-.25-9.29-5.67-7.4-11.22,2.38-6.99,6.9-12.22,13.33-15.66,2.71-1.45,5.83-2.18,8.12-2.2Z"/>
    </g>
  </g>
</svg>