<?xml version="1.0" encoding="UTF-8"?>
<svg id="Ebene_2" data-name="Ebene 2" xmlns="http://www.w3.org/2000/svg" viewBox="0 0 735.39 336.17">
  <defs>
    <style>
      .cls-1 {
        font-family: CeraPro-Bold, 'Cera Pro';
        font-size: 130px;
        font-weight: 700;
      }

      .cls-1, .cls-2 {
        stroke: #fe6847;
        stroke-linecap: round;
        stroke-linejoin: round;
      }

      .cls-1, .cls-3 {
        fill: #fe6847;
      }

      .cls-2 {
        fill: none;
        stroke-width: 4px;
      }
    </style>
  </defs>
  <g id="Ebene_1-2" data-name="Ebene 1">
    <g>
      <g>
        <path class="cls-3" d="M398.89,74c-2.8,0-5.44-1.09-7.42-3.08-4.09-4.09-4.09-10.76,0-14.85,1.98-1.98,4.62-3.08,7.42-3.08s5.44,1.09,7.42,3.08c4.09,4.09,4.09,10.76,0,14.85-1.98,1.98-4.62,3.08-7.42,3.08Z"/>
        <path class="cls-3" d="M398.89,55c2.27,0,4.4,.88,6.01,2.49,3.31,3.31,3.31,8.71,0,12.02-1.61,1.61-3.74,2.49-6.01,2.49s-4.4-.88-6.01-2.49c-3.31-3.31-3.31-8.71,0-12.02,1.61-1.61,3.74-2.49,6.01-2.49m0-4c-3.2,0-6.4,1.22-8.84,3.66-4.88,4.88-4.88,12.8,0,17.68,2.44,2.44,5.64,3.66,8.84,3.66s6.4-1.22,8.84-3.66c4.88-4.88,4.88-12.8,0-17.68-2.44-2.44-5.64-3.66-8.84-3.66h0Z"/>
      </g>
      <g>
        <line class="cls-2" x1="421.26" y1="41.38" x2="442.47" y2="20.17"/>
        <line class="cls-3" x1="421.26" y1="41.38" x2="442.47" y2="20.17"/>
      </g>
      <g>
        <line class="cls-2" x1="421.97" y1="85.8" x2="443.18" y2="107.01"/>
        <line class="cls-3" x1="421.97" y1="85.8" x2="443.18" y2="107.01"/>
      </g>
      <g>
        <line class="cls-2" x1="375.96" y1="40.09" x2="354.75" y2="18.88"/>
        <line class="cls-3" x1="375.96" y1="40.09" x2="354.75" y2="18.88"/>
      </g>
      <line class="cls-2" x1="398.89" y1="32" x2="398.89" y2="2"/>
      <line class="cls-2" x1="461.39" y1="63.5" x2="431.39" y2="63.5"/>
      <g>
        <rect class="cls-3" x="254.41" y="125.23" width="166" height="2" transform="translate(9.57 275.56) rotate(-45)"/>
        <polygon class="cls-3" points="395.39 64 275.19 184.21 279.43 188.45 399.64 68.24 395.39 64 395.39 64"/>
      </g>
    </g>
    <text class="cls-1" transform="translate(.5 303.69)"><tspan x="0" y="0">Seomotions</tspan></text>
  </g>
</svg>