<?xml version="1.0" encoding="UTF-8"?>
<svg id="Ebene_2" data-name="Ebene 2" xmlns="http://www.w3.org/2000/svg" viewBox="0 0 99.85 111.37">
  <defs>
    <style>
      .cls-1 {
        opacity: .3;
      }

      .cls-1, .cls-2 {
        fill: #fe6847;
      }
    </style>
  </defs>
  <g id="Ebene_1-2" data-name="Ebene 1">
    <g>
      <g>
        <path class="cls-2" d="M63.43,0c8.35,.29,16.27,2.59,22.74,7.73,6.64,5.27,11.42,12.23,12.65,21.02,.17,1.23,1.04,2.13,1.04,3.52-.04,8.17-3.52,15.01-7.88,21.57-2.8,4.21-6.04,8.11-10.32,10.73-5.9,3.62-12.37,5.18-19.47,4.16-5.48-.79-10.56-2.45-15.43-4.93-1.09-.55-1.43-.12-2.05,.71-6.29,8.41-11.42,17.63-18.45,25.52-3.79,4.25-7.03,8.98-10.57,13.46-2.7,3.41-6,6.07-10.11,7.63-2.74,1.04-5.2-1.17-5.5-4.71-.41-4.74,1.44-8.83,3.52-12.83,2.35-4.51,5.65-8.34,9.13-12,5.12-5.39,9.98-11.04,15.48-16.06,2.58-2.36,5.12-4.78,7.86-6.94,1.35-1.06,1.4-1.73,.69-3.23-1.92-4.05-4.72-7.66-5.8-12.15-1.18-4.9-.74-9.66,.04-14.56,1.1-6.95,4.46-12.77,8.97-17.74C44.62,5.74,50.72,2.43,57.59,.67c1.95-.5,3.86-.66,5.84-.67Zm33.12,32.25c.13-3.28-1.57-8.07-3.82-12.68-3.46-7.08-8.94-12.02-16.52-14.18-5.29-1.51-10.66-2-16.34-1.46-10.29,.98-17.16,6.49-21.15,15.2-3.52,7.69-4.04,16.08-2.74,24.7,1.28,8.54,5.6,14.26,13.06,17.98,1.56,.78,3.21,1.4,4.86,1.99,7.36,2.64,14.79,3.65,22.39,.91,5-1.81,8.58-5.41,11.8-9.4,4.95-6.14,8.37-12.94,8.47-23.05ZM2.8,104.69c-.02,4.19,.91,4.74,4.58,2.71,1.19-.66,2.21-1.52,3.23-2.42,4.34-3.83,7.17-8.9,10.94-13.19,7.58-8.63,13.72-18.28,19.99-27.85,.58-.88,1.79-1.84,.28-3.06-1.3-1.05-2.47-2.01-4.13-.54-3.15,2.79-6.39,5.48-9.55,8.25-3.28,2.88-5.96,6.36-8.98,9.48-4.6,4.75-9.13,9.5-12.35,15.3-1.95,3.52-4.11,7.04-4,11.32Z"/>
        <path class="cls-2" d="M45.71,31.54c1.15-12.24,7.63-19.88,20.56-20.91,.32-.02,.64-.03,.95,.02,1.17,.19,2.87,.29,2.84,1.61-.04,1.71-1.84,1.08-2.88,1.07-7.03-.09-12.51,2.79-16.14,8.75-1.78,2.92-1.95,6.52-3.01,9.76-.27,.82,.05,2.26-1.37,2.04-1.24-.19-.84-1.5-.95-2.34Z"/>
      </g>
      <path class="cls-1" d="M3.16,110.04c-.51-3.45-1.02-6.89-1.53-10.34,1.38-2.72,3.56-6.63,6.77-10.98,2.15-2.92,5.12-6.03,10.98-12.13,9.1-9.48,12.94-12.86,16.09-15.45,1.74-1.42,3.21-2.56,4.21-3.32-1.7-2.37-3.94-6.06-5.49-10.98-.6-1.9-2.93-9.82-1.28-18.13,2.36-11.87,13.11-25.69,29.11-27.19,17.04-1.6,28.21,11.9,29.11,13.02,2.13,2.97,6.04,9.32,6.53,18.01,.7,12.62-6.07,26.09-17.5,31.65-8.44,4.11-17.19,2.83-21.7,2.17-5.71-.83-10.22-2.61-13.22-4.05-5.78,9.13-11.16,16.37-15.38,21.67-7.81,9.82-7.2,7.44-11.26,13.26-2.53,3.62-4.78,7.42-9.57,10.3-2.29,1.38-4.42,2.09-5.85,2.48Z"/>
    </g>
  </g>
</svg>