<?xml version="1.0" encoding="UTF-8"?>
<svg id="Ebene_2" data-name="Ebene 2" xmlns="http://www.w3.org/2000/svg" viewBox="0 0 462.72 192.24">
  <defs>
    <style>
      .cls-1, .cls-2 {
        fill: #fe6847;
      }

      .cls-2 {
        opacity: .3;
      }
    </style>
  </defs>
  <g id="Ebene_1-2" data-name="Ebene 1">
    <g>
      <g>
        <g>
          <path class="cls-2" d="M111.21,184.6c-12.01,.98-24.03,1.96-36.04,2.95-1.44-12.32-2.87-24.63-4.31-36.95-6.8,.15-13.6,.3-20.4,.45,.23,12.92,.45,25.84,.68,38.76-12.39-1.06-24.78-2.12-37.17-3.17,2.64-3.78,5.29-7.56,7.93-11.33-.68-11.48-1.36-22.97-2.04-34.45-2.92-.71-7.94-2.41-12.01-6.8-5.44-5.86-5.99-12.99-6.35-18.81-.26-4.27-1.39-22.63,11.94-38.88,10.81-13.17,24.75-17.18,29.69-18.36-13.46-14.05-16.23-32.65-8.44-44.13,4.14-6.1,11.63-10.73,19.84-11.29,15.18-1.04,24.49,12.37,25.61,14.05,6.18,9.22,5.54,18.92,5.21,21.99-3.35,5.93-6.7,11.86-10.04,17.79,5.96,2.83,19.31,10.16,29.47,25.61,11.35,17.28,11.96,34.42,11.86,40.92-5.29,4.53-10.58,9.07-15.87,13.6,.38,11.79,.76,23.57,1.13,35.36,3.1,4.23,6.2,8.46,9.29,12.69Z"/>
          <g>
            <path class="cls-1" d="M53.14,164.16c.35,3.94-.12,7.8-.59,11.71-.42,3.51,1.73,7.21,3.41,10.63,1.3,2.65,.02,4.89-2.93,4.72-9.15-.51-18.21,2.13-27.42,.46-4.09-.74-8.13-2.19-12.48-1.54-1.56,.24-1.87-1.89-2.59-3.03-.84-1.33,.52-1.49,1.28-2.05,2.81-2.09,4.8-5.18,8.1-6.71,.99-.46,.92-1.32,.98-2.42,.51-8.72-2.12-17.24-1.59-25.93,.14-2.28-1.06-2.08-2.66-1.78-3.73,.69-6.09-.52-6.14-4.72-.01-1.13-.14-2.36-1.06-3.13C1.68,133.98,1.19,124.91,.46,115.97c-.32-3.91-.23-7.85-.41-11.77-.57-12.71,3.49-23.18,13.66-31.42,6.39-5.18,13.66-8.84,20.32-13.51,2.82-1.98,3.81-3.08,1.26-6.43-6.44-8.46-8.05-18.32-6.49-28.74,.96-6.38,3.14-12.12,7.46-17.15,3.16-3.68,7.22-5.82,11.5-6.2,4.88-.44,11.38-.87,13.92-.5,3.26,.48,11.69,2,18.2,8.85,10.98,11.55,7.31,28.85,5.64,33.5-1.32,3.68-3.43,7.15-3.43,7.15-1.43,2.36-2.89,4.21-4.05,5.54,9.74,5.21,24.51,15.16,34.56,32.58,6.79,11.77,7.18,24.25,7.42,31.72,.16,5.06-2.95,8.89-7.03,11.39-3.13,1.93-3.07,4.33-2.57,7.18,.61,3.46-.92,6.15-4.22,6.36-2.49,.16-2.76,1.24-2.51,3.25,.7,5.75,1.16,11.53,.43,17.31-.68,5.33,3.53,8.34,5.74,12.26,1.2,2.13,2.65,4.24,4.94,5.68,1.88,1.18,2.3,2.47-.5,3.85-5.98,2.95-12.41,1.9-18.61,2.63-6.29,.74-12.68,.11-18.98,1.04-2.84,.42-3.82-1.29-3.86-3.72-.2-10.18-2.72-20.18-2.36-30.39,.09-2.48-.87-2.87-2.9-2.35-3.6,.92-7.3,1.27-10.93,.66-2.82-.47-3.61,.56-3.54,3.08,.06,2.11,.01,4.23,.01,6.35ZM6.12,105.81c-.06,0-.11,0-.17,0,0,1.41-.05,2.83,0,4.24,.32,7.52,1.4,14.9,4.2,21.95,1.17,2.94,3.65,4.31,6.39,3.75,2.34-.47,.98-3.11,1.21-4.79,.12-.83-.02-1.69-.09-2.54-.8-10.85-2.42-21.64-2.16-32.55,.04-1.58-.52-3.9,1.98-3.93,2.35-.02,2.14,2.25,2.26,3.87,1.38,18.32,2.67,36.65,4.1,54.96,.5,6.34,1.31,12.65,2.02,18.97,.17,1.54,.33,3.47,2.62,2.92,5.27-1.28,10.38-.15,15.54,.66,2.58,.4,4.08-.69,4.13-3.44,.06-3.39-.06-6.8,.26-10.17,.35-3.68,.86-7.16-3.56-8.95-.77-.31-1.19-1.53-1.72-2.36-.68-1.08-1.53-2.32-.37-3.45,1.3-1.27,2.64-.49,3.75,.5,1.98,1.77,4.25,2.7,6.91,2.81,8.24,.34,16.12-1.29,23.8-4.11,.78-.29,1.6-1.01,2.34-.34,1.06,.95-.03,1.82-.47,2.58-1.61,2.75-4.4,4.9-4.05,8.6,.44,4.64,.79,9.3,1.18,13.95,.22,2.59,1.6,3.78,4.21,3.6,3.52-.24,7.06-.34,10.58-.66,6.7-.63,7.8-1.73,7.87-8.38,.18-16.39-2.43-32.6-3.46-48.91-.54-8.59-.93-17.19-1.39-25.79-.09-1.64,.06-3.19,1.99-3.72,1.07-.29,1.97,.09,2.54,1.05,.77,1.29,.44,2.75,.53,4.15,.79,11.56,1.67,23.11,2.36,34.68,.21,3.64,1.86,4.23,5,3.36,5.78-1.6,7.44-4.8,7.08-12.5-.58-12.66-4.93-23.9-11.68-34.48-2.97-4.65-6.5-8.55-11.21-11.32-4.77-2.8-9.52-5.57-13.2-9.82-1.12-1.29-2.38-2.02-4.04-.84-9.41,6.67-19.23,5.06-29.05,1.23-2.09-.81-3.56-.83-5.37,.67-4.34,3.61-8.96,6.79-13.8,9.78-9.46,5.83-17.63,13.02-19.01,25.07-.37,3.2-.06,6.48-.06,9.73ZM83.07,33.18c-1.41-17.35-9.75-26.98-26.14-27.32-11.78-.24-19.51,3.29-22.69,17.46-1.17,5.23-.56,10.35,.72,15.48,3.23,13.02,13.06,20.36,25.63,19.03,12.3-1.3,22.32-12.28,22.49-24.66ZM34.37,187.1c4.17,.32,8.49-.57,12.85-.85,2.27-.15,2.59-1.23,2.3-3.4-.59-4.33-4.2-3.09-6.54-3.71-7.88-2.07-15.82-3.76-22.06,3.99-1.54,1.91-1.11,2.52,1.03,2.93,4.03,.77,8.08,1.25,12.42,1.04Zm53.46-3.17c5.5,.03,10.98-.33,16.44-1.05,.91-.12,2.1,.1,2.38-1.23,.38-1.86-4.33-7.43-5.95-6.74-6.36,2.74-13.05,1.77-19.62,2.12-2.75,.15-3.56,1.64-3.5,4.18,.07,2.77,1.62,3.23,3.92,3.03,2.1-.18,4.22-.22,6.33-.31Z"/>
            <path class="cls-1" d="M68.6,44.05c-7.52,5.1-21.43,1.98-25.3-5.69-.75-1.48-2.03-3.35-.2-4.5,1.44-.9,3.16,.08,4.44,1.46,6.02,6.5,11.96,7.5,19.6,3.41,.75-.4,1.46-.87,2.24-1.2,1.59-.67,3.6-2.48,4.84-.56,1.08,1.67-.96,3.32-2.2,4.59-.97,.99-2.26,1.67-3.41,2.48Z"/>
          </g>
        </g>
        <circle class="cls-1" cx="65.89" cy="24.41" r="3.76"/>
        <circle class="cls-1" cx="52.06" cy="24.39" r="3.76"/>
      </g>
      <g>
        <g>
          <path class="cls-2" d="M226.01,184.5c-12.01,.98-24.03,1.96-36.04,2.95-1.44-12.32-2.87-24.63-4.31-36.95-6.8,.15-13.6,.3-20.4,.45,.23,12.92,.45,25.84,.68,38.76-12.39-1.06-24.78-2.12-37.17-3.17,2.64-3.78,5.29-7.56,7.93-11.33-.68-11.48-1.36-22.97-2.04-34.45-2.92-.71-7.94-2.41-12.01-6.8-5.44-5.86-5.99-12.99-6.35-18.81-.26-4.27-1.39-22.63,11.94-38.88,10.81-13.17,24.75-17.18,29.69-18.36-13.46-14.05-16.23-32.65-8.44-44.13,4.14-6.1,11.63-10.73,19.84-11.29,15.18-1.04,24.49,12.37,25.61,14.05,6.18,9.22,5.54,18.92,5.21,21.99-3.35,5.93-6.7,11.86-10.04,17.79,5.96,2.83,19.31,10.16,29.47,25.61,11.35,17.28,11.96,34.42,11.86,40.92-5.29,4.53-10.58,9.07-15.87,13.6,.38,11.79,.76,23.57,1.13,35.36,3.1,4.23,6.2,8.46,9.29,12.69Z"/>
          <g>
            <path class="cls-1" d="M167.94,164.06c.35,3.94-.12,7.8-.59,11.71-.42,3.51,1.73,7.21,3.41,10.63,1.3,2.65,.02,4.89-2.93,4.72-9.15-.51-18.21,2.13-27.42,.46-4.09-.74-8.13-2.19-12.48-1.54-1.56,.24-1.87-1.89-2.59-3.03-.84-1.33,.52-1.49,1.28-2.05,2.81-2.09,4.8-5.18,8.1-6.71,.99-.46,.92-1.32,.98-2.42,.51-8.72-2.12-17.24-1.59-25.93,.14-2.28-1.06-2.08-2.66-1.78-3.73,.69-6.09-.52-6.14-4.72-.01-1.13-.14-2.36-1.06-3.13-7.76-6.39-8.26-15.46-8.98-24.4-.32-3.91-.23-7.85-.41-11.77-.57-12.71,3.49-23.18,13.66-31.42,6.39-5.18,13.66-8.84,20.32-13.51,2.82-1.98,3.81-3.08,1.26-6.43-6.44-8.46-8.05-18.32-6.49-28.74,.96-6.38,3.14-12.12,7.46-17.15,3.16-3.68,7.22-5.82,11.5-6.2,4.88-.44,11.38-.87,13.92-.5,3.26,.48,11.69,2,18.2,8.85,10.98,11.55,7.31,28.85,5.64,33.5-1.32,3.68-3.43,7.15-3.43,7.15-1.43,2.36-2.89,4.21-4.05,5.54,9.74,5.21,24.51,15.16,34.56,32.58,6.79,11.77,7.18,24.25,7.42,31.72,.16,5.06-2.95,8.89-7.03,11.39-3.13,1.93-3.07,4.33-2.57,7.18,.61,3.46-.92,6.15-4.22,6.36-2.49,.16-2.76,1.24-2.51,3.25,.7,5.75,1.16,11.53,.43,17.31-.68,5.33,3.53,8.34,5.74,12.26,1.2,2.13,2.65,4.24,4.94,5.68,1.88,1.18,2.3,2.47-.5,3.85-5.98,2.95-12.41,1.9-18.61,2.63-6.29,.74-12.68,.11-18.98,1.04-2.84,.42-3.82-1.29-3.86-3.72-.2-10.18-2.72-20.18-2.36-30.39,.09-2.48-.87-2.87-2.9-2.35-3.6,.92-7.3,1.27-10.93,.66-2.82-.47-3.61,.56-3.54,3.08,.06,2.11,.01,4.23,.01,6.35Zm-47.02-58.35c-.06,0-.11,0-.17,0,0,1.41-.05,2.83,0,4.24,.32,7.52,1.4,14.9,4.2,21.95,1.17,2.94,3.65,4.31,6.39,3.75,2.34-.47,.98-3.11,1.21-4.79,.12-.83-.02-1.69-.09-2.54-.8-10.85-2.42-21.64-2.16-32.55,.04-1.58-.52-3.9,1.98-3.93,2.35-.02,2.14,2.25,2.26,3.87,1.38,18.32,2.67,36.65,4.1,54.96,.5,6.34,1.31,12.65,2.02,18.97,.17,1.54,.33,3.47,2.62,2.92,5.27-1.28,10.38-.15,15.54,.66,2.58,.4,4.08-.69,4.13-3.44,.06-3.39-.06-6.8,.26-10.17,.35-3.68,.86-7.16-3.56-8.95-.77-.31-1.19-1.53-1.72-2.36-.68-1.08-1.53-2.32-.37-3.45,1.3-1.27,2.64-.49,3.75,.5,1.98,1.77,4.25,2.7,6.91,2.81,8.24,.34,16.12-1.29,23.8-4.11,.78-.29,1.6-1.01,2.34-.34,1.06,.95-.03,1.82-.47,2.58-1.61,2.75-4.4,4.9-4.05,8.6,.44,4.64,.79,9.3,1.18,13.95,.22,2.59,1.6,3.78,4.21,3.6,3.52-.24,7.06-.34,10.58-.66,6.7-.63,7.8-1.73,7.87-8.38,.18-16.39-2.43-32.6-3.46-48.91-.54-8.59-.93-17.19-1.39-25.79-.09-1.64,.06-3.19,1.99-3.72,1.07-.29,1.97,.09,2.54,1.05,.77,1.29,.44,2.75,.53,4.15,.79,11.56,1.67,23.11,2.36,34.68,.21,3.64,1.86,4.23,5,3.36,5.78-1.6,7.44-4.8,7.08-12.5-.58-12.66-4.93-23.9-11.68-34.48-2.97-4.65-6.5-8.55-11.21-11.32-4.77-2.8-9.52-5.57-13.2-9.82-1.12-1.29-2.38-2.02-4.04-.84-9.41,6.67-19.23,5.06-29.05,1.23-2.09-.81-3.56-.83-5.37,.67-4.34,3.61-8.96,6.79-13.8,9.78-9.46,5.83-17.63,13.02-19.01,25.07-.37,3.2-.06,6.48-.06,9.73ZM197.86,33.08c-1.41-17.35-9.75-26.98-26.14-27.32-11.78-.24-19.51,3.29-22.69,17.46-1.17,5.23-.56,10.35,.72,15.48,3.23,13.02,13.06,20.36,25.63,19.03,12.3-1.3,22.32-12.28,22.49-24.66Zm-48.7,153.92c4.17,.32,8.49-.57,12.85-.85,2.27-.15,2.59-1.23,2.3-3.4-.59-4.33-4.2-3.09-6.54-3.71-7.88-2.07-15.82-3.76-22.06,3.99-1.54,1.91-1.11,2.52,1.03,2.93,4.03,.77,8.08,1.25,12.42,1.04Zm53.46-3.17c5.5,.03,10.98-.33,16.44-1.05,.91-.12,2.1,.1,2.38-1.23,.38-1.86-4.33-7.43-5.95-6.74-6.36,2.74-13.05,1.77-19.62,2.12-2.75,.15-3.56,1.64-3.5,4.18,.07,2.77,1.62,3.23,3.92,3.03,2.1-.18,4.22-.22,6.33-.31Z"/>
            <path class="cls-1" d="M183.39,43.95c-7.52,5.1-21.43,1.98-25.3-5.69-.75-1.48-2.03-3.35-.2-4.5,1.44-.9,3.16,.08,4.44,1.46,6.02,6.5,11.96,7.5,19.6,3.41,.75-.4,1.46-.87,2.24-1.2,1.59-.67,3.6-2.48,4.84-.56,1.08,1.67-.96,3.32-2.2,4.59-.97,.99-2.26,1.67-3.41,2.48Z"/>
          </g>
        </g>
        <circle class="cls-1" cx="180.69" cy="24.31" r="3.76"/>
        <circle class="cls-1" cx="166.86" cy="24.29" r="3.76"/>
      </g>
      <g>
        <g>
          <path class="cls-2" d="M340.72,184.5c-12.01,.98-24.03,1.96-36.04,2.95-1.44-12.32-2.87-24.63-4.31-36.95-6.8,.15-13.6,.3-20.4,.45,.23,12.92,.45,25.84,.68,38.76-12.39-1.06-24.78-2.12-37.17-3.17,2.64-3.78,5.29-7.56,7.93-11.33-.68-11.48-1.36-22.97-2.04-34.45-2.92-.71-7.94-2.41-12.01-6.8-5.44-5.86-5.99-12.99-6.35-18.81-.26-4.27-1.39-22.63,11.94-38.88,10.81-13.17,24.75-17.18,29.69-18.36-13.46-14.05-16.23-32.65-8.44-44.13,4.14-6.1,11.63-10.73,19.84-11.29,15.18-1.04,24.49,12.37,25.61,14.05,6.18,9.22,5.54,18.92,5.21,21.99-3.35,5.93-6.7,11.86-10.04,17.79,5.96,2.83,19.31,10.16,29.47,25.61,11.35,17.28,11.96,34.42,11.86,40.92-5.29,4.53-10.58,9.07-15.87,13.6,.38,11.79,.76,23.57,1.13,35.36,3.1,4.23,6.2,8.46,9.29,12.69Z"/>
          <g>
            <path class="cls-1" d="M282.65,164.06c.35,3.94-.12,7.8-.59,11.71-.42,3.51,1.73,7.21,3.41,10.63,1.3,2.65,.02,4.89-2.93,4.72-9.15-.51-18.21,2.13-27.42,.46-4.09-.74-8.13-2.19-12.48-1.54-1.56,.24-1.87-1.89-2.59-3.03-.84-1.33,.52-1.49,1.28-2.05,2.81-2.09,4.8-5.18,8.1-6.71,.99-.46,.92-1.32,.98-2.42,.51-8.72-2.12-17.24-1.59-25.93,.14-2.28-1.06-2.08-2.66-1.78-3.73,.69-6.09-.52-6.14-4.72-.01-1.13-.14-2.36-1.06-3.13-7.76-6.39-8.26-15.46-8.98-24.4-.32-3.91-.23-7.85-.41-11.77-.57-12.71,3.49-23.18,13.66-31.42,6.39-5.18,13.66-8.84,20.32-13.51,2.82-1.98,3.81-3.08,1.26-6.43-6.44-8.46-8.05-18.32-6.49-28.74,.96-6.38,3.14-12.12,7.46-17.15,3.16-3.68,7.22-5.82,11.5-6.2,4.88-.44,11.38-.87,13.92-.5,3.26,.48,11.69,2,18.2,8.85,10.98,11.55,7.31,28.85,5.64,33.5-1.32,3.68-3.43,7.15-3.43,7.15-1.43,2.36-2.89,4.21-4.05,5.54,9.74,5.21,24.51,15.16,34.56,32.58,6.79,11.77,7.18,24.25,7.42,31.72,.16,5.06-2.95,8.89-7.03,11.39-3.13,1.93-3.07,4.33-2.57,7.18,.61,3.46-.92,6.15-4.22,6.36-2.49,.16-2.76,1.24-2.51,3.25,.7,5.75,1.16,11.53,.43,17.31-.68,5.33,3.53,8.34,5.74,12.26,1.2,2.13,2.65,4.24,4.94,5.68,1.88,1.18,2.3,2.47-.5,3.85-5.98,2.95-12.41,1.9-18.61,2.63-6.29,.74-12.68,.11-18.98,1.04-2.84,.42-3.82-1.29-3.86-3.72-.2-10.18-2.72-20.18-2.36-30.39,.09-2.48-.87-2.87-2.9-2.35-3.6,.92-7.3,1.27-10.93,.66-2.82-.47-3.61,.56-3.54,3.08,.06,2.11,.01,4.23,.01,6.35Zm-47.02-58.35c-.06,0-.11,0-.17,0,0,1.41-.05,2.83,0,4.24,.32,7.52,1.4,14.9,4.2,21.95,1.17,2.94,3.65,4.31,6.39,3.75,2.34-.47,.98-3.11,1.21-4.79,.12-.83-.02-1.69-.09-2.54-.8-10.85-2.42-21.64-2.16-32.55,.04-1.58-.52-3.9,1.98-3.93,2.35-.02,2.14,2.25,2.26,3.87,1.38,18.32,2.67,36.65,4.1,54.96,.5,6.34,1.31,12.65,2.02,18.97,.17,1.54,.33,3.47,2.62,2.92,5.27-1.28,10.38-.15,15.54,.66,2.58,.4,4.08-.69,4.13-3.44,.06-3.39-.06-6.8,.26-10.17,.35-3.68,.86-7.16-3.56-8.95-.77-.31-1.19-1.53-1.72-2.36-.68-1.08-1.53-2.32-.37-3.45,1.3-1.27,2.64-.49,3.75,.5,1.98,1.77,4.25,2.7,6.91,2.81,8.24,.34,16.12-1.29,23.8-4.11,.78-.29,1.6-1.01,2.34-.34,1.06,.95-.03,1.82-.47,2.58-1.61,2.75-4.4,4.9-4.05,8.6,.44,4.64,.79,9.3,1.18,13.95,.22,2.59,1.6,3.78,4.21,3.6,3.52-.24,7.06-.34,10.58-.66,6.7-.63,7.8-1.73,7.87-8.38,.18-16.39-2.43-32.6-3.46-48.91-.54-8.59-.93-17.19-1.39-25.79-.09-1.64,.06-3.19,1.99-3.72,1.07-.29,1.97,.09,2.54,1.05,.77,1.29,.44,2.75,.53,4.15,.79,11.56,1.67,23.11,2.36,34.68,.21,3.64,1.86,4.23,5,3.36,5.78-1.6,7.44-4.8,7.08-12.5-.58-12.66-4.93-23.9-11.68-34.48-2.97-4.65-6.5-8.55-11.21-11.32-4.77-2.8-9.52-5.57-13.2-9.82-1.12-1.29-2.38-2.02-4.04-.84-9.41,6.67-19.23,5.06-29.05,1.23-2.09-.81-3.56-.83-5.37,.67-4.34,3.61-8.96,6.79-13.8,9.78-9.46,5.83-17.63,13.02-19.01,25.07-.37,3.2-.06,6.48-.06,9.73Zm76.94-72.63c-1.41-17.35-9.75-26.98-26.14-27.32-11.78-.24-19.51,3.29-22.69,17.46-1.17,5.23-.56,10.35,.72,15.48,3.23,13.02,13.06,20.36,25.63,19.03,12.3-1.3,22.32-12.28,22.49-24.66Zm-48.7,153.92c4.17,.32,8.49-.57,12.85-.85,2.27-.15,2.59-1.23,2.3-3.4-.59-4.33-4.2-3.09-6.54-3.71-7.88-2.07-15.82-3.76-22.06,3.99-1.54,1.91-1.11,2.52,1.03,2.93,4.03,.77,8.08,1.25,12.42,1.04Zm53.46-3.17c5.5,.03,10.98-.33,16.44-1.05,.91-.12,2.1,.1,2.38-1.23,.38-1.86-4.33-7.43-5.95-6.74-6.36,2.74-13.05,1.77-19.62,2.12-2.75,.15-3.56,1.64-3.5,4.18,.07,2.77,1.62,3.23,3.92,3.03,2.1-.18,4.22-.22,6.33-.31Z"/>
            <path class="cls-1" d="M298.1,43.95c-7.52,5.1-21.43,1.98-25.3-5.69-.75-1.48-2.03-3.35-.2-4.5,1.44-.9,3.16,.08,4.44,1.46,6.02,6.5,11.96,7.5,19.6,3.41,.75-.4,1.46-.87,2.24-1.2,1.59-.67,3.6-2.48,4.84-.56,1.08,1.67-.96,3.32-2.2,4.59-.97,.99-2.26,1.67-3.41,2.48Z"/>
          </g>
        </g>
        <circle class="cls-1" cx="295.4" cy="24.31" r="3.76"/>
        <circle class="cls-1" cx="281.57" cy="24.29" r="3.76"/>
      </g>
      <g>
        <g>
          <path class="cls-2" d="M453.9,184.5c-12.01,.98-24.03,1.96-36.04,2.95-1.44-12.32-2.87-24.63-4.31-36.95-6.8,.15-13.6,.3-20.4,.45,.23,12.92,.45,25.84,.68,38.76-12.39-1.06-24.78-2.12-37.17-3.17,2.64-3.78,5.29-7.56,7.93-11.33-.68-11.48-1.36-22.97-2.04-34.45-2.92-.71-7.94-2.41-12.01-6.8-5.44-5.86-5.99-12.99-6.35-18.81-.26-4.27-1.39-22.63,11.94-38.88,10.81-13.17,24.75-17.18,29.69-18.36-13.46-14.05-16.23-32.65-8.44-44.13,4.14-6.1,11.63-10.73,19.84-11.29,15.18-1.04,24.49,12.37,25.61,14.05,6.18,9.22,5.54,18.92,5.21,21.99-3.35,5.93-6.7,11.86-10.04,17.79,5.96,2.83,19.31,10.16,29.47,25.61,11.35,17.28,11.96,34.42,11.86,40.92-5.29,4.53-10.58,9.07-15.87,13.6,.38,11.79,.76,23.57,1.13,35.36,3.1,4.23,6.2,8.46,9.29,12.69Z"/>
          <g>
            <path class="cls-1" d="M395.83,164.06c.35,3.94-.12,7.8-.59,11.71-.42,3.51,1.73,7.21,3.41,10.63,1.3,2.65,.02,4.89-2.93,4.72-9.15-.51-18.21,2.13-27.42,.46-4.09-.74-8.13-2.19-12.48-1.54-1.56,.24-1.87-1.89-2.59-3.03-.84-1.33,.52-1.49,1.28-2.05,2.81-2.09,4.8-5.18,8.1-6.71,.99-.46,.92-1.32,.98-2.42,.51-8.72-2.12-17.24-1.59-25.93,.14-2.28-1.06-2.08-2.66-1.78-3.73,.69-6.09-.52-6.14-4.72-.01-1.13-.14-2.36-1.06-3.13-7.76-6.39-8.26-15.46-8.98-24.4-.32-3.91-.23-7.85-.41-11.77-.57-12.71,3.49-23.18,13.66-31.42,6.39-5.18,13.66-8.84,20.32-13.51,2.82-1.98,3.81-3.08,1.26-6.43-6.44-8.46-8.05-18.32-6.49-28.74,.96-6.38,3.14-12.12,7.46-17.15,3.16-3.68,7.22-5.82,11.5-6.2,4.88-.44,11.38-.87,13.92-.5,3.26,.48,11.69,2,18.2,8.85,10.98,11.55,7.31,28.85,5.64,33.5-1.32,3.68-3.43,7.15-3.43,7.15-1.43,2.36-2.89,4.21-4.05,5.54,9.74,5.21,24.51,15.16,34.56,32.58,6.79,11.77,7.18,24.25,7.42,31.72,.16,5.06-2.95,8.89-7.03,11.39-3.13,1.93-3.07,4.33-2.57,7.18,.61,3.46-.92,6.15-4.22,6.36-2.49,.16-2.76,1.24-2.51,3.25,.7,5.75,1.16,11.53,.43,17.31-.68,5.33,3.53,8.34,5.74,12.26,1.2,2.13,2.65,4.24,4.94,5.68,1.88,1.18,2.3,2.47-.5,3.85-5.98,2.95-12.41,1.9-18.61,2.63-6.29,.74-12.68,.11-18.98,1.04-2.84,.42-3.82-1.29-3.86-3.72-.2-10.18-2.72-20.18-2.36-30.39,.09-2.48-.87-2.87-2.9-2.35-3.6,.92-7.3,1.27-10.93,.66-2.82-.47-3.61,.56-3.54,3.08,.06,2.11,.01,4.23,.01,6.35Zm-47.02-58.35c-.06,0-.11,0-.17,0,0,1.41-.05,2.83,0,4.24,.32,7.52,1.4,14.9,4.2,21.95,1.17,2.94,3.65,4.31,6.39,3.75,2.34-.47,.98-3.11,1.21-4.79,.12-.83-.02-1.69-.09-2.54-.8-10.85-2.42-21.64-2.16-32.55,.04-1.58-.52-3.9,1.98-3.93,2.35-.02,2.14,2.25,2.26,3.87,1.38,18.32,2.67,36.65,4.1,54.96,.5,6.34,1.31,12.65,2.02,18.97,.17,1.54,.33,3.47,2.62,2.92,5.27-1.28,10.38-.15,15.54,.66,2.58,.4,4.08-.69,4.13-3.44,.06-3.39-.06-6.8,.26-10.17,.35-3.68,.86-7.16-3.56-8.95-.77-.31-1.19-1.53-1.72-2.36-.68-1.08-1.53-2.32-.37-3.45,1.3-1.27,2.64-.49,3.75,.5,1.98,1.77,4.25,2.7,6.91,2.81,8.24,.34,16.12-1.29,23.8-4.11,.78-.29,1.6-1.01,2.34-.34,1.06,.95-.03,1.82-.47,2.58-1.61,2.75-4.4,4.9-4.05,8.6,.44,4.64,.79,9.3,1.18,13.95,.22,2.59,1.6,3.78,4.21,3.6,3.52-.24,7.06-.34,10.58-.66,6.7-.63,7.8-1.73,7.87-8.38,.18-16.39-2.43-32.6-3.46-48.91-.54-8.59-.93-17.19-1.39-25.79-.09-1.64,.06-3.19,1.99-3.72,1.07-.29,1.97,.09,2.54,1.05,.77,1.29,.44,2.75,.53,4.15,.79,11.56,1.67,23.11,2.36,34.68,.21,3.64,1.86,4.23,5,3.36,5.78-1.6,7.44-4.8,7.08-12.5-.58-12.66-4.93-23.9-11.68-34.48-2.97-4.65-6.5-8.55-11.21-11.32-4.77-2.8-9.52-5.57-13.2-9.82-1.12-1.29-2.38-2.02-4.04-.84-9.41,6.67-19.23,5.06-29.05,1.23-2.09-.81-3.56-.83-5.37,.67-4.34,3.61-8.96,6.79-13.8,9.78-9.46,5.83-17.63,13.02-19.01,25.07-.37,3.2-.06,6.48-.06,9.73Zm76.94-72.63c-1.41-17.35-9.75-26.98-26.14-27.32-11.78-.24-19.51,3.29-22.69,17.46-1.17,5.23-.56,10.35,.72,15.48,3.23,13.02,13.06,20.36,25.63,19.03,12.3-1.3,22.32-12.28,22.49-24.66Zm-48.7,153.92c4.17,.32,8.49-.57,12.85-.85,2.27-.15,2.59-1.23,2.3-3.4-.59-4.33-4.2-3.09-6.54-3.71-7.88-2.07-15.82-3.76-22.06,3.99-1.54,1.91-1.11,2.52,1.03,2.93,4.03,.77,8.08,1.25,12.42,1.04Zm53.46-3.17c5.5,.03,10.98-.33,16.44-1.05,.91-.12,2.1,.1,2.38-1.23,.38-1.86-4.33-7.43-5.95-6.74-6.36,2.74-13.05,1.77-19.62,2.12-2.75,.15-3.56,1.64-3.5,4.18,.07,2.77,1.62,3.23,3.92,3.03,2.1-.18,4.22-.22,6.33-.31Z"/>
            <path class="cls-1" d="M411.28,43.95c-7.52,5.1-21.43,1.98-25.3-5.69-.75-1.48-2.03-3.35-.2-4.5,1.44-.9,3.16,.08,4.44,1.46,6.02,6.5,11.96,7.5,19.6,3.41,.75-.4,1.46-.87,2.24-1.2,1.59-.67,3.6-2.48,4.84-.56,1.08,1.67-.96,3.32-2.2,4.59-.97,.99-2.26,1.67-3.41,2.48Z"/>
          </g>
        </g>
        <circle class="cls-1" cx="408.58" cy="24.31" r="3.76"/>
        <circle class="cls-1" cx="394.75" cy="24.29" r="3.76"/>
      </g>
    </g>
  </g>
</svg>