<?xml version="1.0" encoding="UTF-8"?>
<svg id="Ebene_2" data-name="Ebene 2" xmlns="http://www.w3.org/2000/svg" viewBox="0 0 33.8 54.11">
  <defs>
    <style>
      .cls-1 {
        opacity: .3;
      }

      .cls-1, .cls-2 {
        fill: #fe6847;
      }
    </style>
  </defs>
  <g id="Ebene_1-2" data-name="Ebene 1">
    <g>
      <g>
        <path class="cls-2" d="M14.97,46.2c.1,1.11-.04,2.2-.17,3.3-.12,.99,.49,2.03,.96,2.99,.37,.75,0,1.38-.83,1.33-2.58-.14-5.13,.6-7.72,.13-1.15-.21-2.29-.62-3.52-.43-.44,.07-.53-.53-.73-.85-.24-.38,.15-.42,.36-.58,.79-.59,1.35-1.46,2.28-1.89,.28-.13,.26-.37,.28-.68,.14-2.46-.6-4.85-.45-7.3,.04-.64-.3-.58-.75-.5-1.05,.19-1.72-.15-1.73-1.33,0-.32-.04-.67-.3-.88-2.19-1.8-2.32-4.35-2.53-6.87-.09-1.1-.07-2.21-.12-3.31-.16-3.58,.98-6.53,3.85-8.85,1.8-1.46,3.85-2.49,5.72-3.81,.8-.56,1.07-.87,.35-1.81-1.81-2.38-2.27-5.16-1.83-8.09,.27-1.8,.89-3.41,2.1-4.83,.89-1.04,2.03-1.64,3.24-1.75,1.37-.12,3.21-.24,3.92-.14,.92,.13,3.29,.56,5.13,2.49,3.09,3.25,2.06,8.12,1.59,9.43-.37,1.04-.97,2.01-.97,2.01-.4,.66-.81,1.18-1.14,1.56,2.74,1.47,6.9,4.27,9.73,9.17,1.91,3.32,2.02,6.83,2.09,8.93,.04,1.43-.83,2.5-1.98,3.21-.88,.54-.86,1.22-.72,2.02,.17,.97-.26,1.73-1.19,1.79-.7,.04-.78,.35-.71,.92,.2,1.62,.33,3.25,.12,4.87-.19,1.5,.99,2.35,1.62,3.45,.34,.6,.75,1.19,1.39,1.6,.53,.33,.65,.7-.14,1.08-1.69,.83-3.49,.53-5.24,.74-1.77,.21-3.57,.03-5.34,.29-.8,.12-1.07-.36-1.09-1.05-.06-2.87-.77-5.68-.66-8.56,.02-.7-.24-.81-.82-.66-1.01,.26-2.05,.36-3.08,.19-.79-.13-1.02,.16-1,.87,.02,.6,0,1.19,0,1.79ZM1.72,29.77s-.03,0-.05,0c0,.4-.01,.8,0,1.19,.09,2.12,.39,4.19,1.18,6.18,.33,.83,1.03,1.21,1.8,1.06,.66-.13,.28-.88,.34-1.35,.03-.23,0-.48-.02-.72-.22-3.05-.68-6.09-.61-9.17,.01-.44-.15-1.1,.56-1.11,.66,0,.6,.63,.64,1.09,.39,5.16,.75,10.32,1.15,15.48,.14,1.78,.37,3.56,.57,5.34,.05,.43,.09,.98,.74,.82,1.48-.36,2.92-.04,4.38,.19,.73,.11,1.15-.19,1.16-.97,.02-.95-.02-1.92,.07-2.86,.1-1.04,.24-2.02-1-2.52-.22-.09-.34-.43-.48-.66-.19-.3-.43-.65-.1-.97,.37-.36,.74-.14,1.06,.14,.56,.5,1.2,.76,1.95,.79,2.32,.09,4.54-.36,6.7-1.16,.22-.08,.45-.28,.66-.09,.3,.27,0,.51-.13,.73-.45,.77-1.24,1.38-1.14,2.42,.12,1.31,.22,2.62,.33,3.93,.06,.73,.45,1.07,1.19,1.02,.99-.07,1.99-.09,2.98-.19,1.89-.18,2.2-.49,2.22-2.36,.05-4.62-.68-9.18-.97-13.77-.15-2.42-.26-4.84-.39-7.26-.02-.46,.02-.9,.56-1.05,.3-.08,.55,.03,.71,.29,.22,.36,.12,.77,.15,1.17,.22,3.26,.47,6.51,.66,9.77,.06,1.02,.53,1.19,1.41,.95,1.63-.45,2.09-1.35,1.99-3.52-.16-3.56-1.39-6.73-3.29-9.71-.84-1.31-1.83-2.41-3.16-3.19-1.34-.79-2.68-1.57-3.72-2.77-.31-.36-.67-.57-1.14-.24-2.65,1.88-5.41,1.42-8.18,.35-.59-.23-1-.23-1.51,.19-1.22,1.02-2.52,1.91-3.89,2.75-2.66,1.64-4.97,3.67-5.35,7.06-.1,.9-.02,1.83-.02,2.74ZM23.39,9.32c-.4-4.89-2.75-7.6-7.36-7.69-3.32-.07-5.49,.93-6.39,4.92-.33,1.47-.16,2.91,.2,4.36,.91,3.67,3.68,5.73,7.22,5.36,3.46-.37,6.28-3.46,6.33-6.94ZM9.68,52.66c1.17,.09,2.39-.16,3.62-.24,.64-.04,.73-.35,.65-.96-.17-1.22-1.18-.87-1.84-1.04-2.22-.58-4.45-1.06-6.21,1.12-.43,.54-.31,.71,.29,.83,1.14,.22,2.28,.35,3.5,.29Zm15.05-.89c1.55,0,3.09-.09,4.63-.3,.26-.03,.59,.03,.67-.35,.11-.52-1.22-2.09-1.67-1.9-1.79,.77-3.68,.5-5.53,.6-.77,.04-1,.46-.98,1.18,.02,.78,.46,.91,1.1,.85,.59-.05,1.19-.06,1.78-.09Z"/>
        <path class="cls-2" d="M10.6,8.38c-.21-2.55,2.47-5.53,4.89-5.43,.47,.02,1.1-.04,1.13,.57,.02,.48-.46,.76-.97,.89-2.43,.58-3.49,1.9-3.54,4.34,0,.24,.01,.48-.01,.71-.06,.48,.11,1.22-.53,1.27-.56,.04-.68-.69-.82-1.17-.11-.37-.1-.78-.14-1.18Z"/>
      </g>
      <path class="cls-1" d="M31.32,51.96c-3.38,.28-6.77,.55-10.15,.83-.4-3.47-.81-6.94-1.21-10.4-1.91,.04-3.83,.09-5.74,.13,.06,3.64,.13,7.28,.19,10.91-3.49-.3-6.98-.6-10.47-.89,.74-1.06,1.49-2.13,2.23-3.19-.19-3.23-.38-6.47-.57-9.7-.82-.2-2.24-.68-3.38-1.91-1.53-1.65-1.69-3.66-1.79-5.3-.07-1.2-.39-6.37,3.36-10.95,3.04-3.71,6.97-4.84,8.36-5.17-3.79-3.96-4.57-9.19-2.38-12.43,1.17-1.72,3.27-3.02,5.59-3.18,4.27-.29,6.9,3.48,7.21,3.96,1.74,2.6,1.56,5.33,1.47,6.19l-2.83,5.01c1.68,.8,5.44,2.86,8.3,7.21,3.2,4.86,3.37,9.69,3.34,11.52-1.49,1.28-2.98,2.55-4.47,3.83,.11,3.32,.21,6.64,.32,9.96,.87,1.19,1.74,2.38,2.62,3.57Z"/>
    </g>
  </g>
</svg>