<?xml version="1.0" encoding="UTF-8"?>
<svg id="Ebene_2" data-name="Ebene 2" xmlns="http://www.w3.org/2000/svg" viewBox="0 0 26.1 24.58">
  <defs>
    <style>
      .cls-1 {
        fill: #fe6847;
      }
    </style>
  </defs>
  <g id="Ebene_1-2" data-name="Ebene 1">
    <path class="cls-1" d="M20.26,9.42c.22,.21,.33,.31,.46,.4,.99,.68,1.98,.22,4,.49,.65,.08,.98,.13,1.1,.24,1.38,1.26-2.59,7.7-6.69,11.88-1.34,1.37-2.44,2.23-3.74,2.15-.98-.06-1.58-.63-3.59-2.82,0,0-4.43-4.83-6.27-9.19-.13-.31-.35-.9-.1-1.34,.26-.44,.87-.54,1.15-.57,3.07-.42,5.59,.41,6.81-.78,.45-.43,.77-1.19,.8-1.93,.03-.55-.11-.97-.21-1.17-2.09-4-6.32-4.73-9.89-1.71-1.03,.87-2.17,1.88-3.39,.79-.36-.32-.56-.66-.65-1.01-.27-1.11,.71-2.32,.97-2.63C3.37-.58,11.81-1.07,15.41,2.73c1.51,1.59,2.25,2.87,2.25,2.87,.66,1.13,1.22,2.48,2.61,3.82Z"/>
  </g>
</svg>