<?xml version="1.0" encoding="UTF-8"?>
<svg id="Ebene_2" data-name="Ebene 2" xmlns="http://www.w3.org/2000/svg" viewBox="0 0 456.4 207.78">
  <defs>
    <style>
      .cls-1 {
        opacity: .3;
      }

      .cls-1, .cls-2 {
        fill: #fe6847;
      }
    </style>
  </defs>
  <g id="Ebene_1-2" data-name="Ebene 1">
    <g>
      <g>
        <path class="cls-2" d="M.17,78.49c-.28-2.59-.32-5.12,.69-7.62,1.92-4.78,5.79-6.92,10.46-7.95,1.59-.35,2.38-.47,1.63-2.55-1.63-4.52-.32-7.87,3.9-10.22,3.1-1.73,6.29-3.23,8.57-6.1,.42-.53,.95-1.02,1-1.66,.11-1.49,1.02-2.38,2.03-3.29,2.87-2.6,5.77-2.15,7.64,1.28,3.29,6.03,6.55,12.06,9.78,18.12,2.08,3.9,1.43,6.53-2.01,9.04-1.68,1.23-3.29,1.32-4.81-.12-1.02-.96-1.83-1.05-3.1-.31-3.01,1.74-6.27,3-9.62,3.94-3.47,.97-8.69-1.47-10.72-5.2-.78-1.44-1.52-1.61-2.96-1.21-3.29,.89-6.21,2.22-8.42,4.99-3.21,4.03-2.67,10.73,2.33,13.74,2,1.2,4.04,2.08,6.27,2.7,5,1.41,8.45,4.63,9.78,9.66,.77,2.92,.14,5.99,.07,9.65-1.61-2.33-2.19-4.33-2.2-6.44-.02-5.33-3.01-8.78-7.55-10.44-4.16-1.52-7.95-3.33-11.19-6.33l-1.59-3.68Zm33.77-19.46c-1.39-3.06-4.3-7.21-6.58-11.7-.5-.98-1.11-1.07-1.86-.22-1.75,1.99-4.02,3.19-6.37,4.36-4.24,2.1-5.34,4.99-3.64,9.3,.76,1.93,1.73,3.81,3.16,5.33,1.95,2.08,4.3,3.59,7.31,2.64,2.32-.73,4.66-1.45,6.81-2.69,3.32-1.92,3.36-1.85,1.18-7.01Zm-3.61-11.79c2.67,6.22,6.35,11.1,9.45,16.32,.66,1.11,1.79,1.68,3.06,1.13,1.43-.61,1.01-1.85,.6-2.87-2.61-6.52-5.1-13.1-8.78-19.14-.84-1.38-1.69-2.53-3.52-1.64-1.97,.96-2.53,2.59-1.6,4.6,.34,.74,.72,1.46,.79,1.61Z"/>
        <path class="cls-2" d="M73.23,48.27c-.68,.29-1.35,.61-2.04,.87-1.1,.41-2.51,.5-3.26,1.25-.91,.91,.36,2.1,.45,3.22,.18,2.21-3.31,4.62-5.83,4.01-1.94-.47-3.18-1.7-4.02-3.49-1.67-3.58-1.75-3.59-5.32-1.73-.72,.37-1.45,.78-2.05,1.3-.96,.84-1.66,.4-2.18-.4-.62-.96,.23-1.27,.9-1.6,1.67-.8,3.31-1.65,5.01-2.37,.98-.42,1.19-.99,.81-1.9-1.14-2.73-2.32-5.44-3.76-8.03-.35-.64-.64-.89-1.36-.54-1.99,.96-4.29,1.42-5.89,3.01-1.41,1.39-1.59-.5-2.03-.8-.75-.53,.28-.78,.74-1,1.67-.8,3.3-1.7,5.03-2.35,1.7-.64,2.33-1.26,.88-2.89-1.08-1.21-1.63-2.81-2.18-4.35-.52-1.48-.04-2.58,1.25-3.42,2.91-1.9,4.36-1.84,7.19-.05,1.8,1.15,3.94,1.26,6.01,1.01,3.34-.4,6.5-1.44,9.41-3.16,5.41-3.2,8.9-2.45,12.44,2.72,.66,.97,1.09,1.31,2.42,.64,6.87-3.5,7.84-8.75,5.67-14.84-1.66-4.68-6.73-8.14-13.39-7.1-2.32,.36-4.62,.99-6.86,1.73-3.25,1.07-5.81,.27-7.79-2.45-.82-1.13-1.54-2.33-2.34-3.48-.34-.49-.19-.82,.22-1.11,.4-.28,.66-.03,.91,.29,.54,.7,1.1,1.39,1.66,2.07,2.96,3.63,4.17,3.9,8.68,2.17,4.57-1.75,9.2-2.31,13.78-.07,7.45,3.65,11.36,14.51,4.99,21.29-1.37,1.46-3.01,2.36-4.75,3.18-1.06,.5-1.33,1.1-.99,2.28,1.54,5.31-.27,9.51-5.1,12.39-2.36,1.41-4.81,2.6-7.32,3.69Zm-.84-1.92c2.11-1.08,4.3-1.96,6.34-3.19,4.85-2.91,6.14-6.33,4.23-11.6-2.02-5.57-5.71-7.7-9.98-5.53-4.32,2.19-8.59,4.35-13.65,3.91-.93-.08-1.37,.23-.96,1.31,2.1,5.54,5.01,10.71,7.36,16.14,.49,1.14,1.14,1.57,2.41,.85,1.34-.76,2.83-1.27,4.25-1.88Zm-11.18-3.94c-1.55-2.7-2.63-5.62-3.9-8.45-.88-1.96-1.82-3.89-3.36-5.44-1.07-1.08-2.29-.96-3.45-.25-1.19,.73-.43,1.67-.12,2.54,1.43,4.06,3.55,7.81,5.4,11.67,1.76,3.67,3.34,7.41,4.96,11.14,.81,1.87,2.25,2.22,4.02,1.35,1.79-.88,1.43-2.17,.75-3.54-1.48-2.98-2.55-6.15-4.29-9.01Z"/>
      </g>
      <g>
        <path class="cls-2" d="M275.63,83.02c0,3.11-.06,6.22,.03,9.32,.05,1.52-.56,2.11-2.02,2.32-5.08,.73-10.18,1.01-15.3,1.16-.64,.02-1.29-.04-1.91,.07-1.94,.32-3.3,.99-2.93,3.49,.3,2.03-.05,4.14,.1,6.2,.11,1.57-.66,2.28-1.92,2.86-1.63,.76-3.27,.94-5.09,1.08-7.38,.56-14.75,.35-22.13,.31-3.32-.02-6.6,.43-9.88,.46-4.23,.04-7.86-1.98-11.21-4.46-1.08-.8-2.17-1.71-3.4-2.15-2.6-.94-3.03-2.82-2.66-5.16,.21-1.37-.12-1.79-1.64-1.69-3.32,.23-6.66,.17-10,.26-1.84,.05-2.73-.82-3.01-2.63-.54-3.53-.75-2.98-3.96-3.66-8.79-1.88-17.21,11.57-14.78,18.9,1.88,5.67,4.99,9.83,10.37,12.1,3.76,1.59,7.74,1.14,11.63,.13,6.52-1.68,12.6-.54,18.36,2.8,.43,.25,.9,.49,.66,1.06-.19,.48-.63,.27-1.02,.21-3.12-.43-6.22-.84-9.26-1.81-2.72-.87-5.51,.28-8.2,.68-13.03,1.94-21.64-1.71-25.65-15.54-1.31-4.51,.33-9.06,2.96-13.03,2.59-3.9,5.63-7.17,10.57-8.11,1.95-.37,3.78-.09,5.64,.23,.85,.15,1.97,.15,1.88-.82-.36-3.88,2.75-3.46,4.86-3.86,2.86-.55,5.78-.82,8.74-.71,2.57,.1,3.21-1.21,1.77-3.39-.95-1.42-.1-2.29,.82-3.04,4.05-3.3,7.68-7,11.02-10.99,.41-.49,.83-.55,1.42-.63,4.68-.65,9.38-.1,14.06-.29,6.01-.24,11.87-1.38,17.69-2.8,1.34-.33,2.69-.47,4.03-1.09,1.88-.86,4.67,1.51,4.4,3.71-.26,2.2,.75,4.21,.48,6.37-.17,1.38,1.02,1.13,1.85,1.15,4.37,.14,8.69-.75,13.07-.56,2.38,.11,4.78-.06,7.16,0,1.51,.04,2.48,.54,2.36,2.45-.18,3.02-.05,6.05-.05,9.08,.03,0,.06,0,.08,0Zm-27.55-4.84c0-3.49,0-6.28,0-9.06,0-2.08-.69-2.95-3.11-3.04-9.25-.32-18.37,1.42-27.6,1.36-3.83-.03-7.26,1.06-9.72,4.45-1.19,1.65-2.94,2.9-4.47,4.29-1.62,1.47-2.44,3.21-2.43,5.47,.03,3.49,.2,6.97-.44,10.46-.38,2.08-.07,4.29-.09,6.44,0,.85,.28,1.51,1,2.04,5.02,3.7,10.69,5.48,16.86,5.75,3.25,.14,6.51,.18,9.77,.36,6.43,.35,12.89,.56,19.3-.4,.79-.12,1.41-.38,1.47-1.26,.19-3.01,.7-6.06,.46-9.04-.5-6.17-1.13-12.32-1-17.82Zm14.08-3.99s0,.01,0,.02c-2.71,0-5.42,.06-8.12-.02-1.82-.06-2.51,.7-2.18,2.44,.88,4.7,1.32,9.44,1.09,14.22-.1,2.18,.95,2.66,2.76,2.34,4.87-.86,9.83-.24,14.72-1.05,1.6-.26,2.22-.7,2.2-2.31-.06-4.38-.07-8.76,0-13.14,.03-1.9-.82-2.55-2.59-2.51-2.63,.06-5.25,.01-7.88,.01Zm-70.92,19.82v-.02c1.27,0,2.54,.02,3.81,0,.79-.01,1.74,.03,1.91-.99,.33-1.94,.57-3.91,.76-5.87,.11-1.15-.48-1.8-1.69-1.77-3.41,.09-6.82,.07-10.11,1.19-.8,.27-1.44,.56-1.49,1.57-.24,5.16,.59,6.01,5.85,5.9,.32,0,.63,0,.95,0Z"/>
        <path class="cls-2" d="M239.6,92.53c.49-4.23-.7-8.36-.77-12.55-.04-2.1,.61-4.06,.75-6.11,.06-.89,.67-1.47,1.62-1.36,.85,.1,1.26,.68,1.1,1.52-1.46,7.77-.08,15.59-.37,23.38-.02,.55,.02,1.11-.01,1.67-.04,.79,0,1.77-1.14,1.7-1.03-.06-1.49-.85-1.45-1.84,.07-2.14,.19-4.28,.29-6.41Z"/>
        <path class="cls-2" d="M233.89,74.91c-.96,6.74-.18,13.42,.63,20.11,.11,.91,.27,2.13-.99,2.34-1.02,.17-1.53-.68-1.58-1.67-.35-6.32-.71-12.65-1.02-18.97-.04-.77,.17-1.57,.38-2.32,.24-.81,.45-1.91,1.62-1.65,1.09,.24,.95,1.3,.96,2.17Z"/>
        <path class="cls-2" d="M208.79,89.25c0-3.02,0-6.04,0-9.05,0-1.12,.25-2.27,1.62-2.12,1.48,.16,1.42,1.34,1.24,2.57-.77,5.13-.51,10.27-.09,15.41,.05,.63,.24,1.25,.26,1.88,.03,1.12,.11,2.49-1.42,2.55-1.53,.06-1.58-1.25-1.58-2.41,0-2.94,0-5.88,0-8.82,0,0-.02,0-.03,0Z"/>
        <path class="cls-2" d="M203.92,84.34c0-.95-.06-1.91,.02-2.86,.07-.98,.57-1.75,1.66-1.58,1.07,.17,1.21,.95,1.12,1.99-.31,3.6-1.12,7.18-.55,10.84,.14,.88-.25,1.65-1.14,1.84-1.03,.22-1.5-.69-1.54-1.43-.09-1.57,.06-3.16,.16-4.74,.08-1.35,.22-2.69,.33-4.04-.02,0-.04,0-.06,0Z"/>
        <path class="cls-2" d="M262.04,85.37c1.75,0,3.5-.02,5.25,.01,.43,0,1.05-.13,1.19,.49,.14,.58-.36,.87-.81,.99-3.61,1-7.25,1.8-11.03,1.32-.77-.1-1.7-.42-1.71-1.38,0-1.12,.95-1.38,1.86-1.41,1.75-.05,3.5-.01,5.25-.01h0Z"/>
        <path class="cls-2" d="M258.48,80.97c-.94-.08-1.9-.07-2.82-.27-.73-.15-1.29-.71-1.23-1.53,.07-.86,.77-1.31,1.5-1.18,2.77,.5,5.51-.02,8.26-.05,.7,0,1.63,.07,1.69,.93,.06,.86-.93,1.03-1.56,1.17-1.92,.42-3.82,1.05-5.84,.93Z"/>
      </g>
      <g>
        <path class="cls-2" d="M133.21,119.47c3.08-.8,5.76,1.35,8.72,2.29,1.43,.46,.98,2.22,.97,3.33-.01,2.94,.23,3.26,3.12,2.53,4.49-1.12,9.02-1.81,13.59-.71,4.02,.97,7.7,2.6,9.76,6.54,1,1.91,.51,3.74-.86,5.17-3.22,3.35-7.32,4.3-11.82,3.84-3.64-.37-7.13-.17-10.03,2.46-1.82,1.65-2.13,3.78-2,6.1,.06,1.03,.63,1.21,1.43,1.06,3.93-.76,7.94-.47,11.89-.62,3.1-.12,6.24,.41,9.39,1.46,3.99,1.32,5.81,4.57,8.49,7.08,2.59,2.42,4.97,5.03,7.24,7.74,.5,.6,1.18,.4,1.77,.37,3.35-.19,6.65,.39,9.97,.53,4.72,.19,7.36,3.25,7.2,8.1-.18,5.19-.64,10.36-.53,15.56,.06,3.1-.79,4.05-3.88,4.45-3.05,.4-6.12,.68-9.18,.9-1.06,.08-1.47,.32-1.59,1.48-.65,6.11-7.69,9.01-12.21,7.96-2.23-.52-4.09-2.28-5.25-4.47-.87-1.65-1.73-2.35-4.11-2.26-11.58,.43-23.17,1.02-34.77,.69-.47-.01-.93-.2-1.39-.23-2.95-.2-6-1.24-7.93,2.5-1.16,2.24-3.86,2.93-6.14,3.73-2.44,.85-6.4-1.41-8.11-4.73-.72-1.39-1.47-2.12-3.09-1.81-6.02,1.18-10.15-1.26-13.12-6.5-1.72-3.03-2.62-6.23-3.32-9.55-.02-.08,0-.16,0-.24-1.48-7.94,1.51-7.25,6.16-10.48,4.82-3.35,10.03-2.8,15.13-3.64,3.58-.59,5.66-3.18,7.87-5.55,1.92-2.07,3.58-4.38,5.4-6.56,2.12-2.55,4.54-4.14,7.81-4.36,3.55-.24,6.92-1.68,10.53-1.44,1.29,.08,2.08-.44,1.97-1.97-.57-8.01,7.01-10.85,12.99-10.37,3.42,.27,6.78,.36,9.9-1.56,2.49-1.53,2.78-4.07,.41-5.9-4.05-3.12-8.74-3.95-13.68-3.45-2.65,.27-5.22,1.28-7.92,1.26-1.06,0-1.3,.7-1.08,1.37,.66,2.02,.12,2.85-1.92,3.86-1.65,.82-2.99,2.47-4.97,3-3.43,.92-5.23,.16-6.11-3.2-.44-1.68-1.18-1.76-2.47-1.55-.54,.09-1.1,.16-1.64,.14-.82-.04-1.3-.56-1.4-1.35-.11-.88,.6-1.03,1.22-1.14,.47-.08,.97,.04,1.42-.08,.74-.2,2.29,.67,1.96-1.05-.18-.92,.3-3.23-2.23-2.02-.81,.39-2.15,.34-2.33-.9-.22-1.54,1.12-1.52,2.14-1.43,1.33,.12,1.64-.47,1.64-1.66,.03-5.02,.59-5.09,5.01-4.7Zm65.9,58.71s.02,0,.03,0c0-.48,0-.96,0-1.43-.02-4.11-.83-5.17-4.99-5.64-3.15-.36-6.34-.48-9.51-.5-3.41-.02-6.83,.29-10.25,.31-8.52,.07-17.04,.12-25.56-.17-3.93-.13-3.9,.61-3.35,3.41,.12,.61,0,1.27-.04,1.9-.43,6.89-.84,13.78-1.33,20.67-.11,1.5,.44,2.06,1.85,2.01,6.2-.21,12.4-.41,18.6-.64,.63-.02,1.25-.23,1.88-.34,.67-.11,1.28-.41,1.47-1.07,.76-2.64,3.08-3.77,5.03-5.21,4.55-3.36,9.93-2.35,12.91,2.45,.62,1.01,1.22,1.18,2.31,1.05,2.6-.31,5.21-.52,7.83-.63,2.22-.09,3.13-1.17,3.11-3.31-.04-4.29-.01-8.59-.01-12.88Zm-66.59,20.51s0,0,0,0c2.31,0,4.62-.03,6.93,.01,1.49,.03,2.22-.7,2.32-2.12,.55-7.77,1.01-15.53,1.03-23.32,0-1.84-.77-2.32-2.45-2.29-3.5,.05-7,0-10.5,.4-7.26,.83-14.59,.18-21.87,1-5.95,.67-11.55,1.99-16.61,5.31-1.22,.8-2.18,1.58-1.91,3.21,.75,4.54,1.34,9.04,4.21,12.99,2.73,3.77,4.61,4.86,9.23,4.24,1.72-.23,2.69-.91,3.01-2.73,.38-2.16,1.3-4.2,3.31-5.32,6.28-3.51,14.03,.06,14.11,6.49,.02,1.6,.93,2.2,2.5,2.14,2.23-.07,4.45-.02,6.68-.02Zm46.98-30.04c-3.19-4.58-6.52-8.52-10.29-12.07-1.15-1.09-2.52-1.65-4.02-1.97-6.32-1.35-12.67-.47-19.01-.25-1.13,.04-1.81,.4-1.64,1.94,.36,3.31,.22,6.65,.6,9.98,.2,1.72,.66,2.34,2.42,2.32,5.42-.06,10.83,.02,16.25,.04,5.23,.01,10.46,0,15.69,0Zm-64.29,.88c9.15,.12,17.54-.79,25.96-.9,1.68-.02,1.65-1.17,1.56-2.33-.17-2.06-.35-4.12-.57-6.17-.69-6.34,.45-5.95-5.83-5.19-.39,.05-.8,.01-1.19,.09-3.25,.67-7.07,.36-9.53,2.65-3.67,3.43-6.69,7.54-10.4,11.84Zm61.35,34.96c4.43,0,7.32-1.86,7.86-5.04,.83-4.85-4.58-9.16-9.36-7.32-1.78,.69-3.85,1.2-4.68,3.34-1.66,4.25,1.6,9.03,6.18,9.02Zm-62.68-.37c3.98,0,7.06-2.74,7.21-6.44,.15-3.64-3.12-6.61-7.31-6.65-3.03-.03-6.33,3.51-6.41,6.89-.07,2.78,3.52,6.19,6.51,6.2Zm20.04-81.83c-.92,.59-3.1-.93-3.24,1.4-.25,3.91,.36,7.76,1.74,11.46,.29,.78,.89,1.4,1.82,1.24,2.21-.38,3.87-1.69,5.44-3.22,1.2-1.17,.41-2.34,.29-3.56-.07-.69,.08-1.41,.21-2.11,.58-3.17-.05-4.2-3.2-4.9-.92-.21-1.89-.2-3.07-.31Z"/>
        <path class="cls-2" d="M137.01,181c-.83-.03-1.34-.47-1.39-1.3-.04-.77,.22-1.5,1.07-1.61,.94-.12,1.51,.5,1.55,1.41,.04,.78-.37,1.36-1.23,1.5Z"/>
      </g>
      <g>
        <path class="cls-2" d="M413.72,201.22c-6.23,0-12.47,.17-18.69-.06-4.44-.16-8.85,.41-13.27,.19-9.1-.45-18.2,.36-27.3,.04-3.69-.13-5.97-2.5-5.85-6.13,.03-.93,.36-1.44,1.09-1.89,1.08-.65,2.53-.91,2.69-2.61,.04-.41,.69-.65,1.2-.57,2.22,.33,2.08-1.09,1.67-2.43-.39-1.26-.25-2.51-.25-3.76-.03-8.76-.1-17.53,0-26.29,.07-6.24,.04-12.51,.7-18.7,.76-7.17,1.27-14.49,3.59-21.34,2.99-8.82,8.37-15.99,16.59-20.87,3.87-2.3,8.15-3.25,12.3-4.7,2.96-1.04,6-1.35,8.79-.75,4.39,.95,8.57,2.75,11.76,6.32,3.04,3.41,5.31,7.24,7.24,11.33,1.96,4.16,2.87,8.62,3.68,13.09,.87,4.82,1.19,9.7,1.24,14.61,.02,1.95,.74,3.87,.57,5.87-.06,.74,.37,.86,1.09,.77,7.64-.96,11.4,3.87,14.26,9.79,2.93,6.07,2.03,12.52,1.43,18.9-.13,1.35-.15,2.69-.15,4.04,0,4.12-1.23,8.07-1.61,12.13-.41,4.29-1.6,8.6-.12,12.91,.28,.81,.61,1.65,1.11,2.33,.83,1.15,1.73,1.35,2.97,.27,4.11-3.54,5.66-8.41,7.26-13.3,2.74-8.36,2.46-16.99,2.34-25.59-.07-5.05-1.73-9.84-3.09-14.64-.36-1.27-1.69-2.3-3.04-2.89-4.18-1.83-4.99-5.43-4.75-9.39,.1-1.61,.23-3.28,.75-4.89,.27-.82,.58-1.64,1.25-1.89,2.31-.87,2.01-2.75,1.55-4.34-.41-1.43,.23-2.18,1.16-2.37,1.34-.26,1.33,.97,1.33,1.95,0,.56-.06,1.12,.01,1.67,.11,.82-.52,2.28,1.1,2.04,1.14-.17,2.93-.09,2.6-2.24-.11-.69-.1-1.36-.39-2.06-.38-.91,.26-1.78,1.1-2,1.12-.29,1.51,.58,1.54,1.57,.02,.48,.02,.96,0,1.43-.08,1.96-.33,3.82,2.04,4.98,.95,.47,1.29,2.02,1.59,3.31,.38,1.67,.5,3.41,1.25,5.01,.63,1.36,.43,2.67-.61,3.93-1.25,1.51-1.65,3.77-4.3,3.92-1.36,.08-1.3,1.49-1.06,2.5,1.06,4.42,2.45,8.83,2.65,13.34,.2,4.6,.76,9.27-.18,13.88-.5,2.47-.1,5.01-.71,7.52-1.75,7.15-3.58,14.21-8.72,19.88-1.04,1.15-2.43,1.8-3.65,2.49-1.39,.78-2.99-.54-3.92-1.73-1.58-2.02-2.43-4.52-2.62-7-.29-3.93-.15-7.85,.88-11.77,.85-3.25,1.07-6.68,1.39-10.05,.53-5.61,.99-11.25,.57-16.88-.45-5.93-3.18-10.71-8.42-13.7-1.53-.88-3.48-.74-5.25-.23-.96,.28-.62,1.17-.65,1.83-.14,3.17,1.03,6.27,.47,9.48-1.35,7.67,.82,15.23,.87,22.86,.01,1.9,.39,3.9,.42,5.86,.02,1.04,.17,1.82,1.38,2.16,3.55,.99,5.29,4.63,4.34,8.13-.8,2.98-2.79,4.02-5.49,4.22-1.66,.13-3.34,.03-5.02,.04-1.57,0-3.13,0-4.7,0,0,.15,0,.3,0,.46Zm-15.58-11.3c7.79-.15,13.59,.05,19.39-.54,2.05-.21,2.92-.73,2.69-2.81-.51-4.65-.82-9.32-1.14-13.97-.58-8.32,.09-16.67-.5-25.03-.48-6.71-.58-13.46-1.27-20.17-.95-9.27-3.03-18.13-9.08-25.64-2.97-3.68-6.47-6.2-11.21-7.02-3.88-.67-7.54,.12-11.25,1.07-11.46,2.92-19.03,10.17-23.42,20.92-3.34,8.19-3.92,16.95-4.72,25.62-.6,6.51-.45,13.08-.59,19.62-.19,8.4,.05,16.81,.59,25.21,.21,3.34,.11,3.18,3.51,3.39,5.73,.35,11.4-.92,17.12-.48,1.58,.12,3.22,.65,4.72,.36,5.7-1.1,11.44-.28,15.16-.53Zm-15.69,8.89c8,0,15.69,.07,23.37-.02,5.69-.07,11.38-.33,17.06-.54,2.09-.08,3.01-1.38,2.76-3.79-.2-1.9-1.52-2.85-3.5-2.63-5.12,.56-10.24,1.2-15.42,1.09-6.5-.13-13-.15-19.49-.13-8.98,.03-17.95,.08-26.93,.24-2.2,.04-4.42,.29-6.4,1.51-.93,.57-2.3,.82-1.89,2.3,.33,1.21,1.19,2,2.62,2.04,3.18,.1,6.39,.68,9.51,.35,6.21-.66,12.41-.11,18.31-.41Zm67.02-54.46c2.66,.03,3.83-1.18,3.5-3.43-.24-1.64-.65-3.27-1.08-4.88-.54-2.02-1.84-2.97-4.02-2.97-4.7,0-4.9,.11-5.61,4.64-.09,.55-.33,1.07-.42,1.61-.3,1.94,.86,4.29,2.35,4.41,1.9,.15,3.79,.29,5.28,.63Z"/>
        <path class="cls-2" d="M410.66,120.4c0,2.47,.02,4.94,0,7.41-.01,1.45-.55,2.32-2.22,1.85-1.37-.39-2.69,.21-4,.39-6.6,.9-13.27,.85-19.88,2.01-3.92,.69-7.99,1.32-12.06,1.09-2.81-.16-3.85-1.28-3.81-4.07,.01-.95,0-1.93,.2-2.85,.98-4.6-.18-9.19-.03-13.78,.15-4.46,1.82-6.34,6.37-6.32,6.85,.02,13.67-.5,20.5-.81,1.99-.09,3.97-.28,5.95-.41,6.88-.45,8.31,2.06,8.95,8.81,.21,2.21,.03,4.46,.03,6.69Zm-29.12-11.26c-2.07,0-4.14,0-6.2,0-3.4,0-4.2,.94-3.86,4.29,.37,3.68,1.13,7.34,.48,11.09-.2,1.16,.02,2.38-.03,3.57-.06,1.29,.45,1.86,1.79,1.91,3.67,.15,7.27-.4,10.88-.84,3.38-.41,6.6-1.63,10.08-1.62,3.56,0,7.13-.38,10.68-.72,1.16-.11,2.4-.47,2.39-2.12-.03-3.98,.16-7.96-.08-11.92-.21-3.43-1.4-4.24-4.93-4.38-7.08-.28-14.11,.82-21.19,.75Z"/>
        <path class="cls-2" d="M384.65,162.06c2.61-1.14,5.21-2.32,7.83-3.42,2.04-.85,2.87-.2,2.55,1.99-.1,.69-.33,1.43-.72,1.99-2.46,3.58-3.89,7.64-5.49,11.62-.15,.37-.27,.75-.44,1.11-.44,.88-.99,1.86-2.14,1.35-1.1-.49-1.29-1.57-.79-2.65,1.36-2.97,2.76-5.91,4.11-8.88,.35-.76,1.01-1.44,.82-2.66-1.89,.75-3.69,1.47-5.51,2.18-.96,.37-1.92,.74-2.9,1.05-.72,.22-1.46,.15-1.94-.52-.52-.73-.52-1.57,.04-2.23,4.58-5.38,7.12-12.02,11.03-17.81,.48-.72,.89-2.06,2.11-1.31,1.31,.8,.7,1.95-.02,2.87-3.57,4.62-5.38,10.27-9.03,14.84,.17,.16,.34,.32,.5,.47Z"/>
        <path class="cls-2" d="M380.25,118.35c-.34,1.42-1.5,1.83-2.67,1.89-1.13,.06-2.05-.69-1.98-1.89,.08-1.38,1.35-1.69,2.44-1.78,1.14-.09,1.88,.65,2.21,1.78Z"/>
        <path class="cls-2" d="M389.9,120.38c-1.26-.14-1.9-.83-2.02-2-.11-1.01,.47-1.47,1.4-1.45,1.3,.03,2.09,.78,2.14,2.05,.04,.94-.68,1.34-1.52,1.4Z"/>
        <path class="cls-2" d="M402.16,117.02c-.15,1.15-1.04,1.57-1.98,1.68-1.08,.13-1.84-.47-1.92-1.61-.08-1.18,.73-1.44,1.7-1.44,1,0,1.9,.17,2.2,1.37Z"/>
      </g>
      <g>
        <path class="cls-2" d="M302.26,110.68c2.21,6.4,3.63,12.85,6.41,18.86,.4,.85,.63,1.78,1.03,2.63,1.07,2.25,1.38,2.21,3.41,.54,1.75-1.43,2.78-3.26,3.32-5.34,.33-1.26,1.09-1.99,2.18-2.24,1.23-.29,1.68,.85,2.32,1.67,4.15,5.34,2.48,16.62-3.47,21.14-4.84,3.68-10.06,5.27-15.76,5.44-4.09,.12-7.95-1.76-11.7-3.39-1.34-.59-1.93-.67-3.12,.56-7.33,7.58-13.52,16.13-20.56,23.95-6.9,7.66-13.54,15.59-21.2,22.5-3.72,3.36-7.86,6.24-12.98,7.47-4.82,1.16-9.49-.57-10.83-5.14-.59-2.01-.61-4.42,.66-6.79,4.19-7.8,10.13-14.1,16.16-20.41,7.2-7.53,14.61-14.86,21.84-22.36,2.77-2.87,5.62-5.79,8.04-9.05,1.29-1.74,3.18-3.04,4.65-4.71,.62-.71,.72-1.2,.38-2.06-1.57-3.99-3.49-7.93-3.86-12.23-.35-4.05,.54-8.1,2.59-11.65,5.99-10.34,15.37-15.81,26.8-18.23,7.06-1.5,13.72-.24,19.78,3.41,3.27,1.97,6.94,3.79,8.59,7.72,.42,1-.6,3.39-1.7,3.63-7.53,1.67-15.04,3.44-22.99,4.08Zm16.75,18.52c-1.28,3.82-3.85,6.06-7.22,7.47-2.14,.9-2.91,.47-3.58-1.75-.44-1.44-1.07-2.82-1.64-4.22q-1.61-3.94-5.59-2.92c-.46,.12-.91,.33-1.37,.39-2.13,.29-4.29,.55-6.36-.15-.94-.32-1.62-1.21-1.2-2.28,.39-1,1.23-.4,1.84-.17,2.92,1.09,5.81,.5,8.7-.08,1.19-.24,1.51-.91,1.24-2.09-.52-2.27-1.02-2.57-3.34-1.49-3.16,1.48-6.4,1.83-9.74,.78-.83-.26-1.87-.6-1.42-1.76,.37-.95,1.31-.69,2.09-.44,3.1,1.01,6.15,.25,9.21-.24,1.92-.31,1.93-1.44,1.36-2.96-.55-1.46-1.1-2.32-2.95-1.55-2.4,1-4.9,1.8-7.5,2.16-1.59,.22-3-.18-4.17-1.29-.36-.34-.55-.82-.32-1.31,.26-.54,.76-.54,1.22-.33,3.68,1.66,7.17-.14,10.72-.62,1.09-.15,1.55-.81,1.3-2.07-.68-3.42-.62-3.44,2.63-4.24,.61-.15,1.25-.23,1.88-.27,5.98-.35,11.78-1.78,17.56-3.21,2.21-.55,2.36-1.26,.67-2.78-6.91-6.21-14.9-9.1-24.16-7.22-8.74,1.77-16.51,5.59-22.15,12.68-6.79,8.52-5.74,16.41-.67,26.49,.81,1.61,1.02,2.43-.55,3.51-2.17,1.5-3.9,3.51-5.68,5.44-8.71,9.4-18.01,18.24-26.72,27.64-4.86,5.24-9.82,10.39-14.46,15.83-1.76,2.06-3.22,4.42-4.17,6.94-.99,2.63-1.4,5.57,.77,7.89,1.76,1.88,4.14,1.8,6.46,.99,5.44-1.9,10.13-5.13,14.13-9.12,6.3-6.3,12.41-12.81,18.3-19.5,6.56-7.46,12.78-15.22,19.19-22.82,.74-.88,1.45-1.49,.76-2.84-.48-.94-.04-2.12,.79-2.82,.92-.78,1.81-.11,2.57,.48,1.98,1.53,4.24,2.51,6.52,3.46,8.83,3.68,16.63,1.94,23.56-4.47,3.1-2.86,4.9-11.79,1.5-15.16Z"/>
        <path class="cls-2" d="M269.55,150.15c-.15,1-.68,1.49-1.18,2-6.51,6.66-13.06,13.29-19.51,20.01-3.25,3.38-6.31,6.93-9.45,10.41-.05,.06-.08,.15-.14,.19-1.12,.8-2.33,2.51-3.63,1.47-1.62-1.31,.39-2.47,1.16-3.21,5.22-5.01,10.15-10.29,15.14-15.52,2.91-3.04,5.93-5.97,8.63-9.22,1.91-2.3,4.26-4.26,6.48-6.28,.84-.76,1.82-.82,2.5,.16Z"/>
        <path class="cls-2" d="M274.86,157c-.06,.61-.41,1.13-.92,1.54-6.3,5.04-11.35,11.32-16.97,17.03-2.73,2.77-5.31,5.69-7.97,8.52-.67,.71-1.39,2.03-2.48,1.16-1.27-1.03,.01-1.98,.68-2.77,7.21-8.5,15.6-15.86,23.32-23.86,.77-.8,1.53-1.61,2.3-2.42,.35-.37,.75-.61,1.26-.36,.46,.22,.76,.57,.77,1.17Z"/>
        <path class="cls-2" d="M231.19,192.38c1.3,.22,2.71,.62,2.96,2.36,.21,1.47-2.35,3.62-4.17,3.6-1.36-.01-1.99-.81-2.08-2.11-.13-1.95,1.34-3.78,3.29-3.85Z"/>
        <path class="cls-2" d="M304.92,131.98c-3.29,1.5-6.56,2.89-10.21,1.64-.78-.26-1.6-.6-1.38-1.6,.21-.91,1.12-.85,1.78-.73,3.23,.59,6.5,.52,9.81,.69Z"/>
      </g>
      <g>
        <path class="cls-2" d="M279.09,38.86c-1.2-1.87-1.87-4.12-3.36-5.01-2.88-1.73-4.82-5.44-9.12-4.52-4.97,1.07-9.11-1.66-13.16-3.74-3.82-1.96-5.37-8.73-4.12-12.94,1.88-6.32,6.56-9.53,12.47-9.95,6.32-.45,11.95,2.12,15.41,7.98,2.12,3.59,2.54,7.22,0,10.81-.57,.81-.15,1.25,.44,1.79,4.77,4.44,10,8.32,14.99,12.5,.54,.45,1.13,.7,1.75,.43,6.48-2.76,13.29-1.98,19.92-1.3,5.67,.58,11.51,1.24,16.77,3.74,4.18,1.99,8.16,4.39,12.14,6.76,1.03,.61,1.97,1.48,2.49,2.78,.75,1.88,.62,2.32-1.35,2.43-2.23,.12-4.37-.57-6.58-.78-6.84-.65-13.68-1.41-20.44-2.62-3.92-.7-7.87-1.32-11.81-2.23-.02,.95,.65,1.24,1.11,1.58,6.73,4.99,13.04,10.53,20.15,15.03,2.92,1.84,5.49,4.25,8.36,6.18,2.38,1.6,4.68,3.27,6.74,5.26,.55,.53,1.5,1.05,.98,1.93-.58,.99-1.34,2.57-2.41,2.4-5.42-.88-11.12,.23-16.28-2.37-3.45-1.73-6.63-3.9-9.88-5.94-4.08-2.55-7.79-5.61-11.6-8.55-5.26-4.06-10.69-7.92-16.09-11.81-1.87-1.34-3.8-3.17-6.72-2.51-2.75,.62-5.51-.67-8.42-.24-2.45,.36-2.8,2-3.19,3.48-1.72,6.38-7.38,7.17-12.65,5.71-6.2-1.72-8.79-6.04-8.92-12.16-.04-1.66-.24-3.29-.04-4.98,.65-5.59,9.87-9.28,14.91-6.51,1.72,.94,3.32,1.77,4.34,3.74,1.58,3.07,4.85,2.97,7.75,3.02,1.77,.03,3.46,.41,5.46,.62Zm59.55,35.32c-1.59-1.22-3.05-2.55-4.65-3.59-2.82-1.82-5.1-4.29-7.89-6.14-3.69-2.45-7.6-4.65-10.97-7.49-6.63-5.61-13.85-10.42-20.74-15.66-7.17-5.45-13.26-12.17-20.72-17.25-.97-.66-1.07-1.5-.13-2.38,2.04-1.89,2.2-4.4,1.67-6.8-.99-4.52-4.14-7.2-8.4-8.59-4.94-1.6-9.3-.24-12.45,3.66-2.18,2.69-3.77,5.91-1.89,9.71,1.98,4,8.72,7.77,13.13,6.76,3.29-.75,5.88,.12,8.24,2.3,1.52,1.4,3.21,2.66,4.59,4.18,2.65,2.94,5.42,5.87,6.6,9.78,.39,1.3,.95,2.34,2.01,3.12,5.55,4.11,11.32,7.94,16.59,12.38,6.12,5.15,12.75,9.42,19.58,13.51,4.87,2.92,10.1,2.56,15.44,2.51Zm-42.43-36.15c1.81,1.73,2.77,3.3,4.77,3.64,10.66,1.79,21.31,3.68,32.06,4.81,2.13,.22,4.26,.39,6.94,.63-13.44-9.67-28.01-10.58-43.78-9.08Zm-42.84,12.66c4.59,4.09,9.67,2.87,11.78-2.83,.11-.3,.21-.6,.33-.9,.97-2.49,3.21-3.93,5.87-3.99,2.87-.06,5.71,0,8.51,.76,.67,.18,1.57,.3,1.63-.76,.05-.9-.72-.77-1.37-.85-3.07-.37-6.12-1.09-9.19-1.15-3.38-.06-5.86-.71-7.79-3.98-1.62-2.74-4.73-3.82-8.15-3.09-2.83,.61-4.88,2.04-5.3,5.05-.62,4.46,.09,8.56,3.68,11.73Z"/>
        <path class="cls-2" d="M259.02,21.55c-4.28-3.26-2.41-8.71,.06-11.65,1.98-2.35,6.98-1.35,10.26,1.78,2.46,2.35,2.98,7.41,1.05,9.54-2.26,2.49-8.72,3.77-11.37,.32Zm7.97-8.11c-.76-1.05-2.14-1.31-3.38-1.76-.77-.28-1.61-.62-2.37,.28-1.58,1.85-1.84,4.97-.49,7.06,.8,1.23,4.29,2.13,6.04,1.47,1.3-.5,3.13-.9,1.09-2.77-.31-.28-.48-.77-.14-1.05,1.79-1.47,.31-2.23-.75-3.22Z"/>
        <path class="cls-2" d="M291.84,44.1c-1.27,1.19-2.61,.61-3.81-.18-1.21-.79-.95-2.05-.19-2.89,1.26-1.37,2.66-.47,3.8,.32,1,.68,1,1.71,.19,2.75Z"/>
        <path class="cls-2" d="M252.96,48.63c-3.04-2.86-3.41-7.6-.83-10.46,2.14-2.37,6.73-2,9.63,.78,2.6,2.49,3.36,7.68,1.44,9.77-2.6,2.84-7.18,2.8-10.24-.09Zm6.77-7.61c-1.71-1.57-4.3-2.11-5.22-1.08-1.04,1.15-.82,6.13,.31,7.1,.94,.8,5.07,.66,5.86-.21,1.33-1.46,.89-4.13-.94-5.81Z"/>
      </g>
      <g>
        <path class="cls-2" d="M69.3,142.9c-.4-.51-.96-.28-1.43-.38-1.38-.31-2.79-.38-4.09-1.12-1.01-.58-1.5-1.04-1.13-2.33,.37-1.3,1.06-1.61,2.2-1.35,2.22,.51,2.75-.42,2.96-2.59,.96-9.69,.97-19.4,1.09-29.11,.08-6.19,.69-12.37,.99-18.56,.07-1.41,.34-2.04,1.93-1.5,2.47,.83,5.05,1.24,7.64,1.41,2.04,.13,2.81,1.11,2.64,3.08-.67,7.93-.74,15.89-1.76,23.79-.95,7.41-.71,14.88-.9,22.33-.03,1.33,.39,1.89,1.85,1.85,1.22-.03,2.79-.21,2.78,1.94,0,1.99-.99,2.55-2.78,2.6-1.8,.05-4.28-.29-5.19,.7-.98,1.06-.56,3.49-.59,5.32-.12,9.11-.17,18.23-.26,27.35-.01,1.08,.4,1.76,1.29,2.49,3.2,2.59,3.24,3.11,1.31,6.88-1.71,3.36-3.3,6.79-4.52,10.36-.41,1.21-.86,1.8-2.1,.91-.19-.14-.47-.21-.71-.24-1.37-.16-3.21,.65-3.98-.73-.62-1.12-.44-2.76-.38-4.17,.13-2.98-1.2-5.71-1.29-8.66-.03-1.04-.09-1.63,.94-2.18,2.49-1.32,3.3-3.56,3.28-6.3-.08-9.54-.08-19.07-.09-28.61,0-1.07,.16-2.15,.24-3.2Zm10.89-53.19c-.88-1.04-2.15-.81-3.27-.99-5.82-.93-5.68-.91-6.04,5.08-.62,10.3-.22,20.63-.75,30.93-.19,3.6-.52,7.19-.79,10.79-.08,1.04-.19,2.13,1.29,2.23,1.41,.1,1.59-.95,1.7-2,.05-.42,.08-.84,.13-1.25,.95-7.75,1.04-15.56,1.64-23.33,.31-4.01,.81-8.01,1.25-12.01,.05-.47,.05-1.15,.69-1.17,.79-.02,.81,.71,.85,1.29,.02,.33-.02,.67-.08,1-2.05,11.6-1.51,23.43-3.05,35.07-.25,1.89,.68,2.29,2.24,2.46,1.95,.21,1.72-1.03,1.69-2.23-.02-.92-.01-1.84,0-2.76,.17-13.35,2-26.58,2.72-39.89,.06-1.07,.29-2.17-.21-3.22Zm-8.66,104.46c.8-.44,1.1-1.24,1.43-2.01,1-2.31,1.89-4.66,2.98-6.92,.84-1.74,.78-3.09-.72-4.47-1.1-1.01-1.84-2.25-1.8-3.97,.25-10.05,.44-20.1,.51-30.15,.01-1.34,1.46-3.88-1.56-3.76-2.57,.1-1.7,2.47-1.7,3.96,.02,9.97,.14,19.93,.25,29.9,.01,1.07-.19,2.12-.99,2.75-2.99,2.32-2.87,5.36-2.28,8.61,.27,1.48,.28,3,.46,4.5,.26,2.18,1.51,2.74,3.42,1.56Zm-6.48-54.38c2.65,1.21,13.33,1.64,15.56,.75-5.07-1.01-10.13-.84-15.56-.75Z"/>
        <path class="cls-2" d="M26.54,120.79c1.55,.55,3.02,1.09,4.5,1.6,1.66,.58,1.31,1.43,.3,2.33-.37,.33-.83,.57-1.24,.87-.39,.29-.99,.49-.97,1.06,.04,.82,.85,.65,1.35,.83,2.64,.95,2.73,1.32,.77,3.48-.22,.25-.42,.53-.69,.73-1.98,1.49-1.95,2.74,.18,4.18,2.03,1.37,1.98,2.13-.1,3.32-1.77,1.02-1.8,1.9,0,2.69,1.75,.77,2.13,1.75,.78,3.14-1.43,1.47,.32,1.68,.9,2.09,2.39,1.7,2.47,1.77,.2,3.62-1.17,.95-1.27,1.72,.1,2.46,1.53,.83,2.31,1.76,.59,3.18-1.35,1.11,0,1.71,.6,2.04,1.97,1.07,2.07,2.22,.43,3.61-1.22,1.02-1.38,1.74,.34,2.37,1.76,.64,.84,1.63,.19,2.51-.4,.55-1.58,.99-.77,1.76,1.2,1.14,1.96,2.05,.36,3.42-.37,.32-.04,.76,.39,.97,.38,.19,.87,.42,.8,.86-.7,4.34,2.95,6.3,5.03,9.09,.51,.69,1.16,1.18,.96,2.12-1.03,4.85-1.53,9.77-1.95,14.69-.2,2.32-1.3,3.18-3.52,3.2-4.63,.06-9.12-1.15-13.71-1.4-6.48-.35-12.65-2.52-19.06-3.16-2.16-.22-1.31-1.66-1.18-2.54,.9-6.21,2.27-12.37,2.86-18.61,.97-10.3,3.6-20.26,5.42-30.39,1.88-10.48,4.87-20.71,6.83-31.16,.31-1.66,1.1-1.91,2.35-1.69,2.97,.52,5.92,1.16,8.88,1.74,1.47,.29,1.6,1.05,.71,2.1-.81,.96-1.67,1.87-2.61,2.91Zm.35-3.28c-1.54-.35-2.98-.7-4.43-1.02q-3.36-.75-4.18,2.55c-4.09,16.18-7.36,32.53-10.63,48.89-.31,1.54,.18,2.14,1.64,2.41,3.05,.57,6.07,1.29,9.11,1.87,4.2,.8,8.43,1.43,12.55,2.61,.74,.21,2.58,.13,2.11-.43-1.45-1.74,.51-3.68-.95-5.61-.71-.94,.32-3.76-.69-5.65-.07-.13,.14-.5,.32-.65,1.68-1.51,1.38-2.72-.38-3.97-1.8-1.28,1.49-3.11-.34-4.49-.07-.05-.13-.11-.19-.16-1.31-1.09-1.32-2.37-.18-3.47,1.27-1.21,.77-1.84-.37-2.7-.83-.63-1.82-1.54-1.05-2.75,.74-1.15,.36-1.74-.58-2.48-1.44-1.13-1.78-2.52-.08-3.71,1.45-1.01,1.15-1.72-.06-2.65-1.71-1.31-1.52-2.82-.19-4.32,.39-.44,.77-.89,1.15-1.33,.61-.71,.68-1.12-.36-1.64-2.8-1.39-2.81-1.51-.54-4.02,.84-.93,.76-1.24-.36-1.71-4.18-1.78-4.17-1.81-1.32-5.58Zm9,62.86c-1.18-2.05-2.06-3.41-4.04-3.58-1.49-.13-2.95-.59-4.43-.88-6-1.18-12.01-2.35-18.01-3.52-1.2-.23-2.53-.49-2.6,1.31-.29,7.07-2.03,13.92-2.93,20.9-.19,1.5,.43,2.24,1.87,2.35,2.02,.15,3.94,.78,5.91,1.18,7.57,1.52,15.26,2.13,22.92,2.97,2.26,.25,3.21-.89,3.35-3.02,.14-2.01,.28-4.02,.59-6,.7-4.51,1.86-9.09-2.62-11.69Z"/>
        <path class="cls-2" d="M35.32,185.02c.56,.8,1.17,1.41,.99,2.21-.73,3.27-1.49,6.53-2.33,9.77-.23,.89-1.01,1.34-1.98,1.18-6.03-1.01-12.24-.67-18.17-2.43-2.18-.65-4.3-1.43-6.32-2.45-1.14-.58-1.96-1.38-1.61-2.78,.93-3.74,1.89-7.47,2.86-11.21,.47-1.8,1.6-2.13,3.26-1.5,4.41,1.68,9.04,2,13.64,1.58,3.68-.33,6.37,.59,8.2,3.86,.4,.72,1.06,1.29,1.46,1.76Zm-1.84,.64s-.63-.55-1.02-1.18c-1.43-2.31-3.24-3.28-6.17-3.24-4.89,.05-9.91,.31-14.63-1.49-1.65-.63-1.66,.67-1.87,1.49-.68,2.67-1.06,5.43-1.88,8.05-.56,1.78-.03,2.45,1.53,3.19,5.05,2.39,10.47,2.78,15.9,3.12,2.36,.15,5.45,1.43,6.91,.05,1.46-1.38,1.3-4.5,1.81-6.86,.19-.87,.69-1.78-.58-3.12Z"/>
      </g>
      <path class="cls-2" d="M436.35,12.69c-.02,5.77-1.85,11.07-3.94,16.38-4.44,11.28-11.29,21.21-17.18,31.68-.32,.57-.61,.94-1.29,.88-7.67-.69-15.37-1.2-22.74-3.72-1.53-.52-2.5-1.61-3.5-2.73-.93-1.04-1.8-1.42-2.96-.2-2.81,2.96-5.7,5.84-8.57,8.74-.36,.36-.42,.72-.16,1.15,.15,.25,.22,.54,.39,.77,4.22,5.52,2.65,9.61-3.4,15.24-5.36,4.98-11.38,9.19-17.19,13.64-2.84,2.18-5.6,4.47-8.31,6.83-2.1,1.83-4.47,3.07-7.07,3.96-2.01,.68-3.91,.6-5.23-1.23-1.34-1.87-2.49-3.8-1.3-6.34,2.44-5.22,6.13-9.49,10.03-13.62,7.18-7.62,15.09-14.48,22.42-21.95,.45-.46,.89-1,1.44-1.27,1.34-.66,2.63-2.95,4.1,.18,.56,1.21,2.24,1.83,3.86,.28,2.79-2.69,5.17-5.78,8.22-8.2,.56-.44,.43-.79-.1-1.13-3.35-2.15-3.97-5.67-4.82-9.18-1.13-4.68-.73-9.57-2.14-14.2-.2-.65,.19-1.02,.66-1.43,5.25-4.63,10.81-8.83,16.69-12.62,3.55-2.29,6.77-5.08,10.51-7.08,4.47-2.39,8.96-4.69,13.98-5.82,1.72-.38,3.39-1.03,5.13-1.41,6.42-1.4,12.32,3.15,12.49,10.06,.02,.79,0,1.58,0,2.37Zm-26.37,46.19c1.6-.34,3.32,.67,4.52-1.29,6.49-10.58,13.01-21.14,17.55-32.77,1.79-4.6,2.74-9.37,2.46-14.3-.27-4.89-3.48-8.03-8.23-8.29-1.88-.1-3.69,.31-5.5,.82-5.09,1.44-9.61,4.06-14.24,6.51-9.18,4.85-17.69,10.65-25.35,17.68-1.21,1.11-2.09,2.19-1.75,4.07,.81,4.43,1.11,8.94,2.16,13.36,.51,2.16,1.5,3.82,3.09,5.25,.95,.86,1.63,.93,2.72-.03,2.53-2.23,4.86-4.67,7.2-7.09,3.59-3.72,7.53-7.06,11.25-10.63,3.67-3.52,7.65-6.71,11.02-10.55,.51-.59,1.36-1.52,2.17-.83,.83,.7,.18,1.73-.28,2.54-.17,.3-.46,.55-.72,.8-3.15,2.93-6.3,5.87-9.48,8.77-6.31,5.75-12.73,11.37-18.6,17.57-1.97,2.08-1.73,3.23,.79,4.6,.69,.37,1.46,.59,2.2,.87,5.52,2.08,11.32,2.49,17.02,2.95Zm-74.12,41c0,2.77,1.73,3.94,4.44,3.14,3.68-1.09,6.02-4.05,8.97-6.17,7.12-5.11,13.94-10.59,20.86-15.96,1.61-1.25,3.03-2.69,4.14-4.35,1.37-2.05,3.03-4.19,1.68-6.93-.76-1.54-1.56-3.04-2.71-4.38-2.64-3.07-3.48-3.13-6.29-.42-5.17,4.98-10.41,9.88-15.58,14.85-5.03,4.83-9.91,9.79-13.76,15.66-.91,1.39-1.77,2.8-1.76,4.54Z"/>
      <g>
        <path class="cls-2" d="M96.83,71.47c2.75-5.49,6.1-10.46,10.67-14.65,2.59-2.38,5.71-3.97,8.28-6.34,5.41-4.99,10.93-9.89,16.54-14.66,6.8-5.79,14.09-10.94,21.26-16.25,1.21-.89,2.24-2.18,3.56-2.68,2.29-.87,4.05,.43,5.36,2.31,1.13,1.61,2.17,3.87,3.96,.52,.06-.12,.28-.14,.41-.24,3.88-3.02,7.74-6.08,11.66-9.05,3.26-2.47,6.56-4.89,9.92-7.23,1.33-.93,3.15-1.65,4.24-.02,1.47,2.18,3.56,3.79,4.89,6.09,3.23,5.59,8.15,9.91,11.78,15.22,.83,1.21,.85,1.65-.22,2.64-3.53,3.28-7.42,6.08-11.15,9.1-2.96,2.39-6.17,4.42-9.3,6.55-1.03,.7-2.24,1.52-2.7,2.58-.41,.96,1.2,1.48,1.71,2.35,.6,1.03,1.13,2.11,1.86,3.03,.92,1.14,.84,1.87-.15,3.04-3.93,4.64-8.74,8.26-13.55,11.85-5.33,3.98-10.59,8.05-15.46,12.59-3.58,3.34-6.99,6.88-10.65,10.14-4.08,3.63-8.37,7.04-12.56,10.54-6.13,5.12-12.39,9.98-20.91,10.2-.98,.03-1.85,1.22-2.86,.49-1.35-.99-2.98-.86-4.44-1.43-3.83-1.49-7.75-2.71-9.79-6.84-.92-1.86-1.54-3.78-2.06-5.75-1.24-4.78-2.54-9.55-2.43-14.97-.29-2.99,.61-6.1,2.13-9.14Zm34.44,27.84c7.8-6.39,15.9-12.44,23.16-19.47,4.53-4.38,8.9-8.93,14.17-12.43,5.12-3.4,9.71-7.44,14.44-11.32,.8-.65,1.5-1.42,2.26-2.12,1.68-1.54,1.57-3.05,.17-4.78-4.86-6.02-9.77-11.93-15.6-17.11-3.16-2.81-5.57-6.5-8.15-9.92-2.21-2.92-2.69-3.09-5.68-.99-11.6,8.17-22.71,16.97-33.11,26.6-4.61,4.27-9.74,7.93-14.22,12.31-5.2,5.08-8.93,11.09-10.89,18.2-.9,3.29,.11,6.34,.61,9.4,.6,3.66,1.76,7.25,2.92,10.79,1.63,5.01,6.22,5.92,10.52,7.06,.97,.26,2.06,.04,3.3,.04,6.23,.52,11.44-2.44,16.11-6.27ZM168.73,26.84c2.47,3.33,5.54,6.11,8.34,9.14,1.78,1.93,3.77,3.66,5.33,5.79,.92,1.25,1.94,1.66,3.08,.3,1.48-1.76,3.47-2.69,5.47-3.68,1.77-.88,3.39-2.01,4.7-3.59,2.05-2.48,5.24-3.51,7.56-5.68,.34-.32,.85-.44,1.22-.73,2.69-2.02,2.95-3.02,.68-5.47-4.4-4.72-8.34-9.79-12.12-15.01-1.86-2.56-2.44-2.51-5.08-.75-6.88,4.6-13.47,9.57-19.76,14.95-.54,.46-1.14,.89-1.24,1.79,.26,1.12,1.12,1.97,1.82,2.92Z"/>
        <path class="cls-2" d="M104.07,71.7c1.12,4.77,2.68,9.73,5.85,14.07,3.01,4.14,7.39,6.43,11.63,8.93,.64,.37,1.35,.69,1.87-.16,.42-.7,.31-1.44-.33-1.93-.56-.43-1.22-.72-1.86-1.03-8.72-4.22-13.03-11.49-14.36-20.8-.12-.85,.04-1.88-1.26-1.88-.82,0-1.5,1.14-1.54,2.8Z"/>
        <path class="cls-2" d="M122.57,86.98c.49,.05,.98,.02,1.27-.44,.36-.59,.09-1.1-.38-1.46-.69-.54-1.41-1.03-2.14-1.5-5.04-3.17-7.62-7.92-8.66-13.62-.2-1.07-.17-2.25-1.68-1.94-1.44,.3-1.05,1.37-.87,2.46,1.09,6.67,4.79,11.59,10.12,15.46,.8,.58,1.67,1.01,2.36,1.04Z"/>
        <path class="cls-2" d="M116.05,69.08c.66,1.52,1.28,3.07,2,4.56,1.2,2.51,3.31,4.22,5.36,5.98,.47,.41,1.14,.82,1.71,.25,.7-.69-.07-1.16-.49-1.54-2.78-2.52-4.55-5.66-5.81-9.14-.27-.76-.68-1.5-1.72-1.24-.57,.14-1.02,.45-1.04,1.12Z"/>
        <path class="cls-2" d="M123.75,68.76c-1.01,.06-1.33,.67-.88,1.58,.76,1.52,2.22,2.41,3.47,3.46,.45,.37,.9,.02,1-.54,.14-.73-2.78-4.42-3.6-4.49Z"/>
        <path class="cls-2" d="M182.78,17.72c.24,1.27,1.28,1.47,2.47,1.16,2.18-.56,3.32-2.43,4.4-4.11,.73-1.13-.2-2.15-1.49-2.37-1.51-.26-5.47,3.56-5.38,5.32Z"/>
        <path class="cls-2" d="M192.04,28.28c1.65-.11,4.16-2.07,4.75-4.01,.36-1.18-1.09-2.81-2.18-2.28-1.9,.92-3.85,2-4.53,4.24-.37,1.21-.14,2.26,1.97,2.04Z"/>
      </g>
      <path class="cls-1" d="M209.42,25.65c-8.38,6.84-16.76,13.68-25.14,20.52l4.12,6.54c-19.85,17.11-39.7,34.21-59.55,51.32-3.4,.83-21.89,5.14-26.65-1.99-1-1.5-1.81-4.13-3.41-9.31-1.22-3.94-2.07-7.43-2.27-8.43-1.95-9.89,11.63-24.68,14.33-27.57,6.74-6.36,14.13-12.92,22.21-19.53,8.9-7.28,17.57-13.77,25.85-19.53,1.85,1.79,3.7,3.57,5.55,5.36,8.81-6.51,17.62-13.02,26.43-19.53,6.18,7.38,12.36,14.76,18.54,22.15Z"/>
      <path class="cls-1" d="M274.86,93.31c-8.33,.16-16.66,.31-25,.47,.26,4.38,.51,8.75,.77,13.13-8.65,1.08-16.01,1.53-21.64,1.72-10.64,.36-14.66-.23-18.44-1.39-5.08-1.56-8.93-3.9-11.44-5.7-.26-1.91-.51-3.83-.77-5.74-4.72-.26-9.45-.51-14.17-.77-.06-3.13-.13-6.26-.19-9.38,4.91-.26,9.83-.51,14.74-.77,.26-2.49,.51-4.98,.77-7.47,3.7-3.64,7.4-7.28,11.11-10.91,12.32-.77,24.64-1.53,36.96-2.3,.83,3.06,1.66,6.13,2.49,9.19,8.27-.3,16.54-.6,24.8-.9v20.81Z"/>
      <path class="cls-1" d="M83.2,40.97l-16.66,9.13c.77,1.6,.59,3.49-.45,4.91-1.05,1.44-2.83,2.18-4.6,1.91-4.3-9.13-8.6-18.26-12.89-27.38,.76-1.3,1.96-2.82,3.64-3.06,1.93-.28,3.47,1.29,4.46,1.95,2.34,1.58,7,1.71,17.12-4.38,3.96-.12,7.68,1.88,9.7,5.23,2.16,3.58,2.03,8.15-.32,11.68Z"/>
      <path class="cls-1" d="M46.57,63.24c-.74,.94-1.95,2.14-3.7,2.62-1.78,.48-2.56-.22-4.66-.32-1.76-.08-2.27,.37-8.68,2.68-4.64,1.67-5.22,1.75-5.87,1.72-3.05-.1-5.47-2.2-7.02-3.96-1.02-2.57-2.04-5.15-3.06-7.72,.13-1.11,.48-2.85,1.59-4.57,2.07-3.21,4.47-2.73,8.11-6.15,2.7-2.53,2.37-3.71,5.36-6.13,1.79-1.44,3.5-2.3,4.66-2.81,4.43,8.21,8.85,16.43,13.28,24.64Z"/>
      <path class="cls-1" d="M72.28,196.25c-1.59-.09-3.19-.18-4.78-.27,.03-2.61-.11-4.72-.25-6.16-.39-4.21-.99-5.94-.19-8.23,.64-1.83,1.86-3.08,2.74-3.83,.13-12,.26-24,.38-36-2.19-.6-4.38-1.19-6.57-1.79,1.49-.55,2.98-1.11,4.47-1.66,1.43-9.37,1.6-16.91,1.47-22.15-.15-5.97-.76-12.45,.64-21.7,.45-2.94,.97-5.34,1.35-6.92,3.25,.18,6.5,.37,9.74,.55-.95,16.93-1.91,33.87-2.86,50.8l4.22,1.91c-2.47,.57-4.94,1.15-7.4,1.72l-.83,35.55c1.04,.68,2.41,1.83,2.87,3.57,.53,2.01-.46,3.59-2.23,7.66-.71,1.62-1.69,3.99-2.76,6.94Z"/>
      <path class="cls-1" d="M26.24,201.47c-7.73-1.36-15.47-2.72-23.2-4.09,1.04-8.28,2.25-16.74,3.64-25.37,3.22-20.03,7.1-38.98,11.39-56.78,3.18,.54,6.36,1.08,9.54,1.61-.59,1.24-1.17,2.48-1.76,3.72,1.57,.91,3.15,1.83,4.72,2.74-.76,1.02-1.51,2.04-2.27,3.06,.89,1.01,1.79,2.02,2.68,3.03-.85,1.44-1.7,2.87-2.55,4.31,.69,1.22,1.38,2.45,2.07,3.67l-2.14,3.54c.7,.82,1.4,1.64,2.11,2.46-.14,.86-.28,1.72-.41,2.59,.73,.9,1.47,1.81,2.2,2.71-.47,1.16-.94,2.32-1.4,3.48,.62,.99,1.23,1.98,1.85,2.97-.38,.71-.77,1.43-1.15,2.14,.8,.82,1.6,1.64,2.39,2.46-.53,1.36-1.18,3.46-1.31,6.06-.18,3.54,.69,6.18,1.24,7.82,1.74,5.13,4.79,8.69,6.93,10.76-.85,5.81-1.7,11.62-2.55,17.43l-12.03-.32Z"/>
      <path class="cls-1" d="M199.31,194.99c-4.09,.57-8.17,1.15-12.26,1.72-.26,1.19-.84,3.11-2.3,4.98-.81,1.04-3.66,4.7-7.85,4.4-3.29-.23-6.27-2.84-7.47-6.51-15.57-.19-31.15-.38-46.72-.57-.18,.57-1.46,4.33-5.36,5.94-.65,.27-4,1.56-6.89,0-2.43-1.31-2.05-3.29-4.4-4.98-2.62-1.88-4.92-.73-7.66-1.34-6.61-1.48-12.88-12.54-9.77-19.15,2-4.25,7.41-5.67,12.83-7.09,4.4-1.15,8.23-1.27,10.91-1.15,4.6-5.17,9.19-10.34,13.79-15.51,6.02-1.51,13.75-2.87,22.79-3.06,7.52-.16,14.13,.52,19.53,1.44,4.41,4.75,8.81,9.51,13.22,14.26,4.27,.15,9.23,.78,14.56,2.36,1.34,.4,2.61,.83,3.83,1.28-.26,7.66-.51,15.32-.77,22.98Z"/>
      <path class="cls-1" d="M141.77,134.19c-3.27,1.1-6.54,2.2-9.81,3.3-.99-5.22-1.97-10.44-2.96-15.65h12.44c.11,4.12,.22,8.23,.34,12.35Z"/>
      <path class="cls-1" d="M319.12,127.07c.87,1.19,2.88,4.26,2.87,8.49,0,5.57-3.49,9.25-4.4,10.21-6.42,6.77-16.81,5.68-20.49,5.3-4.73-.5-8.4-1.92-10.6-2.94-13.6,16.04-23.97,28.33-30.19,36.18-1.66,2.09-5.35,6.81-11.49,11.7-3.8,3.03-7.27,5.12-9.7,6.45-4.25,1.98-8.98,.88-11.23-2.23-2.19-3.03-1.17-6.75-1.02-7.28,1.69-2.84,4.38-7.08,8.16-11.88,4.69-5.95,6.63-7.14,19.56-20.02,18.1-18.02,14.73-16.12,16.85-17.48,2-1.28,5.89-3.55,6.62-7.5,.4-2.14-.37-3.45-1.36-7.34-1.06-4.19-1.61-8.4-1.64-10.53-.14-8.82,8.1-15.74,10.23-17.53,7.3-6.13,15.33-6.99,18.63-7.3,3.81-.36,7.02-.05,9.26,.32,4.96,1.57,17.02,5.71,16.66,9.51-.46,4.86-20.97,6.4-24.38,6.64,.78,3.06,1.92,7.39,3.38,12.57,3.03,10.72,3.99,12.8,5.62,13.15,3.26,.69,7.27-5.99,8.68-8.49Z"/>
      <path class="cls-1" d="M425.84,199.39c-23.49,.44-46.98,.89-70.47,1.33-2.59-.27-4.71-1.67-5.07-3.34-.49-2.23,1.99-5.59,6.41-5.94-.16-1.97-.38-4.81-.57-8.24-.41-7.36-1.08-20.46,.28-36.95,.68-8.17,1.97-18.64,4.6-30.73,9.89-17.43,26.01-25.9,38.01-22.12,2.4,.76,7.16,2.8,11.59,9.1,1.98,3.2,4.98,8.62,7.18,15.8,4.42,14.43,2.01,24.2,2.49,44.04,.15,6.15,.63,15.52,2.3,27.1,3.11,1.14,5.06,3.78,4.91,6.38-.1,1.78-1.15,3.04-1.65,3.57Z"/>
      <ellipse class="cls-1" cx="447.7" cy="138.92" rx="7.3" ry="7.7"/>
      <path class="cls-1" d="M375.74,66.16c1.84,2.97,1.38,6.17,1.27,6.94-.7,4.9-4.51,6.47-18.67,18.1-2.77,2.28-5.74,4.32-8.43,6.7-3.96,3.52-6.23,6.13-10.15,6.61-1.01,.12-2.88,.35-3.95-.73-1.94-1.97,.14-6.83,.88-8.55,3.1-7.24,7.67-10.02,15.22-17.14,11.11-10.48,14.47-16.97,19.05-15.8,1.89,.48,3.73,2.2,4.76,3.87Z"/>
      <path class="cls-1" d="M414.16,60.28c-5.25,.18-9.52-.44-12.45-1.05-3.9-.82-9.92-2.14-15.7-6.61-2.09-1.61-3.74-2.91-4.98-5.27-1.28-2.42-1.24-4.28-1.81-10.32-.19-2.03-.5-5-.97-8.64,6.41-5.01,12.83-10.02,19.24-15.03,6.43-3.97,12.12-6.85,16.56-8.9,6.27-2.89,10.03-4.11,14.07-2.97,1.07,.3,3.34,.98,5.03,3.01,2.34,2.82,2.16,6.57,1.96,10.77-.13,2.67-.54,4.83-.86,6.22-1.61,4.29-3.48,8.77-5.65,13.4-4.58,9.76-9.59,18.21-14.46,25.37Z"/>
      <path class="cls-1" d="M340.37,75.69c-4.21-.17-8.43-.34-12.64-.51-4.09-2.23-8.27-4.65-12.51-7.28-11.94-7.39-22.33-15.16-31.28-22.72-9.65-2.98-13.98-1.7-16.09,.38-2.59,2.56-1.49,6.04-4.47,8.04-3.21,2.15-8.67,.94-11.74-1.91-4.04-3.76-4.67-11.03-.77-17.23,1.13-.71,3.41-1.91,6.38-1.87,6.62,.11,10.34,6.28,10.6,6.72,4.72,.47,9.45,.94,14.17,1.4-3.56-7.32-7.78-12.52-12.71-12.76-1.58-.08-1.87,.42-4.14,.5-.48,.02-11.13,.25-14.41-7-2.27-5.01,.52-10.22,.88-10.87,2.12-3.81,5.5-5.39,6.64-5.87,8.31-1.55,15.81,2.29,18.04,8.22,1.77,4.71-.32,9.3-.94,10.54,6.16,4.78,12.33,9.56,18.49,14.34,1.29-.27,3.24-.64,5.63-.94,13.68-1.71,23.79,1.11,30.51,3.06,4.91,1.43,8.94,3.06,12.13,6.77,.91,1.06,1.54,2.03,1.91,2.68-12.98-1.91-25.96-3.83-38.94-5.74l-2.3,1.91c12.3,9.32,24.6,18.64,36.89,27.96,.21,.72,.43,1.45,.64,2.17Z"/>
    </g>
  </g>
</svg>