<?xml version="1.0" encoding="UTF-8"?>
<svg id="Ebene_2" data-name="Ebene 2" xmlns="http://www.w3.org/2000/svg" viewBox="0 0 48.02 59.64">
  <defs>
    <style>
      .cls-1 {
        opacity: .3;
      }

      .cls-1, .cls-2 {
        fill: #fe6847;
      }
    </style>
  </defs>
  <g id="Ebene_1-2" data-name="Ebene 1">
    <g>
      <path class="cls-1" d="M47.58,33.4c-.11,1.63-.5,4.04-1.92,6.46-1.07,1.84-2.34,3-3.2,3.74-3.29,2.81-11.38,8.41-22.4,15.27-.82,.16-3.23,.51-5.89-.72-2.66-1.23-3.95-3.3-4.36-4.02-.26,.09-3.88,1.2-6.63-1.1-2.23-1.86-2.3-4.62-2.32-5.5-.09-3.87,2.58-6.41,3.06-6.85l6.13-6.65c5.83-3.34,7.96-6.9,8.81-9.57,2.18-6.83,1.33-13.76,1.33-13.76-.19-1.54-.64-4.22,.87-5.63,.81-.75,1.91-.9,2.73-.91,2.17-.17,4.34-.35,6.51-.52l2.35-1.97c4.05-.06,8.11-.13,12.16-.19l2.78,31.93Z"/>
      <path class="cls-2" d="M16.5,59.64c-1.39-.43-2.82-.72-4.07-1.53-1.3-.84-2.38-1.84-2.75-3.46-1.45,1.02-2.89,.94-4.38,.11-.79-.44-1.68-.67-2.44-1.22-3.25-2.37-3.51-5.88-1.91-9.25,1.87-3.94,4.57-7.22,7.88-10.04,2.17-1.85,4.49-3.52,6.49-5.56,3.81-3.86,5.11-8.56,4.69-13.87-.15-1.9-.46-3.77-.66-5.65-.41-3.71,1.25-5.61,5.12-5.81,1.69-.09,3.39-.15,5.09-.23,.32-.01,.58-.07,.78-.42,.84-1.51,2.15-2.07,3.88-2.29,2.61-.33,5.22-.12,7.83-.41,1-.11,2.1,.58,3.14,.94,.23,.08,.09,.33,.1,.52,.14,3.63,.75,7.22,1.17,10.82,.55,4.73,1.1,9.45,1.39,14.21,.19,3.01,.27,5.99-.01,8.99-.3,3.24-2.08,5.65-4.34,7.7-4.3,3.91-9.24,6.97-14.04,10.21-1.09,.73-2.18,1.44-3.18,2.31-1.66,1.43-3.57,2.49-5.58,3.36-.33,.14-.7,.18-.86,.56h-3.35ZM46.66,26.72c-.25-4.65-.76-9.27-1.23-13.9-.08-.78-.35-1.06-1.15-.8-1.63,.51-3.36,.74-5.02,.94-1.85,.23-3.8,.08-5.7,.1-.75,0-1.14,.23-1.09,1.02,.16,2.42-.36,4.84-.03,7.28,.16,1.13,.12,2.31,.05,3.46-.15,2.51-1.15,4.59-3.22,6.12-2.73,2.01-5.68,3.68-8.47,5.59-2.5,1.72-4.89,3.54-6.59,6.15-.65,1-.5,1.57,.32,2.31,3.31,3.01,4.85,6.93,5.58,11.22,.28,1.65,.29,1.7,1.78,.86,1.91-1.08,3.65-2.42,5.47-3.63,4.34-2.9,8.59-5.92,12.87-8.88,.5-.34,.7-.7,.38-1.29-2.67-4.81,.64-10.82,4.28-12.95,1.48-.87,2.05-1.77,1.76-3.36-.01-.08,0-.16,0-.24ZM9.88,47.94c.1-.25,.18-.51,.29-.75,1.73-3.76,3.88-7.2,7.11-9.9,3.29-2.74,7.06-4.75,10.57-7.15,2.29-1.56,3.47-3.57,3.32-6.31-.14-2.43-.08-4.86-.08-7.29,0-1.52,0-1.52-1.5-1.18-.19,.04-.4,.04-.59,.07-2.13,.28-4.26,.57-6.38,.85-.93,.12-1.33,.56-1.35,1.58-.07,4.28-1.68,7.96-4.5,11.16-1.78,2.01-3.86,3.68-5.97,5.31-1.84,1.42-3.45,3.07-5.01,4.78-.33,.37-.67,.77-.23,1.25,2.03,2.17,3.25,4.79,4.32,7.59Zm.85,3.78c.02,.83-.03,1.66,.27,2.47,.85,2.27,3.42,3.92,6.27,3.99,1.67,.05,1.86-.2,1.49-1.87-.13-.58-.19-1.18-.36-1.75-.99-3.31-2.31-6.43-5.04-8.75-.57-.48-.85-.58-1.2,.18-.85,1.82-1.49,3.68-1.43,5.72Zm-1.38,.03c.02-2.27-1.25-4.16-1.86-6.24-.43-1.47-1.38-2.67-2.33-3.86-.5-.62-.89-.54-1.29,.09-1.01,1.59-1.93,3.21-2.34,5.07-.54,2.41,.48,4.79,2.62,6.02,.69,.39,1.43,.7,2.17,.98,2.08,.79,2.97,.17,3.04-2.06Zm37.51-19.25c0-.2,.02-.4,0-.6-.06-.37,.2-.87-.26-1.06-.34-.14-.67,.18-.96,.37-1.47,.94-2.61,2.23-3.42,3.75-1.27,2.37-1.7,4.85-.74,7.47,.27,.74,.47,.71,1.03,.22,3.08-2.7,4.5-6.08,4.35-10.15ZM23.71,12.45c-.01,.28,0,.6-.05,.91-.16,.94,.15,1.33,1.16,1.19,1.17-.17,1.47-.6,1.23-2.28-.24-1.65-.58-3.28-.84-4.92-.11-.66-.05-1.34-.27-2-.26-.77-.82-.59-1.37-.53-.64,.07-.59,.48-.49,.96,.46,2.19,.44,4.42,.63,6.68Zm12.23-5.36c.06-1.44-.33-2.84-.48-4.26-.12-1.05-.83-1.12-1.66-1-.93,.14-.72,.8-.6,1.37,.51,2.38,.82,4.78,1.01,7.2,.04,.51-.07,1.08,.74,1.07,.72-.01,1.06-.3,1.13-1.06,.1-1.12-.2-2.22-.14-3.33Zm6.03,3.06c-.18-1.9-.35-3.8-.54-5.69-.07-.71-.16-1.42-.28-2.13-.13-.73-.72-.6-1.23-.6-.51,0-.67,.28-.68,.77-.04,2.67,.42,5.3,.64,7.95,.06,.67,.51,.72,1.03,.64,.55-.09,1.16-.12,1.06-.94Zm2.65-4.97c0-1.05,.11-1.88-.08-2.71-.26-1.1-1.14-.63-1.76-.67-.65-.04-.57,.53-.5,.96,.38,2.31,.19,4.67,.62,6.98,.14,.77,.46,.99,1.19,.89,.73-.1,1.04-.39,.94-1.17-.19-1.49-.3-3-.42-4.28Zm-15.58,7.33l.08-.02c-.39-2.26-.77-4.53-1.16-6.79-.12-.72-.4-1.16-1.26-1.02-.96,.15-.63,.81-.63,1.37,0,2.55,1.07,4.96,.99,7.53-.01,.44,.21,.68,.66,.61,.53-.08,1.18,.03,1.32-.73,.06-.31,0-.63,0-.95Zm7.86-4.31c0,.67-.02,1.35,0,2.02,.02,.71,.22,1.22,1.11,1.19,.91-.04,.9-.62,.85-1.24-.2-2.49-.43-4.98-.61-7.48-.07-.88-.56-1-1.3-.95-.84,.06-.69,.63-.6,1.12,.33,1.76,.44,3.54,.55,5.33Zm-16.17,.73c.18,1.77,.36,3.55,.55,5.32,.04,.38-.02,.89,.58,.82,.52-.06,1.05-.2,1-.92-.2-2.64-.04-5.32-.61-7.93-.06-.28-.11-.61-.39-.69-.37-.1-.56,.24-.73,.5-.57,.9-.47,1.9-.4,2.89Zm12.72,1.35c-.11-2.14-.5-4.25-.94-6.34-.08-.4,.03-1.05-.49-1.06-.48,0-.47,.64-.59,1.04-.05,.15-.06,.31-.05,.47,.04,2.27,.77,4.44,1,6.69,.03,.33,.28,.58,.67,.52,.33-.06,.44-.31,.43-.61,0-.24-.02-.47-.03-.71Zm-2.43,1.57c.08-2.45-1.3-4.67-1.11-7.14,.03-.34-.28-.45-.6-.38-.39,.08-.49,.37-.44,.72,.35,2.72,1.14,5.37,1.09,8.14,0,.31,.2,.53,.54,.51,.33-.01,.51-.23,.52-.54,.02-.44,0-.87,0-1.31Z"/>
    </g>
  </g>
</svg>