<?xml version="1.0" encoding="UTF-8"?>
<svg id="Ebene_2" data-name="Ebene 2" xmlns="http://www.w3.org/2000/svg" viewBox="0 0 176 82.11">
  <defs>
    <style>
      .cls-1 {
        opacity: .3;
      }

      .cls-1, .cls-2, .cls-3 {
        fill: #fe6847;
      }

      .cls-3 {
        opacity: .3;
      }
    </style>
  </defs>
  <g id="Ebene_1-2" data-name="Ebene 1">
    <g>
      <path class="cls-2" d="M125.65,61.07c-1.02-2.98-2.66-5.43-4.7-7.64-.59-.64-1.32-.59-2.07-.55-7.29,.35-14.53,1.07-21.73,2.29-1.06,.18-2.9,.61-3-.27-.17-1.5,1.72-.94,2.64-1.12,4.02-.78,8.09-1.31,12.13-1.93-.61-2.6-.82-5.25-1.06-7.88-.49-5.46-1.01-10.92-1.42-16.38-.13-1.71-.64-2.27-2.51-2.11-7.63,.64-15.27,1.07-22.91,1.56-2.85,.18-3.62-.77-2.81-3.58,1.55-5.32,4.31-9.86,8.6-13.48,6.07-5.12,13.14-7.47,20.91-8.52,6.82-.93,12.63,.89,18.05,4.82,3.27,2.38,4.99,5.82,6.72,9.28,.81,1.62,1.58,3.25,2.33,4.89,.36,.78,1.23,1.43,.51,2.5-.72,1.07-2.03,1.12-2.82,.99-3.56-.6-7.06-.07-10.57,.16-4.22,.27-8.42,.72-12.63,1.04-.93,.07-1.42,.16-1.27,1.38,.95,7.77,1.04,15.63,2.4,23.35,.06,.36,.28,.72,.04,1.08-.66,1.02,.19,.86,.7,.83,1.24-.07,2.48-.22,3.72-.31,1.36-.09,2.73-.22,4.1-.21,2.88,.01,4.35,1.96,5.6,4.21,1.9,3.42,1.93,3.43,4.98,.87,4.25-3.57,8.92-6.54,13.43-9.74,3.75-2.66,7.33-5.57,10.93-8.43,.99-.79,1.6-.83,2.44,.23,.96,1.22,2.13,2.26,3.22,3.37,.8,.8,.67,1.42-.23,2.09-9.32,6.87-17.93,14.66-27.32,21.44-.99,.71-.47,1.14-.08,1.78,1.45,2.39,3.9,3.99,5.16,6.53,.3,.61,.76,1.14,1.06,1.75,.3,.61,1.01,1.3,0,1.89-1,.58-1.75,.3-2.28-.74-1.34-2.62-3.11-4.95-4.78-7.35-.48-.69-.89-1.05-1.79-.9-8.52,1.35-17.16,1.14-25.74,1.81-7.21,.57-14.42,1.15-21.6,2.02-1.29,.16-2.29,.64-3.26,1.55-2.36,2.22-4.95,4.18-7.2,6.52-.43,.45-1,.92-1.6,.28-.71-.75,.16-1.11,.53-1.49,1.95-1.98,3.95-3.91,6.2-6.12-1.85-.41-3.2,.16-4.56,.33-.8,.1-1.52,.14-2.34-.07-1.97-.52-2.16-.83-1.14-2.56,2.38-4.01,5.64-6.4,10.56-6.32,3.41,.06,6.89,0,10.24-.58,6.88-1.17,13.87-1.03,20.76-2.03,2.82-.41,5.72-.14,8.53-.87,.84-.22,2.02-.16,2.72,.29,1.47,.93,2.74,.15,4.22,.06Zm-1.41,6.36c2.08,.31,2.6-1.92,4.12-2.52,.05-.02,0-.48-.1-.68-.64-1.27-1.34-2.42-3.12-1.94-1.52,.41-3.03,.47-4.58-.12-.77-.29-1.83-.26-2.45,.48-1.45,1.75-3.01,1-4.71,.52-2.1-.59-4.27-.65-6.22,.59-.6,.38-1.18,.57-1.85,.76-1.99,.55-4,.13-6.06,.52-5.59,1.08-11.32,1.53-17.01,2.01-1.96,.16-4.06,.58-5.98-.73-.7-.48-1.75,.03-2.12,.98-.25,.66-.61,1.2-1.04,1.74-.8,1.02-.51,2,.75,2.15,1.55,.19,3.22,.14,4.6-.52,1.6-.77,3.27-.79,4.9-1.19,1.31-.32,2.16,.81,3.4,.68,4.52-.48,9.13-.51,13.56-1.42,1.88-.39,3.43-.61,5.33-.28,1.98,.35,4.09-.09,6.15-.23,.42-.03,.91-.1,1.23-.35,2.65-2.06,5.72-1.54,8.7-1.44,.89,.03,1.42,1.28,2.5,.98ZM106.69,3.35c2.91,.96,4.97,2.44,6.87,4.15,3.82,3.44,5.95,7.93,7.58,12.68,.46,1.33,1.11,1.74,2.44,1.61,2.72-.26,5.46-.46,8.19-.62,1.11-.06,1.44-.35,.87-1.45-1.09-2.1-2.19-4.2-3.09-6.38-2.68-6.55-13.82-12.47-22.86-10Zm-11.56,20.81s0-.04,0-.06c3.16-.27,6.31-.56,9.47-.81,.9-.07,1.33-.43,1.25-1.41-.4-5.28-1.19-10.5-2.17-15.69-.22-1.14-.86-1.35-1.69-.56-4.99,4.72-9.01,9.98-9.49,17.2-.06,.94,.09,1.44,1.14,1.35,.49-.04,.99,0,1.49,0Zm35.49,40.13c.37-.2,.71-.35,1-.56,2.75-2.05,5.55-4.04,8.22-6.18,5.64-4.53,11.18-9.17,16.82-13.69,1.12-.9,1.11-1.49,.18-2.53-1.18-1.32-2.19-1.03-3.39-.15-6.03,4.42-12.09,8.79-18.11,13.24-2.2,1.63-4.3,3.4-6.43,5.13-.55,.45-.99,1.08-.52,1.79,.67,1.01,1.06,2.24,2.22,2.96Zm-19.71-41.54c2.52-.21,4.87-.48,7.23-.57,1.41-.05,1.52-.61,1.13-1.76-.92-2.74-2.13-5.37-3.71-7.73-2.06-3.07-4.71-5.65-8.17-7.21-.54-.24-1.25-.69-1.77-.3-.57,.42-.12,1.17-.03,1.76,.64,4.19,1.3,8.37,1.99,12.55,.18,1.09-.82,2.52,.19,3.16,.8,.5,2.17,.1,3.13,.1Zm-11.97-17.66c-2.33,.48-4.37,1.52-6.34,2.68-6.13,3.6-10.66,8.55-12.77,15.48-.55,1.79-.39,1.96,1.4,1.84,2.36-.16,4.73-.31,7.09-.37,1.31-.03,1.95-.38,2.1-1.88,.29-2.84,.76-5.62,2.22-8.22,1.87-3.32,3.82-6.55,6.29-9.52Z"/>
      <path class="cls-3" d="M134.08,21.97c-8.72,.85-17.45,1.7-26.17,2.55-9.74,.38-19.49,.77-29.23,1.15,.57-2.9,1.98-7.94,5.87-12.77C92.94,2.49,105.68,1.99,108.19,1.95c3.61-.06,10.74-.17,17.21,4.96,6.8,5.39,8.33,12.96,8.68,15.06Z"/>
      <path class="cls-3" d="M129.74,67.03c-9,.82-17.99,1.64-26.99,2.46-8.58,.8-17.16,1.6-25.74,2.39-2.21-.17-4.43-.34-6.64-.51,1.83-2.04,3.66-4.09,5.49-6.13,16.89-1.36,33.79-2.72,50.68-4.09,1.06,1.96,2.13,3.91,3.19,5.87Z"/>
      <path class="cls-3" d="M155.6,38.88l-29.03,21.22c1.27,1.97,2.54,3.94,3.81,5.91,9.62-7.74,19.23-15.49,28.85-23.23-1.21-1.3-2.42-2.6-3.62-3.9Z"/>
    </g>
    <g>
      <path class="cls-2" d="M61.81,75.26c-1.65,1.63-3.4,1.46-4.93-.04-1.77-1.74-3.22-1.27-4.69,.75-1.45,2.01-2.93,1.8-4.44,.26-.77-.79-1.56-1.54-2.43-1.92-1.01-.44-2-.53-2.94,.65-.72,.91-1.54,1.59-2.31,2.4-1.26,1.35-2.48,1.96-4.03,1.06-1.98-1.15-3.95,.25-5.83,1.45-1.1,.71-2.02,.81-3-.48-1.52-1.99-3.28-1.82-5.02-1.4-2.42,.58-4.79,1.63-7.09,3.09-1.31,.83-2.52,.74-3.68-.68-.37-.45-.77-.8-1.14-1.24-2.62-3.15-4.91-1.96-7.29,1.4-.21,.29-.39,.66-.58,1-.24,.42-.53,.76-.82,.35-.34-.47-.08-.99,.09-1.45,1.42-3.93,5.75-5.97,8.08-3.87,4.64,4.17,2.44,3.87,8.89,1.06,1.9-.83,3.8-1.53,5.79-1.38,1.18,.09,2.31,.25,3.3,1.47,1.1,1.35,2.2,.47,3.17-.24,2.14-1.55,4.24-1.67,6.47-.73,1.46,.62,2.66-1.13,3.75-2.58,1.83-2.44,3.68-2.87,5.7-.98,.51,.48,1.03,.96,1.56,1.37,1.36,1.05,2.67,1.24,3.82-.83,1.27-2.29,2.78-2.51,4.27-1.03,1.5,1.5,3.02,2.26,4.71,1.97,.21-.04,.45-.09,.6,.56Z"/>
      <path class="cls-2" d="M58.6,65.76c-1.17,1.6-2.54,2.28-3.85,1.57-1.34-.73-2.53-.36-3.75,.34-1.23,.71-2.42,.79-3.64-.15-1.46-1.14-2.82,.03-4.08,1.06-1.29,1.06-2.38,1.07-3.66-.08-2.61-2.34-5.14-.84-7.54,1.19-1.05,.89-2.13,1.53-3.22,2.21-.92,.57-1.86,.55-2.54-.52-2.73-4.25-5.61-3.14-8.5-.93-2.32,1.77-4.68,2.4-7.13,1.21-.63-.31-1.27-.75-1.83-1.36-2.72-2.98-5.08-1.56-7.44,2.48-.19,.33-.35,.72-.53,1.07-.2,.39-.45,.57-.71,.23-.26-.35-.18-.82-.05-1.27,1.17-3.97,6-7.03,8.22-4.89,2.22,2.14,4.53,2.61,6.97,2.25,1.36-.2,2.47-1.66,3.74-2.37,2.62-1.46,5.04-1.41,7.37,1.39,1.5,1.8,2.99,.9,4.44-.29,1.57-1.29,3.09-2.71,4.86-3.14,1.55-.38,3.03-.15,4.42,1.01,1.11,.93,2.09,.86,3.17-.08,1.73-1.5,3.51-2.06,5.38-.56,1.06,.85,2.14,.25,3.08-.62,1.04-.95,1.99-1.07,3.06-.25,1.2,.92,2.47,.75,3.77,.49Z"/>
    </g>
    <g>
      <g>
        <path class="cls-1" d="M166.69,22.28c-.15,.39-.39,.57-.47,.63-1.01,.18-2.01,.36-3.02,.54-.83,.21-1.77,.38-2.81,.47-1.16,.1-2.21,.07-3.12-.02-.08,0-.48-.04-.79-.47-.25-.35-.29-.76-.29-.89-.08-1.05-.16-2.1-.24-3.15-.19-3.39-.38-6.78-.58-10.17-.02-.06-.16-.45-.03-.89,.17-.55,.63-.66,.66-.66,.71-.16,1.41-.32,2.12-.49,2.07-.13,4.13-.27,6.2-.4,.49-.27,1.02-.15,1.33,.28,.25,.34,.27,.77,.27,.92,.29,4.42,.57,8.84,.86,13.26,.02,.11,.11,.55-.07,1.03Z"/>
        <path class="cls-2" d="M158.01,24.21c-.2-.22-.43-.07-.65-.12-.58-.13-1.14-.43-1.29-1.14-.07-.33-.16-.67-.17-1,0-.55-.09-1.09-.1-1.64-.02-.65-.05-1.29-.15-1.93,0-.03,0-.07,0-.1,.06-.8-.07-1.58-.1-2.37-.05-1.24-.06-2.49-.17-3.73-.06-.74-.02-1.47-.07-2.19-.02-.32-.07-.63-.19-.94-.19-.5,.15-1.27,.59-1.45,.53-.21,1.09-.31,1.64-.43,1.27-.27,2.55-.12,3.83-.24,.82-.07,1.65-.01,2.45-.26,.02,0,.04-.01,.05-.01,.49,.06,.97-.1,1.46-.13,.6-.04,.94,.33,1.06,1.07,.07,.42,.03,.84,.08,1.25,.13,.99,.02,1.98,.09,2.97,.06,.83,.1,1.67,.17,2.5,.07,.94,.15,1.89,.24,2.83,.11,1.04,.22,2.08,.26,3.14,.02,.46,.01,.95,.14,1.43,.15,.58-.19,1.14-.68,1.35-.54,.23-1.12,.28-1.67,.43-.74,.2-1.5,.15-2.25,.31-1.14,.24-2.28,.3-3.43,.31-.13,0-.26,0-.37,.11h-.77Zm8.04-12.9c0-.18,0-.35,0-.53,0-.41-.06-.44-.38-.37-.51,.11-1.02,.21-1.54,.28-.73,.1-1.47,.19-2.21,.27-.75,.07-1.48,.26-2.24,.26-.38,0-.76,.07-1.14,.09-.69,.02-1.36,.27-2.04,.23-.24-.01-.47,.08-.71,.09-.14,0-.16,.09-.16,.25,.05,1.26,.08,2.52,.14,3.78,.02,.45,.02,.92,.09,1.36,.08,.55,.06,1.11,.13,1.67,.06,.47,.04,.97,.12,1.42,.14,.76,.1,1.53,.2,2.29,.09,.64,.27,1,.77,1.2,.5,.2,1.02,.11,1.53,.12,.76,.03,1.52-.08,2.28-.12,.39-.02,.79-.06,1.17-.13,.89-.17,1.78-.21,2.67-.39,.51-.1,1.03-.18,1.52-.43,.56-.29,.65-.29,.47-1.06-.01-.04,0-.09,0-.14,.02-1.09-.06-2.17-.16-3.25-.1-1.09-.13-2.19-.28-3.26-.07-.5-.01-1.01-.08-1.5-.09-.7-.12-1.41-.15-2.12Zm-7.01-3.97c-.38,0-.93,.01-1.49,.1-.62,.1-1.23,.26-1.8,.59-.31,.18-.37,.41-.3,.83,.04,.24,.1,.46,.12,.71,.02,.44,.02,.89,.02,1.33,0,.13,.02,.23,.15,.23,.38-.01,.75,0,1.13-.04,.79-.09,1.57-.3,2.37-.29,.17,0,.35,0,.52-.03,.85-.09,1.7-.15,2.54-.3,.47-.09,.95-.02,1.41-.22,.19-.08,.38-.09,.57-.1,.55-.03,1.08-.2,1.62-.3,.11-.02,.17-.09,.14-.24-.07-.47-.04-.95-.07-1.42-.04-.83-.27-1.19-.78-1.2-.92,0-1.85,.06-2.77,.15-.28,.03-.57,0-.84,.03-.78,.1-1.57,.16-2.53,.16Z"/>
        <path class="cls-2" d="M158.93,8.28c1.03,0,1.16,.17,1.1,1.23,0,.15-.05,.27-.11,.39-.06,.12-.17,.21-.25,.15-.35-.25-.68,.03-1.02,.04-.38,.01-.76,.13-1.14,.17-.37,.03-.75,.04-1.12,.11-.29,.06-.39-.07-.4-.45-.01-.3,0-.61,0-.91,0-.24,.09-.35,.25-.38,.97-.15,1.93-.31,2.69-.35Zm-2.06,1.57c.84-.05,1.66-.21,2.49-.39,.24-.05,.27-.18,.27-.43,0-.27-.11-.32-.3-.34-.62-.05-1.24,.07-1.86,.14-.32,.04-.66,.02-.97,.18-.08,.04-.15,.06-.18,.18-.1,.49,0,.69,.4,.67,.05,0,.09,0,.14,0Z"/>
        <path class="cls-2" d="M165.01,9.22c-.2-.02-.33-.18-.41-.45-.08-.27,.06-.4,.19-.51,.2-.16,.42-.27,.67-.15,.31,.16,.37,.48,.14,.8-.1,.14-.41,.31-.59,.31Z"/>
        <path class="cls-2" d="M161.82,9.44c-.32,0-.52-.21-.5-.53,0-.24,.39-.61,.61-.61,.25,0,.54,.32,.54,.59,0,.3-.29,.54-.64,.54Zm.25-.53c-.01-.1-.06-.17-.14-.17-.1,0-.18,.09-.2,.2-.03,.13,.06,.15,.14,.15,.1,0,.18-.05,.21-.19Z"/>
        <path class="cls-2" d="M163.53,8.27c.17,0,.31,.06,.42,.18,.11,.11,.16,.29,.08,.43-.12,.24-.31,.41-.54,.42-.21,0-.41-.1-.52-.36-.07-.15-.08-.28,.06-.38,.17-.11,.3-.32,.49-.29Z"/>
        <path class="cls-2" d="M162.38,20.88c1.03,0,1.16,.17,1.1,1.23,0,.15-.05,.27-.11,.39-.06,.12-.17,.21-.25,.15-.35-.25-.68,.03-1.02,.04-.38,.01-.76,.13-1.14,.17-.37,.03-.75,.04-1.12,.11-.29,.06-.39-.07-.4-.45-.01-.3,0-.61,0-.91,0-.24,.09-.35,.25-.38,.97-.15,1.93-.31,2.69-.35Zm-2.06,1.57c.84-.05,1.66-.21,2.49-.39,.24-.05,.27-.18,.27-.43,0-.27-.11-.32-.3-.34-.62-.05-1.24,.07-1.86,.14-.32,.04-.66,.02-.97,.18-.08,.04-.15,.06-.18,.18-.1,.49,0,.69,.4,.67,.05,0,.09,0,.14,0Z"/>
        <g>
          <path class="cls-2" d="M162.74,18.01c-.09-.26-.23-.48-.41-.67-.05-.06-.12-.05-.18-.05-.64,.03-1.28,.09-1.91,.2-.09,.02-.25,.05-.26-.02-.01-.13,.15-.08,.23-.1,.35-.07,.71-.12,1.07-.17-.05-.23-.07-.46-.09-.69-.04-.48-.09-.96-.12-1.44-.01-.15-.06-.2-.22-.19-.67,.06-1.34,.09-2.02,.14-.25,.02-.32-.07-.25-.31,.14-.47,.38-.87,.76-1.19,.53-.45,1.16-.66,1.84-.75,.6-.08,1.11,.08,1.59,.42,.29,.21,.44,.51,.59,.82,.07,.14,.14,.29,.21,.43,.03,.07,.11,.13,.04,.22-.06,.09-.18,.1-.25,.09-.31-.05-.62,0-.93,.01-.37,.02-.74,.06-1.11,.09-.08,0-.12,.01-.11,.12,.08,.68,.09,1.37,.21,2.05,0,.03,.02,.06,0,.1-.06,.09,.02,.08,.06,.07,.11,0,.22-.02,.33-.03,.12,0,.24-.02,.36-.02,.25,0,.38,.17,.49,.37,.17,.3,.17,.3,.44,.08,.37-.31,.78-.58,1.18-.86,.33-.23,.64-.49,.96-.74,.09-.07,.14-.07,.21,.02,.08,.11,.19,.2,.28,.3,.07,.07,.06,.13-.02,.18-.82,.6-1.58,1.29-2.4,1.89-.09,.06-.04,.1,0,.16,.13,.21,.34,.35,.45,.57,.03,.05,.07,.1,.09,.15,.03,.05,.09,.11,0,.17-.09,.05-.15,.03-.2-.07-.12-.23-.27-.44-.42-.65-.04-.06-.08-.09-.16-.08-.75,.12-1.51,.1-2.26,.16-.63,.05-1.27,.1-1.9,.18-.11,.01-.2,.06-.29,.14-.21,.2-.44,.37-.63,.57-.04,.04-.09,.08-.14,.03-.06-.07,.01-.1,.05-.13,.17-.17,.35-.34,.55-.54-.16-.04-.28,.01-.4,.03-.07,0-.13,.01-.21,0-.17-.05-.19-.07-.1-.22,.21-.35,.5-.56,.93-.56,.3,0,.61,0,.9-.05,.61-.1,1.22-.09,1.83-.18,.25-.04,.5-.01,.75-.08,.07-.02,.18-.01,.24,.03,.13,.08,.24,.01,.37,0Zm-.12,.56c.18,.03,.23-.17,.36-.22,0,0,0-.04,0-.06-.06-.11-.12-.21-.27-.17-.13,.04-.27,.04-.4-.01-.07-.03-.16-.02-.22,.04-.13,.15-.26,.09-.41,.05-.18-.05-.38-.06-.55,.05-.05,.03-.1,.05-.16,.07-.17,.05-.35,.01-.53,.05-.49,.1-1,.13-1.5,.18-.17,.01-.36,.05-.53-.06-.06-.04-.15,0-.19,.09-.02,.06-.05,.11-.09,.15-.07,.09-.04,.18,.07,.19,.14,.02,.28,.01,.4-.05,.14-.07,.29-.07,.43-.1,.11-.03,.19,.07,.3,.06,.4-.04,.8-.04,1.19-.13,.17-.03,.3-.05,.47-.02,.17,.03,.36,0,.54-.02,.04,0,.08,0,.11-.03,.23-.18,.5-.14,.77-.13,.08,0,.13,.11,.22,.09Zm-1.54-5.64c.26,.08,.44,.21,.6,.36,.34,.3,.52,.7,.67,1.12,.04,.12,.1,.15,.21,.14,.24-.02,.48-.04,.72-.05,.1,0,.13-.03,.08-.13-.1-.18-.19-.37-.27-.56-.24-.58-1.22-1.1-2.01-.88Zm-1.02,1.83h0c.28-.03,.56-.05,.83-.08,.08,0,.12-.04,.11-.12-.03-.46-.1-.92-.19-1.38-.02-.1-.08-.12-.15-.05-.44,.42-.79,.88-.84,1.51,0,.08,0,.13,.1,.12,.04,0,.09,0,.13,0Zm3.12,3.53s.06-.03,.09-.05c.24-.18,.49-.35,.72-.54,.5-.4,.98-.81,1.48-1.2,.1-.08,.1-.13,.02-.22-.1-.12-.19-.09-.3-.01-.53,.39-1.06,.77-1.59,1.16-.19,.14-.38,.3-.57,.45-.05,.04-.09,.1-.05,.16,.06,.09,.09,.2,.2,.26Zm-1.73-3.65c.22-.02,.43-.04,.64-.05,.12,0,.13-.05,.1-.15-.08-.24-.19-.47-.33-.68-.18-.27-.41-.5-.72-.63-.05-.02-.11-.06-.16-.03-.05,.04-.01,.1,0,.15,.06,.37,.11,.74,.18,1.1,.02,.1-.07,.22,.02,.28,.07,.04,.19,0,.28,0Zm-1.05-1.55c-.2,.04-.38,.13-.56,.24-.54,.32-.94,.75-1.12,1.36-.05,.16-.03,.17,.12,.16,.21-.01,.42-.03,.62-.03,.12,0,.17-.03,.19-.17,.03-.25,.07-.49,.2-.72,.16-.29,.34-.58,.55-.84Z"/>
          <path class="cls-3" d="M163.48,14.57c-.77,.07-1.53,.15-2.3,.22-.86,.03-1.71,.07-2.57,.1,.05-.25,.17-.7,.52-1.12,.74-.92,1.86-.96,2.08-.96,.32,0,.94-.02,1.51,.44,.6,.47,.73,1.14,.76,1.33Z"/>
          <path class="cls-3" d="M163.1,18.54c-.79,.07-1.58,.14-2.37,.22-.75,.07-1.51,.14-2.26,.21-.19-.01-.39-.03-.58-.04,.16-.18,.32-.36,.48-.54,1.49-.12,2.97-.24,4.46-.36,.09,.17,.19,.34,.28,.52Z"/>
          <path class="cls-3" d="M165.37,16.06l-2.55,1.87c.11,.17,.22,.35,.33,.52,.85-.68,1.69-1.36,2.54-2.04-.11-.11-.21-.23-.32-.34Z"/>
        </g>
      </g>
      <g>
        <path class="cls-2" d="M160.75,31.43c-3.34-.46-6.55-1.15-8.86-4-.64-.79-1.66-1.28-2.28-2.09-2.23-2.9-3.85-6.14-3.84-9.85,0-3.01,.99-5.79,2.98-8.2,1.1-1.34,2.14-2.68,3.49-3.81,2.83-2.36,5.8-4,9.7-3.32,1.27,.22,2.57,.63,3.92,.41,.53-.09,1.05,.22,1.51,.5,4.51,2.72,7.5,6.56,8.37,11.83,1.48,8.97-3.67,15.57-11.53,18.06-1.08,.34-2.26,.51-3.47,.48Zm13.57-15.58c.3-1.9-.35-3.83-1.09-5.72-1.52-3.85-4.1-6.7-8.19-7.83-2.22-.61-4.5-1.1-6.84-.4-4.55,1.35-7.55,4.43-9.65,8.52-1.11,2.16-1.46,4.55-1.02,6.83,.69,3.62,2.6,6.64,5.39,9.13,3.01,2.69,6.45,3.92,10.39,3.09,6.24-1.31,11.42-6.97,11.02-13.63Z"/>
        <path class="cls-2" d="M150.96,5.96c.23-.17,.44,0,.75,.26,6.43,5.66,12.85,11.3,19.28,16.94,.16,.14,.32,.32,.48,.47,.28,.26,.55,.54,.59,.91,.05,.51-.32,.22-.63,.08-.99-.46-1.96-1.62-2.88-2.49-4.43-4.16-8.91-7.59-13.33-11.76-1.11-1.05-2.26-1.84-3.38-2.82-.54-.47-1.13-1.07-.87-1.6Z"/>
        <path class="cls-2" d="M172,5.71c-.23-.17-.44,0-.75,.26-6.43,5.66-12.85,11.3-19.28,16.94-.16,.14-.32,.32-.48,.47-.28,.26-.55,.54-.59,.91-.05,.51,.32,.22,.63,.08,.99-.46,1.96-1.62,2.88-2.49,4.43-4.16,8.91-7.59,13.33-11.76,1.11-1.05,2.26-1.84,3.38-2.82,.54-.47,1.13-1.07,.87-1.6Z"/>
      </g>
    </g>
    <g>
      <g>
        <path class="cls-2" d="M117.52,52.31c-.61-.11-1.2,.2-1.8,.1-.64-.11-1.28-.07-1.91-.11-.26-.02-.53,0-.79,.01-.18,0-.29-.04-.36-.22-.08-.2,.11-.18,.17-.25,.18-.2,.37-.22,.66-.19,.34,.04,.72-.04,1.07-.1,.15-.02,.31-.06,.46-.05,.62,.05,.79-.34,.76-.85-.04-.75-.17-1.5-.26-2.25-.02-.16-.13-.15-.24-.17-.48-.1-.96-.16-1.42-.38-.81-.39-1.53-1.38-1.47-2.46,.05-.84,.41-1.57,.75-2.3,.32-.68,.34-1.4,.42-2.11,.01-.1-.04-.23-.22-.24-.63-.01-1.05-.36-1.38-.87-.23-.37-.41-.75-.37-1.2,.01-.17-.21-.26-.12-.45,.26-.55,.38-1.16,.89-1.58,.6-.5,1.57-.6,2.23-.18,.26,.17,.53,.31,.78,.49,.41,.3,.67,.68,.8,1.17,.04,.17,.1,.19,.31,.19,.68,0,1.34-.12,2.02-.12,.28,0,.54-.14,.82-.1,.1,.02,.19,.03,.28,.06,.23,.09,.28,.2,.14,.42-.51,.76-.86,1.6-1.1,2.48-.17,.62-.11,1.24,.02,1.86,.16,.79,.44,1.55,.61,2.33,.13,.58,0,1.16-.4,1.68-.69,.89-1.57,1.32-2.67,1.33-.19,0-.24,.09-.21,.25,.17,.75,.19,1.51,.28,2.26,.04,.32,.1,.68,.48,.79,.26,.07,.54,.09,.82,.1,.36,.01,.73,.05,1.09-.02,.11-.02,.25,0,.27,.13,.03,.17-.05,.32-.19,.43-.17,.13-.38,.09-.58,.1-.21,0-.42,0-.63,0Zm-1.7-4.48c.93,0,1.68-.17,2.28-.76,.4-.38,.78-.82,.7-1.4-.08-.59-.26-1.16-.43-1.73-.24-.8-.4-1.61-.32-2.44,.03-.27-.03-.37-.3-.36-.82,.04-1.64,.04-2.46,.11-.32,.03-.65,.11-.95,.03-.38-.1-.43,.08-.43,.36,0,.52-.12,1-.33,1.48-.21,.47-.41,.96-.58,1.45-.17,.47-.29,.97-.14,1.46,.26,.82,.84,1.33,1.64,1.62,.46,.17,.96,.14,1.33,.19Zm3.23-9.17c-1.85,.14-3.67,.29-5.59,.06,.43,.61,.45,1.24,.55,1.84,.03,.19,.08,.21,.26,.22,1.23,.06,2.45-.19,3.68-.12,.17,0,.28-.07,.34-.22,.22-.6,.45-1.2,.77-1.79Zm-3.89-.28c.15-.04,.46,.08,.54-.11,.09-.23-.1-.48-.29-.66,0,0-.02-.02-.02-.02-.44-.44-.94-.75-1.57-.88-.49-.1-1.16,.14-1.46,.56-.67,.95-.48,2.11,.35,2.8,.19,.16,.46,.42,.66,.28,.22-.16,.07-.49-.04-.73-.17-.35-.36-.69-.52-1.04-.13-.29-.06-.37,.25-.39,.26-.02,.49,.12,.75,.11,.23,0,.37-.04,.4-.31,.02-.19,.11-.38,.18-.57,.04-.11,.13-.15,.24-.11,.1,.03,.12,.12,.1,.22-.02,.11-.06,.21-.09,.32q-.12,.54,.5,.54Z"/>
        <path class="cls-2" d="M116.62,42.14c-.21-.03-.37-.13-.36-.33,.02-.23,.2-.32,.43-.31,.2,.01,.41,.07,.41,.3,0,.3-.29,.27-.47,.34Z"/>
        <path class="cls-2" d="M113.96,43.79c.25,0,.42,.05,.42,.29,0,.25-.16,.4-.4,.4-.23,0-.33-.16-.34-.37-.01-.26,.17-.3,.32-.31Z"/>
        <path class="cls-2" d="M116.29,45.99c-.19-.02-.3-.13-.31-.3-.02-.15,.08-.27,.24-.26,.17,0,.3,.11,.31,.29,0,.15-.09,.24-.23,.27Z"/>
        <path class="cls-2" d="M116.02,42.81c-.03,.12-.07,.23-.21,.22-.14-.01-.25-.1-.28-.24-.03-.14,.07-.18,.18-.17,.13,.01,.26,.04,.31,.19Z"/>
        <path class="cls-2" d="M117.03,43.11c.11,0,.16,.05,.15,.14-.02,.14-.02,.31-.21,.32-.13,.01-.21-.1-.2-.22,0-.15,.16-.19,.26-.25Z"/>
        <path class="cls-2" d="M113.21,37.22c.12,.02,.21,.09,.26,.19,.08,.17,.15,.34,.22,.52,.03,.06,.03,.13-.04,.18-.05,.04-.11,.03-.16,0-.24-.18-.38-.43-.45-.72-.02-.1,.05-.16,.16-.17Z"/>
        <path class="cls-2" d="M112.84,39.2c.11,0,.24,0,.22,.11-.04,.23-.25,.29-.44,.33-.1,.02-.23-.04-.22-.15,.03-.26,.29-.23,.44-.29Z"/>
      </g>
      <path class="cls-1" d="M117.37,47.88c-.17,.07-1.83,.77-3.35-.17-.21-.13-1.08-.67-1.36-1.68-.34-1.22,.5-1.99,.86-3.54,.21-.89,.29-2.21-.31-3.97,2.1-.04,4.2-.08,6.3-.13-.84,1.04-1.15,1.99-1.22,2.8-.17,2.02,1.17,3.15,.69,4.76-.26,.89-.95,1.5-1.6,1.91Z"/>
      <path class="cls-1" d="M115.78,38.47c-.32,.62-2.4,.1-2.58,.06,.65,1.48,.64,1.93,.48,2.04-.35,.25-2.1-.65-2.1-2.1,0-1.16,.94-2.1,2.1-2.1,1.39,0,2.38,1.56,2.1,2.1Z"/>
    </g>
  </g>
</svg>