<?xml version="1.0" encoding="UTF-8"?>
<svg id="Ebene_2" data-name="Ebene 2" xmlns="http://www.w3.org/2000/svg" viewBox="0 0 109.81 112.16">
  <defs>
    <style>
      .cls-1, .cls-2 {
        fill: #fe6847;
      }

      .cls-1, .cls-3 {
        opacity: .3;
      }
    </style>
  </defs>
  <g id="Ebene_1-2" data-name="Ebene 1">
    <g>
      <g>
        <path class="cls-2" d="M34.99,85.83c-5.31,.37-8.81-2.64-12.07-6.12-1.28-1.36-2.46-2.79-4.62-1.37-2.48,1.63-6.18,2.28-5.68,6.33,.31,2.44,2.53,3.73,4.47,4.9,2.59,1.56,5.03,3.31,7.27,5.33,5.59,5.05,4.09,11.13-1.98,14.53-3.18,1.78-6.64,3.26-10.41,2.55-4.3-.81-8.2-2.64-11.39-5.74-.77-.75-.8-1.92-.04-2.54,.94-.77,1.01,.61,1.44,1.01,5.59,5.16,12.76,6.31,19.75,2.5,3.96-2.16,4.27-6.84,1.27-10.15-2.47-2.72-5.79-4.13-8.64-6.25-1.42-1.06-2.71-2.2-3.58-3.75-1.66-2.95-1.02-6.04,1.75-8.05,1.67-1.21,3.37-2.47,5.42-2.9,1.56-.32,1.82-1.14,1.33-2.38-1.28-3.22-.2-6.01,1.87-8.33,5.12-5.72,11.48-9.27,19.2-10.14,2.53-.29,4.75,2.27,4.58,5.19-.06,.95-.19,1.89-.23,2.84-.14,3.13,1.17,4.04,4.23,3.26,5.03-1.29,9.14-4.3,13.18-7.24,5.81-4.23,11.54-8.67,16.74-13.62,4.03-3.83,7.51-8.31,10.72-12.93,.62-.89,.56-1.78-.07-2.64-.64-.85-1.32-.54-2.1-.17-1,.47-2.08,.77-3.09,1.21-3.52,1.52-7.05-.69-7.31-4.59-.29-4.33,.95-8.02,3.98-11.27,2.25-2.41,4.19-5.1,6.72-7.29,3.7-3.2,7.78-3.78,12.36-2.45,5.42,1.58,7.72,6.01,9.56,10.64,.88,2.2-1.05,4.33-1.6,6.51-1.8,7.14-6.41,12.8-10.28,18.85-5.97,9.34-13.85,16.94-22.43,23.78-9.53,7.6-19.77,14.1-31.18,18.67-3.01,1.2-6.01,1.79-9.11,1.8ZM89.66,26.03c4.6,2.48,5.19,4.97,2.37,8.96-2.57,3.65-5.82,6.73-8.62,10.19-3.88,4.8-9,8.25-13.62,12.24-4.89,4.22-10.16,7.99-16.07,10.61-3.59,1.59-7.45,3.11-11.36,.51-.93-.62-1.68-.01-2.39,.46-4.42,2.92-9.13,5.2-14.35,6.25-2.1,.43-1.9,1.17-.66,2.4,6.85,6.8,10.63,6.94,19.39,3.48,9.29-3.67,17.74-8.93,25.72-14.91,6.17-4.63,12.03-9.62,17.26-15.3,5.36-5.82,9.45-12.55,13.72-19.17,2.71-4.2,4.31-8.84,5.56-13.62,.22-.83,.05-1.58-.33-2.3-1.05-1.98-2.41-3.74-4.03-5.3-1.05-1.01-1.77-.85-2.26,.54-2.07,5.82-5.51,10.71-10.33,14.96Zm-9.57-1.56c.04,3.13,1.38,3.92,3.99,3.34,2.66-.59,3.79-2.68,5.32-4.44,3.36-3.87,6.05-8.16,8-12.91,.74-1.81,.05-2.55-1.75-2.52-2.06,.03-3.91,.75-5.47,2.06-3.36,2.85-6.21,6.15-8.54,9.89-.93,1.5-1.44,3.17-1.54,4.58ZM25,72.37c3.84-.3,7.63-2.38,11.53-4.12,2.72-1.21,4.88-2.65,4.93-6.18,.03-2.23-.55-3.57-2.82-3.11-6.58,1.33-12.29,4.3-16.07,10.11-1.54,2.38-.94,3.25,2.42,3.3Z"/>
        <path class="cls-2" d="M66.44,.16c-7.82,1.51-15.09,4.71-21.77,8.7-7.33,4.39-13.84,9.99-18.53,17.48-3.17,5.07-4.22,10.78-6.09,16.25-.24,.69-.25,1.63-1.14,1.49-.89-.15-.63-1.14-.67-1.82-.05-1.19,.26-2.3,.51-3.47,1.41-6.5,4.36-12.29,8.31-17.51,3.38-4.48,7.54-8.3,12.19-11.46,5.78-3.92,12.1-6.78,18.8-8.77,2.72-.81,5.48-1.31,8.38-.88Z"/>
        <path class="cls-2" d="M66.76,11.81c-2.45,.65-4.5,1.03-6.43,1.75-7.51,2.81-14.66,6.36-20.22,12.28-5.01,5.34-9.14,11.32-10.82,18.65-.18,.78,.1,2.24-1.05,1.9-1.03-.3-1.65-1.63-1.14-2.99,.85-2.28,1.52-4.64,2.8-6.74,1.92-3.16,3.9-6.28,5.84-9.42,2.97-4.8,7.89-7.26,12.46-10.03,4.79-2.9,10.17-4.49,15.55-5.98,.8-.22,1.7-.36,3.02,.57Z"/>
        <path class="cls-2" d="M64.41,22.73c-.51,1.09-1.54,.51-2.3,.71-9.06,2.36-15.8,7.87-20.82,15.58-.78,1.2-1.03,2.78-1.08,4.31-.02,.56-.2,1.46-.89,1.52-.88,.08-1.07-.96-1.2-1.51-.54-2.2,.13-4.39,1.37-6.07,5.06-6.87,11.11-12.57,19.65-14.91,1.21-.33,3.99-.14,5.28,.37Z"/>
        <path class="cls-2" d="M47.91,41.68c-.13-1.8,1.33-2.53,2.26-3.52,2.55-2.73,5.45-5.01,9-6.34,.73-.27,1.67-.78,2.06,.18,.3,.75-.8,.81-1.28,1.1-3,1.8-5.86,3.78-8.22,6.4-.67,.74-1.47,1.37-1.58,2.56-.04,.46-.16,1.58-1.2,1.38-.97-.19-1.17-.94-1.04-1.75Z"/>
      </g>
      <g class="cls-3">
        <path class="cls-2" d="M34.99,85.83c-5.31,.37-8.81-2.64-12.07-6.12-1.28-1.36-2.46-2.79-4.62-1.37-2.48,1.63-6.18,2.28-5.68,6.33,.31,2.44,2.53,3.73,4.47,4.9,2.59,1.56,5.03,3.31,7.27,5.33,5.59,5.05,4.09,11.13-1.98,14.53-3.18,1.78-6.64,3.26-10.41,2.55-4.3-.81-8.2-2.64-11.39-5.74-.77-.75-.8-1.92-.04-2.54,.94-.77,1.01,.61,1.44,1.01,5.59,5.16,12.76,6.31,19.75,2.5,3.96-2.16,4.27-6.84,1.27-10.15-2.47-2.72-5.79-4.13-8.64-6.25-1.42-1.06-2.71-2.2-3.58-3.75-1.66-2.95-1.02-6.04,1.75-8.05,1.67-1.21,3.37-2.47,5.42-2.9,1.56-.32,1.82-1.14,1.33-2.38-1.28-3.22-.2-6.01,1.87-8.33,5.12-5.72,11.48-9.27,19.2-10.14,2.53-.29,4.75,2.27,4.58,5.19-.06,.95-.19,1.89-.23,2.84-.14,3.13,1.17,4.04,4.23,3.26,5.03-1.29,9.14-4.3,13.18-7.24,5.81-4.23,11.54-8.67,16.74-13.62,4.03-3.83,7.51-8.31,10.72-12.93,.62-.89,.56-1.78-.07-2.64-.64-.85-1.32-.54-2.1-.17-1,.47-2.08,.77-3.09,1.21-3.52,1.52-7.05-.69-7.31-4.59-.29-4.33,.95-8.02,3.98-11.27,2.25-2.41,4.19-5.1,6.72-7.29,3.7-3.2,7.78-3.78,12.36-2.45,5.42,1.58,7.72,6.01,9.56,10.64,.88,2.2-1.05,4.33-1.6,6.51-1.8,7.14-6.41,12.8-10.28,18.85-5.97,9.34-13.85,16.94-22.43,23.78-9.53,7.6-19.77,14.1-31.18,18.67-3.01,1.2-6.01,1.79-9.11,1.8ZM80.09,24.46c.04,3.13,1.38,3.92,3.99,3.34,2.66-.59,3.79-2.68,5.32-4.44,3.36-3.87,6.05-8.16,8-12.91,.74-1.81,.05-2.55-1.75-2.52-2.06,.03-3.91,.75-5.47,2.06-3.36,2.85-6.21,6.15-8.54,9.89-.93,1.5-1.44,3.17-1.54,4.58ZM25,72.37c3.84-.3,7.63-2.38,11.53-4.12,2.72-1.21,4.88-2.65,4.93-6.18,.03-2.23-.55-3.57-2.82-3.11-6.58,1.33-12.29,4.3-16.07,10.11-1.54,2.38-.94,3.25,2.42,3.3Z"/>
      </g>
      <ellipse class="cls-1" cx="32.19" cy="65.91" rx="11.93" ry="5.49" transform="translate(-28.64 24.93) rotate(-30)"/>
      <ellipse class="cls-1" cx="88.74" cy="17.33" rx="14.17" ry="5.49" transform="translate(17.54 73.05) rotate(-49.1)"/>
    </g>
  </g>
</svg>