<?xml version="1.0" encoding="UTF-8"?>
<svg id="Ebene_2" data-name="Ebene 2" xmlns="http://www.w3.org/2000/svg" viewBox="0 0 121.67 98.05">
  <defs>
    <style>
      .cls-1 {
        opacity: .3;
      }

      .cls-1, .cls-2 {
        fill: #fe6847;
      }
    </style>
  </defs>
  <g id="Ebene_1-2" data-name="Ebene 1">
    <g>
      <path class="cls-2" d="M121.67,93.94c-.6,.17-1.21,.51-1.8,.48-6.37-.35-12.69,.47-19.03,.75-6.73,.29-13.47,.29-20.19,.83-4.83,.38-9.7,.23-14.55,.25-9.6,.06-19.18,.58-28.78,.72-4.1,.06-8.25,.52-12.35,.38-6.17-.22-12.31,.2-18.46,.3-1.8,.03-3.57,.55-5.41,.37-1.01-.1-1.27,.04-.93-1.26,.66-2.52,2.29-3.06,4.41-2.73,1.75,.27,2.05-.46,1.91-1.92-.55-5.47,.94-10.69,2.62-15.73,1.89-5.69,6.8-8.53,12.21-10.2,1.97-.61,2.49-1.34,2.4-3.24-.24-5.65,1.35-10.68,5.21-14.96,1.21-1.34,2.25-2.78,3.65-3.99,2.29-1.98,4.97-1.91,7.63-2.08,1.71-.11,1.97-.94,1.98-2.46,.03-4.87,.99-9.6,3.27-13.91,2.76-5.23,7.96-6.82,13.22-8.18,.77-.2,1.59-.21,2.32-.49,1.02-.4,2.89,.62,3-1,.11-1.68-.03-3.61-1.81-4.83-2.9-1.99-3.19-4.63-.68-7.03,.99-.95,1.97-1.82,2.47-3.11,.32-.83,.86-.96,1.69-.85,.83,.11,1.27,.33,1.36,1.27,.12,1.31,.9,2.22,1.96,3.06,2.11,1.68,2.08,3.23,.1,5.12-1.37,1.31-3.32,2.18-2.76,4.74,.26,1.21,.57,1.83,1.88,1.92,3.62,.24,7.24,.58,10.57,2.19,2.43,1.17,4.38,2.93,5.78,5.24,2.24,3.66,3.86,7.56,4.73,11.78,.16,.79,.42,1.58,.26,2.33-.54,2.56,.9,3.34,2.99,3.3,2.46-.05,3.88,1.33,4.79,3.28,2.38,5.12,5.65,10.09,5.67,15.85,0,2.79,1.32,3.42,2.95,4.82,6.16,5.29,9.46,12.11,9.74,20.29,.05,1.55,.67,3.04,.1,4.67-.36,1.03,.61,1.13,1.51,1.19,1.52,.1,2.86-1.14,4.41-.51v3.35Zm-11.28-15.84c-3.77,3.86-6.31,3.9-10.22,.54-1.08-.93-2.16-1.9-3.35-2.67-3.01-1.95-5.79-1.4-7.94,1.44-.43,.57-.87,1.14-1.32,1.7-3.35,4.11-5.79,4.5-10.26,1.65-2.38-1.52-4.88-2.96-7.76-2.68-2.91,.29-5.87,.61-8.57,1.92-2,.97-3.84,.76-5.53-.74-.65-.58-1.36-1.1-2.05-1.64-3.79-2.91-8.85-4.55-13.33-.1-1.95,1.94-4.43,3.38-6.77,4.88-3.27,2.1-4.98,1.66-7.16-1.59-.71-1.06-1.37-2.15-2.13-3.18-.81-1.1-1.92-1.65-3.32-1.47-3.89,.5-6.47,3.49-9.61,5.35-1.51,.89-1.27,3.63-1.67,5.56-.3,1.46,0,3.02-.15,4.52-.21,2.14,.53,2.95,2.79,2.92,12.79-.16,25.59,.05,38.37-.37,6.34-.21,12.7-.21,19.05-.63,8-.53,16.04-.88,24.09-.84,5.22,.03,10.44-.72,15.66-1.12,.73-.06,1.65-.09,1.66-.99,.04-4.02,.52-8.07-.49-12.49Zm-19.2-12.79c.56,0,1.19,0,1.83,0,5.2,0,5.24-.05,4.87-5.15-.05-.63,0-1.27-.05-1.91-.15-2.22-.49-4.4-1.04-6.56-.36-1.41-1.2-1.68-2.59-1.85-3.55-.42-6.05,1.48-8.65,3.32-3.67,2.6-4.16,2.65-7.75-.08-2.96-2.25-6-2.73-9.35-1.02-1.47,.75-3.19,1.27-4.61,.54-3.17-1.62-4.88-.37-6.6,2.28-1.58,2.44-2.85,2.49-5.51,1.17-2.44-1.21-4.6-2.85-6.76-4.45-3.27-2.42-6.45-2.3-9.71-.09-1.32,.89-2.66,2.52-3.97,2.5-3.09-.05-2.9,2.28-3.54,3.96-.47,1.24-.52,2.64-.77,3.96-.64,3.33-.52,3.49,2.87,3.48,10.64-.02,21.28,.02,31.93,.36,9.76,.31,19.57,.68,29.41-.47ZM14.06,76.7c.25-.17,.49-.35,.74-.52,4.55-2.96,9.65-4.33,12.4,2.14,.15,.36,.43,.67,.65,1,.91,1.4,2.08,1.89,3.67,1.13,2.74-1.3,5.22-2.97,7.42-5.08,4.27-4.07,7.22-4.55,12.55-2.16,1.5,.67,2.99,1.62,4.14,2.79,1.93,1.96,3.8,2.09,6.23,1.01,4.17-1.86,8.51-2.69,12.91-.62,1.8,.84,3.55,1.8,5.34,2.66,2.36,1.13,4.14,.67,5.48-1.58,1.13-1.88,2.58-3.43,4.2-4.85,.78-.68,1.63-1.29,2.8-1.05,2.67,.56,5.2,1.31,7.33,3.21,1.35,1.21,2.95,2.15,4.48,3.15,.77,.5,1.61,.66,2.36-.17,2.33-2.57,2.3-5.28-.14-7.75-.44-.45-.94-.85-1.46-1.22-2.35-1.66-5.1-.73-7.61-.95-8.4-.72-16.8,.59-25.23,.43-14.55-.28-29.09-1.17-43.65-.53-6.47,.28-11.67,2.78-14.61,8.96ZM63.01,40.98c7.31-.08,14.62,.03,21.92-.61,.86-.08,2.11,.24,1.86-1.39-.66-4.27-1.94-8.34-3.85-12.22-.81-1.64-1.86-1.7-3.24-.71-1.56,1.13-3.24,1.68-5.15,.86-.95-.41-1.66,.07-2.37,.66-3.6,2.97-5.66,2.71-8.47-1.02-1.78-2.37-3.8-3-6.63-2.08-2.33,.76-4.62,1.74-7.16,.89-.89-.3-1.25,.46-1.65,1.05-2.72,4.08-3.5,8.62-3.28,13.42,.05,1.11,.59,1.19,1.55,1.18,5.49-.06,10.98-.03,16.47-.03Zm-32.58,10.98c1.13-.86,2.17-1.91,3.41-2.55,3.93-2.04,7.86-4.06,12.08-.34,1.59,1.4,3.6,2.34,5.46,3.41,3.26,1.86,3.27,1.84,5.35-1.24,1.76-2.6,2.9-3.18,5.57-2.13,2.35,.92,4.4,.73,6.65-.27,3.6-1.61,7-.94,10.05,1.49,2.85,2.27,3.85,2.3,6.54-.26,2.44-2.32,4.94-4.34,8.65-3.08,.07,.02,.22-.16,.36-.28-.92-3.19-3.7-3.38-6.15-3.35-15.67,.19-31.34-.65-47.02,.58-5.65,.44-8.98,3.07-10.95,8.02Zm21.63-29.09c1.56,.22,2.43-.24,3.28-.59,5.01-2.11,8.12-1.74,11.47,3.2,.52,.76,1.46,1.51,2.2,.77,2.39-2.39,5.12-2.91,8.26-2.04,.27,.08,.64-.06,.93-.17,1.43-.57,1.71-1.31,.36-2.34-.98-.75-2.13-1.06-3.26-1.43-5.67-1.85-11.32-1.02-16.94,.18-2.05,.44-4.16,.85-6.3,2.43Zm15.32-15.68c-.27-1.29-1.11-2.31-2.26-2.49-1.39-.22-2.07,1.05-2.26,2.25-.22,1.45,.94,1.88,2.08,2.05,1.36,.21,1.94-.75,2.43-1.81Z"/>
      <path class="cls-1" d="M118.81,93.11c-38.66,1-77.32,2-115.98,3,1.82-.77,3.64-1.53,5.46-2.3-.35-1.41-2.29-9.93,3.06-18,4.59-6.92,11.49-8.93,13.21-9.38-.08-.95-.94-13.92,8.62-20.78,3.83-2.75,7.84-3.45,10.24-3.64-.14-1.01-1.42-11.61,6.61-19.05,6.32-5.86,14.04-5.71,15.61-5.65,.22-1.59,.25-3.82-.86-5.94-1.29-2.46-3.18-2.97-3.43-4.72-.17-1.2,.42-3.01,4-5.62,1.02,1.76,2.04,3.51,3.06,5.27-.59,.58-2.11,2.24-2.59,4.88-.59,3.28,.86,5.79,1.24,6.41,2.17-.28,7.09-.59,11.87,2.2,6.61,3.85,10.23,12.01,9.29,20.78,2.28,.51,4.01,1.37,5.27,2.2,8.98,5.94,8.14,19.47,8.04,20.78,2.17,1.17,6.81,4.07,10.05,9.77,4.72,8.29,3.06,16.53,2.59,18.57,1.54,.4,3.09,.81,4.63,1.21Z"/>
    </g>
  </g>
</svg>