<?xml version="1.0" encoding="UTF-8"?>
<svg id="Ebene_2" data-name="Ebene 2" xmlns="http://www.w3.org/2000/svg" viewBox="0 0 114.38 89.26">
  <defs>
    <style>
      .cls-1 {
        opacity: .3;
      }

      .cls-1, .cls-2 {
        fill: #fe6847;
      }
    </style>
  </defs>
  <g id="Ebene_1-2" data-name="Ebene 1">
    <g>
      <path class="cls-1" d="M112.43,75.19c-.55,.72-1.49,1.76-2.94,2.43-2.95,1.35-4.96-.26-7.28,1.15-1.77,1.08-1.29,2.43-3.06,3.96-1.72,1.48-3.76,1.56-7.02,1.66-1.43,.05-5.75,.09-11.74-1.4-3.11-.78-4-1.31-6.38-1.4-2.92-.12-4.99,.53-6.38,.89-8.54,2.23-18.73,.77-20.55,.51-2.75-.39-6-1.09-8.43,.77-1.14,.88-1.13,1.58-2.43,2.43-2.08,1.36-3.8,.67-7.4,.77-5.97,.17-7.31,2.25-9.57,.89-2.03-1.21-1.5-3.23-3.44-4.72-2.39-1.84-6.16-1.07-9.37,.11-2.07-11.81-3.73-25.39-4.3-40.45-.5-13.18-.09-25.26,.8-36,16.46-1.21,33.3-2.24,50.52-3.06,17.3-.83,34.24-1.42,50.81-1.79,1.08,7.32,1.82,13.27,2.3,17.36,.89,7.56,1.05,10.29,2.04,16.09,.67,3.9,.79,3.82,2.3,11.74,1.43,7.5,2.15,11.31,2.34,14.05,.23,3.28,.26,8.09-.81,14.04Z"/>
      <g>
        <path class="cls-2" d="M6.83,5.04c5.81-.08,11.63-.32,17.44-.55,8.1-.32,16.23-.49,24.28-1.26,9.63-.92,19.28-.69,28.89-1.58,7.17-.67,14.36-1.12,21.56-1.19,.4,0,.8,.02,1.19-.06,5.01-.99,5.38-.39,5.94,4.52,.68,6,.75,12.07,2.09,18.01,.43,1.9,.39,3.9,.6,5.85,.91,8.59,2.63,17.03,4.01,25.53,.72,4.41,1.64,8.88,1.29,13.44-.16,2.11,.59,4.15,.08,6.39-.62,2.73-1.68,4.55-4.61,4.69-1.92,.1-3.73,.76-5.64,.71-.64-.02-1.52,.02-1.37,.89,.64,3.6-2.39,3.81-4.34,4.17-5.05,.94-10.18,1.52-15.36,1.31-1.5-.06-2.56-.37-3.32-1.76-.63-1.16-1.35-1.94-3.11-1.81-10.53,.75-21.04,1.94-31.62,1.8-.55,0-1.12,.07-1.66-.02-2.05-.35-3.71,.15-4.74,2.08-.91,1.72-2.48,2-4.21,2-3.11,0-6.21-.01-9.32,0-1.09,0-2.08,.08-3.16,.66-2.09,1.12-3.9-.38-4.76-1.89-1.56-2.77-3.71-3.27-6.49-2.91-.94,.12-1.91,.01-2.87,.05-1.21,.05-1.67-.4-2.06-1.68-1.78-5.87-1.82-11.91-2.28-17.93-.61-8.01-1.8-15.99-2.12-24-.19-4.88-1.64-9.63-1.07-14.55,.63-5.34,1.01-10.71,.91-16.1-.01-.71,.04-1.45-.14-2.12-.54-1.93,.87-2.38,2.13-2.63,1.22-.24,2.53-.05,3.8-.05ZM39.59,82.13c8.3,.53,16.35,.11,24.34-.63,14.39-1.32,28.79-2.53,43.13-4.45,3.88-.52,4.92-1.51,4.86-5.49-.03-2.06-.53-4.12-.45-6.17,.3-8.52-2.43-16.61-3.41-24.96-.92-7.86-1.91-15.74-3.18-23.57-.63-3.87-.06-7.78-1.04-11.62-.48-1.88-1.08-2.54-3.11-2.6-5.59-.15-11.14,.39-16.68,.77-7.08,.48-14.16,.34-21.22,.77-10.07,.61-20.12,1.42-30.19,1.99-8.8,.5-17.61,.79-26.42,1.15-3.06,.13-3.22,.25-3.22,3.31,0,8.29-.16,16.57,.07,24.85,.09,3.39,.14,6.86,.69,10.2,1.15,6.91,1.57,13.87,2.14,20.82,.39,4.74,.92,9.47,1.38,14.21,.08,.82,.26,1.23,1.31,1.15,10.43-.86,20.83,1.11,31.01,.26Zm60-1.69c-5.83,.59-11.66,1.19-17.98,1.83,2.84,2.17,16.01,.94,17.98-1.83Zm-81.2,4.06c.34,1.6,1.46,1.86,2.68,1.82,4.35-.14,8.69-.31,13.03-.5,.51-.02,1.16,.07,1.32-.83-5.64-.51-11.27-.29-17.03-.49Z"/>
        <path class="cls-2" d="M11.76,39.56c.03-4.87-.94-9.61-1.73-14.38-.65-3.88,.85-5.58,4.77-6.21,9.06-1.46,18.2-1.44,27.32-1.82,7.15-.3,14.27-1.06,21.44-1.04,4.15,.01,5.54,1.14,7.1,5.03,2.28,5.69,2.8,11.71,3.57,17.69,.86,6.76,1.44,13.55,2.29,20.3,.58,4.64-1.6,7.64-6.47,8.01-13.24,1.01-26.31,3.08-39.34,5.62-4.18,.81-8.59,.62-12.8-.38-1.73-.41-2.43-2.12-2.73-3.83-1.38-7.8-1.85-15.73-3.38-23.52-.35-1.76-.05-3.65-.05-5.48Zm3.45-3.76c-.25,6.99,.76,13.69,1.24,20.42,.25,3.52,.75,7.09,1.58,10.57,.47,1.96,1.36,2.7,3.31,2.09,1.53-.48,3.14-.42,4.72-.58,5.84-.59,11.66-1.28,17.48-2.03,3.77-.49,7.53-1.57,11.26-1.78,5.21-.3,10.16-1.82,15.28-2.33,2.01-.2,2.62-1.08,2.44-2.92-.52-5.36-.98-10.71-2.25-15.98-1.63-6.79-3.13-13.62-4.33-20.52-.51-2.91-1.09-3.1-4.08-2.73-1.18,.15-2.39,.08-3.58,.15-4.12,.26-8.27,.33-12.36,.88-5.2,.7-10.4,1.29-15.62,1.77-4.27,.39-8.56,.56-12.83,.94-3.01,.27-3.49,.74-2.85,3.47,.69,2.93,.4,5.86,.57,8.57Z"/>
        <path class="cls-2" d="M107.29,67.79c-.04,1.27-.97,2.55-2.88,2.85-5.15,.82-10.31,1.65-15.55,1.8-.48,.01-.96,0-1.43,.05-3.69,.41-4.38-.07-5.22-3.62-.5-2.14,.47-3.56,2.56-3.97,6.17-1.21,12.47-.78,18.67-1.62,2.31-.31,3.8,1.4,3.83,4.51Zm-18.97,2.32c4.39-.67,9.37-.3,14.16-1.66,.83-.24,1.92-.26,1.75-1.49-.14-1.08-1.16-.86-1.92-.92-4.78-.35-9.48,.86-14.26,.72-.62-.02-1.24,.26-1.86,.4-.63,.14-1.35,.25-1.27,1.11,.08,.81,.37,1.61,1.28,1.82,.53,.12,1.11,.02,2.13,.02Z"/>
        <path class="cls-2" d="M101.75,53.73c1.63,.24,3.5-.53,3.69,.66,.23,1.41-1.76,1.23-2.8,1.45-5.51,1.15-11.05,2.18-16.59,3.18-.88,.16-2.05,.39-2.35-.94-.24-1.04,.34-1.73,1.37-1.83,5.77-.53,11.46-1.56,16.67-2.52Z"/>
        <path class="cls-2" d="M81.9,23.07c-2.32,.01-4.08-1.55-4.15-3.67-.05-1.6,2.06-3.19,4.29-3.24,2.23-.05,4.28,1.71,4.21,3.62-.07,1.61-2.27,3.28-4.35,3.29Z"/>
        <path class="cls-2" d="M97.05,22.24c-1.78,.05-3.95-1.57-4.07-2.92-.15-1.59,2.13-3.18,4.67-3.06,1.81,.09,2.66,1.4,2.67,3.05,.01,2.18-1.88,2.43-3.27,2.94Z"/>
        <path class="cls-2" d="M103.78,38.4c-1.98,.3-3.53,.51-5.07,.78-4.05,.73-8.09,1.5-12.14,2.25-.16,.03-.31,.09-.47,.09-.97-.02-2.48,.58-2.7-.63-.23-1.31,1.42-1.22,2.33-1.42,4.82-1.09,9.77-1.11,14.64-1.82,.94-.14,2.04-.34,3.41,.74Z"/>
        <path class="cls-2" d="M94.54,30.85c-1.9,1.1-4.08,1.38-6.1,2.12-2.44,.9-5.05,1.36-7.59,2.02-1.15,.3-2.46,.45-2.79-.91-.41-1.65,1.2-1.4,2.08-1.46,4.82-.3,9.44-2.08,14.4-1.78Z"/>
        <path class="cls-2" d="M97.53,46.65c-3.18,.84-6.36,1.73-9.56,2.48-.78,.18-2.03,.25-2.17-.83-.14-1.08,1.13-.91,1.8-1.04,2.86-.57,5.75-1.03,8.63-1.48,.4-.06,.85,.14,1.28,.22,0,.21,.02,.43,.03,.64Z"/>
      </g>
    </g>
  </g>
</svg>