<?xml version="1.0" encoding="UTF-8"?>
<svg id="Ebene_2" data-name="Ebene 2" xmlns="http://www.w3.org/2000/svg" viewBox="0 0 200.71 200.51">
  <defs>
    <style>
      .cls-1 {
        opacity: .3;
      }

      .cls-1, .cls-2 {
        fill: #fe6847;
      }

      .cls-3 {
        fill: none;
        stroke: #fe6847;
        stroke-miterlimit: 10;
      }
    </style>
  </defs>
  <g id="Ebene_1-2" data-name="Ebene 1">
    <path class="cls-2" d="M143.97,47.8c-5.33,2.08-9.79,4.61-14.21,7.26-7.19,4.31-14.45,8.51-21.73,12.68-1.09,.62-1.22,1.19-1.09,2.41,.46,4.26-1.02,7.81-4.69,10.18-.72,.46-.73,.76-.66,1.43,.09,.95,.02,1.91,.03,2.87,.02,4.6,.24,9.19,.43,13.78,.3,7.37-.57,14.74-.46,22.14,.12,7.68,.59,15.31,1.71,22.89,.22,1.49,1.22,2.32,2.71,2.63,2.54,.52,5.05,1.24,7.61,1.55,1.48,.18,2.3,1.03,3.11,1.95,1.99,2.24,1.1,4.97-1.83,5.59-2.15,.46-4.33,.96-6.51,1.07-7.12,.38-14.18,1.45-21.35,1.25-2.48-.07-5.12,.06-7.54,1.27-1.42,.71-6.25-.97-7.12-2.31-.98-1.51-.51-3.03,.75-4.01,1.88-1.47,4.06-2.3,6.51-2.6,4.01-.49,8.06-.25,12.06-.98,1.88-.34,3.11-1.04,3.24-3.09,.08-1.26,.25-2.52,.3-3.78,.69-17.27-1.06-34.49-1.14-51.74-.01-3.18,.04-6.36,0-9.54,0-.7,.43-1.65-.73-1.98-.93-.27-1.71-.33-2.59,.39-4.71,3.86-9.46,7.67-14.64,10.88-6.31,3.91-12.34,8.3-19.02,11.6-1.46,.72-1.85,1.44-1.03,2.93,1.61,2.91,2.52,6.12,3.76,9.19,.3,.73,.48,1.62,1,2.13,3.67,3.64,1.18,8.12,1.66,12.18,.15,1.27-.97,2.42-2.67,2.87-4.27,1.11-8.48,1.67-12.83,.56-1.17-.3-1.97-.94-2.07-2.01-.34-3.62-.92-7.23-.64-10.89,.02-.31,.01-.81,.18-.9,4.07-2.12,4.72-6.62,5.81-10.12,1.59-5.13,5.03-7.47,9.18-9.64,9.84-5.13,18.83-11.55,27.64-18.23,1.37-1.04,2.32-2.6,4.19-2.99,.92-.19,.26-1.03,.12-1.36-1.71-4.2,.73-8.01,4.85-9.3,1.76-.55,1.13-1.75,1.07-2.66-.41-6.22-1.04-12.42-.99-18.66,0-.81-.43-2.06,.74-2.22,1.32-.18,1.08,1.12,1.37,1.99,.39,1.18,.33,2.32,.34,3.49,.03,5.53,1.28,11.03,.49,16.59-.03,.21-.06,.48,.05,.63,.37,.5,6.07,1.43,6.67,1.13,6.32-3.1,12.34-6.79,18.28-10.49,6.79-4.23,13.89-7.79,20.96-11.45,2.85-1.47,3.34-.91,4.2,1.98,.85,2.85-.42,5.61,.35,8.4,.33,1.2,.45,1.72,1.77,1.2,.86-.34,1.82-.54,2.74-.58,1.46-.06,2.56,.61,2.08,2.22-.89,3.01-.58,6.08-.55,9.11,.02,1.94-.56,3.76-.63,5.66-.04,1.07-.94,1.32-1.79,1.6-3.51,1.15-7.07,2.18-10.5,3.54-3.82,1.51-5.38,1.1-7.17-2.73-1.34-2.86-1.85-5.99-2.54-9.06-.16-.69,.19-1.38,.74-1.65,5.72-2.79,6.61-8.69,8.93-13.68,.32-.7,.62-1.41,1.12-2.58Zm-69.07,107.06c1.53,.62,2.78,.78,4.06,.63,7.11-.84,14.27-.73,21.39-1.33,3.87-.32,7.74-.72,11.58-1.24,.96-.13,2.67,0,2.58-1.45-.08-1.18-1.66-1.26-2.71-1.56-.38-.11-.8-.05-1.18-.13-2.03-.4-4.06-.77-6.07-1.25-2.22-.54-3.42-1.98-4.02-4.23-.74-2.77-.18-5.56-.55-8.31-.62-4.65-.96-9.32-.92-14.01,.07-7.45,.3-14.9,.46-22.36,.01-.71,.04-1.45-.08-2.14-.88-4.98-.57-9.99-.25-14.99,.09-1.36-.38-1.69-1.43-1.88-1.3-.24-1.45,.62-1.46,1.58-.04,2.78-.09,5.56-.09,8.34,0,8.26,.58,16.5,1.02,24.74,.51,9.6-.06,19.26,.2,28.88,.13,5.02-1.83,6.53-6.25,7.3-3.58,.62-7.25,.79-10.88,1.11-1.93,.17-3.7,.67-5.38,2.29ZM153.68,62.55c-.76-1.13,.22-3.94-1.54-3.59-5.1,1.01-10.09,2.71-14.45,5.77-.23,.16-.3,.55-.46,.83-1.18,2.11-.12,7.99,1.7,9.54,.68,.58,1.42,.73,2.22,.44,3.43-1.26,7.02-2.09,10.25-3.88,.98-.54,1.68-1.21,1.71-2.38,.06-2.23-.03-4.46,.57-6.73ZM53.52,120.22s0-.09,0-.14c-1.27,0-2.55,.11-3.8-.02-2.3-.24-2.96,.55-2.8,2.95,.45,6.58,.67,6.92,7.17,6.79,5.51-.11,5.9-.49,5.89-5.94q0-3.71-3.61-3.65c-.95,.01-1.9,0-2.85,0Zm50.86-47.87c.15-2.44-1.64-3.92-5.04-4.18-2.82-.21-5.6,1.97-5.79,4.54-.19,2.59,2.5,5.34,5.46,5.57,2.64,.2,5.18-2.6,5.38-5.93Zm-50.77,32.15c-1.79,4.11-3.32,8.05-5.3,11.79-.63,1.19,.36,1.05,1.05,1.1,2.6,.19,5.22-.33,7.81,.46,1.01,.31,1.9-.09,1.28-1.59-1.58-3.78-2.52-7.82-4.84-11.76Zm88.14-45.43c.63-.12,1-.16,1.36-.27,1.35-.42,2.89-.59,3.99-1.37,1.49-1.06-.16-2.6,.03-3.99,.25-1.79,.06-3.64,.06-5.47-2.4,3.47-4.06,7.07-5.44,11.1Z"/>
    <circle class="cls-1" cx="100.96" cy="99.76" r="99.75"/>
    <circle class="cls-3" cx="100.25" cy="100.25" r="99.75"/>
  </g>
</svg>