<?xml version="1.0" encoding="UTF-8"?>
<svg id="Ebene_2" data-name="Ebene 2" xmlns="http://www.w3.org/2000/svg" viewBox="0 0 70.64 38.65">
  <defs>
    <style>
      .cls-1 {
        opacity: .3;
      }

      .cls-1, .cls-2 {
        fill: #fe6847;
      }
    </style>
  </defs>
  <g id="Ebene_1-2" data-name="Ebene 1">
    <g>
      <path class="cls-2" d="M25.94,36.47c-2.64-4.13-5.74-7.29-9.87-9.38-2.86-1.45-2.83-1.76-.88-4.04,1.35-1.57,2.96-2.98,3.49-5.2,.22-.92,1.06-1.78,2.28-1.82,6.23-.22,12.37-1.58,18.66-1.4,2.31,.07,4.65-.7,7.06-.62,1.3,.05,2.09,.68,2.4,1.58,1.17,3.43,2.72,6.67,4.34,9.89,.15,.29,.21,.57,.22,.85,.01,1.03-.93,1.8-1.24,2.06-1.25,1.06-4.46,4.21-8.87,8.53-.16,.08-.32,.17-.48,.24-2.93,1.41-8.33,2.78-17.11-.68Zm22.05-9.25c-3.22,.69-6.28,.68-9.38,.51-1.01-.05-2.35-.02-2.32,1.69,.03,2.07,0,4.13,0,6.2,0,.9,.31,1.56,1.33,1.63,.89,.06,1.83,.17,2.09-1.02,.28-1.27,1.25-1.98,2.09-2.82,2.07-2.06,4.13-4.13,6.19-6.19Zm-14.44,4.89s0,0-.01,0c0-.95,0-1.9,0-2.86,0-.9-.35-1.58-1.36-1.59-2.47-.03-4.83-.98-7.32-.77-.53,.04-1.24-.26-1.51,.35-.26,.6,.35,1.07,.74,1.34,2.48,1.74,4.12,4.11,5.43,6.78,.57,1.16,1.78,1.29,2.9,1.14,1.35-.18,1.09-1.34,1.13-2.26,.03-.71,0-1.43,0-2.14Zm7.44-13.93c-.14,.24-.27,.48-.41,.72,1.47,1.31,2.94,2.63,4.42,3.93,.58,.51,1.24,.74,1.97,.34,.85-.46,.57-1.17,.41-1.88-.78-3.5-1.52-4.01-5.02-3.4-.46,.08-.92,.19-1.37,.29Zm-12.47,.32c-3.5,1.26-7.84-.25-8.85,4.68,3.74,.61,6.39-.69,8.85-4.68Zm3.05,5.72c1.34,.3,2.06-.78,2.38-2.35,.21-1.06,.84-2.58-.23-3.01-1.15-.46-2.15,.95-3.11,1.73-.24,.2-.49,.41-.68,.66-.53,.72-1.86,1.13-1.44,2.19,.41,1.02,1.65,.62,3.08,.79Zm5.83-4.58c-.36,1.13-.62,1.94-.88,2.76-.32,.97,.02,1.64,1.02,1.68,1.7,.07,3.44,.33,5.68-.34-2.28-1.29-4.05-2.51-5.82-4.1Z"/>
      <path class="cls-2" d="M13.99,18.03c-3.93,1.24-7.36-.15-10.87-.83-.81-.16-1.32-.93-1.08-1.85,.25-.96,.95-1.49,1.94-1.33,.84,.13,1.69,.37,2.47,.7,2.53,1.07,5.03,2.2,7.54,3.31Z"/>
      <path class="cls-2" d="M62.95,2.24c-.19,.45-.33,.81-.49,1.17-1.37,2.99-2.78,5.96-4.1,8.96-.43,.98-.94,1.48-1.97,.95-1.02-.51-.69-1.23-.27-1.99,1.71-3.09,3.29-6.26,5.45-9.07,.28-.36,.55-.86,1.13-.55,.15,.08,.19,.39,.25,.53Z"/>
      <path class="cls-2" d="M12.1,27.62c-1.59,1.54-3.52,2.62-5.21,4.02-1.04,.87-2.07,1.91-3.45,2.46-.78,.31-1.5,.47-2.29,.38-.6-.07-1.01-.46-1.14-1.07-.13-.6,.34-.83,.77-1.04,3.66-1.77,7.27-3.65,11.31-4.76Z"/>
      <path class="cls-2" d="M17.65,8.89c0,.92-.62,1.04-1.14,.86-2.74-.93-4.41-3.18-6.16-5.28-.28-.33-.21-.99,.21-1.3,.72-.52,1.58-.39,2.2,.1,1.11,.88,2.04,1.94,2.81,3.17,.57,.92,1.41,1.67,2.08,2.44Z"/>
      <path class="cls-2" d="M70.63,18.56c.06,.49-.14,.7-.44,.87-1.97,1.11-3.62,2.7-5.8,3.5-1.06,.39-1.97,.29-2.42-.57-.44-.83,.48-1.41,1.09-1.87,1.92-1.42,4.43-1.46,6.46-2.7,.47-.28,1,.27,1.11,.77Z"/>
      <path class="cls-2" d="M35.55,4.97c0,1.03,.02,2.06-.01,3.09-.01,.39-.17,.85-.65,.84-.24,0-.69-.31-.69-.47,.07-2.37-1.25-4.49-1.24-6.83,0-.65-.25-1.48,.88-1.59,.94-.09,1.42,.6,1.54,1.2,.25,1.22,.2,2.51,.27,3.77h-.1Z"/>
      <path class="cls-2" d="M64.09,33.17c-1.18,0-2.35,.02-3.53,0-.71-.01-1.53,.02-1.44-1.06,.08-1.02,.82-1.85,1.69-1.51,2.07,.81,4.18,.47,6.27,.61,.77,.05,1.45,.53,1.38,1.32-.08,.91-.96,.57-1.53,.6-.94,.05-1.89,.01-2.84,.01,0,0,0,.02,0,.03Z"/>
    </g>
    <path class="cls-1" d="M48.6,18.76c3.4,5.16-1.04,15.74-8.08,18.41-9.85,3.74-22.93-8.73-21.54-14.96,1.29-5.78,15.16-6.85,15.73-6.89,3.84-.27,11.12-.77,13.89,3.45Z"/>
  </g>
</svg>