<?xml version="1.0" encoding="UTF-8"?>
<svg id="Ebene_2" data-name="Ebene 2" xmlns="http://www.w3.org/2000/svg" viewBox="0 0 460.53 206.59">
  <defs>
    <style>
      .cls-1 {
        opacity: .3;
      }

      .cls-1, .cls-2, .cls-3 {
        fill: #fe6847;
      }

      .cls-3 {
        opacity: .3;
      }
    </style>
  </defs>
  <g id="Ebene_1-2" data-name="Ebene 1">
    <g>
      <g>
        <path class="cls-2" d="M300.97,203.53c-17.48-1.03-35.08-.96-52.35-4.33-6.14-1.2-10.39-5.03-12.26-11.4-1.82-6.23-3.81-12.27-3.14-19,.71-7.11,3.7-11.99,10.37-14.98,20.87-9.36,42.98-12.46,65.51-12.48,15.04-.01,30.02-1.18,45.02-1.62,14.55-.43,35.26,13.76,39.12,28.67,1.63,6.29,1.17,12.63-.59,18.77-1.18,4.1-4.76,5.6-8.78,6.41-18.67,3.76-37.57,5.76-56.45,8.04-8.8,1.06-17.58,1.89-26.46,1.92Zm-10.29-56.26c-10.8-.15-20.77,3.42-30.5,8.83-7.32,4.07-13.51,8.32-16.32,16.81-2.64,7.96,.59,15.81,8.52,18.3,2.1,.66,4.45,.93,6.09,2.5,2.71,2.58,5.22,2.24,8.41,.68,5.27-2.59,10.34-4.95,16.95-2.53,5.09,1.86,10.91,4.18,16.76,1.51,8.89-4.04,18.45-4.62,27.96-5.13,10.59-.57,21.23,.68,31.82-.83,2.57-.37,5.32-.56,7.9,.37,7.19,2.57,13.69-.44,16.39-7.64,2.34-6.24-.47-16.11-6.63-20.14-10.53-6.88-21.4-13.26-34.87-11.72-2.03,.23-4.24,.39-6.02-.88-2.38-1.69-4.83-1.5-7.57-1.22-4.25,.43-8.77,2.14-12.63-1.51-.79-.75-1.95-.73-2.85,.06-.87,.76-.77,1.74-.61,2.84,1.07,7.71,2.07,15.43,3.04,23.15,.3,2.4-1.49,3.63-3.29,4.13-2.18,.6-2.69-1.39-2.85-3.02-.72-7.48-2.64-14.84-2.42-22.4,.09-3.24-1.12-4.21-4.19-3.75-4.22,.63-8.36,1.93-13.09,1.6Z"/>
        <path class="cls-2" d="M311.63,125.94c-10.49,.16-18.39-4.74-25.1-12-2.62-2.83-4.7-5.8-8.82-7.3-5.73-2.09-6.82-9.74-2.5-13.8,1.42-1.33,1.5-2.59,1.43-4.28-.22-5.11-.28-10.24,.75-15.29,1.66-8.19,7.27-12.93,15.47-14.35,8.65-1.5,17.35-1.93,26.06-2.54,5.62-.4,11.18,3.88,14.27,11.3,1.4,3.37,2.83,6.75,3.29,10.44,.52,4.18,1.05,8.11,5.31,10.82,2.79,1.78,.91,9.98-2.76,12.33-1.39,.89-1.79,1.77-1.91,3-1.02,10.24-7.63,15.81-16.42,19.29-2.93,1.16-5.8,3.12-9.07,2.37Zm3.56-62.56c-7.73,.74-15.16,.55-22.35,2.46-3.21,.85-6.6,2.03-7.82,5.21-2.44,6.37-4.09,13.02-1.48,19.81,.98,2.55,.21,4.17-1.89,5.64-2.96,2.07-3,4.17,.3,5.07,4.24,1.15,6.59,4.17,9.31,7.02,2.97,3.11,6.26,5.85,9.99,7.99,9.71,5.58,24.94,.71,28.53-9.22,1.01-2.79,2.06-5.48,3.59-8.02,1.58-2.63,3.88-5.39-.6-7.8-1.2-.64-1.49-2.44-1.74-3.94-.57-3.49-1.25-6.96-1.91-10.44-1.84-9.61-6.43-14.02-13.93-13.77Z"/>
        <path class="cls-3" d="M387.7,188.39c-23.54,7.1-57.37,14-97.76,11.34-17.64-1.16-33.41-3.94-46.98-7.28-1.57-2.37-5.58-9.07-5.37-18.46,.19-8.53,3.76-14.6,5.37-17.01,15.47-5.51,37.93-11.61,65.52-12.87,29.52-1.35,53.83,3.35,70.23,7.85,2.41,2.72,6.29,7.82,8.51,15.27,2.81,9.46,1.38,17.48,.49,21.16Z"/>
        <ellipse class="cls-3" cx="307.4" cy="91.19" rx="30.59" ry="32.42"/>
      </g>
      <g>
        <path class="cls-2" d="M27.97,136.92c-5.53,1.65-11.05,.9-16.54,.58-3.23-.19-4.43-3.48-4.6-6.15-.98-15.76-2.74-31.48-2.16-47.31,.16-4.19-.97-8.24-1.25-12.41-.65-9.35,.71-18.74-.97-28.07-.91-5.06,3.88-9.68,10.03-10.63,11.42-1.76,22.99-2.64,34.45-2.78,10.26-.13,20.63,.84,30.95,1.37,14.9,.77,29.75,.04,44.57-1.66,2.77-.32,5.62-.34,8.4-.14,4.33,.31,7.83,4.7,7.69,9.37-.35,11.52,1.72,22.88,2.21,34.34,.72,16.89,1.44,33.79,2.23,50.68,.06,1.23-.26,2.66,1.28,3.57,1.21,.71,3.16,.96,1.92,3.56-1.17,2.45-3.04,4.66-5.17,3.97-6.77-2.19-13.32,.06-19.88,.42-23,1.25-46,1.5-69.02,1.32-8.04-.06-16.09-.01-24.13-.01ZM52.51,37.82c-11.7-2.38-23.28-.76-34.89,.27-4.22,.37-7.24,1.8-7.65,6.92-.28,3.58-.59,7.14-.44,10.71,.47,10.45,1.38,20.88,1.5,31.33,.14,13.02,2.21,25.91,2.24,38.92,0,3.9,.89,5.92,5.79,5.18,6.16-.93,12.51-.74,18.78-.77,20-.09,40.01,.23,60.01-.2,10.59-.23,21.14-1.79,31.73-2.52,6.22-.43,6.6-.54,6.37-6.78-.4-10.9-.8-21.79-1.42-32.68-.89-15.65-2.03-31.28-2.93-46.93-.19-3.24-1.72-4.6-4.74-4.63-3.73-.04-7.46-.1-11.19-.05-9.27,.11-18.47,1.41-27.76,1.27-11.8-.18-23.6-.04-35.4-.04Z"/>
        <path class="cls-2" d="M76.38,151.25c-9.49,.6-18.05,2.16-26.69,.83-2.21-.34-3.69,.8-4.82,2.57-2.57,4.01-5.16,8-7.72,12.02-.55,.86-1.39,1.85-.75,2.86,.54,.86,1.67,.39,2.51,.27,8.01-1.16,15.97,.47,23.96,.46,.87,0,1.74,.39,2.62,.55,1.79,.34,3.32,1.2,3.01,3.18-.27,1.72-1.67,2.76-3.54,2.63-8.01-.58-16.08-.82-24.02-1.93-7.66-1.08-9.38-.33-13.36,6.39-4.69,7.9-9.93,15.47-14.37,23.54-1.11,2.02-3.37,2.67-5.41,1.12-1.8-1.38-1.5-3-.44-5.09,6.9-13.66,16.92-25.38,23.91-38.98,1.49-2.89,3.64-5.43,5.96-8.81-6.69-.3-12.97-.94-19.22-.77-5.06,.14-9.96-1.57-15.06-.87-.73,.1-3.01-1.27-2.93-2.84,.09-1.86,2.06-1.75,3.47-1.98,9.42-1.49,18.9-1.58,28.36-.85,7.02,.54,13.94-1.1,20.92-.38,8.89,.92,17.71-.79,26.52-.67,10.09,.14,20.16,.05,30.23-.29,13.34-.45,26.67-1.32,40-2,1.33-.07,2.7-.29,3.97-.02,1.53,.32,2.74,1.52,2.56,3.14-.2,1.92-1.68,.73-2.72,.85-1.52,.17-2.98,.97-.18,1.88-.91,1.62-2.59,2.12-4.12,1.99-8.05-.65-16.04,.36-24.06,.44-2.81,.03-2.37,1.17-1.49,2.57,6.98,11.07,13.99,22.13,21.09,33.12,2.02,3.12,4.52,5.94,6.51,9.08,1.8,2.85-.58,5.12-2.27,6.52-1.93,1.61-2.9-.51-4.14-2.27-5.06-7.21-9.51-14.8-14.29-22.18-.88-1.36-1.85-1.74-3.66-1.67-9.38,.37-18.73,2.08-28.16,.83-1.33-.18-2.7-.06-4.02-.29-1.38-.24-3.22-.31-2.68-2.53,.43-1.77,.34-3.92,3.44-3.52,8.2,1.06,16.39,.08,24.58-.46,4.87-.33,5.17-.79,2.64-4.86-2.59-4.17-5.34-8.25-7.76-12.52-.91-1.6-2.06-1.42-3.37-1.4-8.36,.11-16.72,.32-25.08,.29-3.15,0-4.04,.98-4.25,4.3-.73,11.79,.21,23.47,1.37,35.16,.23,2.34,.79,4.76,1.76,6.89,1.34,2.91-.78,3.86-2.42,4.89-1.89,1.19-3-.47-3.93-1.8-2.15-3.05-2.27-6.78-2.58-10.2-1-11.15-1.59-22.34-1.31-33.55,.04-1.78,.07-3.57,1.43-5.65Z"/>
        <path class="cls-2" d="M67.04,16c-2.45-4.38-1.85-8.95-1.77-13.44,.03-1.77,1.17-2.7,2.96-2.55,1.73,.15,3.22,.63,3.38,2.81,.24,3.4,.63,6.8,.85,10.2,.14,2.26,.85,3.51,3.46,3.24,4.85-.51,9.78-.44,14.55-1.31,2.56-.47,4.66-.21,6.89,.7,1.09,.44,2.76,.72,2.64,2.02-.13,1.36-1,2.76-2.64,3.26-3.87,1.19-7.88,1.32-11.86,1.58-10.31,.67-20.64,.92-30.89,2.5-2.82,.43-5.87-.27-8.75-.82-2.13-.41-4.01-1.89-3.77-4.24,.25-2.54,2.61-1.7,4.3-1.88,6.69-.72,13.53,.1,20.65-2.06Z"/>
        <path class="cls-2" d="M127.58,94.92c-.59,2.4-1.91,2.62-3.76,1.74-3.8-1.81-6.42-4.74-8.52-8.32-3.03-5.14-5.98-10.33-10.23-14.66-2.33-2.38-3.98-2.74-5.88,.41-5.19,8.57-10.48,17.07-15.8,25.56-1.73,2.76-1.34,4.78,1.14,6.99,3,2.67,5.57,5.82,8.32,8.77,.92,.99,2.1,2.07,1.07,3.49-1.09,1.49-2.63,.99-4.06,.35-3.32-1.49-6.09-3.69-8.77-6.13-6.07-5.53-11.75-11.5-18.45-16.33-3.23-2.33-6-2.27-9.42-.14-8.55,5.33-15.44,12.7-23.51,18.6-.48,.35-.92,.77-1.38,1.15-1.56,1.28-3.07,.99-4.42-.29-1.56-1.48-.49-2.89,.54-3.89,5.04-4.88,10.03-9.84,15.36-14.4,3.5-3,7.55-5.36,11.34-8.01,5.12-3.57,9.21-3.67,14.37-.05,2.32,1.62,4.42,3.56,6.6,5.39,4.03,3.37,4.82,3.23,7.46-1.19,5.44-9.11,10.9-18.21,16.37-27.31,2.53-4.21,4.8-4.68,9.29-2.35,5.31,2.76,8.41,7.57,11.5,12.31,3.5,5.37,7.33,10.55,9.92,16.47,.29,.67,.66,1.3,.93,1.84Z"/>
        <path class="cls-2" d="M42.82,72.89c-5.5-.05-9.7-3.62-9.27-8.58,.73-8.27,2.94-11.6,7.84-11.39,5.55,.24,10.99,4.81,11.01,9.68,.02,5.56-4.43,10.34-9.58,10.29Zm-.74-13.01c-1.79,.37-2.95,1.41-2.89,3.29,.06,1.79,.96,3.28,2.94,3.07,1.88-.2,2.57-1.81,2.6-3.55,.04-1.73-.86-2.72-2.66-2.81Z"/>
      </g>
      <path class="cls-2" d="M306.82,106.65c-1.12-.24-2-.34-2.82-.62-2.39-.82-4.54-2.56-3.76-5.02,.82-2.58,3.48-2.08,5.6-1.06,1.89,.91,3.9,1.11,5.92,1.39,1.05,.14,2,.62,2.13,1.84,.14,1.28-.8,1.8-1.82,2.09-1.81,.52-3.65,.96-5.26,1.38Z"/>
      <path class="cls-2" d="M320.76,81.96c-.3,2.16-.81,4.49-3.69,4.48-2.49,0-3.53-1.96-3.72-4.19-.24-2.85,1.87-3.35,4.04-3.57,2.26-.23,3.21,1.04,3.37,3.27Z"/>
      <path class="cls-2" d="M302.34,84.63c-.24,2.25-1.49,3.53-3.73,3.38-2.19-.15-3.47-1.58-3.44-3.77,.03-2.29,1.48-3.43,3.7-3.39,2.38,.05,3.14,1.75,3.47,3.78Z"/>
      <g>
        <g>
          <path class="cls-2" d="M365.91,65.01c-2.16-19.97,8.39-33.79,19.04-47.05,11.79-14.68,33.43-18.55,50.83-10.57,15.61,7.15,26.67,27.4,24.47,44.81-3.22,25.57-16.4,41.64-38.14,45.84-14.45,2.79-26.05-3.99-37.36-11.82-5.08-3.52-6.55-10.82-17.35-8.26-8.32,1.98,1.81-9.46-1.49-12.96Zm48.64,8.54c18.12-.89,26.03-7.63,25.39-21.62-.82-18.05-11.05-29.32-26.06-28.7-12.44,.51-26.25,13.81-25.88,24.93,.53,15.82,11.31,26.14,26.55,25.39Z"/>
          <ellipse class="cls-3" cx="413.6" cy="51.01" rx="33.87" ry="29.6"/>
        </g>
        <g>
          <path class="cls-2" d="M414.5,66.99c-1.35-.06-2.45,.12-3.48,.59-.14,.06-.24,.05-.3-.06-.12-.23-.4-.4-.33-.7,.33-1.37-.28-2.12-1.56-2.48-.08-.02-.22-.13-.21-.17,.14-.91-.57-1.65-.42-2.59,.09-.61,.05-1.27-.22-1.87-.09-.2-.15-.4-.22-.6-.19-.6,.07-.83,.6-.84,.52-.01,.58-.18,.45-.67-.31-1.18-.4-2.41-.85-3.56-.51-1.3-1.15-2.52-1.84-3.74-.94-1.66-2.07-3.24-2.65-5.07-.57-1.83-.83-3.75-.32-5.62,.43-1.58,.9-3.28,1.94-4.51,.92-1.08,1.92-2.24,3.49-2.69,1.05-.3,2.05-.68,3.13-.51,1.89,.3,3.71,.72,5.41,1.73,1.69,1.01,2.18,2.69,2.9,4.28,.48,1.07,.63,2.27,.57,3.37-.07,1.36-.23,2.75-.62,4.1-.49,1.69-1.21,3.27-1.92,4.86-.49,1.1-.74,2.25-.87,3.47-.12,1.09,.24,2.08,.26,3.12,0,.42,.38,.38,.65,.38,.96,.02,1.58,.44,1.41,1.32-.1,.52,.17,1.12-.08,1.41-.56,.69,.06,1.29-.01,1.94-.11,.98-.35,1.99-1.33,2.23-.72,.18-.55,.68-.63,1.11-.01,.06,.06,.13,.07,.2,.35,1.24,.25,1.35-1.04,1.37-.74,.01-1.47,.28-2,.19Zm4.68-25.36c.01-.89-.04-1.72-.19-2.56-.34-1.9-.93-3.53-2.74-4.62-1.7-1.02-3.35-1.94-5.42-1.65-1.6,.22-3.08,.54-4.29,1.83-1.23,1.32-1.79,2.91-2.36,4.53-.41,1.18-.58,2.41-.29,3.64,.59,2.55,1.8,4.84,3.12,7.08,1.41,2.39,2.76,4.8,2.59,7.72-.02,.43,.23,.56,.61,.5,.67-.11,1.33-.24,2-.36,.23-.04,.32-.15,.31-.4-.04-.99-.02-1.98-.11-2.96-.11-1.17-.15-2.29-1.4-3.08-1.18-.74-1.36-2.33-.86-3.65,.33-.87,.91-1.6,1.34-2.41,.35-.66,.75-1.29,1.09-1.96,.11-.22-.02-.62,.34-.63,.37,0,.37,.38,.45,.66,.24,.84,.52,1.64,1.04,2.38,.47,.68,1.05,1.34,1.04,2.27-.01,1.35-.42,2.52-1.34,3.5-.31,.33-.51,.68-.51,1.15,.01,1.51-.33,3.01-.15,4.54,.03,.25,.1,.41,.32,.34,.81-.24,1.64-.08,2.46-.17,.42-.05,.42-.18,.32-.56-.56-2.1-.61-4.19,.23-6.25,.52-1.27,1.32-2.39,1.63-3.78,.38-1.7,.9-3.37,.79-5.1Zm-6.45,2.75c-.69,1.05-1.06,2.13-1.65,3.09-.8,1.28-.53,2.53,.62,3.48,.15,.12,.29,.3,.5,.22,.23-.09,.18-.32,.18-.51,.01-.68,.02-1.35,.03-2.03,0-.31,.17-.53,.46-.55,.35-.02,.43,.28,.44,.55,0,.26-.05,.53-.05,.79,0,.66-.22,1.32-.03,2.02,1-.87,1.93-2.97,1.01-4.49-.5-.82-1.07-1.59-1.52-2.57Zm-1.42,21.44c-.1,.59,.05,.89,.72,.74,1.28-.28,2.59-.31,3.89-.35,.35-.01,.78,.07,.78-.5,0-.85-.28-1.3-.87-1.19-1.26,.25-2.56,.06-3.82,.39-.52,.14-.87,.3-.71,.9Zm5.94-5.06c-.87,.27-1.87,.3-2.85,.45-1.46,.22-2.92,.36-4.38,.49-.28,.02-.6-.05-.76,.29-.1,.21-.07,.43,.08,.62,.23,.27,.51,.17,.8,.12,1.12-.17,2.25-.31,3.37-.47,1.43-.2,2.9-.13,4.3-.56,.21-.06,.6-.04,.4-.4-.17-.29-.46-.58-.97-.54Zm-6.54,3.42s0,.02,0,.02c.19,0,.39,.03,.57,0,1.62-.33,3.27-.37,4.91-.45,.49-.02,.96-.06,1.43-.21,.38-.12,.68-.33,.59-.78-.1-.45-.5-.31-.79-.29-.72,.04-1.4,.37-2.14,.36-1.7-.03-3.35,.38-5.03,.6-.23,.03-.63,.03-.59,.38,.04,.3,.35,.44,.68,.4,.12-.01,.24-.02,.36-.03Zm7.44-4.22c-.32-.41-.61-.54-.97-.51-2.36,.21-4.71,.47-7.08,.58-.26,.01-.52,.13-.76,.23-.22,.09-.32,.3-.28,.54,.05,.3,.29,.17,.47,.17,.95,.04,1.88-.18,2.82-.22,1.93-.08,3.82-.5,5.81-.8Zm-2.04-1.86c-1.65,.06-3.29,.44-4.96,.45-.41,0-.81,.09-1.21,.18-.23,.05-.5,.16-.46,.47,.04,.3,.32,.22,.53,.24,.56,.05,1.09-.17,1.65-.18,1.18-.01,2.36-.09,3.53-.24,.72-.09,1.45-.07,2.15-.32,.14-.05,.39,.02,.38-.23,0-.18-.21-.28-.37-.3-.41-.04-.82-.06-1.24-.08Z"/>
          <path class="cls-3" d="M417.31,66.29c-2.17,.26-4.34,.51-6.51,.77,.04-.38,.05-.97-.19-1.6-.33-.88-.94-1.28-1.28-1.66-1.04-1.18-.34-3.14-.13-4.79,.26-2.03-.93-4.89-3.32-10.6-.56-1.34-1.26-2.91-2.11-4.66-1.52-5.71,2.44-11.04,7.09-11.55,4.56-.5,9.5,3.66,9.45,9.45-.13,.75-.37,1.91-.76,3.3-.92,3.23-1.68,4.06-2.43,7.04-.28,1.12-1.15,4.72,.13,5.55,.27,.18,.5,.14,.83,.45,.45,.42,.53,.96,.64,2.43,.2,2.59,.1,2.89-.13,3.13-.47,.49-1.03,.26-1.39,.76-.37,.52-.16,1.33,.12,1.99Z"/>
        </g>
      </g>
      <path class="cls-2" d="M190.53,41.17c-.66,.03-1,.04-1.34,0-2.62-.32-3.56-2.5-7.26-5.01-1.2-.81-1.8-1.22-2.15-1.21-4.1,.06-6.95,16.37-6.3,29.2,.21,4.2,.76,7.2,3.01,8.96,1.7,1.33,3.5,1.26,9.99,.59,0,0,14.28-1.47,23.64-5.95,.68-.32,1.88-.96,2.11-2.06,.22-1.1-.64-2.14-1.05-2.61-4.42-5.15-9.75-7.45-10.03-11.16-.1-1.36,.47-3.07,1.49-4.32,.76-.95,1.59-1.44,2.05-1.61,9.24-3.53,17.23,1.43,18.69,11.57,.42,2.92,.83,6.24,4.4,6.23,1.05,0,1.88-.26,2.53-.71,2.06-1.42,2.21-4.83,2.23-5.72,.2-8.01-12.9-21.09-24.33-20.07-4.79,.43-7.86,1.44-7.86,1.44-2.73,.9-5.6,2.3-9.82,2.47Z"/>
      <path class="cls-1" d="M140.39,131.17c-43.34,1.09-86.68,2.17-130.02,3.26-1.02-32.62-2.04-65.23-3.06-97.85l125.81-3.25c2.43,32.62,4.85,65.23,7.28,97.85Z"/>
    </g>
  </g>
</svg>