<?xml version="1.0" encoding="UTF-8"?>
<svg id="Ebene_2" data-name="Ebene 2" xmlns="http://www.w3.org/2000/svg" viewBox="0 0 1920 742.85">
  <defs>
    <style>
      .cls-1, .cls-2 {
        stroke-miterlimit: 10;
      }

      .cls-1, .cls-2, .cls-3 {
        stroke: #000;
      }

      .cls-1, .cls-3 {
        fill: none;
      }

      .cls-4 {
        fill: #282422;
      }

      .cls-2 {
        fill: #fff;
      }

      .cls-3 {
        stroke-linecap: round;
        stroke-linejoin: round;
        stroke-width: 2px;
      }
    </style>
  </defs>
  <g id="Ebene_1-2" data-name="Ebene 1">
    <g>
      <g>
        <path class="cls-4" d="M1641.71,696.29l-17.2-1.58c.08-.99,7.94-99.49-2.22-140.09-7.61-30.43-79.48-102.3-114.49-134.97-14.9,21.13-58.16,72.34-127.56,72.34s-115.97-51.89-131.6-72.59c-34.91,32.55-107.12,104.71-114.75,135.21-10.16,40.6-2.3,139.1-2.22,140.09l-17.2,1.58c-.34-4.17-8.2-102.69,2.73-146.39,4.89-19.56,27.3-50.08,68.5-93.29,29.65-31.1,58.38-57.3,58.67-57.56l7.37-6.71,5.41,8.56c.46,.72,47.12,72.74,123.1,72.74s118.17-71.69,118.59-72.41l5.29-9.18,7.69,7.01c.29,.26,29.02,26.47,58.67,57.56,41.2,43.21,63.61,73.72,68.5,93.29,10.93,43.69,3.07,142.21,2.73,146.39Z"/>
        <path class="cls-4" d="M1379.9,358.27c-14.04,0-28.07-3.61-40.59-10.84-31.2-18.01-68.39-47.06-68.39-83.19v-125.28h17.27v125.28c0,29.37,37.44,55.36,59.75,68.24,19.71,11.38,44.21,11.38,63.92,0,22.31-12.88,59.75-38.87,59.75-68.24v-109.56h17.27v109.56c0,36.14-37.19,65.19-68.39,83.19-12.52,7.23-26.56,10.84-40.59,10.84Z"/>
        <path class="cls-4" d="M1503.78,265.44l-10.05-14.04,12.61-9.02c5.31-3.8,11.11-10.13,11.44-16.5l.07-1.42c.35-6.57,1.15-21.83-1.37-25.23-2.69-1.22-9.8,.72-13.24,3.66l-11.23-13.12c6.92-5.92,22.28-11.73,33.29-5.41,11.6,6.66,10.64,24.9,9.79,41l-.07,1.41c-.55,10.61-7.51,21.69-18.63,29.65l-12.61,9.02Z"/>
        <path class="cls-4" d="M1255.75,265.44l-12.61-9.02c-11.12-7.96-18.08-19.04-18.63-29.65l-.07-1.41c-.85-16.1-1.81-34.34,9.79-41,11.01-6.33,26.38-.52,33.29,5.4l-11.23,13.12c-3.44-2.94-10.54-4.88-13.24-3.66-2.52,3.4-1.72,18.66-1.37,25.23l.07,1.42c.33,6.36,6.12,12.69,11.44,16.5l12.61,9.02-10.05,14.04Z"/>
        <path class="cls-4" d="M1476.42,412.94c-18.81-9.28-41.8-19.42-42.03-19.52l-5.16-2.27v-38.04h17.27v26.8c7.98,3.58,23.84,10.77,37.56,17.54l-7.64,15.49Z"/>
        <path class="cls-4" d="M1278.69,412.94l-7.64-15.49c13.71-6.77,29.58-13.96,37.56-17.54v-26.8h17.27v38.04l-5.16,2.27c-.23,.1-23.23,10.24-42.03,19.52Z"/>
        <path class="cls-4" d="M1453.18,164.07h-87.14c-50.35,0-76.12-49.29-77.19-51.39l15.37-7.88c.22,.42,22.15,41.99,61.82,41.99h87.14v17.27Z"/>
      </g>
      <path class="cls-4" d="M1579.79,437.29l-17.26-.64c.63-17.03-5.61-32.29-14.24-53.42-4.12-10.09-8.8-21.52-13.38-34.86-14.19-41.26-3.27-89.03,8.39-121.84,13.65-38.44,12.25-79.13-3.95-114.6-33.3-72.88-114.82-109.98-193.82-88.21-46.21,12.73-68.38,47.74-68.6,48.09l-2.66,4.28-5.03-.2c-19.88-.79-34.54,8.61-44.94,28.76-.72,1.4-1.43,2.82-2.12,4.26-17.22,35.83-19.08,78.84-5.08,118.01,11.68,32.7,22.63,80.3,8.49,121.42-4.59,13.34-9.26,24.77-13.38,34.86-8.64,21.13-14.88,36.39-14.24,53.42l-17.26,.64c-.77-20.75,6.41-38.33,15.51-60.59,4.04-9.88,8.61-21.07,13.04-33.94,12.52-36.39,2.33-79.9-8.42-110-15.54-43.48-13.43-91.34,5.78-131.3,.76-1.58,1.54-3.14,2.34-4.69,12.58-24.39,31.92-37.49,56.13-38.14,7.94-10.78,32.53-39.6,75.85-51.53,87.23-24.03,177.28,17.05,214.12,97.68,18.08,39.57,19.68,84.87,4.52,127.55-10.74,30.22-20.89,73.91-8.33,110.44,4.43,12.87,9,24.06,13.04,33.94,9.1,22.26,16.29,39.84,15.51,60.6Z"/>
    </g>
    <path class="cls-4" d="M632.61,678.68l-10.61-.92c.05-.57,4.9-57.76-1.37-81.33-4.69-17.67-49.03-59.39-70.62-78.35-9.19,12.27-35.88,42-78.68,42s-71.54-30.13-81.18-42.14c-21.54,18.9-66.08,60.79-70.79,78.5-6.26,23.57-1.42,80.76-1.37,81.33l-10.61,.92c-.21-2.42-5.06-59.62,1.68-84.98,3.02-11.36,16.84-29.07,42.25-54.16,18.29-18.05,36.01-33.27,36.19-33.42l4.55-3.9,3.34,4.97c.28,.42,29.06,42.23,75.93,42.23s72.9-41.62,73.15-42.04l3.26-5.33,4.75,4.07c.18,.15,17.9,15.37,36.19,33.42,25.41,25.09,39.24,42.8,42.25,54.16,6.74,25.37,1.89,82.56,1.68,84.98Z"/>
    <path class="cls-4" d="M140.8,265.83c-9.92,0-19.84-2.76-28.68-8.29-22.05-13.78-48.33-36.01-48.33-63.66V98.01h12.2v95.87c0,22.47,26.45,42.36,42.22,52.21,13.93,8.71,31.24,8.71,45.17,0,15.77-9.86,42.22-29.74,42.22-52.21V110.05h12.2v83.83c0,27.65-26.28,49.88-48.33,63.66-8.85,5.53-18.77,8.29-28.68,8.29Z"/>
    <path class="cls-4" d="M228.34,187.4l-7.1-9.92,8.91-6.38c3.75-2.69,7.85-7.16,8.08-11.66l.05-1.01c.24-4.64,.81-15.43-.97-17.83-1.9-.86-6.92,.51-9.35,2.59l-7.94-9.27c4.89-4.18,15.74-8.29,23.53-3.82,8.2,4.71,7.52,17.6,6.92,28.97l-.05,1c-.39,7.49-5.31,15.33-13.17,20.95l-8.91,6.38Z"/>
    <path class="cls-4" d="M53.07,187.4l-8.91-6.38c-7.86-5.62-12.78-13.45-13.17-20.95l-.05-1c-.6-11.37-1.28-24.26,6.92-28.97,7.78-4.47,18.64-.37,23.53,3.82l-7.94,9.27c-2.43-2.08-7.45-3.45-9.35-2.59-1.78,2.4-1.21,13.19-.97,17.83l.05,1.01c.23,4.5,4.33,8.97,8.08,11.66l8.91,6.38-7.1,9.92Z"/>
    <path class="cls-4" d="M209.01,304.74c-13.3-6.56-29.54-13.72-29.7-13.79l-3.64-1.6v-26.88h12.2v18.94c5.64,2.53,16.85,7.61,26.54,12.39l-5.4,10.94Z"/>
    <path class="cls-4" d="M69.29,304.74l-5.4-10.94c9.69-4.78,20.9-9.87,26.54-12.39v-18.94h12.2v26.88l-3.64,1.6c-.16,.07-16.41,7.23-29.7,13.79Z"/>
    <path class="cls-4" d="M192.59,115.76h-61.57c-35.58,0-53.79-34.83-54.55-36.31l10.86-5.57c.15,.3,15.65,29.67,43.69,29.67h61.57v12.2Z"/>
    <path class="cls-4" d="M282.05,308.83l-12.2-.45c.45-12.03-3.96-22.82-10.06-37.75-2.91-7.13-6.22-15.21-9.46-24.63-10.03-29.15-2.31-62.91,5.93-86.1,9.65-27.16,8.66-55.92-2.79-80.98C229.94,27.42,172.33,1.21,116.51,16.59c-32.65,9-48.32,33.74-48.47,33.99l-1.88,3.02-3.55-.14c-14.05-.56-24.41,6.08-31.75,20.33-.51,.99-1.01,1.99-1.5,3.01-12.17,25.32-13.48,55.71-3.59,83.39,8.25,23.1,15.99,56.75,6,85.8-3.24,9.43-6.54,17.51-9.46,24.63-6.1,14.93-10.51,25.72-10.06,37.75l-12.2,.45c-.55-14.66,4.53-27.09,10.96-42.82,2.85-6.98,6.08-14.89,9.21-23.98,8.84-25.72,1.64-56.46-5.95-77.73-10.98-30.73-9.49-64.54,4.09-92.78,.54-1.12,1.09-2.22,1.65-3.31,8.89-17.23,22.56-26.49,39.67-26.95,5.61-7.62,22.99-27.98,53.6-36.41,61.64-16.98,125.27,12.05,151.31,69.03,12.77,27.96,13.91,59.97,3.19,90.14-7.59,21.35-14.76,52.23-5.89,78.05,3.13,9.1,6.36,17.01,9.21,23.98,6.43,15.73,11.51,28.16,10.96,42.82Z"/>
    <path class="cls-4" d="M471.33,590.15c-58.33,0-85.28-37.81-86.4-39.42l8.74-6.09c1,1.42,25.11,34.86,77.67,34.86s73.55-34.18,73.76-34.53l9.15,5.45c-.97,1.62-24.34,39.73-82.91,39.73Z"/>
    <path class="cls-4" d="M465.62,287.9c-11.66,0-23.31-3-33.71-9-25.98-14.99-56.94-39.16-56.94-69.16V118.79h13.54v90.94c0,10.63,6.52,32.24,50.17,57.43,16.62,9.59,37.27,9.59,53.88,0,43.66-25.2,50.17-46.8,50.17-57.43V118.14h13.54v91.59c0,30-30.97,54.17-56.94,69.16-10.4,6-22.06,9-33.71,9Z"/>
    <rect class="cls-4" x="403.79" y="281.16" width="13.54" height="27.94"/>
    <rect class="cls-4" x="514.95" y="281.16" width="13.54" height="27.94"/>
    <path class="cls-4" d="M568.92,210.38l-7.88-11.01,10.54-7.54c4.53-3.24,9.46-8.65,9.75-14.13l.06-1.19c.27-5.17,.99-18.84-1.3-21.47-2.53-1.28-8.84,.66-11.65,3.08l-8.81-10.29c5.68-4.87,18.29-9.65,27.32-4.47,9.46,5.43,8.66,20.53,7.96,33.86l-.06,1.18c-.45,8.73-6.21,17.87-15.39,24.44l-10.54,7.54Z"/>
    <path class="cls-4" d="M362.1,210.38l-10.54-7.54c-9.18-6.57-14.94-15.71-15.39-24.44l-.06-1.17c-.7-13.33-1.5-28.44,7.96-33.87,9.03-5.19,21.64-.39,27.32,4.47l-8.81,10.28c-2.81-2.41-9.12-4.37-11.65-3.07-2.29,2.63-1.57,16.3-1.3,21.48l.06,1.18c.28,5.48,5.22,10.89,9.75,14.13l10.54,7.54-7.88,11.01Z"/>
    <path class="cls-4" d="M513.56,160.65l-5.84-15.57c-17.03-45.41-89.55-44.19-90.28-44.16l-.33-13.54c.84-.02,20.7-.43,43.21,5.59,23.92,6.39,41.79,17.71,52.58,33.12,3.51-11.54,6.39-26.25,2.85-35.1l12.57-5.03c3.69,9.22,3.39,22.16-.89,38.44-3.04,11.58-7.01,20.65-7.18,21.03l-6.7,15.21Z"/>
    <path class="cls-4" d="M564.3,145.51l-1.98-18.63c-4.54-42.77-51.65-62.84-52.12-63.04l5.2-12.5c1.9,.79,39.87,16.98,54.84,52.55,2.76-15.01,1.11-37.62-21.1-62.23-13.37-14.82-54.21-29.83-91.4-27.65-16.86,.98-39.66,5.95-52.51,24.03l-2.81,3.96-4.65-1.39c-6.26-1.88-22.13,.9-29.12,7.71-17.25,16.81-16.33,39.59-10.24,53.61,.26-.38,.53-.76,.81-1.15,6.51-8.9,15.3-13.61,25.43-13.61v13.54c-13.85,0-18.77,16.1-18.98,16.79l-3.33,11.26-8.08-8.49c-15.81-16.68-21.58-55.81,4.93-81.65,9.11-8.87,26.12-13.11,37.67-11.91,12.91-15.63,33.57-24.67,60.09-26.22,38.37-2.24,84.25,12.16,102.24,32.1,23.72,26.29,26.78,51.2,25.17,67.47-1.76,17.82-9.35,29.38-9.67,29.87l-10.39,15.59Z"/>
    <path class="cls-4" d="M779.65,267.6c-9.86,0-19.71-2.54-28.5-7.61-21.9-12.64-48.01-33.04-48.01-58.41V113.63h12.12v87.96c0,20.62,26.28,38.86,41.95,47.91,13.84,7.99,31.04,7.99,44.87,0,15.67-9.04,41.95-27.29,41.95-47.91V124.67h12.12v76.92c0,25.37-26.11,45.77-48.01,58.41-8.79,5.07-18.65,7.61-28.5,7.61Z"/>
    <path class="cls-4" d="M866.62,202.43l-7.06-9.86,8.85-6.34c3.73-2.67,7.8-7.11,8.03-11.58l.05-1.01c.24-4.61,.81-15.33-.96-17.71-1.89-.85-6.88,.5-9.29,2.57l-7.89-9.21c4.85-4.16,15.64-8.24,23.37-3.79,8.14,4.68,7.47,17.48,6.87,28.78l-.05,.99c-.39,7.44-5.27,15.22-13.08,20.81l-8.85,6.34Z"/>
    <path class="cls-4" d="M692.49,202.43l-8.85-6.34c-7.8-5.59-12.69-13.37-13.08-20.81l-.05-.99c-.59-11.3-1.27-24.11,6.87-28.78,7.73-4.44,18.52-.36,23.37,3.8l-7.89,9.21c-2.41-2.06-7.4-3.42-9.29-2.57-1.77,2.38-1.2,13.1-.96,17.71l.05,1c.23,4.47,4.3,8.91,8.03,11.58l8.85,6.34-7.06,9.86Z"/>
    <path class="cls-4" d="M847.41,305.99c-13.21-6.52-29.35-13.63-29.51-13.7l-3.62-1.59v-26.71h12.12v18.81c5.6,2.51,16.74,7.56,26.37,12.31l-5.37,10.87Z"/>
    <path class="cls-4" d="M708.6,305.99l-5.37-10.87c9.63-4.75,20.76-9.8,26.37-12.31v-18.81h12.12v26.71l-3.62,1.59c-.16,.07-16.31,7.19-29.51,13.7Z"/>
    <path class="cls-4" d="M831.1,131.26h-61.18c-35.35,0-53.44-34.6-54.19-36.08l10.79-5.53c.15,.3,15.55,29.48,43.4,29.48h61.18v12.12Z"/>
    <path class="cls-4" d="M855.6,239.79v-12.12c10.29,0,19.69-10.12,25.75-18.6,11.47-16.06,18.14-35.89,19.28-57.34,1.13-21.21-2.17-42.01-9.05-57.06-23.38-51.17-80.61-77.21-136.08-61.93-32.23,8.88-48.01,33.53-48.17,33.78l-1.87,2.98-3.52-.13c-13.93-.56-24.25,6.04-31.55,20.19-.51,.98-1,1.98-1.49,2.99-12.01,24.99-14.37,54.33-6.64,82.63,7.55,27.65,29.21,42.38,41.95,42.38v12.12c-27.03,0-47.99-30.62-53.64-51.31-8.5-31.11-5.87-63.46,7.41-91.08,.53-1.11,1.08-2.2,1.64-3.29,8.83-17.12,22.41-26.33,39.41-26.78,5.58-7.57,22.84-27.8,53.25-36.18,61.24-16.87,124.46,11.97,150.33,68.58,7.66,16.78,11.35,39.64,10.13,62.74-1.26,23.76-8.71,45.8-21.53,63.74-11.23,15.71-23.21,23.68-35.61,23.68Z"/>
    <path class="cls-4" d="M886.04,83.71l-2.89-4.42c-11.78-18-28.45-32.14-48.21-40.87l-4.82-2.13,1.44-5.07c5.17-18.24,22.04-30.98,41.03-30.98,23.52,0,42.66,19.13,42.66,42.64,0,16.41-9.59,31.55-24.43,38.56l-4.77,2.26Zm-41.02-53.95c17.93,8.93,33.34,21.98,45.03,38.16,8.07-5.65,13.07-15.01,13.07-25.04,0-16.83-13.7-30.52-30.54-30.52-11.86,0-22.57,6.95-27.56,17.39Z"/>
    <g>
      <path d="M417.86,652.06c-2.02,0-3.76-.51-5.22-1.53-1.46-1.02-2.59-2.43-3.38-4.24-.79-1.81-1.19-3.91-1.19-6.29,0-2.54,.43-4.69,1.29-6.43,.86-1.74,2.03-3.06,3.51-3.95,1.48-.9,3.14-1.34,4.99-1.34,2.45,0,4.42,.61,5.91,1.84,1.49,1.22,2.52,2.82,3.08,4.78l-3.07,.62c-.47-1.42-1.23-2.56-2.27-3.41-1.04-.85-2.26-1.27-3.64-1.27-1.21,0-2.32,.34-3.33,1.03-1.02,.69-1.84,1.71-2.46,3.08-.62,1.36-.93,3.05-.93,5.06,0,1.83,.25,3.45,.74,4.88,.49,1.42,1.24,2.55,2.23,3.36,.99,.82,2.24,1.22,3.75,1.22,1.81,0,3.25-.49,4.32-1.46s1.6-2.25,1.6-3.84h3.1c0,1.64-.38,3.05-1.13,4.23-.76,1.17-1.81,2.08-3.17,2.71-1.36,.63-2.93,.95-4.72,.95Z"/>
      <path d="M438.61,652.06c-1.57,0-2.97-.35-4.19-1.04s-2.19-1.72-2.89-3.09c-.71-1.36-1.06-3.04-1.06-5.04s.35-3.69,1.06-5.05c.71-1.36,1.67-2.38,2.89-3.08s2.62-1.04,4.19-1.04,2.95,.35,4.17,1.04c1.22,.69,2.19,1.72,2.89,3.08s1.05,3.04,1.05,5.05-.35,3.68-1.05,5.04-1.66,2.39-2.89,3.09c-1.22,.69-2.61,1.04-4.17,1.04Zm-.07-2.48c1.13,0,2.09-.27,2.89-.81,.79-.54,1.39-1.31,1.8-2.31,.41-1,.61-2.18,.61-3.56,0-2.08-.43-3.72-1.3-4.92-.86-1.2-2.15-1.8-3.85-1.8-1.14,0-2.11,.27-2.89,.81s-1.38,1.31-1.79,2.32c-.41,1-.61,2.2-.61,3.59,0,2.06,.44,3.69,1.31,4.88s2.15,1.8,3.84,1.8Z"/>
      <path d="M452.25,651.62v-17.46h2.45l.4,4.02v13.44h-2.85Zm12.42,0v-10.26c0-1.67-.4-2.94-1.2-3.81-.8-.87-1.88-1.31-3.26-1.31-1.05,0-1.95,.29-2.72,.86s-1.36,1.39-1.77,2.46-.62,2.33-.62,3.81h-1.1c0-2.03,.27-3.77,.8-5.2,.54-1.44,1.32-2.53,2.35-3.3,1.03-.76,2.28-1.14,3.75-1.14,1.38,0,2.55,.31,3.53,.92,.98,.62,1.73,1.49,2.26,2.64,.52,1.15,.79,2.5,.79,4.07v10.26h-2.81Z"/>
      <path d="M471.84,636.13v-1.97h11.14v1.97h-11.14Zm7.82,15.92c-.95,0-1.8-.18-2.56-.55-.76-.37-1.35-.91-1.79-1.64-.44-.73-.66-1.64-.66-2.74v-17.82h2.81v17.75c0,1.8,.84,2.7,2.52,2.7,.5,0,.98-.05,1.45-.16,.47-.11,1-.27,1.58-.49l.4,2.05c-.62,.27-1.24,.49-1.85,.66-.61,.17-1.25,.26-1.91,.26Z"/>
      <path d="M494.08,652.06c-1.51,0-2.86-.39-4.05-1.16s-2.12-1.85-2.81-3.22-1.03-2.96-1.03-4.75c0-1.91,.34-3.55,1.02-4.93,.68-1.38,1.62-2.43,2.8-3.17s2.54-1.1,4.06-1.1c1.33,0,2.46,.27,3.4,.8,.94,.54,1.69,1.26,2.26,2.17,.57,.91,.97,1.94,1.2,3.09,.22,1.15,.29,2.34,.19,3.57h-12.64v-1.75h10.76l-.84,.55c.04-.72,0-1.44-.12-2.15-.12-.72-.33-1.38-.65-1.98s-.76-1.09-1.33-1.45c-.57-.37-1.3-.55-2.19-.55-1.12,0-2.06,.29-2.81,.86s-1.32,1.32-1.7,2.26c-.38,.93-.57,1.94-.57,3.02v1.17c0,1.22,.19,2.31,.56,3.27s.93,1.72,1.67,2.28,1.68,.84,2.81,.84,2.06-.27,2.79-.82c.73-.55,1.17-1.36,1.33-2.43h2.96c-.18,1.16-.6,2.15-1.24,2.99-.65,.83-1.47,1.48-2.47,1.93-1,.45-2.12,.68-3.38,.68Z"/>
      <path d="M506.78,651.62v-17.46h2.45l.4,4.02v13.44h-2.85Zm12.42,0v-10.26c0-1.67-.4-2.94-1.2-3.81-.8-.87-1.88-1.31-3.26-1.31-1.05,0-1.95,.29-2.72,.86s-1.36,1.39-1.77,2.46-.62,2.33-.62,3.81h-1.1c0-2.03,.27-3.77,.8-5.2,.54-1.44,1.32-2.53,2.35-3.3,1.03-.76,2.28-1.14,3.75-1.14,1.38,0,2.55,.31,3.53,.92,.98,.62,1.73,1.49,2.26,2.64,.52,1.15,.79,2.5,.79,4.07v10.26h-2.81Z"/>
      <path d="M526.37,636.13v-1.97h11.14v1.97h-11.14Zm7.82,15.92c-.95,0-1.8-.18-2.56-.55-.76-.37-1.35-.91-1.79-1.64-.44-.73-.66-1.64-.66-2.74v-17.82h2.81v17.75c0,1.8,.84,2.7,2.52,2.7,.5,0,.98-.05,1.45-.16,.47-.11,1-.27,1.58-.49l.4,2.05c-.62,.27-1.24,.49-1.85,.66-.61,.17-1.25,.26-1.91,.26Z"/>
    </g>
    <g>
      <path d="M90.27,151.28h2.36l4.38,15.01h-.62l4.49-13.27h1.42l4.43,13.16h-.59l5.02-14.91h2.34l-5.96,16.87h-2.2l-3.89-11.44h.4l-4.03,11.44h-2.2l-5.34-16.87Z"/>
      <path d="M120.21,168.47c-1.11,0-2.1-.28-2.97-.85-.87-.57-1.56-1.36-2.07-2.37-.51-1.01-.76-2.18-.76-3.49,0-1.41,.25-2.61,.75-3.63,.5-1.01,1.19-1.79,2.06-2.33s1.87-.81,2.99-.81c.98,0,1.81,.2,2.5,.59s1.24,.93,1.67,1.6,.71,1.43,.88,2.28c.17,.85,.21,1.72,.14,2.63h-9.29v-1.29h7.91l-.62,.4c.03-.53,0-1.06-.09-1.58-.09-.53-.24-1.01-.48-1.46-.23-.44-.56-.8-.98-1.07-.42-.27-.96-.4-1.61-.4-.82,0-1.51,.21-2.07,.63-.56,.42-.97,.97-1.25,1.66-.28,.68-.42,1.43-.42,2.22v.86c0,.9,.14,1.7,.41,2.4,.27,.71,.68,1.27,1.23,1.68,.55,.41,1.24,.62,2.07,.62s1.52-.2,2.05-.6,.86-1,.98-1.79h2.18c-.13,.85-.44,1.58-.91,2.2s-1.08,1.09-1.81,1.42c-.73,.33-1.56,.5-2.48,.5Z"/>
      <path d="M129.55,168.15v-18.32h2.09v15.31l-.62,3.01h-1.48Zm5.88,.32c-.86,0-1.64-.22-2.33-.67-.69-.45-1.24-1.1-1.65-1.97-.41-.86-.61-1.92-.61-3.16h.81c0,.83,.17,1.54,.52,2.13,.34,.59,.79,1.03,1.34,1.34,.55,.31,1.12,.46,1.72,.46,.69,0,1.32-.2,1.89-.59,.57-.39,1.03-.96,1.38-1.69,.34-.73,.52-1.61,.52-2.63s-.17-1.86-.51-2.59c-.34-.72-.8-1.28-1.38-1.67-.58-.39-1.22-.58-1.93-.58-.61,0-1.18,.15-1.73,.45-.54,.3-.98,.74-1.32,1.32s-.5,1.3-.5,2.15h-.81c0-1.22,.2-2.26,.6-3.12,.4-.86,.95-1.52,1.66-1.97,.71-.46,1.53-.69,2.47-.69,1.01,0,1.94,.27,2.79,.81,.85,.54,1.52,1.31,2.03,2.32,.51,1,.77,2.19,.77,3.56s-.26,2.58-.78,3.59c-.52,1.02-1.21,1.8-2.08,2.36-.87,.56-1.82,.84-2.86,.84Z"/>
      <path d="M150.08,168.47c-1.24,0-2.28-.18-3.12-.53s-1.46-.84-1.89-1.46c-.43-.62-.66-1.34-.68-2.14h2.01c.04,.81,.37,1.43,.99,1.83,.61,.41,1.45,.61,2.5,.61,.56,0,1.07-.09,1.53-.27,.47-.18,.84-.42,1.11-.74,.28-.31,.42-.67,.42-1.06,0-.5-.18-.9-.55-1.18-.37-.29-.95-.54-1.76-.75l-2.5-.81c-1.08-.34-1.91-.81-2.49-1.4-.58-.6-.87-1.31-.87-2.14,0-1.04,.46-1.87,1.37-2.5s2.11-.94,3.6-.94c1.58,0,2.8,.32,3.67,.97,.87,.64,1.32,1.45,1.36,2.42h-2.07c-.08-.56-.37-.99-.86-1.28-.49-.29-1.19-.44-2.09-.44s-1.55,.19-2.03,.58c-.49,.39-.73,.82-.73,1.3,0,.89,.76,1.54,2.28,1.96l2.55,.86c1.1,.33,1.94,.77,2.53,1.3,.59,.54,.88,1.22,.88,2.06,0,.64-.21,1.25-.63,1.83-.42,.57-1.02,1.04-1.79,1.4-.77,.36-1.68,.54-2.74,.54Z"/>
      <path d="M160.75,152.27c-.43,0-.77-.12-1.02-.37-.25-.25-.38-.57-.38-.97s.13-.71,.38-.94c.25-.23,.59-.35,1.02-.35s.77,.12,1.02,.35c.25,.23,.38,.55,.38,.94s-.13,.73-.38,.97c-.25,.25-.59,.37-1.02,.37Zm-1.05,15.87v-12.86h2.09v12.86h-2.09Z"/>
      <path d="M165.78,156.76v-1.45h8.19v1.45h-8.19Zm5.75,11.71c-.7,0-1.32-.13-1.88-.4-.56-.27-.99-.67-1.32-1.21-.32-.54-.48-1.21-.48-2.01v-13.11h2.07v13.05c0,1.32,.62,1.99,1.85,1.99,.37,0,.72-.04,1.07-.12s.73-.2,1.16-.36l.3,1.5c-.46,.2-.91,.36-1.36,.48-.45,.13-.92,.19-1.4,.19Z"/>
      <path d="M182.13,168.47c-1.11,0-2.1-.28-2.97-.85-.87-.57-1.56-1.36-2.07-2.37-.51-1.01-.76-2.18-.76-3.49,0-1.41,.25-2.61,.75-3.63,.5-1.01,1.19-1.79,2.06-2.33s1.87-.81,2.99-.81c.98,0,1.81,.2,2.5,.59s1.24,.93,1.67,1.6,.71,1.43,.88,2.28c.17,.85,.21,1.72,.14,2.63h-9.29v-1.29h7.91l-.62,.4c.03-.53,0-1.06-.09-1.58-.09-.53-.24-1.01-.48-1.46-.23-.44-.56-.8-.98-1.07-.42-.27-.96-.4-1.61-.4-.82,0-1.51,.21-2.07,.63-.56,.42-.97,.97-1.25,1.66-.28,.68-.42,1.43-.42,2.22v.86c0,.9,.14,1.7,.41,2.4,.27,.71,.68,1.27,1.23,1.68,.55,.41,1.24,.62,2.07,.62s1.52-.2,2.05-.6,.86-1,.98-1.79h2.18c-.13,.85-.44,1.58-.91,2.2s-1.08,1.09-1.81,1.42c-.73,.33-1.56,.5-2.48,.5Z"/>
    </g>
    <g>
      <path d="M443.64,165.16l5.8-16.87h2.55l5.67,16.87h-2.2l-1.42-4.32h-6.71l-1.48,4.32h-2.2Zm4.22-5.96h5.64l-2.82-8.35-2.82,8.35Z"/>
      <path d="M461.03,165.16v-16.87h5.43c1.85,0,3.27,.47,4.25,1.4,.98,.94,1.47,2.2,1.47,3.81s-.49,2.84-1.47,3.77-2.4,1.39-4.25,1.39h-3.3v6.5h-2.12Zm2.12-8.33h3.3c1.17,0,2.06-.3,2.67-.9,.6-.6,.91-1.41,.91-2.43s-.3-1.87-.91-2.48c-.6-.62-1.49-.93-2.67-.93h-3.3v6.74Z"/>
      <path d="M475.89,165.16v-16.87h5.43c1.85,0,3.27,.47,4.25,1.4,.98,.94,1.47,2.2,1.47,3.81s-.49,2.84-1.47,3.77-2.4,1.39-4.25,1.39h-3.3v6.5h-2.12Zm2.12-8.33h3.3c1.17,0,2.06-.3,2.67-.9,.6-.6,.91-1.41,.91-2.43s-.3-1.87-.91-2.48c-.6-.62-1.49-.93-2.67-.93h-3.3v6.74Z"/>
    </g>
    <g>
      <path d="M740.46,148.29h2.36l4.38,15.01h-.62l4.49-13.27h1.42l4.43,13.16h-.59l5.02-14.91h2.34l-5.96,16.87h-2.2l-3.89-11.44h.4l-4.03,11.44h-2.2l-5.34-16.87Z"/>
      <path d="M769.52,165.48c-1.06,0-1.93-.19-2.62-.56-.69-.38-1.2-.86-1.54-1.46-.34-.6-.51-1.23-.51-1.89,0-.87,.22-1.58,.65-2.12,.43-.55,1.03-.95,1.78-1.2s1.6-.38,2.54-.38c.67,0,1.35,.07,2.02,.2,.68,.13,1.34,.32,1.98,.55v1.32c-.54-.21-1.14-.38-1.82-.51-.68-.13-1.3-.19-1.86-.19-.86,0-1.59,.18-2.18,.53s-.89,.96-.89,1.81c0,.63,.23,1.16,.68,1.61,.45,.45,1.17,.67,2.17,.67,.7,0,1.33-.16,1.89-.49,.56-.33,1-.74,1.33-1.23,.33-.49,.49-.98,.49-1.48h.51c0,.86-.19,1.66-.56,2.39-.37,.73-.9,1.33-1.59,1.77-.69,.45-1.51,.67-2.47,.67Zm4.38-.32l-.27-2.82v-5.51c0-1.16-.25-1.99-.74-2.49s-1.23-.76-2.22-.76c-.56,0-1.06,.08-1.51,.24s-.81,.41-1.07,.75-.4,.77-.4,1.3h-2.34c0-.93,.23-1.68,.68-2.25,.46-.57,1.09-.98,1.89-1.24,.8-.26,1.72-.38,2.75-.38s1.86,.17,2.62,.5c.76,.33,1.36,.86,1.79,1.58,.43,.72,.64,1.66,.64,2.81v8.27h-1.83Z"/>
      <path d="M778.93,153.77v-1.45h8.19v1.45h-8.19Zm5.75,11.71c-.7,0-1.32-.13-1.88-.4s-.99-.67-1.32-1.21c-.32-.54-.48-1.21-.48-2.01v-13.11h2.07v13.05c0,1.32,.62,1.99,1.85,1.99,.37,0,.72-.04,1.07-.12s.73-.2,1.16-.36l.3,1.5c-.46,.2-.91,.36-1.36,.48-.45,.13-.92,.19-1.4,.19Z"/>
      <path d="M795.34,165.48c-1.03,0-1.99-.28-2.88-.83-.89-.56-1.61-1.34-2.16-2.35-.55-1.01-.82-2.21-.82-3.59s.27-2.62,.82-3.63c.55-1,1.26-1.77,2.16-2.3,.89-.53,1.85-.79,2.88-.79,.72,0,1.38,.11,1.95,.33,.58,.22,1.08,.52,1.51,.91,.43,.39,.79,.82,1.07,1.31,.28,.49,.49,1,.62,1.54l-2.15,.19c-.22-.74-.6-1.33-1.12-1.77s-1.16-.65-1.91-.65c-.64,0-1.23,.18-1.79,.54-.56,.36-1.01,.9-1.36,1.62-.35,.72-.52,1.62-.52,2.69,0,.99,.16,1.86,.48,2.58s.75,1.3,1.31,1.7c.55,.4,1.19,.6,1.89,.6,.99,0,1.75-.24,2.26-.73,.51-.49,.77-1.17,.77-2.03h2.15c0,.9-.21,1.69-.63,2.39-.42,.7-1.02,1.25-1.79,1.65-.77,.4-1.68,.6-2.73,.6Z"/>
      <path d="M804.69,165.16v-18.32h2.09v18.32h-2.09Zm9.13,0v-7.55c0-1.23-.29-2.16-.88-2.8-.59-.64-1.39-.96-2.4-.96-.77,0-1.44,.21-2,.63-.56,.42-1,1.02-1.3,1.81-.3,.78-.46,1.72-.46,2.8h-.81c0-1.49,.2-2.77,.59-3.83s.97-1.86,1.73-2.42c.76-.56,1.68-.84,2.76-.84,1.01,0,1.88,.23,2.6,.68s1.27,1.1,1.66,1.94c.39,.84,.58,1.84,.58,2.99v7.55h-2.07Z"/>
    </g>
    <g>
      <line class="cls-1" x1="470" y1="478.08" x2="470" y2="340.34"/>
      <polygon points="474.98 341.8 470 333.16 465.01 341.8 474.98 341.8"/>
    </g>
    <g>
      <line class="cls-1" x1="515.88" y1="481.44" x2="659.08" y2="338.24"/>
      <polygon points="661.57 342.79 664.15 333.16 654.52 335.74 661.57 342.79"/>
    </g>
    <g>
      <line class="cls-1" x1="430.27" y1="478.64" x2="289.31" y2="337.68"/>
      <polygon points="293.87 335.18 284.24 332.6 286.82 342.23 293.87 335.18"/>
    </g>
    <g>
      <path d="M1329.18,222.68h2.36l4.38,15.01h-.62l4.49-13.27h1.42l4.43,13.16h-.59l5.02-14.91h2.34l-5.96,16.87h-2.2l-3.89-11.44h.4l-4.03,11.44h-2.2l-5.34-16.87Z"/>
      <path d="M1359.12,239.87c-1.11,0-2.1-.28-2.97-.85-.87-.57-1.56-1.36-2.07-2.37-.51-1.01-.76-2.18-.76-3.49,0-1.41,.25-2.61,.75-3.63,.5-1.01,1.19-1.79,2.06-2.33,.87-.54,1.87-.81,2.99-.81,.98,0,1.81,.2,2.5,.59s1.24,.93,1.67,1.6,.71,1.43,.88,2.28,.21,1.72,.14,2.63h-9.29v-1.29h7.91l-.62,.4c.03-.53,0-1.06-.09-1.58-.09-.53-.24-1.01-.48-1.46-.23-.44-.56-.8-.98-1.07-.42-.27-.96-.4-1.61-.4-.82,0-1.51,.21-2.07,.63-.56,.42-.97,.97-1.25,1.66-.28,.68-.42,1.43-.42,2.22v.86c0,.9,.14,1.7,.41,2.4,.27,.71,.68,1.27,1.23,1.68,.55,.41,1.24,.62,2.07,.62s1.52-.2,2.06-.6c.54-.4,.86-1,.98-1.79h2.18c-.13,.85-.44,1.58-.91,2.2s-1.08,1.09-1.81,1.42c-.73,.33-1.56,.5-2.48,.5Z"/>
      <path d="M1368.45,239.55v-18.32h2.09v15.31l-.62,3.01h-1.48Zm5.88,.32c-.86,0-1.64-.22-2.33-.67-.69-.45-1.24-1.1-1.65-1.97-.41-.86-.61-1.92-.61-3.16h.81c0,.83,.17,1.54,.52,2.13,.34,.59,.79,1.03,1.34,1.34,.55,.31,1.12,.46,1.72,.46,.69,0,1.32-.2,1.89-.59,.57-.39,1.03-.96,1.38-1.69,.34-.73,.52-1.61,.52-2.63s-.17-1.86-.51-2.59c-.34-.72-.8-1.28-1.38-1.67-.58-.39-1.22-.58-1.93-.58-.61,0-1.18,.15-1.73,.45-.54,.3-.98,.74-1.32,1.32s-.5,1.3-.5,2.15h-.81c0-1.22,.2-2.26,.6-3.12,.4-.86,.95-1.52,1.66-1.97,.71-.46,1.53-.69,2.47-.69,1.01,0,1.94,.27,2.79,.81s1.52,1.31,2.03,2.32c.51,1,.77,2.19,.77,3.56s-.26,2.58-.78,3.59c-.52,1.02-1.21,1.8-2.08,2.36s-1.82,.84-2.86,.84Z"/>
      <path d="M1388.98,239.87c-1.24,0-2.28-.18-3.12-.53-.83-.35-1.46-.84-1.89-1.46-.43-.62-.66-1.34-.68-2.14h2.01c.05,.81,.37,1.43,.99,1.83,.61,.41,1.45,.61,2.5,.61,.56,0,1.07-.09,1.53-.27,.46-.18,.84-.42,1.11-.74,.28-.31,.42-.67,.42-1.06,0-.5-.18-.9-.55-1.18s-.95-.54-1.76-.75l-2.5-.81c-1.08-.34-1.91-.81-2.49-1.4-.58-.6-.87-1.31-.87-2.14,0-1.04,.46-1.87,1.37-2.5s2.11-.94,3.6-.94c1.58,0,2.8,.32,3.67,.97,.87,.64,1.32,1.45,1.36,2.42h-2.07c-.08-.56-.37-.99-.86-1.28-.49-.29-1.19-.44-2.09-.44s-1.55,.19-2.03,.58c-.49,.39-.73,.82-.73,1.3,0,.89,.76,1.54,2.28,1.96l2.55,.86c1.1,.33,1.94,.77,2.53,1.3,.59,.54,.88,1.22,.88,2.06,0,.64-.21,1.25-.63,1.83-.42,.57-1.02,1.04-1.79,1.4-.77,.36-1.68,.54-2.74,.54Z"/>
      <path d="M1399.66,223.68c-.43,0-.77-.12-1.02-.37-.25-.25-.38-.57-.38-.97s.13-.71,.38-.94c.25-.23,.59-.35,1.02-.35s.77,.12,1.02,.35c.25,.23,.38,.55,.38,.94s-.13,.73-.38,.97c-.25,.25-.59,.37-1.02,.37Zm-1.05,15.87v-12.86h2.1v12.86h-2.1Z"/>
      <path d="M1404.68,228.16v-1.45h8.19v1.45h-8.19Zm5.75,11.71c-.7,0-1.32-.13-1.88-.4s-.99-.67-1.32-1.21c-.32-.54-.48-1.21-.48-2.01v-13.11h2.07v13.05c0,1.32,.62,1.99,1.85,1.99,.37,0,.72-.04,1.07-.12s.73-.2,1.16-.36l.3,1.5c-.46,.2-.91,.36-1.36,.48-.45,.13-.92,.19-1.4,.19Z"/>
      <path d="M1421.04,239.87c-1.11,0-2.1-.28-2.97-.85-.87-.57-1.56-1.36-2.07-2.37-.51-1.01-.76-2.18-.76-3.49,0-1.41,.25-2.61,.75-3.63,.5-1.01,1.19-1.79,2.06-2.33,.87-.54,1.87-.81,2.99-.81,.98,0,1.81,.2,2.5,.59s1.24,.93,1.67,1.6,.71,1.43,.88,2.28,.21,1.72,.14,2.63h-9.29v-1.29h7.91l-.62,.4c.03-.53,0-1.06-.09-1.58-.09-.53-.24-1.01-.48-1.46-.23-.44-.56-.8-.98-1.07-.42-.27-.96-.4-1.61-.4-.82,0-1.51,.21-2.07,.63-.56,.42-.97,.97-1.25,1.66-.28,.68-.42,1.43-.42,2.22v.86c0,.9,.14,1.7,.41,2.4,.27,.71,.68,1.27,1.23,1.68,.55,.41,1.24,.62,2.07,.62s1.52-.2,2.06-.6c.54-.4,.86-1,.98-1.79h2.18c-.13,.85-.44,1.58-.91,2.2s-1.08,1.09-1.81,1.42c-.73,.33-1.56,.5-2.48,.5Z"/>
    </g>
    <g>
      <path d="M662.91,607.7h4.49v10.31h10.77v-10.31h4.49v24.69h-4.49v-10.46h-10.77v10.46h-4.49v-24.69Z"/>
      <path d="M696.64,632.93c-1.57,0-3.01-.41-4.32-1.22-1.31-.81-2.35-1.95-3.14-3.41-.79-1.47-1.18-3.18-1.18-5.15s.39-3.77,1.17-5.23,1.82-2.57,3.13-3.35c1.31-.77,2.75-1.16,4.34-1.16,1.47,0,2.74,.29,3.81,.88,1.07,.59,1.93,1.39,2.59,2.4,.65,1.01,1.09,2.15,1.32,3.41,.23,1.27,.24,2.57,.04,3.92h-12.82v-2.44h9.64l-.87,.57c.04-.6,0-1.2-.09-1.81-.1-.61-.28-1.17-.54-1.67-.27-.51-.64-.92-1.13-1.23-.49-.31-1.11-.47-1.87-.47-.91,0-1.69,.23-2.32,.68-.64,.46-1.12,1.08-1.45,1.86s-.49,1.67-.49,2.66v1.79c0,1.04,.15,1.96,.47,2.76s.77,1.43,1.39,1.88c.61,.46,1.39,.68,2.33,.68,.88,0,1.61-.2,2.21-.61,.6-.41,.98-1.01,1.14-1.83h4.53c-.19,1.19-.64,2.24-1.34,3.15-.7,.91-1.61,1.62-2.73,2.13-1.12,.51-2.38,.77-3.8,.77Z"/>
      <path d="M715.62,632.93c-1.59,0-2.91-.28-3.97-.83-1.06-.55-1.85-1.28-2.39-2.18-.53-.9-.8-1.88-.8-2.93,0-1.17,.31-2.15,.92-2.94s1.49-1.39,2.62-1.79c1.13-.4,2.46-.6,3.99-.6,1,0,1.95,.08,2.84,.23,.89,.15,1.79,.36,2.67,.61v2.63c-.7-.23-1.46-.41-2.28-.53s-1.6-.19-2.32-.19c-1.07,0-1.94,.2-2.63,.59-.68,.39-1.03,1.06-1.03,2,0,.69,.28,1.28,.84,1.77,.56,.49,1.45,.74,2.66,.74,.93,0,1.71-.2,2.36-.61,.65-.41,1.14-.91,1.48-1.52,.34-.61,.5-1.22,.5-1.83h1.06c0,1.33-.25,2.56-.74,3.68s-1.23,2.02-2.2,2.69c-.97,.67-2.17,1.01-3.61,1.01Zm6.05-.53l-.57-4.49v-7.42c0-1.29-.26-2.25-.79-2.87-.53-.62-1.42-.93-2.67-.93-.72,0-1.35,.11-1.88,.32s-.94,.52-1.23,.92c-.29,.4-.43,.89-.43,1.46h-4.91c0-1.39,.34-2.53,1.01-3.41,.67-.88,1.64-1.53,2.9-1.94,1.26-.41,2.77-.62,4.54-.62,1.6,0,2.99,.26,4.19,.77,1.19,.51,2.12,1.3,2.78,2.37,.66,1.06,.99,2.43,.99,4.09v11.76h-3.92Z"/>
      <path d="M738.99,632.93c-1.55,0-2.96-.41-4.23-1.23-1.27-.82-2.29-1.97-3.04-3.44-.75-1.48-1.13-3.21-1.13-5.18s.36-3.66,1.09-5.11c.73-1.45,1.71-2.57,2.93-3.37s2.58-1.19,4.08-1.19c1.37,0,2.56,.33,3.56,.98,1,.65,1.77,1.62,2.3,2.9s.8,2.85,.8,4.72h-1.41c0-.96-.2-1.78-.59-2.46-.39-.68-.91-1.2-1.55-1.56-.64-.36-1.34-.54-2.08-.54-.9,0-1.7,.23-2.39,.7-.69,.47-1.23,1.13-1.63,1.97-.39,.84-.59,1.83-.59,2.96s.2,2.18,.59,3.04c.39,.86,.93,1.54,1.63,2.02,.69,.48,1.47,.72,2.35,.72,.71,0,1.39-.19,2.04-.58,.65-.39,1.19-.93,1.6-1.63,.41-.7,.62-1.51,.62-2.44h1.41c0,1.94-.29,3.55-.87,4.84-.58,1.29-1.35,2.25-2.31,2.9s-2.02,.97-3.18,.97Zm5.78-.53l-.84-4.57v-21.53h4.53v26.1h-3.69Z"/>
      <path d="M755.54,632.39v-26.1h4.49v26.1h-4.49Z"/>
      <path d="M774.01,632.93c-1.57,0-3.01-.41-4.32-1.22-1.31-.81-2.35-1.95-3.14-3.41-.79-1.47-1.18-3.18-1.18-5.15s.39-3.77,1.17-5.23,1.82-2.57,3.13-3.35c1.31-.77,2.75-1.16,4.34-1.16,1.47,0,2.74,.29,3.81,.88,1.07,.59,1.93,1.39,2.59,2.4,.65,1.01,1.09,2.15,1.32,3.41,.23,1.27,.24,2.57,.04,3.92h-12.82v-2.44h9.64l-.87,.57c.04-.6,0-1.2-.09-1.81-.1-.61-.28-1.17-.54-1.67-.27-.51-.64-.92-1.13-1.23-.49-.31-1.11-.47-1.87-.47-.91,0-1.69,.23-2.32,.68-.64,.46-1.12,1.08-1.45,1.86s-.49,1.67-.49,2.66v1.79c0,1.04,.15,1.96,.47,2.76s.77,1.43,1.39,1.88c.61,.46,1.39,.68,2.33,.68,.88,0,1.61-.2,2.21-.61,.6-.41,.98-1.01,1.14-1.83h4.53c-.19,1.19-.64,2.24-1.34,3.15-.7,.91-1.61,1.62-2.73,2.13-1.12,.51-2.38,.77-3.8,.77Z"/>
      <path d="M794.17,632.93c-1.78,0-3.3-.24-4.57-.73-1.28-.49-2.25-1.19-2.94-2.11-.69-.92-1.03-2.03-1.05-3.32h4.15c.04,.91,.4,1.58,1.08,2,.69,.42,1.62,.63,2.8,.63,.65,0,1.22-.09,1.72-.28,.5-.19,.89-.45,1.17-.78,.28-.33,.42-.7,.42-1.1,0-.52-.19-.93-.56-1.23s-.97-.57-1.8-.83l-4.03-1.45c-1.45-.52-2.56-1.2-3.33-2.05-.77-.85-1.16-1.86-1.16-3.04,0-1.56,.71-2.82,2.12-3.78,1.41-.96,3.31-1.44,5.68-1.44s4.18,.52,5.47,1.55c1.29,1.03,1.95,2.34,1.99,3.93h-4.22c-.06-.61-.36-1.09-.88-1.45-.52-.36-1.31-.53-2.36-.53-.95,0-1.7,.19-2.24,.58-.54,.39-.81,.84-.81,1.36,0,.88,.75,1.54,2.25,1.98l4.37,1.64c1.42,.48,2.52,1.1,3.31,1.86,.79,.76,1.18,1.73,1.18,2.89,0,.98-.33,1.9-.98,2.77-.65,.87-1.56,1.58-2.73,2.12-1.17,.55-2.52,.82-4.05,.82Z"/>
      <path d="M814.24,632.93c-1.78,0-3.3-.24-4.57-.73-1.28-.49-2.25-1.19-2.94-2.11-.69-.92-1.03-2.03-1.05-3.32h4.15c.04,.91,.4,1.58,1.08,2,.69,.42,1.62,.63,2.8,.63,.65,0,1.22-.09,1.72-.28,.5-.19,.89-.45,1.17-.78,.28-.33,.42-.7,.42-1.1,0-.52-.19-.93-.56-1.23s-.97-.57-1.8-.83l-4.03-1.45c-1.45-.52-2.56-1.2-3.33-2.05-.77-.85-1.16-1.86-1.16-3.04,0-1.56,.71-2.82,2.12-3.78,1.41-.96,3.31-1.44,5.68-1.44s4.18,.52,5.47,1.55c1.29,1.03,1.95,2.34,1.99,3.93h-4.22c-.06-.61-.36-1.09-.88-1.45-.52-.36-1.31-.53-2.36-.53-.95,0-1.7,.19-2.24,.58-.54,.39-.81,.84-.81,1.36,0,.88,.75,1.54,2.25,1.98l4.37,1.64c1.42,.48,2.52,1.1,3.31,1.86,.79,.76,1.18,1.73,1.18,2.89,0,.98-.33,1.9-.98,2.77-.65,.87-1.56,1.58-2.73,2.12-1.17,.55-2.52,.82-4.05,.82Z"/>
      <path d="M671.89,678.58c-2.17,0-4.06-.52-5.66-1.55-1.6-1.03-2.85-2.51-3.74-4.44-.89-1.93-1.33-4.24-1.33-6.94s.46-5.13,1.38-7.03c.92-1.9,2.19-3.33,3.8-4.3,1.62-.97,3.47-1.45,5.55-1.45,2.88,0,5.13,.7,6.74,2.09,1.62,1.4,2.65,3.21,3.11,5.44l-4.79,.88c-.39-1.29-1.02-2.34-1.88-3.14-.86-.8-1.92-1.2-3.18-1.2-1.1,0-2.1,.32-2.99,.96-.89,.64-1.59,1.61-2.12,2.9s-.79,2.91-.79,4.85c0,1.83,.23,3.4,.69,4.72,.46,1.32,1.13,2.33,2.01,3.04,.88,.71,1.94,1.07,3.2,1.07,1.61,0,2.86-.43,3.74-1.28,.88-.86,1.32-1.95,1.32-3.28h4.79c0,1.84-.4,3.4-1.19,4.69-.79,1.29-1.93,2.27-3.4,2.96-1.47,.68-3.23,1.03-5.27,1.03Z"/>
      <path d="M687.01,653.36h6.43l6.96,15.1h-.38l6.96-15.1h6.2v24.69h-4.53v-19.52h.69l-7.69,16.82h-2.93l-7.65-16.74h.42v19.44h-4.49v-24.69Z"/>
      <path d="M728.88,678.58c-1.71,0-3.29-.3-4.73-.89s-2.61-1.5-3.5-2.72c-.89-1.22-1.37-2.76-1.44-4.64h4.41c0,.95,.23,1.73,.7,2.34,.47,.61,1.1,1.06,1.89,1.36s1.66,.45,2.62,.45,1.73-.12,2.44-.36,1.28-.59,1.69-1.04c.41-.45,.62-.99,.62-1.61,0-.82-.25-1.47-.75-1.94-.5-.47-1.3-.9-2.41-1.29l-4.87-1.94c-1.9-.75-3.36-1.62-4.37-2.61-1.02-.99-1.52-2.35-1.52-4.09,0-2,.79-3.63,2.38-4.87s3.8-1.86,6.64-1.86,4.9,.64,6.41,1.93c1.51,1.29,2.37,3.08,2.57,5.37h-4.41c-.17-.98-.61-1.76-1.33-2.35s-1.8-.88-3.23-.88c-1.27,0-2.27,.26-3.01,.79-.74,.53-1.1,1.19-1.1,1.99,0,.68,.23,1.23,.69,1.63,.46,.4,1.18,.78,2.16,1.15l5.4,2.09c1.83,.71,3.23,1.6,4.2,2.68s1.47,2.43,1.47,4.05c0,1.48-.37,2.77-1.12,3.85s-1.84,1.93-3.27,2.52c-1.43,.6-3.18,.89-5.23,.89Z"/>
    </g>
    <g>
      <path d="M1675.8,621.68v-3.88h19.78v3.88h-8.66l1.01-1.03v21.84h-4.49v-21.84l1.01,1.03h-8.66Z"/>
      <path d="M1696.09,642.49v-18.53h4.49v18.53h-4.49Zm3.39-8.1c0-2.42,.27-4.43,.82-6.01s1.28-2.76,2.2-3.53c.92-.77,1.94-1.15,3.07-1.15,.3,0,.59,.02,.87,.06s.54,.1,.81,.17l-.08,4.49c-.33-.08-.69-.14-1.07-.19-.38-.05-.72-.08-1.03-.08-.99,0-1.82,.24-2.48,.71s-1.17,1.18-1.5,2.1-.5,2.07-.5,3.42h-1.1Z"/>
      <path d="M1716.74,643.02c-1.59,0-2.91-.28-3.97-.83-1.06-.55-1.85-1.28-2.39-2.18-.53-.9-.8-1.88-.8-2.93,0-1.17,.31-2.15,.92-2.94s1.49-1.39,2.62-1.79c1.13-.4,2.46-.6,3.99-.6,1,0,1.95,.08,2.84,.23,.89,.15,1.79,.36,2.67,.61v2.63c-.7-.23-1.46-.41-2.28-.53s-1.6-.19-2.32-.19c-1.07,0-1.94,.2-2.63,.59-.68,.39-1.03,1.06-1.03,2,0,.69,.28,1.28,.84,1.77,.56,.49,1.45,.74,2.66,.74,.93,0,1.71-.2,2.36-.61,.65-.41,1.14-.91,1.48-1.52,.34-.61,.5-1.22,.5-1.83h1.06c0,1.33-.25,2.56-.74,3.68s-1.23,2.02-2.2,2.69c-.97,.67-2.17,1.01-3.61,1.01Zm6.05-.53l-.57-4.49v-7.42c0-1.29-.26-2.25-.79-2.87-.53-.62-1.42-.93-2.67-.93-.72,0-1.35,.11-1.88,.32s-.94,.52-1.23,.92c-.29,.4-.43,.89-.43,1.46h-4.91c0-1.39,.34-2.53,1.01-3.41,.67-.88,1.64-1.53,2.9-1.94,1.26-.41,2.77-.62,4.54-.62,1.6,0,2.99,.26,4.19,.77,1.19,.51,2.12,1.3,2.78,2.37,.66,1.06,.99,2.43,.99,4.09v11.76h-3.92Z"/>
      <path d="M1740.1,643.02c-1.55,0-2.96-.41-4.23-1.23-1.27-.82-2.29-1.97-3.04-3.44-.75-1.48-1.13-3.21-1.13-5.18s.36-3.66,1.09-5.11c.73-1.45,1.71-2.57,2.93-3.37s2.58-1.19,4.08-1.19c1.37,0,2.56,.33,3.56,.98,1,.65,1.77,1.62,2.3,2.9s.8,2.85,.8,4.72h-1.41c0-.96-.2-1.78-.59-2.46-.39-.68-.91-1.2-1.55-1.56-.64-.36-1.34-.54-2.08-.54-.9,0-1.7,.23-2.39,.7-.69,.47-1.23,1.13-1.63,1.97-.39,.84-.59,1.83-.59,2.96s.2,2.18,.59,3.04c.39,.86,.93,1.54,1.63,2.02,.69,.48,1.47,.72,2.35,.72,.71,0,1.39-.19,2.04-.58,.65-.39,1.19-.93,1.6-1.63,.41-.7,.62-1.51,.62-2.44h1.41c0,1.94-.29,3.55-.87,4.84-.58,1.29-1.35,2.25-2.31,2.9s-2.02,.97-3.18,.97Zm5.78-.53l-.84-4.57v-21.53h4.53v26.1h-3.69Z"/>
      <path d="M1759.27,620.65c-.88,0-1.56-.23-2.05-.69-.49-.46-.73-1.11-.73-1.93s.24-1.44,.73-1.91c.49-.48,1.17-.71,2.05-.71s1.54,.24,2.04,.71,.74,1.11,.74,1.91-.25,1.47-.74,1.93-1.17,.69-2.04,.69Zm-2.25,21.84v-18.53h4.49v18.53h-4.49Z"/>
      <path d="M1766.81,627v-2.97h12.1v2.97h-12.1Zm8.56,16.02c-1.09,0-2.09-.2-3-.61-.91-.41-1.63-1.03-2.17-1.86-.54-.84-.81-1.9-.81-3.2v-18.23h4.49v18.07c0,1.52,.72,2.28,2.17,2.28,.44,0,.89-.05,1.33-.15s.95-.25,1.52-.46l.65,3.16c-.71,.28-1.4,.51-2.07,.7-.67,.19-1.38,.29-2.11,.29Z"/>
      <path d="M1786.76,620.65c-.88,0-1.56-.23-2.05-.69-.49-.46-.73-1.11-.73-1.93s.24-1.44,.73-1.91c.49-.48,1.17-.71,2.05-.71s1.54,.24,2.04,.71,.74,1.11,.74,1.91-.25,1.47-.74,1.93-1.17,.69-2.04,.69Zm-2.25,21.84v-18.53h4.49v18.53h-4.49Z"/>
      <path d="M1803.88,643.02c-1.69,0-3.21-.36-4.58-1.08-1.36-.72-2.44-1.8-3.24-3.24-.8-1.44-1.2-3.24-1.2-5.41s.4-4.03,1.2-5.48c.8-1.45,1.88-2.52,3.24-3.23,1.36-.71,2.89-1.07,4.58-1.07s3.17,.36,4.52,1.07,2.43,1.79,3.22,3.23c.8,1.45,1.2,3.27,1.2,5.48s-.4,3.97-1.2,5.41c-.8,1.44-1.87,2.52-3.22,3.24s-2.86,1.08-4.52,1.08Zm-.15-3.92c.89,0,1.68-.22,2.37-.66,.69-.44,1.24-1.09,1.64-1.95,.4-.86,.6-1.93,.6-3.21,0-1.95-.38-3.42-1.15-4.41-.77-.99-1.82-1.48-3.15-1.48-.9,0-1.7,.22-2.4,.66-.7,.44-1.25,1.09-1.65,1.97-.4,.88-.6,1.97-.6,3.27,0,1.93,.39,3.38,1.17,4.36,.78,.98,1.84,1.47,3.17,1.47Z"/>
      <path d="M1818.15,642.49v-18.45h3.92l.57,3.65v14.8h-4.49Zm12.67,0v-10.81c0-1.37-.33-2.4-.99-3.1-.66-.7-1.52-1.05-2.59-1.05-.9,0-1.7,.25-2.39,.74s-1.23,1.24-1.63,2.24-.59,2.24-.59,3.72h-1.48c0-2.4,.3-4.39,.89-5.98,.6-1.59,1.44-2.78,2.53-3.57,1.09-.79,2.37-1.18,3.84-1.18s2.79,.34,3.81,1.02c1.02,.68,1.79,1.63,2.3,2.86,.51,1.23,.77,2.66,.77,4.3v10.81h-4.49Z"/>
      <path d="M1848.74,643.02c-1.57,0-3.01-.41-4.32-1.22-1.31-.81-2.35-1.95-3.14-3.41-.79-1.47-1.18-3.18-1.18-5.15s.39-3.77,1.17-5.23,1.82-2.57,3.13-3.35c1.31-.77,2.75-1.16,4.34-1.16,1.47,0,2.74,.29,3.81,.88,1.07,.59,1.93,1.39,2.59,2.4,.65,1.01,1.09,2.15,1.32,3.41,.23,1.27,.24,2.57,.04,3.92h-12.82v-2.44h9.64l-.87,.57c.04-.6,0-1.2-.09-1.81-.1-.61-.28-1.17-.54-1.67-.27-.51-.64-.92-1.13-1.23-.49-.31-1.11-.47-1.87-.47-.91,0-1.69,.23-2.32,.68-.64,.46-1.12,1.08-1.45,1.86s-.49,1.67-.49,2.66v1.79c0,1.04,.15,1.96,.47,2.76s.77,1.43,1.39,1.88c.61,.46,1.39,.68,2.33,.68,.88,0,1.61-.2,2.21-.61,.6-.41,.98-1.01,1.14-1.83h4.53c-.19,1.19-.64,2.24-1.34,3.15-.7,.91-1.61,1.62-2.73,2.13-1.12,.51-2.38,.77-3.8,.77Z"/>
      <path d="M1862.02,642.49v-26.1h4.49v26.1h-4.49Z"/>
      <path d="M1873.6,642.49v-26.1h4.49v26.1h-4.49Z"/>
      <path d="M1892.07,643.02c-1.57,0-3.01-.41-4.32-1.22-1.31-.81-2.35-1.95-3.14-3.41-.79-1.47-1.18-3.18-1.18-5.15s.39-3.77,1.17-5.23,1.82-2.57,3.13-3.35c1.31-.77,2.75-1.16,4.34-1.16,1.47,0,2.74,.29,3.81,.88,1.07,.59,1.93,1.39,2.59,2.4,.65,1.01,1.09,2.15,1.32,3.41,.23,1.27,.24,2.57,.04,3.92h-12.82v-2.44h9.64l-.87,.57c.04-.6,0-1.2-.09-1.81-.1-.61-.28-1.17-.54-1.67-.27-.51-.64-.92-1.13-1.23-.49-.31-1.11-.47-1.87-.47-.91,0-1.69,.23-2.32,.68-.64,.46-1.12,1.08-1.45,1.86s-.49,1.67-.49,2.66v1.79c0,1.04,.15,1.96,.47,2.76s.77,1.43,1.39,1.88c.61,.46,1.39,.68,2.33,.68,.88,0,1.61-.2,2.21-.61,.6-.41,.98-1.01,1.14-1.83h4.53c-.19,1.19-.64,2.24-1.34,3.15-.7,.91-1.61,1.62-2.73,2.13-1.12,.51-2.38,.77-3.8,.77Z"/>
      <path d="M1912.24,643.02c-1.78,0-3.3-.24-4.57-.73-1.28-.49-2.25-1.19-2.94-2.11-.69-.92-1.03-2.03-1.05-3.32h4.15c.04,.91,.4,1.58,1.08,2,.69,.42,1.62,.63,2.8,.63,.65,0,1.22-.09,1.72-.28,.5-.19,.89-.45,1.17-.78,.28-.33,.42-.7,.42-1.1,0-.52-.19-.93-.56-1.23s-.97-.57-1.8-.83l-4.03-1.45c-1.45-.52-2.56-1.2-3.33-2.05-.77-.85-1.16-1.86-1.16-3.04,0-1.56,.71-2.82,2.12-3.78,1.41-.96,3.31-1.44,5.68-1.44s4.18,.52,5.47,1.55c1.29,1.03,1.95,2.34,1.99,3.93h-4.22c-.06-.61-.36-1.09-.88-1.45-.52-.36-1.31-.53-2.36-.53-.95,0-1.7,.19-2.24,.58-.54,.39-.81,.84-.81,1.36,0,.88,.75,1.54,2.25,1.98l4.37,1.64c1.42,.48,2.52,1.1,3.31,1.86,.79,.76,1.18,1.73,1.18,2.89,0,.98-.33,1.9-.98,2.77-.65,.87-1.56,1.58-2.73,2.12-1.17,.55-2.52,.82-4.05,.82Z"/>
      <path d="M1688.09,688.68c-2.17,0-4.05-.52-5.66-1.55-1.61-1.03-2.85-2.51-3.74-4.44-.89-1.93-1.33-4.24-1.33-6.94s.46-5.13,1.38-7.03c.92-1.9,2.19-3.33,3.8-4.3,1.62-.97,3.47-1.45,5.54-1.45,2.88,0,5.13,.7,6.74,2.09,1.62,1.4,2.65,3.21,3.11,5.44l-4.79,.88c-.39-1.29-1.02-2.34-1.88-3.14-.86-.8-1.92-1.2-3.18-1.2-1.1,0-2.1,.32-2.99,.96-.89,.64-1.6,1.61-2.12,2.9-.53,1.29-.79,2.91-.79,4.85,0,1.83,.23,3.4,.69,4.72,.46,1.32,1.13,2.33,2.01,3.04,.87,.71,1.94,1.07,3.2,1.07,1.61,0,2.86-.43,3.74-1.28,.88-.86,1.32-1.95,1.32-3.28h4.79c0,1.84-.4,3.4-1.19,4.69-.79,1.29-1.93,2.27-3.4,2.96-1.47,.68-3.23,1.03-5.27,1.03Z"/>
      <path d="M1703.21,663.45h6.43l6.96,15.1h-.38l6.96-15.1h6.2v24.69h-4.53v-19.52h.69l-7.69,16.82h-2.93l-7.65-16.74h.42v19.44h-4.49v-24.69Z"/>
      <path d="M1745.08,688.68c-1.71,0-3.29-.3-4.73-.89s-2.61-1.5-3.5-2.72c-.89-1.22-1.37-2.76-1.44-4.64h4.41c0,.95,.23,1.73,.7,2.34,.47,.61,1.1,1.06,1.89,1.36s1.66,.45,2.62,.45,1.73-.12,2.44-.36,1.28-.59,1.69-1.04c.41-.45,.62-.99,.62-1.61,0-.82-.25-1.47-.75-1.94-.5-.47-1.3-.9-2.41-1.29l-4.87-1.94c-1.9-.75-3.36-1.62-4.37-2.61-1.02-.99-1.52-2.35-1.52-4.09,0-2,.79-3.63,2.38-4.87s3.8-1.86,6.64-1.86,4.9,.64,6.41,1.93c1.51,1.29,2.37,3.08,2.57,5.37h-4.41c-.17-.98-.61-1.76-1.33-2.35s-1.8-.88-3.23-.88c-1.27,0-2.27,.26-3.01,.79-.74,.53-1.1,1.19-1.1,1.99,0,.68,.23,1.23,.69,1.63,.46,.4,1.18,.78,2.16,1.15l5.4,2.09c1.83,.71,3.23,1.6,4.2,2.68s1.47,2.43,1.47,4.05c0,1.48-.37,2.77-1.12,3.85s-1.84,1.93-3.27,2.52c-1.43,.6-3.18,.89-5.23,.89Z"/>
    </g>
    <g>
      <circle class="cls-2" cx="589.65" cy="407.21" r="24.9"/>
      <g>
        <path d="M576.17,412.4l4.06-11.93h2.72l3.9,11.93h-2.28l-.83-2.57h-4.43l-.85,2.57h-2.3Zm3.7-4.21h3.36l-1.67-5.13-1.69,5.13Z"/>
        <path d="M588.92,412.4v-11.93h4.21c1.34,0,2.39,.33,3.14,.99,.75,.66,1.13,1.6,1.13,2.81s-.38,2.13-1.13,2.79-1.8,.99-3.14,.99h-2.02v4.34h-2.19Zm2.19-6.23h2.02c.67,0,1.18-.18,1.53-.53s.51-.81,.51-1.36-.17-1.03-.51-1.39-.85-.54-1.53-.54h-2.02v3.82Z"/>
        <path d="M599.65,412.4v-11.93h2.17v11.93h-2.17Z"/>
      </g>
    </g>
    <g>
      <circle class="cls-2" cx="469.91" cy="401.61" r="24.9"/>
      <g>
        <path d="M456.43,406.81l4.06-11.93h2.72l3.9,11.93h-2.28l-.83-2.57h-4.43l-.85,2.57h-2.3Zm3.7-4.21h3.36l-1.67-5.13-1.69,5.13Z"/>
        <path d="M469.18,406.81v-11.93h4.21c1.34,0,2.39,.33,3.14,.99,.75,.66,1.13,1.6,1.13,2.81s-.38,2.13-1.13,2.79-1.8,.99-3.14,.99h-2.02v4.34h-2.19Zm2.19-6.23h2.02c.67,0,1.18-.18,1.53-.53s.51-.81,.51-1.36-.17-1.03-.51-1.39-.85-.54-1.53-.54h-2.02v3.82Z"/>
        <path d="M479.91,406.81v-11.93h2.17v11.93h-2.17Z"/>
      </g>
    </g>
    <g>
      <circle class="cls-2" cx="356.89" cy="408.33" r="24.9"/>
      <g>
        <path d="M343.41,413.52l4.06-11.93h2.72l3.9,11.93h-2.28l-.83-2.57h-4.43l-.85,2.57h-2.3Zm3.7-4.21h3.36l-1.67-5.13-1.69,5.13Z"/>
        <path d="M356.16,413.52v-11.93h4.21c1.34,0,2.39,.33,3.14,.99,.75,.66,1.13,1.6,1.13,2.81s-.38,2.13-1.13,2.79-1.8,.99-3.14,.99h-2.02v4.34h-2.19Zm2.19-6.23h2.02c.67,0,1.18-.18,1.53-.53s.51-.81,.51-1.36-.17-1.03-.51-1.39-.85-.54-1.53-.54h-2.02v3.82Z"/>
        <path d="M366.89,413.52v-11.93h2.17v11.93h-2.17Z"/>
      </g>
    </g>
    <g>
      <path class="cls-2" d="M1536.8,562.16c2.58,21.45-11.85,38.2-48.97,77.08-26.82,28.09-61.09,63.14-102.02,102.93-50.01-42.91-87.92-81.67-114.72-111.09-24.35-26.73-38.41-44.52-36.28-67.11,2.57-27.15,27.36-48.6,50.33-56.68,32.56-11.45,71.28,.52,97.49,30.38,26.4-27.72,63.41-39.67,96.58-30.38,24.21,6.78,54.24,27.08,57.59,54.87Z"/>
      <g>
        <path d="M1332.63,588.15c-1.86,0-3.46-.47-4.8-1.4-1.34-.93-2.38-2.23-3.11-3.89-.73-1.66-1.09-3.59-1.09-5.78,0-2.34,.39-4.31,1.18-5.91,.79-1.6,1.86-2.81,3.22-3.63,1.36-.82,2.89-1.23,4.59-1.23,2.25,0,4.06,.56,5.43,1.69,1.37,1.12,2.31,2.59,2.83,4.39l-2.82,.57c-.44-1.31-1.13-2.35-2.09-3.13-.96-.78-2.07-1.17-3.35-1.17-1.11,0-2.13,.32-3.06,.95s-1.69,1.57-2.26,2.83-.86,2.8-.86,4.65c0,1.68,.23,3.17,.68,4.48,.45,1.31,1.14,2.34,2.05,3.09,.91,.75,2.06,1.12,3.45,1.12,1.67,0,2.99-.45,3.97-1.34,.98-.9,1.47-2.07,1.47-3.53h2.85c0,1.51-.35,2.81-1.04,3.89-.69,1.08-1.66,1.91-2.91,2.49-1.25,.58-2.69,.87-4.34,.87Z"/>
        <path d="M1351.7,588.15c-1.44,0-2.73-.32-3.85-.96-1.12-.64-2.01-1.58-2.66-2.84-.65-1.25-.97-2.8-.97-4.63s.32-3.39,.97-4.64c.65-1.25,1.54-2.19,2.66-2.83,1.13-.64,2.41-.96,3.85-.96s2.71,.32,3.84,.96c1.12,.64,2.01,1.58,2.65,2.83,.64,1.25,.97,2.79,.97,4.64s-.32,3.38-.97,4.63c-.64,1.25-1.53,2.2-2.65,2.84-1.12,.64-2.4,.96-3.84,.96Zm-.07-2.28c1.04,0,1.92-.25,2.65-.75,.73-.5,1.28-1.21,1.65-2.12s.56-2.01,.56-3.27c0-1.91-.4-3.42-1.19-4.52-.79-1.1-1.98-1.65-3.54-1.65-1.05,0-1.94,.25-2.66,.75s-1.27,1.21-1.65,2.13c-.38,.92-.56,2.02-.56,3.3,0,1.89,.4,3.39,1.2,4.49,.8,1.1,1.98,1.65,3.53,1.65Z"/>
        <path d="M1364.23,587.74v-16.05h2.25l.37,3.69v12.35h-2.62Zm11.41,0v-9.43c0-1.53-.37-2.7-1.1-3.5-.73-.8-1.73-1.2-3-1.2-.96,0-1.8,.26-2.5,.79s-1.25,1.28-1.63,2.26c-.38,.98-.57,2.15-.57,3.5h-1.01c0-1.87,.25-3.46,.74-4.78,.49-1.32,1.21-2.33,2.16-3.03,.95-.7,2.1-1.05,3.45-1.05,1.26,0,2.35,.28,3.25,.85s1.59,1.37,2.07,2.43c.48,1.05,.72,2.3,.72,3.74v9.43h-2.59Z"/>
        <path d="M1382.24,573.51v-1.81h10.24v1.81h-10.24Zm7.18,14.64c-.87,0-1.66-.17-2.35-.5-.69-.34-1.24-.84-1.65-1.51-.4-.67-.6-1.51-.6-2.52v-16.38h2.59v16.31c0,1.66,.77,2.48,2.32,2.48,.46,0,.9-.05,1.33-.15,.43-.1,.91-.25,1.45-.45l.37,1.88c-.57,.25-1.14,.45-1.7,.6-.57,.16-1.15,.24-1.75,.24Z"/>
        <path d="M1402.69,588.15c-1.39,0-2.63-.36-3.72-1.07-1.09-.71-1.95-1.7-2.58-2.96s-.95-2.72-.95-4.36c0-1.76,.31-3.27,.94-4.53,.63-1.26,1.49-2.24,2.58-2.91,1.09-.68,2.34-1.02,3.73-1.02,1.22,0,2.26,.25,3.12,.74s1.55,1.16,2.08,2c.53,.84,.89,1.79,1.1,2.84s.27,2.15,.18,3.28h-11.62v-1.61h9.89l-.77,.5c.03-.66,0-1.32-.11-1.98-.11-.66-.3-1.27-.6-1.82-.29-.55-.7-1-1.22-1.34-.53-.34-1.2-.5-2.01-.5-1.03,0-1.89,.26-2.58,.79-.69,.53-1.21,1.22-1.56,2.07-.35,.86-.52,1.78-.52,2.78v1.07c0,1.12,.17,2.12,.51,3s.85,1.58,1.54,2.1,1.54,.77,2.58,.77,1.9-.25,2.57-.76,1.08-1.25,1.23-2.23h2.72c-.17,1.06-.55,1.98-1.14,2.74-.59,.77-1.35,1.36-2.27,1.77-.92,.41-1.95,.62-3.11,.62Z"/>
        <path d="M1414.35,587.74v-16.05h2.25l.37,3.69v12.35h-2.62Zm11.41,0v-9.43c0-1.53-.37-2.7-1.1-3.5-.73-.8-1.73-1.2-3-1.2-.96,0-1.8,.26-2.5,.79s-1.25,1.28-1.63,2.26c-.38,.98-.57,2.15-.57,3.5h-1.01c0-1.87,.25-3.46,.74-4.78,.49-1.32,1.21-2.33,2.16-3.03,.95-.7,2.1-1.05,3.45-1.05,1.26,0,2.35,.28,3.25,.85s1.59,1.37,2.07,2.43c.48,1.05,.72,2.3,.72,3.74v9.43h-2.59Z"/>
        <path d="M1432.36,573.51v-1.81h10.24v1.81h-10.24Zm7.18,14.64c-.87,0-1.66-.17-2.35-.5-.69-.34-1.24-.84-1.65-1.51-.4-.67-.6-1.51-.6-2.52v-16.38h2.59v16.31c0,1.66,.77,2.48,2.32,2.48,.46,0,.9-.05,1.33-.15,.43-.1,.91-.25,1.45-.45l.37,1.88c-.57,.25-1.14,.45-1.7,.6-.57,.16-1.15,.24-1.75,.24Z"/>
      </g>
      <g>
        <path d="M1355.77,667.59c-1.86,0-3.46-.47-4.8-1.4-1.34-.93-2.38-2.23-3.11-3.89-.73-1.66-1.09-3.59-1.09-5.78,0-2.34,.39-4.31,1.18-5.91,.79-1.6,1.86-2.81,3.22-3.63,1.36-.82,2.89-1.23,4.59-1.23,2.25,0,4.06,.56,5.43,1.69,1.37,1.12,2.31,2.59,2.83,4.39l-2.82,.57c-.44-1.31-1.13-2.35-2.09-3.13-.96-.78-2.07-1.17-3.35-1.17-1.11,0-2.13,.32-3.06,.95s-1.69,1.57-2.26,2.83-.86,2.8-.86,4.65c0,1.68,.23,3.17,.68,4.48,.45,1.31,1.14,2.34,2.05,3.09,.91,.75,2.06,1.12,3.45,1.12,1.67,0,2.99-.45,3.97-1.34,.98-.9,1.47-2.07,1.47-3.53h2.85c0,1.51-.35,2.81-1.04,3.89-.69,1.08-1.66,1.91-2.91,2.49-1.25,.58-2.69,.87-4.34,.87Z"/>
        <path d="M1374.84,667.59c-1.44,0-2.73-.32-3.85-.96-1.12-.64-2.01-1.58-2.66-2.84-.65-1.25-.97-2.8-.97-4.63s.32-3.39,.97-4.64c.65-1.25,1.54-2.19,2.66-2.83,1.13-.64,2.41-.96,3.85-.96s2.71,.32,3.84,.96c1.12,.64,2.01,1.58,2.65,2.83,.64,1.25,.97,2.79,.97,4.64s-.32,3.38-.97,4.63c-.64,1.25-1.53,2.2-2.65,2.84-1.12,.64-2.4,.96-3.84,.96Zm-.07-2.28c1.04,0,1.92-.25,2.65-.75,.73-.5,1.28-1.21,1.65-2.12s.56-2.01,.56-3.27c0-1.91-.4-3.42-1.19-4.52-.79-1.1-1.98-1.65-3.54-1.65-1.05,0-1.94,.25-2.66,.75s-1.27,1.21-1.65,2.13c-.38,.92-.56,2.02-.56,3.3,0,1.89,.4,3.39,1.2,4.49,.8,1.1,1.98,1.65,3.53,1.65Z"/>
        <path d="M1393.11,667.59c-1.3,0-2.49-.35-3.58-1.05-1.09-.7-1.95-1.68-2.6-2.95-.65-1.27-.97-2.77-.97-4.49s.32-3.19,.96-4.45,1.49-2.22,2.54-2.9c1.06-.68,2.22-1.02,3.48-1.02,1.17,0,2.21,.29,3.1,.86,.89,.57,1.58,1.39,2.07,2.47,.49,1.07,.74,2.37,.74,3.89h-1.01c0-1.06-.21-1.96-.63-2.69-.42-.73-.97-1.28-1.64-1.65-.67-.38-1.39-.56-2.17-.56-.87,0-1.67,.24-2.39,.73s-1.3,1.18-1.73,2.08c-.43,.9-.65,1.98-.65,3.23s.22,2.37,.65,3.29c.43,.92,1.01,1.62,1.73,2.11,.72,.49,1.52,.74,2.39,.74,.73,0,1.43-.19,2.11-.57,.68-.38,1.23-.94,1.67-1.67s.65-1.62,.65-2.66h1.01c0,1.56-.26,2.87-.76,3.95-.51,1.08-1.2,1.9-2.06,2.46s-1.84,.84-2.91,.84Zm5.17-.4l-.44-3.76v-19.14h2.62v22.9h-2.18Z"/>
        <path d="M1412.84,667.59c-1.39,0-2.63-.36-3.72-1.07-1.09-.71-1.95-1.7-2.58-2.96s-.95-2.72-.95-4.36c0-1.76,.31-3.27,.94-4.53,.63-1.26,1.49-2.24,2.58-2.91,1.09-.68,2.34-1.02,3.73-1.02,1.22,0,2.26,.25,3.12,.74s1.55,1.16,2.08,2c.53,.84,.89,1.79,1.1,2.84s.27,2.15,.18,3.28h-11.62v-1.61h9.89l-.77,.5c.03-.66,0-1.32-.11-1.98-.11-.66-.3-1.27-.6-1.82-.29-.55-.7-1-1.22-1.34-.53-.34-1.2-.5-2.01-.5-1.03,0-1.89,.26-2.58,.79-.69,.53-1.21,1.22-1.56,2.07-.35,.86-.52,1.78-.52,2.78v1.07c0,1.12,.17,2.12,.51,3s.85,1.58,1.54,2.1,1.54,.77,2.58,.77,1.9-.25,2.57-.76,1.08-1.25,1.23-2.23h2.72c-.17,1.06-.55,1.98-1.14,2.74-.59,.77-1.35,1.36-2.27,1.77-.92,.41-1.95,.62-3.11,.62Z"/>
      </g>
      <g>
        <line class="cls-3" x1="1383.31" y1="610.67" x2="1383.31" y2="627.91"/>
        <line class="cls-3" x1="1374.47" y1="619.06" x2="1392.15" y2="619.06"/>
      </g>
    </g>
    <g>
      <circle class="cls-2" cx="139.55" cy="205.72" r="24.9"/>
      <g>
        <path d="M132.95,199.57l1.43,1.65-6.01,4.23v-.92l6.01,4.21-1.43,1.65-6.14-4.43v-1.95l6.14-4.45Z"/>
        <path d="M136.19,212.39l4.73-15.17h2.22l-4.76,15.17h-2.19Z"/>
        <path d="M146.14,210.4l-1.43-1.65,5.99-4.21v.92l-5.99-4.23,1.43-1.65,6.14,4.45v1.95l-6.14,4.43Z"/>
      </g>
    </g>
    <g>
      <circle class="cls-2" cx="465.87" cy="203.41" r="24.9"/>
      <g>
        <path d="M459.28,197.26l1.43,1.65-6.01,4.23v-.92l6.01,4.21-1.43,1.65-6.14-4.43v-1.95l6.14-4.45Z"/>
        <path d="M462.51,210.08l4.73-15.17h2.22l-4.76,15.17h-2.19Z"/>
        <path d="M472.47,208.09l-1.43-1.65,5.99-4.21v.92l-5.99-4.23,1.43-1.65,6.14,4.45v1.95l-6.14,4.43Z"/>
      </g>
    </g>
    <g>
      <circle class="cls-2" cx="779.73" cy="203.41" r="24.9"/>
      <g>
        <path d="M773.13,197.26l1.43,1.65-6.01,4.23v-.92l6.01,4.21-1.43,1.65-6.14-4.43v-1.95l6.14-4.45Z"/>
        <path d="M776.37,210.08l4.73-15.17h2.22l-4.76,15.17h-2.19Z"/>
        <path d="M786.32,208.09l-1.43-1.65,5.99-4.21v.92l-5.99-4.23,1.43-1.65,6.14,4.45v1.95l-6.14,4.43Z"/>
      </g>
    </g>
  </g>
</svg>