<?xml version="1.0" encoding="UTF-8"?>
<svg id="Ebene_2" data-name="Ebene 2" xmlns="http://www.w3.org/2000/svg" viewBox="0 0 60.41 36.63">
  <defs>
    <style>
      .cls-1 {
        opacity: .3;
      }

      .cls-1, .cls-2 {
        fill: #fe6847;
      }
    </style>
  </defs>
  <g id="Ebene_1-2" data-name="Ebene 1">
    <g>
      <path class="cls-2" d="M20.52,10c1.22-1.41,2.35-2.87,4.17-3.45,.72-.23,.66-.93,1.02-1.37C28.49,1.77,32.04,.42,36.42,.72c3.3,.22,5.62,1.93,7.76,4.35,1.43-3.04,4-4.34,6.99-4.84,2.79-.47,5.6-.43,7.3,2.4,1.81,3.01,2.36,6.28,1.62,9.76-.46,2.15-1.94,3.6-3.32,5.13-2.17,2.39-4.98,3.92-7.6,5.7-2.06,1.39-3.96,2.96-4.83,5.43-.09,.26-.25,.5-.4,.73-.59,.94-.81,.96-1.32,.02-1.14-2.12-2.8-3.74-4.74-5.11-1.38-.98-2.1-1-3.31,.1-2.2,2.01-4.9,3.24-7.38,4.8-2.53,1.6-4.46,3.62-5.31,6.57-.12,.4-.55,.89-1,.89-.54,0-.89-.48-1.04-1.01-.3-1.11-.56-2.2-1.39-3.11-1.32-1.45-3.02-2.19-4.83-2.66-2.82-.72-5.6-1.44-8.15-2.93C1.87,24.82,.12,21.68,0,17.62c-.12-4.35,1.46-7.93,5.18-10.39,1.83-1.21,3.9-1.49,6.05-1.43,2.69,.07,5.29,.41,7.54,2.12,.75,.57,1.25,1.3,1.75,2.08Zm.33,23.88c1.72-4.03,5.13-5.87,8.38-7.88,1.78-1.09,3.43-2.34,4.84-3.86,2.55-2.74,3.63-5.94,2.26-9.55-1.5-3.93-3.98-6.2-8.56-5.04-2.8,.71-5.38,2.02-6.58,5-.13,.32-.27,.74-.72,.66-.46-.08-.43-.51-.43-.87,0-1.06-.46-1.92-1.19-2.65-4.06-4.04-10.91-3.64-14.91,.46-3.12,3.2-1.99,11.65,1.33,14.01,3.45,2.46,7.33,3.8,11.22,5.17,1.75,.62,3,1.56,3.7,3.26,.13,.32,.32,.63,.65,1.27ZM27.28,5.75c1.26,.23,2.22,.41,3.21,.38,5.74-.17,9.09,5.21,8.65,9.56-.2,1.95-.8,3.74-1.87,5.35-.56,.84-.44,1.25,.41,1.75,2.08,1.22,3.84,2.82,5.26,4.79,.05,.08,.19,.09,.34,.16,1.03-2.22,2.68-3.87,4.61-5.25,1.26-.9,2.52-1.84,3.9-2.54,3.65-1.85,5.68-4.83,6.55-8.74,.42-1.89,.59-3.77,.15-5.67-.58-2.51-3.54-4.69-5.78-4.15-2.65,.64-4.96,1.94-6.71,4.09-1.28,1.57-1.56,1.54-3.03,.08-2.6-2.57-5.63-4.13-9.43-3.71-2.63,.29-4.43,1.86-6.24,3.9Z"/>
      <path class="cls-1" d="M36.79,20.51c-1.71,3.53-5.1,3.33-10.24,8.14-2.9,2.71-4.71,5.47-5.74,7.28-.43-1.59-1.29-3.7-3.17-5.26-2.86-2.36-5.46-1.24-9.29-2.91-.53-.23-6.56-2.97-7.65-8.52C-.21,14.6,2.37,8.12,8.26,6.53c4.76-1.29,10.02,1.06,12.45,5.74,2.76-4.84,8.16-6.8,12.06-5.17,4.99,2.08,5.96,9.39,4.02,13.4Z"/>
      <path class="cls-1" d="M58.62,14.38c-1.55,2.73-5.23,5.13-9.38,7.85-.63,.41-1.89,1.22-3.16,2.68-1.41,1.63-2.17,3.31-2.59,4.49-.51-1.01-1.59-2.82-3.63-4.39-1.88-1.44-3.74-2.03-4.82-2.28,.52-.65,3.53-4.54,2.52-9.4-.2-.96-.69-3.35-2.68-4.98-3.44-2.82-8.16-.74-8.62-2.01-.44-1.21,3.25-4.64,7.66-5.17,5.78-.69,10.13,3.94,10.82,4.69C47.81,1.45,52.87-.15,56.13,1.46c4.22,2.08,4.65,9.13,2.49,12.93Z"/>
    </g>
  </g>
</svg>