<?xml version="1.0" encoding="UTF-8"?>
<svg id="Ebene_2" data-name="Ebene 2" xmlns="http://www.w3.org/2000/svg" viewBox="0 0 869.6 875.1">
  <defs>
    <style>
      .cls-1 {
        fill: #ff6b35;
      }
    </style>
  </defs>
  <g id="Ebene_1-2" data-name="Ebene 1">
    <path class="cls-1" d="M805.3,0H64.3C28.8,0,0,28.1,0,62.8V812.4c0,34.7,28.8,62.7,64.3,62.7H805.3c35.5,0,64.3-28,64.3-62.7V62.7c-.1-34.6-28.9-62.7-64.3-62.7h0ZM263.6,732.4H132.3V337.4h131.3v395Zm-65.6-448.9h-.9c-44.1,0-72.5-30.3-72.5-68.3s29.4-68.3,74.2-68.3,72.6,29.5,73.4,68.3c0,38-28.4,68.3-74.2,68.3h0Zm539.2,448.9h-131.4v-211.3c0-53.1-18.9-89.3-66.4-89.3-36.4,0-58,24.4-67.5,48-3.4,8.5-4.2,20.3-4.2,32v220.8h-131.4s1.7-358,0-395.1h131.4v55.9c17.4-26.9,48.7-65.2,118.3-65.2,86.4,0,151.2,56.5,151.2,177.9v226.3h0Z"/>
  </g>
</svg>