<?xml version="1.0" encoding="UTF-8"?>
<svg id="Ebene_2" data-name="Ebene 2" xmlns="http://www.w3.org/2000/svg" viewBox="0 0 292.17 292.17">
  <defs>
    <style>
      .cls-1 {
        fill: #fff;
      }

      .cls-2 {
        fill: #f26b3b;
      }
    </style>
  </defs>
  <g id="Layer_1" data-name="Layer 1">
    <path class="cls-2" d="M146.08,0C65.4,0,0,65.4,0,146.08c0,59.43,35.54,110.47,86.48,133.28-.18-4.1-.35-8.21-.21-12.33,.47-14.21,2.23-19.09,20.54-96.1,.27-1.18-.03-2.15-.42-3.21-4.38-11.83-5.25-23.83-1.42-36,8.29-26.27,38.07-28.28,43.28-6.61,3.2,13.41-5.28,30.95-11.8,56.88-5.4,21.4,19.79,36.61,41.32,20.99,19.86-14.4,27.56-48.92,26.09-73.38-2.89-48.78-56.38-59.33-90.32-43.62-38.9,17.99-47.75,66.22-30.18,88.25,2.23,2.81,3.95,4.52,3.21,7.36-1.13,4.41-2.13,8.86-3.35,13.25-.91,3.27-3.64,4.46-6.94,3.11-6.48-2.62-11.87-6.74-16.25-12.17-14.92-18.47-19.18-55.01,.54-85.94,21.85-34.27,62.49-48.13,99.6-43.93,44.32,5.04,72.34,35.33,77.59,69.68,2.39,15.65,.67,54.24-21.3,81.52-25.27,31.34-66.24,33.42-85.15,14.18-1.46-1.47-2.63-3.2-4.05-4.96-.21,.71-.4,1.3-.56,1.91-9.07,35.55-10.08,43.45-19.41,59.96-1.44,2.53-3.03,4.96-4.58,7.42,13.7,4.25,28.26,6.55,43.36,6.55,80.68,0,146.09-65.4,146.09-146.08S226.76,0,146.08,0Z"/>
    <path class="cls-1" d="M126.71,218.25c.16-.6,.35-1.2,.56-1.91,1.42,1.76,2.59,3.49,4.05,4.96,18.9,19.24,59.87,17.16,85.15-14.18,21.97-27.28,23.69-65.87,21.3-81.52-5.25-34.36-33.27-64.64-77.59-69.68-37.11-4.2-77.75,9.66-99.6,43.93-19.72,30.93-15.46,67.47-.54,85.94,4.38,5.43,9.77,9.56,16.25,12.17,3.3,1.34,6.03,.15,6.94-3.11,1.21-4.39,2.21-8.83,3.35-13.25,.74-2.84-.98-4.55-3.21-7.36-17.56-22.04-8.72-70.26,30.18-88.25,33.94-15.71,87.43-5.16,90.32,43.62,1.46,24.47-6.24,58.99-26.09,73.38-21.53,15.62-46.71,.41-41.32-20.99,6.51-25.93,15-43.47,11.8-56.88-5.21-21.68-34.99-19.66-43.28,6.61-3.83,12.16-2.96,24.17,1.42,36,.4,1.06,.69,2.03,.42,3.21-18.31,77.02-20.07,81.9-20.54,96.1-.14,4.12,.04,8.23,.21,12.33,5.27,2.36,10.66,4.52,16.25,6.25,1.55-2.45,3.14-4.88,4.58-7.42,9.32-16.51,10.33-24.4,19.41-59.96Z"/>
  </g>
</svg>