<?xml version="1.0" encoding="UTF-8"?>
<svg id="Ebene_2" data-name="Ebene 2" xmlns="http://www.w3.org/2000/svg" viewBox="0 0 292.17 292.17">
  <defs>
    <style>
      .cls-1 {
        fill: #fff;
      }

      .cls-2 {
        fill: #f26b3b;
      }
    </style>
  </defs>
  <g id="Layer_1" data-name="Layer 1">
    <g>
      <circle class="cls-2" cx="146.08" cy="146.08" r="146.08"/>
      <path class="cls-1" d="M226.8,96.03c-5.06,2.29-10.65,3.68-16.11,4.59,2.59-.44,6.4-5.13,7.92-7.02,2.33-2.89,4.26-6.19,5.35-9.75,.14-.28,.24-.63-.04-.84-.35-.14-.58-.07-.85,.07-6.09,3.27-12.4,5.63-19.1,7.31-.56,.14-.97,0-1.32-.35-.56-.63-1.08-1.22-1.67-1.71-2.82-2.4-5.84-4.28-9.26-5.67-4.48-1.82-9.37-2.6-14.19-2.29-4.69,.3-9.3,1.63-13.47,3.8-4.17,2.18-7.9,5.21-10.86,8.87-3.07,3.79-5.33,8.26-6.49,12.99-1.12,4.57-1.03,9.1-.34,13.72,.1,.77,.03,.87-.66,.77-26.24-3.9-47.99-13.29-65.64-33.41-.77-.87-1.18-.87-1.81,.07-7.73,11.58-3.98,30.19,5.67,39.33,1.29,1.22,2.61,2.44,4.03,3.55-.52,.11-6.94-.59-12.67-3.55-.77-.48-1.15-.21-1.22,.66-.07,1.25,.04,2.4,.21,3.76,1.48,11.74,9.61,22.6,20.75,26.83,1.32,.56,2.78,1.04,4.21,1.29-2.54,.56-5.15,.95-12.42,.38-.91-.17-1.25,.28-.91,1.15,5.47,14.9,17.27,19.33,26.1,21.86,1.18,.21,2.37,.21,3.55,.48-.07,.11-.14,.11-.21,.21-2.93,4.47-13.09,7.79-17.83,9.45-8.61,3.01-17.98,4.36-27.07,3.46-1.45-.21-1.76-.2-2.16,0-.4,.25-.05,.59,.42,.97,1.85,1.22,3.72,2.3,5.64,3.34,5.78,3.06,11.8,5.5,18.1,7.24,32.52,8.98,69.16,2.38,93.58-21.88,19.18-19.05,25.9-45.33,25.9-71.64,0-1.03,1.22-1.6,1.94-2.14,4.99-3.75,9.01-8.24,12.74-13.24,.84-1.13,.84-2.13,.84-2.54v-.14c0-.42,0-.29-.65,0Z"/>
    </g>
  </g>
</svg>