<?xml version="1.0" encoding="UTF-8"?>
<svg id="Ebene_2" data-name="Ebene 2" xmlns="http://www.w3.org/2000/svg" viewBox="0 0 292.17 292.17">
  <defs>
    <style>
      .cls-1 {
        fill: #fff;
      }

      .cls-2 {
        fill: #f26b3b;
      }
    </style>
  </defs>
  <g id="Layer_1" data-name="Layer 1">
    <g>
      <path class="cls-2" d="M292.17,146.08C292.17,65.4,226.76,0,146.08,0S0,65.4,0,146.08c0,72.91,53.42,133.35,123.26,144.31v-102.08h-37.09v-42.23h37.09v-32.18c0-36.61,21.81-56.84,55.18-56.84,15.98,0,32.7,2.85,32.7,2.85v35.95h-18.42c-18.15,0-23.81,11.26-23.81,22.81v27.4h40.52l-6.48,42.23h-34.04v102.08c69.84-10.96,123.26-71.39,123.26-144.31Z"/>
      <path class="cls-1" d="M202.95,188.31l6.48-42.23h-40.52v-27.4c0-11.55,5.66-22.81,23.81-22.81h18.42V59.92s-16.72-2.85-32.7-2.85c-33.37,0-55.18,20.22-55.18,56.84v32.18h-37.09v42.23h37.09v102.08c7.44,1.17,15.06,1.78,22.82,1.78s15.39-.61,22.83-1.78v-102.08h34.04Z"/>
    </g>
  </g>
</svg>