<?xml version="1.0" encoding="UTF-8"?>
<svg id="Ebene_2" data-name="Ebene 2" xmlns="http://www.w3.org/2000/svg" viewBox="0 0 58.15 39.82">
  <defs>
    <style>
      .cls-1 {
        opacity: .3;
      }

      .cls-1, .cls-2 {
        fill: #fe6847;
      }
    </style>
  </defs>
  <g id="Ebene_1-2" data-name="Ebene 1">
    <g>
      <path class="cls-1" d="M57.39,34.16c-3.35,.19-6.7,.38-10.05,.57,.24,2.4-1.52,4.43-3.54,4.6-2.19,.18-4.39-1.87-4.21-4.5-7.44,.21-14.87,.41-22.31,.62-.69,1.43-2.11,2.36-3.69,2.39-1.64,.04-3.16-.9-3.88-2.39-2.66,.05-5.33,.1-7.99,.14-.24-9.94-.48-19.88-.72-29.82,3.96-.35,7.91-.7,11.87-1.05l21.41,.66c1.24-.33,2.48-.66,3.73-1-.04-2.04,.68-3.58,1.43-3.69,.8-.12,2.08,1.3,2.49,3.69,.96,.34,1.93,.68,2.89,1.02,1.85,4.04,3.71,8.09,5.56,12.13,1.91,1.12,3.81,2.24,5.72,3.36,.43,4.42,.86,8.84,1.29,13.26Z"/>
      <g>
        <path class="cls-2" d="M17.49,4.21c3.47-.08,6.91,.46,10.36,.38,2.96-.07,5.94,.37,8.89-.21,.8-.16,.95-.54,.67-1.21-.32-.77-.57-1.59,.18-2.19,.95-.75,2.07-1.28,3.3-.79,.9,.36,1.14,1.23,1.2,2.16,.1,1.67,.12,1.68,1.84,1.83,.88,.08,1.37,.18,1.71,1.34,.58,1.99,1.77,3.8,2.68,5.69,.9,1.89,1.77,3.8,2.63,5.71,.13,.28,.33,.43,.55,.6,1.11,.85,2.31,1.58,3.64,1.98,1.4,.42,1.93,1.33,2.02,2.7,.21,3.13,.48,6.25,.72,9.38,.03,.32,.09,.63,.14,.94,.42,2.64-.02,2.54-2.42,2.61-1.01,.03-2.05,.02-3.06,.12-1.18,.12-2.36,.32-3.55,.34-.73,.01-1.11,.31-1.34,1.03-.41,1.27-1.04,2.36-2.43,2.89-2.3,.88-4.87-.2-5.44-2.61-.3-1.26-.78-1.35-1.88-1.26-5.27,.43-10.55,.34-15.82,.31-1.27,0-2.54,.04-3.81,0-.48-.01-.72,.18-.95,.54-.78,1.26-2.02,1.96-3.37,2.28-1.8,.42-3.29,.14-4.05-1.57-.48-1.09-1.28-1.43-2.48-1.3-1.62,.18-3.25,.16-4.88,.28-.96,.07-1.33-.26-1.36-1.28-.17-4.6-.45-9.2-.65-13.8C.33,16.76,.21,12.42,.06,8.07c0-.24,0-.48-.03-.71-.17-1.47,.43-2.36,1.86-2.48,2.3-.19,4.6-.26,6.9-.38,0-.09,5.8-.22,8.7-.28Zm8.42,30.44s0-.05,0-.08c2.19,0,4.38,0,6.57,0,.72,0,1.24-.15,1.18-1.08-.36-5.33-.31-10.66-.39-16-.06-3.62-.42-7.24-.08-10.86,.07-.78-.52-.7-.96-.73-2.78-.19-5.55-.44-8.33-.49-5.68-.1-11.37-.29-17.05,.2-1.51,.13-3.01,.28-4.51,.47-.64,.08-1.14,.36-1.08,1.15,.06,.83,.07,1.67,.1,2.5,.18,4.61,.34,9.23,.54,13.84,.15,3.42,.34,6.84,.49,10.26,.03,.68,.32,.88,.95,.9,1.6,.05,3.18-.09,4.77-.21,.61-.05,.87-.42,1.11-.92,.61-1.29,1.56-2.31,2.78-3.05,.94-.57,1.97-.83,2.94-.22,1.27,.79,2.38,1.83,2.93,3.22,.36,.9,.87,1.1,1.71,1.09,2.11-.02,4.22,0,6.33,0Zm8.49-14.27c.12,4.18,.26,8.36,.48,12.54,.06,1.1,.41,1.63,1.59,1.41,.66-.12,1.35-.19,2.02-.19,.93,.01,1.51-.34,2.04-1.14,.79-1.2,1.93-2.14,3.49-1.85,1.66,.3,3.21,.98,4.13,2.54,.3,.51,.65,.59,1.18,.52,1.97-.25,3.95-.53,5.93-.67,1.04-.07,1.3-.39,1.19-1.45-.29-2.81-.52-5.63-.58-8.45-.03-1.6-.47-2.65-2.08-3.14-.59-.18-1.14-.57-1.65-.94-.75-.55-1.57-.72-2.47-.68-2.19,.11-4.38,.2-6.56,.27-.79,.03-1.59-.02-2.39-.06-.38-.02-.74-.15-.71-.63,.02-.44,.36-.61,.74-.62,.72-.03,1.43-.02,2.15-.03,.59,0,1.11-.13,1.33-.79,.14-.42,.27-.89,.83-.88,.58,.02,.96,.38,1.1,.93,.15,.56,.53,.63,1,.6,.52-.03,1.04-.09,1.55-.07,.85,.03,.79-.32,.5-.93-1.59-3.34-3.16-6.69-4.7-10.05-.3-.64-.68-1-1.4-1.1-1.96-.27-3.89-.1-5.82,.22-2.89,.48-2.91,.54-2.88,3.54,.03,3.7,0,7.4,0,11.1Zm12.17,14.88c.01-1.1-1.28-2.07-2.77-2.07-1.44,0-2.89,1.21-2.94,2.46-.04,1.15,1.6,2.78,2.81,2.79,1.57,.02,2.87-1.41,2.89-3.18Zm-32.93,1.9c1.38-.02,2.95-1.46,2.9-2.66-.04-1.01-1.82-2.66-2.83-2.62-1.65,.05-3.24,1.51-3.2,2.93,.03,1.19,1.61,2.38,3.14,2.36ZM40.7,2.84c.04-.77-.14-1.4-1.15-1.31-.61,.06-1.13,.25-1,1,.13,.71,.16,1.53,1.27,1.5,.86-.02,.97-.49,.88-1.2Z"/>
        <path class="cls-2" d="M21.15,21.12c.09,.64,.28,1.44-.66,1.93-1.08,.56-2.19,.74-3.33,.33-.7-.25-.75-.98-.88-1.6-.48-2.26-.59-2.36-2.94-2.48-.08,0-.16,0-.24,0-.87,.05-1.67-.21-1.95-1.05-.36-1.08,.34-2.58,1.22-2.98,.7-.31,1.42-.54,2.2-.48,.78,.07,1.03-.25,1.04-1.02,.03-1.88,.25-2.09,2.1-2.3,.12-.01,.24-.03,.36-.04,2.6-.28,2.74-.19,2.71,2.41,0,.89,.28,1.25,1.16,1.18,.31-.03,.64,.02,.95,.05,3.08,.22,2.3,.38,2.58,2.98,.08,.69-.31,1.05-.95,1.12-.59,.07-1.19,.12-1.79,.13-1.68,.01-1.68,0-1.59,1.82Zm-6.72-4.35c-.47,.2-1.56-.4-1.52,.36,.04,.88,1.07,.37,1.68,.31,1.25-.13,2.26,.23,3.03,1.25,.42,.56,.31,1.21,.44,1.82,.11,.5-.13,1.39,.54,1.4,.72,0,.46-.86,.54-1.36,.1-.55,.14-1.1,.21-1.66,.11-.9,.58-1.34,1.52-1.29,.63,.03,1.27-.01,1.91-.02,.37,0,.8,0,.85-.46,.06-.56-.45-.44-.77-.47-.79-.08-1.58-.12-2.38-.18-.81-.06-1.22-.52-1.26-1.31-.02-.44-.02-.87,0-1.31,.02-.6-.25-.84-.85-.88-1.03-.06-1.38,.39-1.4,1.4-.04,2.1-.42,2.42-2.54,2.4Z"/>
        <path class="cls-2" d="M43.29,34.98c.37,.05,.68,.21,.69,.64,.01,.3-.16,.54-.48,.57-.44,.04-.64-.24-.67-.64-.03-.31,.1-.53,.45-.57Z"/>
        <path class="cls-2" d="M13.53,33.83c.5,.04,.8,.28,.83,.73,.05,.61-.43,.8-.9,.88-.47,.08-.75-.19-.75-.67,0-.55,.35-.83,.81-.94Z"/>
      </g>
    </g>
  </g>
</svg>