<?xml version="1.0" encoding="UTF-8"?>
<svg id="Ebene_2" data-name="Ebene 2" xmlns="http://www.w3.org/2000/svg" viewBox="0 0 690 690">
  <defs>
    <style>
      .cls-1 {
        stroke-width: 10px;
      }

      .cls-1, .cls-2, .cls-3 {
        stroke: #fe6847;
        stroke-linecap: round;
        stroke-linejoin: round;
      }

      .cls-1, .cls-3, .cls-4 {
        fill: #fe6847;
      }

      .cls-2 {
        fill: none;
        stroke-width: 6px;
      }

      .cls-5 {
        fill: #2f0147;
      }
    </style>
  </defs>
  <g id="Ebene_1-2" data-name="Ebene 1">
    <circle class="cls-5" cx="345" cy="345" r="345"/>
    <g>
      <path class="cls-3" d="M88.18,430.31c-3.57,0-7.14-.28-10.72-.83-3.58-.55-6.89-1.33-9.92-2.33v-13.2c2.1,.7,4.33,1.29,6.7,1.78,2.37,.48,4.74,.86,7.12,1.12,2.38,.27,4.64,.4,6.77,.4,4.97,0,8.48-.76,10.55-2.28,2.07-1.52,3.1-3.64,3.1-6.38,0-2.3-.76-4.1-2.28-5.4-1.52-1.3-4.34-2.48-8.47-3.55l-5.6-1.45c-6.47-1.63-11.36-4.17-14.67-7.62-3.32-3.45-4.97-8.01-4.97-13.67,0-7.07,2.56-12.58,7.67-16.55,5.12-3.97,12.83-5.95,23.12-5.95,3.33,0,6.51,.19,9.53,.58,3.02,.38,5.69,.91,8.02,1.58v13.2c-2.37-.73-5-1.3-7.9-1.7-2.9-.4-5.82-.6-8.75-.6-3.87,0-6.93,.36-9.2,1.08-2.27,.72-3.89,1.73-4.88,3.03-.98,1.3-1.48,2.8-1.48,4.5,0,2.17,.67,3.87,2,5.1,1.33,1.23,3.83,2.35,7.5,3.35l5.55,1.45c4.8,1.17,8.75,2.71,11.85,4.62,3.1,1.92,5.39,4.27,6.88,7.05,1.48,2.78,2.22,6.07,2.22,9.88,0,4.73-1.17,8.81-3.52,12.22-2.35,3.42-5.74,6.03-10.17,7.85-4.43,1.82-9.78,2.73-16.05,2.73Z"/>
      <path class="cls-3" d="M155.43,430.41c-6.87,0-12.52-.98-16.95-2.95-4.43-1.97-7.72-5.05-9.88-9.25-2.15-4.2-3.22-9.62-3.22-16.25,0-6.03,.99-11.15,2.97-15.35s4.87-7.38,8.65-9.55,8.38-3.25,13.78-3.25,9.52,1.09,13.05,3.27c3.53,2.18,6.2,5.41,8,9.68s2.7,9.5,2.7,15.7v4.15h-40.05v-9.15h27.75l-2.55,.95c0-3.6-.33-6.47-1-8.6-.67-2.13-1.67-3.65-3.02-4.55-1.35-.9-3.03-1.35-5.03-1.35s-3.74,.45-5.12,1.35c-1.38,.9-2.43,2.41-3.15,4.52-.72,2.12-1.07,4.98-1.07,8.58v6.4c0,3.37,.49,6.04,1.47,8.02,.98,1.98,2.67,3.41,5.05,4.28,2.38,.87,5.67,1.3,9.88,1.3,2.13,0,4.38-.16,6.73-.47,2.35-.32,4.71-.74,7.07-1.28v11.95c-2.9,.67-5.66,1.14-8.27,1.42-2.62,.28-5.21,.42-7.78,.42Z"/>
      <path class="cls-3" d="M207.48,430.41c-5.47,0-10.19-1.04-14.17-3.12-3.98-2.08-7.06-5.22-9.22-9.4-2.17-4.18-3.25-9.43-3.25-15.73s1.06-11.65,3.17-15.85c2.12-4.2,5.17-7.33,9.15-9.4,3.98-2.07,8.76-3.1,14.33-3.1s10.34,1.04,14.33,3.12c3.98,2.08,7.03,5.22,9.15,9.4,2.12,4.18,3.17,9.43,3.17,15.73s-1.08,11.6-3.25,15.8c-2.17,4.2-5.24,7.34-9.23,9.42s-8.71,3.12-14.17,3.12Zm0-12.1c2.23,0,4.14-.48,5.73-1.45,1.58-.97,2.79-2.62,3.62-4.97,.83-2.35,1.25-5.58,1.25-9.68s-.42-7.48-1.25-9.85c-.83-2.37-2.04-4.04-3.62-5.03-1.58-.98-3.49-1.47-5.73-1.47s-4.14,.48-5.72,1.45c-1.58,.97-2.79,2.62-3.62,4.97-.83,2.35-1.25,5.59-1.25,9.73s.42,7.48,1.25,9.85c.83,2.37,2.04,4.03,3.62,5,1.58,.97,3.49,1.45,5.72,1.45Z"/>
      <path class="cls-3" d="M243.53,429.36v-54.7h13.15l1.05,5.6h.75c1.93-2.13,4.19-3.74,6.78-4.83,2.58-1.08,5.44-1.62,8.57-1.62s6.14,.69,8.72,2.08c2.58,1.38,4.62,3.62,6.1,6.7,1.48,3.08,2.22,7.16,2.22,12.23v34.55h-15.6v-33.2c0-3.27-.61-5.52-1.83-6.77s-2.89-1.88-5.03-1.88c-1.07,0-2.16,.17-3.27,.5-1.12,.33-2.17,.83-3.15,1.5-.98,.67-1.84,1.52-2.58,2.55v37.3h-15.9Zm62.85,0v-33.2c0-3.27-.67-5.52-2-6.77-1.33-1.25-3.05-1.88-5.15-1.88-1.17,0-2.32,.17-3.47,.52-1.15,.35-2.24,.89-3.28,1.62-1.03,.73-1.93,1.68-2.7,2.85l-3.15-10.35c2.43-2.97,5.18-5.1,8.25-6.4,3.07-1.3,6.15-1.95,9.25-1.95,3.5,0,6.62,.7,9.35,2.1,2.73,1.4,4.88,3.68,6.45,6.85s2.35,7.35,2.35,12.55v34.05h-15.9Z"/>
      <path class="cls-3" d="M357.88,430.41c-5.47,0-10.19-1.04-14.17-3.12s-7.06-5.22-9.22-9.4c-2.17-4.18-3.25-9.43-3.25-15.73s1.06-11.65,3.17-15.85c2.12-4.2,5.17-7.33,9.15-9.4,3.98-2.07,8.76-3.1,14.32-3.1s10.34,1.04,14.33,3.12,7.03,5.22,9.15,9.4c2.12,4.18,3.17,9.43,3.17,15.73s-1.08,11.6-3.25,15.8c-2.17,4.2-5.24,7.34-9.22,9.42-3.98,2.08-8.71,3.12-14.18,3.12Zm0-12.1c2.23,0,4.14-.48,5.73-1.45,1.58-.97,2.79-2.62,3.62-4.97,.83-2.35,1.25-5.58,1.25-9.68s-.42-7.48-1.25-9.85c-.83-2.37-2.04-4.04-3.62-5.03-1.58-.98-3.49-1.47-5.73-1.47s-4.14,.48-5.72,1.45c-1.58,.97-2.79,2.62-3.62,4.97-.83,2.35-1.25,5.59-1.25,9.73s.42,7.48,1.25,9.85c.83,2.37,2.04,4.03,3.62,5,1.58,.97,3.49,1.45,5.72,1.45Z"/>
      <path class="cls-3" d="M387.18,387.21v-12.55h39.2v12.55h-39.2Zm29.45,43.15c-6.6,0-11.67-1.64-15.22-4.92s-5.33-8.49-5.33-15.62v-35.15l2.9-19.3h13v51.95c0,3.77,.71,6.37,2.12,7.8,1.42,1.43,3.71,2.15,6.88,2.15,.87,0,1.76-.06,2.67-.18,.92-.12,1.94-.27,3.08-.47v12.6c-1.43,.3-3.04,.57-4.83,.8-1.78,.23-3.54,.35-5.28,.35Z"/>
      <path class="cls-3" d="M442.82,366.71c-3.33,0-5.81-.73-7.43-2.2s-2.42-3.5-2.42-6.1,.81-4.72,2.42-6.17,4.09-2.17,7.43-2.17,5.85,.72,7.45,2.17c1.6,1.45,2.4,3.51,2.4,6.17s-.8,4.63-2.4,6.1c-1.6,1.47-4.08,2.2-7.45,2.2Zm-7.95,62.65v-54.7h15.95v54.7h-15.95Z"/>
      <path class="cls-3" d="M486.87,430.41c-5.47,0-10.19-1.04-14.17-3.12s-7.06-5.22-9.22-9.4c-2.17-4.18-3.25-9.43-3.25-15.73s1.06-11.65,3.17-15.85c2.12-4.2,5.17-7.33,9.15-9.4,3.98-2.07,8.76-3.1,14.32-3.1s10.34,1.04,14.33,3.12,7.03,5.22,9.15,9.4c2.12,4.18,3.17,9.43,3.17,15.73s-1.08,11.6-3.25,15.8c-2.17,4.2-5.24,7.34-9.22,9.42-3.98,2.08-8.71,3.12-14.18,3.12Zm0-12.1c2.23,0,4.14-.48,5.73-1.45,1.58-.97,2.79-2.62,3.62-4.97,.83-2.35,1.25-5.58,1.25-9.68s-.42-7.48-1.25-9.85c-.83-2.37-2.04-4.04-3.62-5.03-1.58-.98-3.49-1.47-5.73-1.47s-4.14,.48-5.72,1.45c-1.58,.97-2.79,2.62-3.62,4.97-.83,2.35-1.25,5.59-1.25,9.73s.42,7.48,1.25,9.85c.83,2.37,2.04,4.03,3.62,5,1.58,.97,3.49,1.45,5.72,1.45Z"/>
      <path class="cls-3" d="M522.92,429.36v-54.7h13.15l1.05,5.55h.75c2.03-2.07,4.42-3.65,7.15-4.75,2.73-1.1,5.7-1.65,8.9-1.65,3.6,0,6.81,.71,9.62,2.12,2.82,1.42,5.02,3.7,6.62,6.85,1.6,3.15,2.4,7.31,2.4,12.48v34.1h-15.95v-33.1c0-3.3-.68-5.58-2.05-6.85-1.37-1.27-3.25-1.9-5.65-1.9-1.2,0-2.41,.16-3.62,.47-1.22,.32-2.38,.81-3.5,1.47-1.12,.67-2.11,1.5-2.98,2.5v37.4h-15.9Z"/>
      <path class="cls-3" d="M600.07,430.41c-3.13,0-6.17-.2-9.12-.6-2.95-.4-5.72-1-8.33-1.8v-11.7c2.63,.8,5.42,1.41,8.35,1.83,2.93,.42,5.9,.62,8.9,.62,3.6,0,6.14-.48,7.62-1.43,1.48-.95,2.23-2.27,2.23-3.97,0-1.37-.37-2.4-1.1-3.1-.73-.7-2.02-1.23-3.85-1.6l-8.9-1.6c-5.13-.97-8.87-2.75-11.2-5.35-2.33-2.6-3.5-6.08-3.5-10.45,0-5.23,2.11-9.45,6.33-12.65s10.69-4.8,19.42-4.8c2.67,0,5.26,.15,7.78,.45,2.52,.3,4.79,.72,6.83,1.25v11.7c-2.13-.6-4.4-1.05-6.8-1.35-2.4-.3-4.85-.45-7.35-.45-3.03,0-5.37,.26-7,.78-1.63,.52-2.77,1.19-3.42,2.02-.65,.83-.97,1.73-.97,2.7,0,1.17,.37,2.12,1.1,2.85,.73,.73,2,1.3,3.8,1.7l8.9,1.6c4.87,.9,8.54,2.56,11.02,4.97,2.48,2.42,3.73,6.01,3.73,10.78,0,5.43-2.12,9.72-6.38,12.88-4.25,3.15-10.28,4.72-18.08,4.72Z"/>
    </g>
    <g>
      <g>
        <g>
          <path class="cls-4" d="M393.78,223.22c-5.25,0-10.15-2.33-13.46-6.4-2.91-3.59-4.26-8.1-3.78-12.7,.48-4.6,2.72-8.74,6.31-11.65,3.08-2.5,6.95-3.87,10.9-3.87,5.25,0,10.15,2.33,13.46,6.4,6.02,7.41,4.88,18.34-2.53,24.36-3.08,2.5-6.95,3.87-10.9,3.87Z"/>
          <path class="cls-4" d="M393.75,186.59v4c4.64,0,8.98,2.06,11.9,5.67,2.58,3.18,3.76,7.17,3.34,11.24s-2.41,7.73-5.58,10.31c-2.76,2.24-6.09,3.42-9.64,3.42-4.64,0-8.98-2.06-11.9-5.67-5.32-6.56-4.32-16.22,2.24-21.54,2.76-2.24,6.09-3.42,9.64-3.42v-4m0,0c-4.28,0-8.58,1.41-12.16,4.32-8.28,6.72-9.55,18.89-2.83,27.17,3.82,4.7,9.39,7.14,15.01,7.14,4.28,0,8.58-1.41,12.16-4.32,8.28-6.72,9.55-18.89,2.83-27.17-3.82-4.7-9.39-7.15-15.01-7.14h0Z"/>
        </g>
        <g>
          <line class="cls-2" x1="431.68" y1="175.49" x2="467.67" y2="146.28"/>
          <line class="cls-4" x1="431.68" y1="175.49" x2="467.67" y2="146.28"/>
        </g>
        <g>
          <line class="cls-2" x1="425.66" y1="243.87" x2="454.87" y2="279.86"/>
          <line class="cls-4" x1="425.66" y1="243.87" x2="454.87" y2="279.86"/>
        </g>
        <g>
          <line class="cls-2" x1="362.27" y1="166.26" x2="333.06" y2="130.26"/>
          <line class="cls-4" x1="362.27" y1="166.26" x2="333.06" y2="130.26"/>
        </g>
        <g>
          <line class="cls-2" x1="398.8" y1="157.49" x2="403.6" y2="111.38"/>
          <line class="cls-4" x1="398.8" y1="157.49" x2="403.6" y2="111.38"/>
        </g>
        <g>
          <line class="cls-2" x1="489.82" y1="215.9" x2="443.72" y2="211.1"/>
          <line class="cls-4" x1="489.82" y1="215.9" x2="443.72" y2="211.1"/>
        </g>
      </g>
      <path class="cls-1" d="M248.42,325.76c46.52-38.06,93.04-76.11,139.57-114.17"/>
    </g>
  </g>
</svg>