<?xml version="1.0" encoding="UTF-8"?>
<svg id="Ebene_2" data-name="Ebene 2" xmlns="http://www.w3.org/2000/svg" viewBox="0 0 87.04 113.8">
  <defs>
    <style>
      .cls-1 {
        opacity: .3;
      }

      .cls-1, .cls-2 {
        fill: #fe6847;
      }
    </style>
  </defs>
  <g id="Ebene_1-2" data-name="Ebene 1">
    <g>
      <g>
        <path class="cls-2" d="M60.42,39.95c.09,6.01-3.07,10.22-7.77,13.47-4.59,3.18-9.62,5.28-15.31,4.81-5.33-.44-10.59-1.77-14.12-6.06-2.65-3.22-3.71-7.41-2.83-11.6,1.33-6.29,4.74-11.51,8.88-16.4,5.71-6.72,10.14-14.19,11.8-23.03C41.21,.43,41.38,0,42.23,0c.88,0,1.24,.27,1.37,1.19,.61,4.34,2.12,8.42,3.66,12.5,1.33,3.52,3.45,6.52,5.72,9.37,3.27,4.12,5.83,8.57,7.39,13.56,.32,1.01,.05,2.21,.05,3.32ZM42.18,8.48c-2.59,7.46-7.17,13.07-11.53,18.83-2.25,2.98-4.38,6.04-5.85,9.52-3.41,8.1,.06,15.35,8.56,17.59,7.26,1.91,13.75,.05,19.37-4.61,4.08-3.39,6.49-7.73,4.68-13.27-1.41-4.33-3.52-8.33-6.37-11.92-1.53-1.93-2.83-4.02-4.21-6.06-1.98-2.94-2.73-6.41-4.66-10.08Z"/>
        <path class="cls-2" d="M14.32,113.65c-5.21,1.23-12.45-5.37-13.71-10.54-1.94-7.94,1.01-14.11,5.65-20.02,2.54-3.24,4.85-6.63,6.53-10.42,1.56-3.53,2.89-7.07,2.57-11.06-.07-.85,.19-2.31,1.54-2.3,1.2,0,1.37,1.08,1.3,2.12-.32,4.9,2.65,8.58,4.88,12.44,2.75,4.75,5.92,9.24,8.36,14.2,2.67,5.43,1.24,15.16-3.03,19.13-4.84,4.5-7.86,6.16-14.09,6.45Zm.16-2.81c5.17,.16,9.28-1.79,12.21-5.68,3.02-4.01,4.57-8.66,2.9-13.66-2.44-7.34-7.44-13.28-11.34-19.82-.69-1.16-1.28-1.62-1.95,.12-1.88,4.86-4.88,9.06-7.87,13.29-3.49,4.95-6.15,10.07-4.62,16.59,1.18,5.06,5.68,9.24,10.67,9.16Z"/>
        <path class="cls-2" d="M69.72,95.38c-9.07,.5-14.99-6.13-14.25-14.78,.37-4.33,2.69-8.05,4.82-11.67,3.53-6.01,6.11-12.18,5.57-19.32-.05-.71-.08-1.44,.01-2.15,.1-.75-.54-1.97,.9-2.03,1.11-.05,1.71,.8,1.91,1.79,.36,1.79,.99,3.48,1.61,5.19,1.33,3.62,4.19,6.1,6.62,8.85,3.43,3.88,6.29,8.09,8.48,12.75,.68,1.44,1.17,2.99,1.55,4.54,.54,2.21-1.26,3.75-1.97,5.57-2.13,5.44-6.26,9-11.72,11.03-1.32,.49-2.68,.08-3.53,.22Zm-.77-39.43c-.94,5.01-2.61,9.21-4.94,13.27-2.07,3.6-4.27,7.21-4.8,11.57-1.1,9.1,6.88,12.94,12.57,11.77,5.18-1.07,8.5-4.67,10.77-9.3,1.23-2.51,1.89-5.1,.59-7.77-1.85-3.8-4.17-7.27-6.81-10.6-2.31-2.92-5.26-5.27-7.38-8.94Z"/>
        <path class="cls-2" d="M45.84,45.36c.65-1.93,1.25-3.87,1.97-5.77,1.56-4.15,.26-7.67-2.44-10.79-1.49-1.71-2.55-3.64-3.56-5.62-.34-.66-.91-1.53,.15-2.05,.78-.38,1.63-.15,2.13,.59,2.03,3.04,4.13,6.04,5.96,9.19,1.38,2.39,1.34,4.96,.17,7.57-1.12,2.48-1.97,5.09-4.37,6.88Z"/>
        <path class="cls-2" d="M24.1,92.28c-.33,3.73-1.36,8.9-3.88,13.68-.25,.47-.39,1.22-1.12,.88-.64-.3-.31-.98-.16-1.49,.81-2.73,1.73-5.42,2.22-8.26,.93-5.42,.77-10.44-3.68-14.47-.81-.73-1.75-1.84-.72-2.87,1.12-1.12,2.15-.08,3.05,.75,2.96,2.75,4.45,6.12,4.3,11.78Z"/>
        <path class="cls-2" d="M73.99,83.85c-.78-1.09-.39-1.65-.09-2.18,2.57-4.48,1.14-8.56-1.28-12.52-.58-.94-1.29-1.8-1.96-2.69-.39-.53-.78-1.12-.33-1.73,.57-.76,1.29-.32,1.93-.04,.89,.39,1.65,.97,2.13,1.84,1.66,3.01,2.85,6.12,2.87,9.68,.01,3.04-1.59,5.15-3.28,7.65Z"/>
      </g>
      <path class="cls-1" d="M52.73,52.5c-1.06,.7-11.06,7.04-21.4,2.71-4.22-1.77-6.9-4.65-8.35-6.54-.54-2.68-1.06-7.02,.26-11.87,2.21-8.15,7.71-10.9,13.15-20.17,1.8-3.07,4.22-7.92,5.87-14.68l3.32,12c2.41,4.5,4.67,8.06,6.38,10.6,3.84,5.68,5.41,6.93,6.38,10.6,.42,1.57,1.63,6.41-.77,11.49-1.44,3.07-3.6,4.94-4.85,5.87Z"/>
      <path class="cls-1" d="M79.96,90.89c-.81,.62-8.45,6.24-16.34,2.4-3.22-1.57-5.27-4.12-6.38-5.79-.44-2.39-.84-6.19,.19-10.52,1.76-7.32,6.1-9.74,8.57-17.21,.89-2.68,1.81-6.84,1.28-12.51l5.49,12.26c3.07,2.4,5.21,4.81,6.6,6.61,1.37,1.77,2.97,4.07,4.3,7.47,.22,.58,.41,1.19,.58,1.91,.32,1.39,1.24,5.68-.58,10.18-1.1,2.72-2.75,4.38-3.7,5.2Z"/>
      <path class="cls-1" d="M25.54,108.54c-.63,.5-2.03,1.58-3.96,2.43-1.43,.63-6.56,2.89-11.92,.61-3.65-1.55-5.6-4.44-6.38-5.79-1.07-3.04-2.18-7.68-.85-12.69,1.65-6.25,5.82-8.34,9.62-15.04,1.88-3.33,4.09-8.53,4.68-16.11,.6,2.43,1.19,4.85,1.79,7.28,4.61,8.72,7.28,13.14,8.94,15.45,.47,.65,1.71,2.33,2.55,4.85,.58,1.74,.78,3.31,.89,4.25,.12,.97,.3,2.55,.13,4.56-.15,1.86-.3,3.66-1.32,5.64-1.13,2.18-2.72,3.43-4.17,4.57Z"/>
    </g>
  </g>
</svg>