<?xml version="1.0" encoding="UTF-8"?>
<svg id="Ebene_2" data-name="Ebene 2" xmlns="http://www.w3.org/2000/svg" viewBox="0 0 1920 1290.5">
  <defs>
    <style>
      .cls-1 {
        fill: #fff;
      }

      .cls-2 {
        opacity: .2;
      }

      .cls-2, .cls-3 {
        fill: #fe6847;
      }

      .cls-4 {
        fill: none;
        stroke: #000;
        stroke-miterlimit: 10;
        stroke-width: 2px;
      }

      .cls-3 {
        opacity: .8;
      }
    </style>
  </defs>
  <g id="Ebene_1-2" data-name="Ebene 1">
    <rect class="cls-1" width="1920" height="1290.5"/>
    <circle class="cls-2" cx="331.5" cy="756.62" r="150"/>
    <circle class="cls-2" cx="553.5" cy="1036.62" r="150"/>
    <circle class="cls-2" cx="1041.5" cy="415.62" r="150"/>
    <circle class="cls-2" cx="1128.5" cy="757.62" r="150"/>
    <circle class="cls-2" cx="906.5" cy="1038.62" r="150"/>
    <circle class="cls-2" cx="408.5" cy="424.62" r="150"/>
    <circle class="cls-2" cx="735.5" cy="267.62" r="150"/>
    <circle class="cls-3" cx="730" cy="670.12" r="182.5"/>
    <g>
      <path d="M652.84,667.44c-2.74,0-5.12-.65-7.14-1.96-2.02-1.3-3.6-3.17-4.72-5.6-1.12-2.43-1.68-5.35-1.68-8.76s.58-6.48,1.74-8.87c1.16-2.39,2.76-4.2,4.8-5.42s4.37-1.84,7-1.84c3.63,0,6.47,.88,8.51,2.64,2.04,1.76,3.35,4.05,3.92,6.86l-6.05,1.1c-.5-1.63-1.29-2.95-2.38-3.96-1.09-1.01-2.42-1.51-4.01-1.51-1.39,0-2.65,.4-3.77,1.21-1.12,.81-2.01,2.03-2.68,3.66-.66,1.63-1,3.67-1,6.12,0,2.3,.29,4.29,.88,5.95,.58,1.66,1.43,2.94,2.53,3.84s2.45,1.34,4.03,1.34c2.03,0,3.6-.54,4.72-1.62s1.67-2.46,1.67-4.14h6.05c0,2.32-.5,4.29-1.5,5.92s-2.43,2.87-4.28,3.73c-1.86,.86-4.07,1.3-6.65,1.3Z"/>
      <path d="M681.09,667.44c-2.13,0-4.05-.46-5.77-1.37-1.72-.91-3.08-2.28-4.09-4.09-1.01-1.82-1.51-4.09-1.51-6.83s.5-5.09,1.51-6.91c1.01-1.82,2.37-3.18,4.09-4.08,1.72-.9,3.64-1.34,5.77-1.34s4,.45,5.7,1.34,3.06,2.26,4.07,4.08c1.01,1.82,1.51,4.13,1.51,6.91s-.5,5.01-1.51,6.83c-1.01,1.82-2.36,3.18-4.07,4.09-1.7,.91-3.6,1.37-5.7,1.37Zm-.19-4.94c1.12,0,2.12-.28,2.99-.83,.87-.55,1.56-1.37,2.06-2.46,.5-1.09,.76-2.44,.76-4.06,0-2.46-.48-4.32-1.45-5.57s-2.29-1.87-3.97-1.87c-1.14,0-2.14,.28-3.02,.83-.88,.55-1.57,1.38-2.08,2.48s-.76,2.48-.76,4.13c0,2.43,.49,4.26,1.48,5.5,.98,1.23,2.32,1.85,4,1.85Z"/>
      <path d="M699.09,666.76v-23.28h4.94l.72,4.61v18.67h-5.66Zm15.98,0v-13.63c0-1.73-.42-3.03-1.25-3.91s-1.92-1.32-3.26-1.32c-1.14,0-2.14,.31-3.01,.94-.87,.62-1.56,1.56-2.05,2.82-.5,1.26-.74,2.82-.74,4.69h-1.87c0-3.02,.38-5.54,1.13-7.55s1.82-3.51,3.19-4.5,2.99-1.49,4.85-1.49,3.52,.43,4.81,1.28c1.29,.86,2.26,2.06,2.9,3.61,.65,1.55,.97,3.36,.97,5.42v13.63h-5.66Z"/>
      <path d="M726.06,647.23v-3.74h15.26v3.74h-15.26Zm10.8,20.21c-1.38,0-2.64-.26-3.78-.77-1.14-.51-2.06-1.3-2.74-2.35-.68-1.06-1.02-2.4-1.02-4.03v-22.99h5.66v22.8c0,1.92,.91,2.88,2.74,2.88,.56,0,1.12-.06,1.68-.19,.56-.13,1.2-.32,1.92-.58l.82,3.98c-.9,.35-1.77,.65-2.62,.89-.85,.24-1.74,.36-2.66,.36Z"/>
      <path d="M756.61,667.44c-1.98,0-3.8-.51-5.45-1.54-1.65-1.02-2.97-2.46-3.96-4.31-.99-1.85-1.49-4.01-1.49-6.49s.49-4.76,1.48-6.6c.98-1.84,2.3-3.25,3.95-4.22,1.65-.98,3.47-1.46,5.47-1.46,1.86,0,3.46,.37,4.81,1.12,1.35,.74,2.44,1.75,3.26,3.02s1.38,2.71,1.67,4.31c.29,1.6,.3,3.25,.05,4.94h-16.18v-3.07h12.17l-1.1,.72c.05-.75,.01-1.51-.11-2.28s-.35-1.47-.68-2.11c-.34-.64-.81-1.16-1.43-1.55-.62-.39-1.4-.59-2.36-.59-1.15,0-2.13,.29-2.93,.86-.8,.58-1.41,1.36-1.82,2.35-.42,.99-.62,2.11-.62,3.36v2.26c0,1.31,.2,2.47,.59,3.48,.39,1.01,.98,1.8,1.75,2.38s1.76,.86,2.94,.86c1.1,0,2.03-.26,2.78-.77s1.23-1.28,1.44-2.3h5.71c-.24,1.5-.8,2.83-1.69,3.97-.89,1.14-2.04,2.04-3.44,2.69-1.41,.65-3.01,.97-4.8,.97Z"/>
      <path d="M773.37,666.76v-23.28h4.94l.72,4.61v18.67h-5.66Zm15.98,0v-13.63c0-1.73-.42-3.03-1.25-3.91s-1.92-1.32-3.26-1.32c-1.14,0-2.14,.31-3.01,.94-.87,.62-1.56,1.56-2.05,2.82-.5,1.26-.74,2.82-.74,4.69h-1.87c0-3.02,.38-5.54,1.13-7.55s1.82-3.51,3.19-4.5,2.99-1.49,4.85-1.49,3.52,.43,4.81,1.28c1.29,.86,2.26,2.06,2.9,3.61,.65,1.55,.97,3.36,.97,5.42v13.63h-5.66Z"/>
      <path d="M800.34,647.23v-3.74h15.26v3.74h-15.26Zm10.8,20.21c-1.38,0-2.64-.26-3.78-.77-1.14-.51-2.06-1.3-2.74-2.35-.68-1.06-1.02-2.4-1.02-4.03v-22.99h5.66v22.8c0,1.92,.91,2.88,2.74,2.88,.56,0,1.12-.06,1.68-.19,.56-.13,1.2-.32,1.92-.58l.82,3.98c-.9,.35-1.77,.65-2.62,.89-.85,.24-1.74,.36-2.66,.36Z"/>
      <path d="M681.48,724.36v-31.15h10.99c3.5,0,6.24,.86,8.2,2.59s2.94,4.18,2.94,7.34-.98,5.57-2.94,7.3-4.69,2.59-8.2,2.59h-5.28v11.33h-5.71Zm5.71-16.27h5.28c1.76,0,3.09-.46,3.98-1.39,.9-.93,1.34-2.11,1.34-3.55s-.45-2.68-1.34-3.62c-.9-.94-2.22-1.42-3.98-1.42h-5.28v9.98Z"/>
      <path d="M709.49,724.36v-32.93h5.66v32.93h-5.66Z"/>
      <path d="M731.3,725.04c-2,0-3.67-.35-5-1.04-1.34-.7-2.34-1.61-3.01-2.75-.67-1.14-1.01-2.37-1.01-3.7,0-1.47,.39-2.71,1.16-3.71s1.88-1.75,3.3-2.26c1.42-.5,3.1-.76,5.04-.76,1.26,0,2.46,.1,3.59,.29,1.13,.19,2.25,.45,3.37,.77v3.31c-.88-.29-1.84-.51-2.88-.67-1.04-.16-2.02-.24-2.93-.24-1.34,0-2.45,.25-3.31,.74-.86,.5-1.3,1.34-1.3,2.52,0,.86,.35,1.61,1.06,2.23s1.82,.94,3.36,.94c1.17,0,2.16-.26,2.98-.77,.82-.51,1.44-1.15,1.86-1.92,.42-.77,.64-1.54,.64-2.3h1.34c0,1.68-.31,3.23-.94,4.64s-1.55,2.55-2.77,3.4c-1.22,.85-2.74,1.27-4.55,1.27Zm7.63-.67l-.72-5.66v-9.36c0-1.63-.33-2.84-1-3.62-.66-.78-1.79-1.18-3.37-1.18-.91,0-1.7,.14-2.38,.41-.67,.27-1.19,.66-1.55,1.16-.36,.5-.54,1.12-.54,1.84h-6.19c0-1.76,.42-3.2,1.27-4.31,.85-1.11,2.07-1.93,3.66-2.45,1.59-.52,3.5-.78,5.72-.78,2.02,0,3.78,.32,5.28,.97,1.5,.65,2.67,1.64,3.5,2.99,.83,1.34,1.25,3.06,1.25,5.16v14.83h-4.94Z"/>
      <path d="M752.18,724.36v-23.28h4.94l.72,4.61v18.67h-5.66Zm15.98,0v-13.63c0-1.73-.42-3.03-1.25-3.91s-1.92-1.32-3.26-1.32c-1.14,0-2.14,.31-3.01,.94-.87,.62-1.56,1.56-2.05,2.82-.5,1.26-.74,2.82-.74,4.69h-1.87c0-3.02,.38-5.54,1.13-7.55s1.82-3.51,3.19-4.5,2.99-1.49,4.85-1.49,3.52,.43,4.81,1.28c1.29,.86,2.26,2.06,2.9,3.61,.65,1.55,.97,3.36,.97,5.42v13.63h-5.66Z"/>
    </g>
    <g>
      <path d="M307.71,376.78h3.17l5.87,20.12h-.83l6.01-17.78h1.91l5.94,17.64h-.79l6.73-19.98h3.13l-7.99,22.61h-2.95l-5.22-15.34h.54l-5.4,15.34h-2.95l-7.16-22.61Z"/>
      <path d="M344.61,378.11c-.58,0-1.03-.17-1.37-.5s-.5-.77-.5-1.31,.17-.95,.5-1.26,.79-.47,1.37-.47,1.03,.16,1.37,.47,.5,.73,.5,1.26-.17,.98-.5,1.31-.79,.5-1.37,.5Zm-1.4,21.28v-17.24h2.81v17.24h-2.81Z"/>
      <path d="M359.73,399.82c-1.49,0-2.82-.38-3.99-1.14-1.17-.76-2.09-1.82-2.77-3.18-.68-1.36-1.02-2.92-1.02-4.68,0-1.88,.34-3.5,1.01-4.86,.67-1.36,1.59-2.4,2.76-3.12,1.17-.73,2.5-1.09,4-1.09,1.31,0,2.42,.26,3.35,.79,.92,.53,1.67,1.24,2.23,2.14,.56,.9,.96,1.92,1.18,3.05,.22,1.13,.29,2.31,.19,3.52h-12.46v-1.73h10.6l-.83,.54c.04-.71,0-1.42-.12-2.12-.11-.71-.33-1.36-.64-1.95-.31-.59-.75-1.07-1.31-1.43-.56-.36-1.28-.54-2.16-.54-1.1,0-2.03,.28-2.77,.85s-1.3,1.3-1.67,2.22c-.37,.92-.56,1.91-.56,2.98v1.15c0,1.2,.18,2.27,.55,3.22,.37,.95,.91,1.7,1.65,2.25,.73,.55,1.66,.83,2.77,.83s2.03-.27,2.75-.81,1.16-1.34,1.31-2.39h2.92c-.18,1.14-.59,2.12-1.22,2.94-.64,.82-1.45,1.46-2.43,1.9-.98,.44-2.09,.67-3.33,.67Z"/>
      <path d="M377.8,382.18h2.92l4.39,14.36h-.36l4.28-13.54h2.34l4.25,13.57h-.32l4.39-14.4h2.81l-5.65,17.21h-2.74l-4.18-12.71h.43l-4.14,12.71h-2.74l-5.69-17.21Z"/>
      <path d="M408.45,378.11c-.58,0-1.03-.17-1.37-.5s-.5-.77-.5-1.31,.17-.95,.5-1.26,.79-.47,1.37-.47,1.03,.16,1.37,.47,.5,.73,.5,1.26-.17,.98-.5,1.31-.79,.5-1.37,.5Zm-1.4,21.28v-17.24h2.81v17.24h-2.81Z"/>
      <path d="M417.6,399.39v-17.24h2.81v17.24h-2.81Zm1.94-7.78c0-2.18,.21-4,.63-5.45,.42-1.45,1.04-2.53,1.84-3.24,.81-.71,1.8-1.07,2.96-1.07,.38,0,.74,.03,1.05,.08,.32,.05,.64,.14,.96,.24l-.18,2.77c-.34-.11-.7-.2-1.1-.28-.4-.08-.75-.12-1.06-.12-1.02,0-1.84,.29-2.47,.87s-1.08,1.4-1.36,2.46c-.28,1.06-.42,2.3-.42,3.73h-.86Z"/>
      <path d="M436.77,399.82c-1.39,0-2.67-.38-3.83-1.12-1.16-.75-2.09-1.81-2.79-3.17s-1.04-2.97-1.04-4.81,.34-3.43,1.03-4.77c.68-1.34,1.59-2.38,2.73-3.1s2.38-1.09,3.74-1.09c1.26,0,2.37,.31,3.32,.92,.95,.61,1.7,1.49,2.22,2.65,.53,1.15,.79,2.54,.79,4.18h-1.08c0-1.14-.23-2.1-.67-2.88-.45-.78-1.04-1.37-1.75-1.77-.72-.4-1.49-.6-2.32-.6-.94,0-1.79,.26-2.57,.78-.77,.52-1.39,1.27-1.85,2.23-.46,.97-.69,2.12-.69,3.47s.23,2.54,.69,3.53,1.08,1.74,1.85,2.27c.77,.53,1.63,.79,2.57,.79,.78,0,1.53-.2,2.26-.61,.73-.41,1.32-1,1.79-1.79,.47-.79,.7-1.74,.7-2.85h1.08c0,1.67-.27,3.08-.82,4.24-.55,1.16-1.28,2.04-2.21,2.64-.93,.6-1.97,.9-3.12,.9Zm5.54-.43l-.47-4.03v-20.52h2.81v24.55h-2.34Z"/>
      <path d="M466.47,399.82c-1.49,0-2.82-.38-3.99-1.14-1.17-.76-2.09-1.82-2.77-3.18-.68-1.36-1.02-2.92-1.02-4.68,0-1.88,.34-3.5,1.01-4.86,.67-1.36,1.59-2.4,2.76-3.12,1.17-.73,2.5-1.09,4-1.09,1.31,0,2.42,.26,3.35,.79,.92,.53,1.67,1.24,2.23,2.14,.56,.9,.96,1.92,1.18,3.05,.22,1.13,.29,2.31,.19,3.52h-12.46v-1.73h10.6l-.83,.54c.04-.71,0-1.42-.12-2.12-.11-.71-.33-1.36-.64-1.95-.31-.59-.75-1.07-1.31-1.43-.56-.36-1.28-.54-2.16-.54-1.1,0-2.03,.28-2.77,.85s-1.3,1.3-1.67,2.22c-.37,.92-.56,1.91-.56,2.98v1.15c0,1.2,.18,2.27,.55,3.22,.37,.95,.91,1.7,1.65,2.25,.73,.55,1.66,.83,2.77,.83s2.03-.27,2.75-.81,1.16-1.34,1.31-2.39h2.92c-.18,1.14-.59,2.12-1.22,2.94-.64,.82-1.45,1.46-2.43,1.9-.98,.44-2.09,.67-3.33,.67Z"/>
      <path d="M480.56,378.11c-.58,0-1.03-.17-1.37-.5s-.5-.77-.5-1.31,.17-.95,.5-1.26,.79-.47,1.37-.47,1.03,.16,1.37,.47,.5,.73,.5,1.26-.17,.98-.5,1.31-.79,.5-1.37,.5Zm-1.4,21.28v-17.24h2.81v17.24h-2.81Z"/>
      <path d="M489.7,399.39v-17.21h2.41l.4,3.96v13.25h-2.81Zm12.24,0v-10.12c0-1.64-.39-2.89-1.18-3.75-.79-.86-1.86-1.29-3.21-1.29-1.03,0-1.93,.28-2.68,.85-.76,.56-1.34,1.37-1.75,2.42-.41,1.05-.61,2.3-.61,3.75h-1.08c0-2,.26-3.71,.79-5.13,.53-1.42,1.3-2.5,2.31-3.25,1.01-.75,2.25-1.12,3.7-1.12,1.36,0,2.52,.3,3.48,.91,.97,.61,1.71,1.47,2.22,2.6,.52,1.13,.77,2.47,.77,4.01v10.12h-2.77Z"/>
      <path d="M313.56,443.02c-1.99,0-3.71-.5-5.15-1.5-1.44-1-2.55-2.39-3.33-4.18-.78-1.78-1.17-3.85-1.17-6.2,0-2.51,.42-4.62,1.27-6.34,.85-1.72,2-3.01,3.46-3.9,1.46-.88,3.1-1.32,4.92-1.32,2.41,0,4.35,.6,5.82,1.81s2.48,2.77,3.03,4.71l-3.02,.61c-.47-1.4-1.22-2.52-2.24-3.36-1.03-.83-2.22-1.25-3.59-1.25-1.19,0-2.28,.34-3.29,1.02-1,.68-1.81,1.69-2.42,3.03-.61,1.34-.92,3.01-.92,4.99,0,1.8,.24,3.4,.73,4.81,.49,1.4,1.22,2.51,2.2,3.31,.98,.8,2.21,1.21,3.7,1.21,1.79,0,3.21-.48,4.26-1.44,1.05-.96,1.58-2.22,1.58-3.78h3.06c0,1.62-.37,3.01-1.12,4.17-.74,1.16-1.79,2.05-3.12,2.67-1.34,.62-2.89,.94-4.65,.94Z"/>
      <path d="M334.01,443.02c-1.55,0-2.92-.34-4.13-1.03-1.21-.68-2.16-1.7-2.85-3.04-.7-1.34-1.04-3-1.04-4.97s.35-3.64,1.04-4.98c.7-1.34,1.65-2.35,2.85-3.03,1.21-.68,2.58-1.03,4.13-1.03s2.91,.34,4.11,1.03c1.21,.68,2.15,1.69,2.84,3.03,.69,1.34,1.04,3,1.04,4.98s-.35,3.62-1.04,4.97c-.69,1.34-1.64,2.36-2.84,3.04-1.21,.68-2.58,1.03-4.11,1.03Zm-.07-2.45c1.12,0,2.06-.27,2.84-.8,.78-.53,1.37-1.29,1.77-2.28,.4-.98,.6-2.15,.6-3.51,0-2.05-.43-3.67-1.28-4.85-.85-1.18-2.12-1.77-3.8-1.77-1.13,0-2.08,.27-2.85,.8-.77,.53-1.36,1.3-1.76,2.29-.4,.99-.6,2.17-.6,3.54,0,2.03,.43,3.63,1.29,4.81,.86,1.18,2.12,1.77,3.79,1.77Z"/>
      <path d="M347.45,442.59v-17.21h2.41l.4,3.96v13.25h-2.81Zm12.24,0v-10.12c0-1.64-.39-2.89-1.18-3.75-.79-.86-1.86-1.29-3.21-1.29-1.03,0-1.93,.28-2.68,.85-.76,.56-1.34,1.37-1.75,2.42-.41,1.05-.61,2.3-.61,3.75h-1.08c0-2,.26-3.71,.79-5.13,.53-1.42,1.3-2.5,2.31-3.25,1.01-.75,2.25-1.12,3.7-1.12,1.36,0,2.52,.3,3.48,.91,.97,.61,1.71,1.47,2.22,2.6,.52,1.13,.77,2.47,.77,4.01v10.12h-2.77Z"/>
      <path d="M366.77,427.32v-1.94h10.98v1.94h-10.98Zm7.7,15.7c-.94,0-1.78-.18-2.52-.54s-1.33-.9-1.76-1.62c-.43-.72-.65-1.62-.65-2.7v-17.57h2.77v17.5c0,1.78,.83,2.66,2.48,2.66,.49,0,.97-.05,1.43-.16s.98-.27,1.56-.49l.4,2.02c-.61,.26-1.22,.48-1.83,.65-.61,.17-1.23,.25-1.88,.25Z"/>
      <path d="M388.69,443.02c-1.49,0-2.82-.38-3.99-1.14-1.17-.76-2.09-1.82-2.77-3.18-.68-1.36-1.02-2.92-1.02-4.68,0-1.88,.34-3.5,1.01-4.86,.67-1.36,1.59-2.4,2.76-3.12,1.17-.73,2.5-1.09,4-1.09,1.31,0,2.42,.26,3.35,.79,.92,.53,1.67,1.24,2.23,2.14,.56,.9,.96,1.92,1.18,3.05,.22,1.13,.29,2.31,.19,3.52h-12.46v-1.73h10.6l-.83,.54c.04-.71,0-1.42-.12-2.12-.11-.71-.33-1.36-.64-1.95-.31-.59-.75-1.07-1.31-1.43-.56-.36-1.28-.54-2.16-.54-1.1,0-2.03,.28-2.77,.85s-1.3,1.3-1.67,2.22c-.37,.92-.56,1.91-.56,2.98v1.15c0,1.2,.18,2.27,.55,3.22,.37,.95,.91,1.7,1.65,2.25,.73,.55,1.66,.83,2.77,.83s2.03-.27,2.75-.81,1.16-1.34,1.31-2.39h2.92c-.18,1.14-.59,2.12-1.22,2.94-.64,.82-1.45,1.46-2.43,1.9-.98,.44-2.09,.67-3.33,.67Z"/>
      <path d="M401.2,442.59v-17.21h2.41l.4,3.96v13.25h-2.81Zm12.24,0v-10.12c0-1.64-.39-2.89-1.18-3.75-.79-.86-1.86-1.29-3.21-1.29-1.03,0-1.93,.28-2.68,.85-.76,.56-1.34,1.37-1.75,2.42-.41,1.05-.61,2.3-.61,3.75h-1.08c0-2,.26-3.71,.79-5.13,.53-1.42,1.3-2.5,2.31-3.25,1.01-.75,2.25-1.12,3.7-1.12,1.36,0,2.52,.3,3.48,.91,.97,.61,1.71,1.47,2.22,2.6,.52,1.13,.77,2.47,.77,4.01v10.12h-2.77Z"/>
      <path d="M420.51,427.32v-1.94h10.98v1.94h-10.98Zm7.7,15.7c-.94,0-1.78-.18-2.52-.54s-1.33-.9-1.76-1.62c-.43-.72-.65-1.62-.65-2.7v-17.57h2.77v17.5c0,1.78,.83,2.66,2.48,2.66,.49,0,.97-.05,1.43-.16s.98-.27,1.56-.49l.4,2.02c-.61,.26-1.22,.48-1.83,.65-.61,.17-1.23,.25-1.88,.25Z"/>
      <path d="M444.94,442.59v-22.61h7.27c2.48,0,4.38,.63,5.7,1.88,1.31,1.25,1.97,2.96,1.97,5.1s-.66,3.81-1.97,5.05c-1.31,1.24-3.21,1.86-5.7,1.86h-4.43v8.71h-2.84Zm2.84-11.16h4.43c1.57,0,2.76-.4,3.57-1.21,.81-.8,1.21-1.89,1.21-3.26s-.41-2.5-1.21-3.33c-.81-.83-2-1.24-3.57-1.24h-4.43v9.04Z"/>
      <path d="M464.94,442.59v-24.55h2.81v24.55h-2.81Z"/>
      <path d="M479.81,443.02c-1.42,0-2.59-.25-3.51-.76-.92-.5-1.61-1.16-2.07-1.96-.46-.8-.68-1.65-.68-2.54,0-1.16,.29-2.11,.87-2.84s1.38-1.27,2.38-1.61c1.01-.34,2.14-.51,3.4-.51,.9,0,1.8,.09,2.71,.27,.91,.18,1.79,.43,2.65,.74v1.76c-.72-.29-1.53-.52-2.44-.68-.91-.17-1.74-.25-2.49-.25-1.15,0-2.12,.24-2.92,.71-.79,.47-1.19,1.28-1.19,2.42,0,.84,.3,1.56,.91,2.16,.61,.6,1.58,.9,2.91,.9,.94,0,1.78-.22,2.53-.66s1.34-.99,1.78-1.65c.44-.66,.66-1.32,.66-1.98h.68c0,1.15-.25,2.22-.75,3.2-.5,.98-1.21,1.78-2.13,2.38-.92,.6-2.03,.9-3.31,.9Zm5.87-.43l-.36-3.78v-7.38c0-1.55-.33-2.66-.99-3.34-.66-.68-1.65-1.02-2.97-1.02-.74,0-1.42,.11-2.02,.32-.61,.22-1.09,.55-1.44,1-.35,.45-.53,1.03-.53,1.74h-3.13c0-1.25,.31-2.25,.92-3.02,.61-.76,1.46-1.31,2.53-1.66,1.07-.34,2.3-.51,3.68-.51s2.49,.22,3.51,.67c1.02,.44,1.82,1.15,2.39,2.12s.86,2.22,.86,3.77v11.09h-2.45Z"/>
      <path d="M494.83,442.59v-17.21h2.41l.4,3.96v13.25h-2.81Zm12.24,0v-10.12c0-1.64-.39-2.89-1.18-3.75-.79-.86-1.86-1.29-3.21-1.29-1.03,0-1.93,.28-2.68,.85-.76,.56-1.34,1.37-1.75,2.42-.41,1.05-.61,2.3-.61,3.75h-1.08c0-2,.26-3.71,.79-5.13,.53-1.42,1.3-2.5,2.31-3.25,1.01-.75,2.25-1.12,3.7-1.12,1.36,0,2.52,.3,3.48,.91,.97,.61,1.71,1.47,2.22,2.6,.52,1.13,.77,2.47,.77,4.01v10.12h-2.77Z"/>
      <path d="M350.07,486.22c-1.49,0-2.82-.38-3.99-1.14-1.17-.76-2.09-1.82-2.77-3.18-.68-1.36-1.02-2.92-1.02-4.68,0-1.88,.34-3.5,1.01-4.86,.67-1.36,1.59-2.4,2.76-3.12,1.17-.73,2.5-1.09,4-1.09,1.31,0,2.42,.26,3.35,.79,.92,.53,1.67,1.24,2.23,2.14,.56,.9,.96,1.92,1.18,3.05,.22,1.13,.29,2.31,.19,3.52h-12.46v-1.73h10.6l-.83,.54c.04-.71,0-1.42-.12-2.12-.11-.71-.33-1.36-.64-1.95-.31-.59-.75-1.07-1.31-1.43-.56-.36-1.28-.54-2.16-.54-1.1,0-2.03,.28-2.77,.85s-1.3,1.3-1.67,2.22c-.37,.92-.56,1.91-.56,2.98v1.15c0,1.2,.18,2.27,.55,3.22,.37,.95,.91,1.7,1.65,2.25,.73,.55,1.66,.83,2.77,.83s2.03-.27,2.75-.81,1.16-1.34,1.31-2.39h2.92c-.18,1.14-.59,2.12-1.22,2.94-.64,.82-1.45,1.46-2.43,1.9-.98,.44-2.09,.67-3.33,.67Z"/>
      <path d="M362.58,485.79v-17.24h2.81v17.24h-2.81Zm1.94-7.78c0-2.18,.21-4,.63-5.45,.42-1.45,1.04-2.53,1.84-3.24,.81-.71,1.8-1.07,2.96-1.07,.38,0,.74,.03,1.05,.08,.32,.05,.64,.14,.96,.24l-.18,2.77c-.34-.11-.7-.2-1.1-.28-.4-.08-.75-.12-1.06-.12-1.02,0-1.84,.29-2.47,.87s-1.08,1.4-1.36,2.46c-.28,1.06-.42,2.3-.42,3.73h-.86Z"/>
      <path d="M381.79,486.22c-1.67,0-3.06-.24-4.18-.71-1.12-.47-1.96-1.13-2.54-1.96-.58-.83-.88-1.79-.92-2.87h2.7c.06,1.09,.5,1.91,1.32,2.46s1.94,.82,3.36,.82c.74,0,1.43-.12,2.05-.36,.62-.24,1.12-.57,1.49-.99,.37-.42,.56-.89,.56-1.42,0-.67-.25-1.2-.74-1.58-.49-.38-1.28-.72-2.36-1.01l-3.35-1.08c-1.45-.46-2.57-1.08-3.34-1.88-.77-.8-1.16-1.75-1.16-2.87,0-1.39,.61-2.51,1.84-3.35,1.22-.84,2.83-1.26,4.82-1.26,2.11,0,3.75,.43,4.91,1.3,1.16,.86,1.77,1.94,1.82,3.24h-2.77c-.11-.76-.49-1.33-1.15-1.72-.66-.39-1.6-.58-2.81-.58s-2.07,.26-2.73,.78-.98,1.1-.98,1.74c0,1.19,1.02,2.06,3.06,2.63l3.42,1.15c1.48,.44,2.61,1.03,3.39,1.75,.79,.72,1.18,1.64,1.18,2.75,0,.86-.28,1.68-.85,2.45-.56,.77-1.36,1.39-2.39,1.87-1.03,.48-2.26,.72-3.67,.72Z"/>
      <path d="M392.1,470.52v-1.94h10.98v1.94h-10.98Zm7.7,15.7c-.94,0-1.78-.18-2.52-.54s-1.33-.9-1.76-1.62c-.43-.72-.65-1.62-.65-2.7v-17.57h2.77v17.5c0,1.78,.83,2.66,2.48,2.66,.49,0,.97-.05,1.43-.16s.98-.27,1.56-.49l.4,2.02c-.61,.26-1.22,.48-1.83,.65-.61,.17-1.23,.25-1.88,.25Z"/>
      <path d="M414.03,486.22c-1.49,0-2.82-.38-3.99-1.14-1.17-.76-2.09-1.82-2.77-3.18-.68-1.36-1.02-2.92-1.02-4.68,0-1.88,.34-3.5,1.01-4.86,.67-1.36,1.59-2.4,2.76-3.12,1.17-.73,2.5-1.09,4-1.09,1.31,0,2.42,.26,3.35,.79,.92,.53,1.67,1.24,2.23,2.14,.56,.9,.96,1.92,1.18,3.05,.22,1.13,.29,2.31,.19,3.52h-12.46v-1.73h10.6l-.83,.54c.04-.71,0-1.42-.12-2.12-.11-.71-.33-1.36-.64-1.95-.31-.59-.75-1.07-1.31-1.43-.56-.36-1.28-.54-2.16-.54-1.1,0-2.03,.28-2.77,.85s-1.3,1.3-1.67,2.22c-.37,.92-.56,1.91-.56,2.98v1.15c0,1.2,.18,2.27,.55,3.22,.37,.95,.91,1.7,1.65,2.25,.73,.55,1.66,.83,2.77,.83s2.03-.27,2.75-.81,1.16-1.34,1.31-2.39h2.92c-.18,1.14-.59,2.12-1.22,2.94-.64,.82-1.45,1.46-2.43,1.9-.98,.44-2.09,.67-3.33,.67Z"/>
      <path d="M426.53,485.79v-24.55h2.81v24.55h-2.81Z"/>
      <path d="M436.61,485.79v-24.55h2.81v24.55h-2.81Z"/>
      <path d="M444.28,470.52v-1.94h10.98v1.94h-10.98Zm7.7,15.7c-.94,0-1.78-.18-2.52-.54s-1.33-.9-1.76-1.62c-.43-.72-.65-1.62-.65-2.7v-17.57h2.77v17.5c0,1.78,.83,2.66,2.48,2.66,.49,0,.97-.05,1.43-.16s.98-.27,1.56-.49l.4,2.02c-.61,.26-1.22,.48-1.83,.65-.61,.17-1.23,.25-1.88,.25Z"/>
      <path d="M462.97,480.03v-1.62c0-1.04,.11-1.9,.33-2.57,.22-.67,.59-1.25,1.11-1.75,.52-.49,1.22-.98,2.12-1.48,.8-.43,1.45-.83,1.93-1.21,.48-.37,.82-.77,1.04-1.21,.21-.43,.31-.96,.31-1.58,0-.94-.38-1.72-1.14-2.34-.76-.62-1.81-.94-3.14-.94-1.48,0-2.6,.29-3.38,.87-.78,.58-1.27,1.4-1.48,2.44h-2.99c.17-1.75,.9-3.17,2.21-4.25,1.3-1.08,3.16-1.62,5.57-1.62,1.54,0,2.86,.27,3.97,.8,1.11,.53,1.96,1.25,2.56,2.14,.59,.89,.89,1.88,.89,2.96,0,1.24-.31,2.27-.94,3.1-.62,.83-1.63,1.62-3.02,2.37-.8,.44-1.44,.85-1.9,1.23s-.79,.81-.98,1.3c-.19,.49-.29,1.12-.29,1.9v1.44h-2.77Zm1.44,6.19c-.6,0-1.1-.2-1.49-.58-.4-.39-.59-.86-.59-1.41s.2-1.05,.58-1.46c.39-.41,.88-.61,1.49-.61s1.11,.2,1.54,.6c.43,.4,.64,.89,.64,1.45s-.21,1.03-.63,1.42-.93,.59-1.53,.59Z"/>
    </g>
    <g>
      <path d="M240.95,731.82c-1.99,0-3.71-.5-5.15-1.5s-2.55-2.39-3.33-4.18c-.78-1.78-1.17-3.85-1.17-6.2,0-2.51,.42-4.62,1.27-6.34,.85-1.72,2-3.01,3.46-3.9,1.46-.88,3.1-1.32,4.92-1.32,2.41,0,4.35,.6,5.82,1.81,1.47,1.21,2.48,2.77,3.03,4.71l-3.02,.61c-.47-1.4-1.21-2.52-2.24-3.36-1.03-.83-2.22-1.25-3.59-1.25-1.19,0-2.28,.34-3.28,1.02-1,.68-1.81,1.69-2.42,3.03-.61,1.34-.92,3.01-.92,4.99,0,1.8,.24,3.4,.73,4.81,.49,1.4,1.22,2.51,2.2,3.31,.98,.8,2.21,1.21,3.7,1.21,1.79,0,3.21-.48,4.26-1.44,1.05-.96,1.57-2.22,1.57-3.78h3.06c0,1.62-.37,3.01-1.12,4.17-.74,1.16-1.78,2.05-3.12,2.67-1.34,.62-2.89,.94-4.65,.94Z"/>
      <path d="M261.4,731.82c-1.55,0-2.93-.34-4.13-1.03-1.21-.68-2.16-1.7-2.85-3.04-.7-1.34-1.04-3-1.04-4.97s.35-3.64,1.04-4.98c.7-1.34,1.65-2.35,2.85-3.03,1.21-.68,2.58-1.03,4.13-1.03s2.91,.34,4.11,1.03c1.21,.68,2.15,1.69,2.85,3.03,.69,1.34,1.04,3,1.04,4.98s-.35,3.62-1.04,4.97c-.69,1.34-1.64,2.36-2.85,3.04-1.21,.68-2.58,1.03-4.11,1.03Zm-.07-2.45c1.12,0,2.06-.27,2.84-.8,.78-.53,1.37-1.29,1.77-2.28,.4-.98,.6-2.15,.6-3.51,0-2.05-.43-3.67-1.28-4.85-.85-1.18-2.12-1.77-3.8-1.77-1.13,0-2.08,.27-2.85,.8-.78,.53-1.36,1.3-1.76,2.29-.4,.99-.6,2.17-.6,3.54,0,2.03,.43,3.63,1.29,4.81,.86,1.18,2.12,1.77,3.79,1.77Z"/>
      <path d="M274.85,731.39v-17.21h2.41l.4,3.96v13.25h-2.81Zm12.24,0v-10.12c0-1.64-.39-2.89-1.18-3.75-.79-.86-1.86-1.29-3.21-1.29-1.03,0-1.93,.28-2.68,.85-.76,.56-1.34,1.37-1.75,2.42-.41,1.05-.61,2.3-.61,3.75h-1.08c0-2,.26-3.71,.79-5.13,.53-1.42,1.3-2.5,2.31-3.25,1.01-.75,2.25-1.12,3.7-1.12,1.36,0,2.52,.3,3.48,.91,.97,.61,1.71,1.47,2.22,2.6,.52,1.13,.77,2.47,.77,4.01v10.12h-2.77Z"/>
      <path d="M294.16,716.12v-1.94h10.98v1.94h-10.98Zm7.7,15.7c-.94,0-1.78-.18-2.52-.54s-1.33-.9-1.76-1.62c-.43-.72-.65-1.62-.65-2.7v-17.57h2.77v17.5c0,1.78,.83,2.66,2.48,2.66,.49,0,.97-.05,1.43-.16s.98-.27,1.56-.49l.4,2.02c-.61,.26-1.22,.48-1.83,.65-.61,.17-1.23,.25-1.88,.25Z"/>
      <path d="M316.08,731.82c-1.49,0-2.82-.38-3.99-1.14-1.17-.76-2.09-1.82-2.77-3.18-.68-1.36-1.02-2.92-1.02-4.68,0-1.88,.34-3.5,1.01-4.86,.67-1.36,1.59-2.4,2.76-3.12,1.17-.73,2.5-1.09,4-1.09,1.31,0,2.42,.26,3.35,.79,.92,.53,1.67,1.24,2.23,2.14,.56,.9,.96,1.92,1.18,3.05,.22,1.13,.29,2.31,.19,3.52h-12.46v-1.73h10.6l-.83,.54c.04-.71,0-1.42-.12-2.12-.11-.71-.33-1.36-.64-1.95-.31-.59-.75-1.07-1.31-1.43-.56-.36-1.28-.54-2.16-.54-1.1,0-2.03,.28-2.77,.85s-1.3,1.3-1.67,2.22c-.37,.92-.56,1.91-.56,2.98v1.15c0,1.2,.18,2.27,.55,3.22,.37,.95,.91,1.7,1.65,2.25,.73,.55,1.66,.83,2.77,.83s2.03-.27,2.75-.81,1.16-1.34,1.31-2.39h2.92c-.18,1.14-.59,2.12-1.22,2.94-.64,.82-1.45,1.46-2.43,1.9-.98,.44-2.09,.67-3.33,.67Z"/>
      <path d="M328.59,731.39v-17.21h2.41l.4,3.96v13.25h-2.81Zm12.24,0v-10.12c0-1.64-.39-2.89-1.18-3.75-.79-.86-1.86-1.29-3.21-1.29-1.03,0-1.93,.28-2.68,.85-.76,.56-1.34,1.37-1.75,2.42-.41,1.05-.61,2.3-.61,3.75h-1.08c0-2,.26-3.71,.79-5.13,.53-1.42,1.3-2.5,2.31-3.25,1.01-.75,2.25-1.12,3.7-1.12,1.36,0,2.52,.3,3.48,.91,.97,.61,1.71,1.47,2.22,2.6,.52,1.13,.77,2.47,.77,4.01v10.12h-2.77Z"/>
      <path d="M347.91,716.12v-1.94h10.98v1.94h-10.98Zm7.7,15.7c-.94,0-1.78-.18-2.52-.54s-1.33-.9-1.76-1.62c-.43-.72-.65-1.62-.65-2.7v-17.57h2.77v17.5c0,1.78,.83,2.66,2.48,2.66,.49,0,.97-.05,1.43-.16s.98-.27,1.56-.49l.4,2.02c-.61,.26-1.22,.48-1.83,.65-.61,.17-1.23,.25-1.88,.25Z"/>
      <path d="M372.33,731.39v-22.61h7.27c2.48,0,4.38,.63,5.7,1.88,1.31,1.25,1.97,2.96,1.97,5.1s-.66,3.81-1.97,5.05c-1.31,1.24-3.21,1.86-5.7,1.86h-4.43v8.71h-2.84Zm2.84-11.16h4.43c1.57,0,2.76-.4,3.57-1.21,.81-.8,1.21-1.89,1.21-3.26s-.41-2.5-1.21-3.33c-.81-.83-2-1.24-3.57-1.24h-4.43v9.04Z"/>
      <path d="M392.33,731.39v-24.55h2.81v24.55h-2.81Z"/>
      <path d="M407.2,731.82c-1.42,0-2.59-.25-3.51-.76-.92-.5-1.61-1.16-2.07-1.96-.46-.8-.68-1.65-.68-2.54,0-1.16,.29-2.11,.87-2.84s1.38-1.27,2.38-1.61c1.01-.34,2.14-.51,3.4-.51,.9,0,1.8,.09,2.71,.27,.91,.18,1.79,.43,2.65,.74v1.76c-.72-.29-1.53-.52-2.44-.68-.91-.17-1.74-.25-2.49-.25-1.15,0-2.12,.24-2.92,.71-.79,.47-1.19,1.28-1.19,2.42,0,.84,.3,1.56,.91,2.16,.61,.6,1.58,.9,2.91,.9,.94,0,1.78-.22,2.53-.66s1.34-.99,1.78-1.65c.44-.66,.66-1.32,.66-1.98h.68c0,1.15-.25,2.22-.75,3.2-.5,.98-1.21,1.78-2.13,2.38-.92,.6-2.03,.9-3.31,.9Zm5.87-.43l-.36-3.78v-7.38c0-1.55-.33-2.66-.99-3.34-.66-.68-1.65-1.02-2.97-1.02-.74,0-1.42,.11-2.02,.32-.61,.22-1.09,.55-1.44,1-.35,.45-.53,1.03-.53,1.74h-3.13c0-1.25,.31-2.25,.92-3.02,.61-.76,1.46-1.31,2.53-1.66,1.07-.34,2.3-.51,3.68-.51s2.49,.22,3.51,.67c1.02,.44,1.82,1.15,2.39,2.12s.86,2.22,.86,3.77v11.09h-2.45Z"/>
      <path d="M422.23,731.39v-17.21h2.41l.4,3.96v13.25h-2.81Zm12.24,0v-10.12c0-1.64-.39-2.89-1.18-3.75-.79-.86-1.86-1.29-3.21-1.29-1.03,0-1.93,.28-2.68,.85-.76,.56-1.34,1.37-1.75,2.42-.41,1.05-.61,2.3-.61,3.75h-1.08c0-2,.26-3.71,.79-5.13,.53-1.42,1.3-2.5,2.31-3.25,1.01-.75,2.25-1.12,3.7-1.12,1.36,0,2.52,.3,3.48,.91,.97,.61,1.71,1.47,2.22,2.6,.52,1.13,.77,2.47,.77,4.01v10.12h-2.77Z"/>
      <path d="M258.49,759.32v-1.94h9.18v1.94h-9.18Zm2.81,15.26v-19.87c0-1.14,.22-2.07,.66-2.8,.44-.73,1.03-1.26,1.76-1.61,.74-.35,1.56-.52,2.47-.52,.49,0,.99,.04,1.5,.11,.51,.07,1.02,.18,1.52,.32l-.54,2.23c-.36-.14-.72-.25-1.07-.32-.35-.07-.69-.11-1.02-.11-.38,0-.77,.07-1.15,.22s-.7,.41-.95,.81-.38,.97-.38,1.71v19.84h-2.81Z"/>
      <path d="M272.19,757.34h2.81v10.73c0,1.44,.35,2.53,1.05,3.28,.7,.74,1.71,1.12,3.01,1.12,1.08,0,2.02-.29,2.82-.86,.8-.58,1.42-1.37,1.85-2.39,.44-1.01,.66-2.17,.66-3.48h1.04c0,1.93-.28,3.58-.84,4.95-.56,1.37-1.34,2.42-2.36,3.14-1.01,.73-2.2,1.09-3.57,1.09-1.3,0-2.43-.24-3.4-.72s-1.73-1.21-2.27-2.19-.81-2.22-.81-3.72v-10.94Zm5.08-3.26c-.54,0-.99-.17-1.34-.51-.35-.34-.53-.75-.53-1.23,0-.53,.18-.97,.53-1.31,.35-.35,.8-.52,1.34-.52s.99,.17,1.36,.52c.37,.35,.55,.79,.55,1.31,0,.48-.18,.89-.55,1.23-.37,.34-.82,.51-1.36,.51Zm6.01,0c-.52,0-.96-.17-1.32-.51-.37-.34-.55-.76-.55-1.27s.18-.94,.55-1.3c.37-.36,.81-.54,1.32-.54s.99,.18,1.36,.54,.55,.79,.55,1.3-.18,.93-.55,1.27c-.37,.34-.82,.51-1.36,.51Zm1.12,3.26h2.81v17.24h-2.81v-17.24Z"/>
      <path d="M294.49,774.59v-17.24h2.81v17.24h-2.81Zm1.94-7.78c0-2.18,.21-4,.63-5.45,.42-1.45,1.04-2.53,1.84-3.24,.81-.71,1.8-1.07,2.96-1.07,.38,0,.74,.03,1.05,.08,.32,.05,.64,.14,.96,.24l-.18,2.77c-.34-.11-.7-.2-1.1-.28-.4-.08-.75-.12-1.06-.12-1.02,0-1.84,.29-2.47,.87s-1.08,1.4-1.36,2.46c-.28,1.06-.42,2.3-.42,3.73h-.86Z"/>
      <path d="M323.29,775.02c-1.51,0-2.9-.27-4.16-.82s-2.27-1.35-3.04-2.42c-.77-1.07-1.16-2.39-1.19-3.96h2.74c0,1.06,.26,1.92,.77,2.6,.52,.68,1.2,1.18,2.05,1.51,.85,.33,1.78,.49,2.79,.49,1.09,0,2.04-.17,2.84-.52,.8-.35,1.42-.81,1.86-1.38,.44-.57,.66-1.2,.66-1.88,0-.96-.29-1.74-.88-2.33-.59-.59-1.46-1.08-2.61-1.45l-4-1.4c-1.87-.67-3.29-1.44-4.25-2.3-.96-.86-1.44-2.08-1.44-3.64,0-1.75,.67-3.18,2.02-4.28,1.35-1.1,3.27-1.66,5.75-1.66,2.3,0,4.1,.53,5.4,1.59s2.04,2.49,2.23,4.27h-2.77c-.18-1.04-.67-1.86-1.47-2.44-.8-.58-1.93-.87-3.39-.87s-2.65,.33-3.47,.99c-.83,.66-1.24,1.49-1.24,2.5,0,.83,.26,1.48,.78,1.97,.52,.49,1.34,.92,2.46,1.3l4.68,1.62c1.62,.54,2.9,1.3,3.84,2.27,.94,.97,1.41,2.23,1.41,3.78,0,1.2-.32,2.29-.96,3.26-.64,.97-1.59,1.75-2.83,2.32-1.25,.58-2.78,.86-4.59,.86Z"/>
      <path d="M344.05,775.02c-1.55,0-2.92-.34-4.13-1.03-1.21-.68-2.16-1.7-2.85-3.04-.7-1.34-1.04-3-1.04-4.97s.35-3.64,1.04-4.98c.7-1.34,1.65-2.35,2.85-3.03,1.21-.68,2.58-1.03,4.13-1.03s2.91,.34,4.11,1.03c1.21,.68,2.15,1.69,2.84,3.03,.69,1.34,1.04,3,1.04,4.98s-.35,3.62-1.04,4.97c-.69,1.34-1.64,2.36-2.84,3.04-1.21,.68-2.58,1.03-4.11,1.03Zm-.07-2.45c1.12,0,2.06-.27,2.84-.8,.78-.53,1.37-1.29,1.77-2.28,.4-.98,.6-2.15,.6-3.51,0-2.05-.43-3.67-1.28-4.85-.85-1.18-2.12-1.77-3.8-1.77-1.13,0-2.08,.27-2.85,.8-.77,.53-1.36,1.3-1.76,2.29-.4,.99-.6,2.17-.6,3.54,0,2.03,.43,3.63,1.29,4.81,.86,1.18,2.12,1.77,3.79,1.77Z"/>
      <path d="M363.54,775.02c-1.38,0-2.67-.37-3.86-1.12-1.19-.74-2.16-1.79-2.89-3.15-.73-1.36-1.1-2.96-1.1-4.81s.37-3.52,1.1-4.86c.73-1.34,1.7-2.37,2.89-3.08,1.19-.71,2.48-1.06,3.86-1.06,.97,0,1.85,.15,2.62,.44,.77,.29,1.45,.7,2.03,1.22s1.05,1.1,1.43,1.75c.38,.65,.66,1.34,.84,2.06l-2.88,.25c-.3-1-.8-1.78-1.5-2.37-.7-.58-1.56-.87-2.56-.87-.85,0-1.65,.24-2.4,.73-.75,.49-1.36,1.21-1.83,2.18-.47,.97-.7,2.17-.7,3.61,0,1.33,.21,2.49,.64,3.47,.43,.98,1.01,1.74,1.75,2.28,.74,.54,1.59,.81,2.54,.81,1.33,0,2.34-.33,3.03-.98,.69-.65,1.04-1.56,1.04-2.73h2.88c0,1.2-.28,2.27-.85,3.2-.56,.94-1.37,1.67-2.4,2.21s-2.26,.81-3.66,.81Z"/>
      <path d="M377.65,753.31c-.58,0-1.03-.17-1.37-.5s-.5-.77-.5-1.31,.17-.95,.5-1.26,.79-.47,1.37-.47,1.03,.16,1.37,.47,.5,.73,.5,1.26-.17,.98-.5,1.31-.79,.5-1.37,.5Zm-1.4,21.28v-17.24h2.81v17.24h-2.81Z"/>
      <path d="M391.58,775.02c-1.42,0-2.59-.25-3.51-.76-.92-.5-1.61-1.16-2.07-1.96-.46-.8-.68-1.65-.68-2.54,0-1.16,.29-2.11,.87-2.84s1.38-1.27,2.38-1.61c1.01-.34,2.14-.51,3.4-.51,.9,0,1.8,.09,2.71,.27,.91,.18,1.79,.43,2.65,.74v1.76c-.72-.29-1.53-.52-2.44-.68-.91-.17-1.74-.25-2.49-.25-1.15,0-2.12,.24-2.92,.71-.79,.47-1.19,1.28-1.19,2.42,0,.84,.3,1.56,.91,2.16,.61,.6,1.58,.9,2.91,.9,.94,0,1.78-.22,2.53-.66s1.34-.99,1.78-1.65c.44-.66,.66-1.32,.66-1.98h.68c0,1.15-.25,2.22-.75,3.2-.5,.98-1.21,1.78-2.13,2.38-.92,.6-2.03,.9-3.31,.9Zm5.87-.43l-.36-3.78v-7.38c0-1.55-.33-2.66-.99-3.34-.66-.68-1.65-1.02-2.97-1.02-.74,0-1.42,.11-2.02,.32-.61,.22-1.09,.55-1.44,1-.35,.45-.53,1.03-.53,1.74h-3.13c0-1.25,.31-2.25,.92-3.02,.61-.76,1.46-1.31,2.53-1.66,1.07-.34,2.3-.51,3.68-.51s2.49,.22,3.51,.67c1.02,.44,1.82,1.15,2.39,2.12s.86,2.22,.86,3.77v11.09h-2.45Z"/>
      <path d="M406.61,774.59v-24.55h2.81v24.55h-2.81Z"/>
      <path d="M288.1,795.18h4.03l7.78,15.62h-.29l7.78-15.62h3.92v22.61h-2.84v-19.69h.5l-8.28,16.85h-1.87l-8.24-16.74h.32v19.58h-2.81v-22.61Z"/>
      <path d="M324.57,818.22c-1.49,0-2.82-.38-3.99-1.14-1.17-.76-2.09-1.82-2.77-3.18-.68-1.36-1.02-2.92-1.02-4.68,0-1.88,.34-3.5,1.01-4.86,.67-1.36,1.59-2.4,2.76-3.12,1.17-.73,2.5-1.09,4-1.09,1.31,0,2.42,.26,3.35,.79,.92,.53,1.67,1.24,2.23,2.14,.56,.9,.96,1.92,1.18,3.05,.22,1.13,.29,2.31,.19,3.52h-12.46v-1.73h10.6l-.83,.54c.04-.71,0-1.42-.12-2.12-.11-.71-.33-1.36-.64-1.95-.31-.59-.75-1.07-1.31-1.43-.56-.36-1.28-.54-2.16-.54-1.1,0-2.03,.28-2.77,.85s-1.3,1.3-1.67,2.22c-.37,.92-.56,1.91-.56,2.98v1.15c0,1.2,.18,2.27,.55,3.22,.37,.95,.91,1.7,1.65,2.25,.73,.55,1.66,.83,2.77,.83s2.03-.27,2.75-.81,1.16-1.34,1.31-2.39h2.92c-.18,1.14-.59,2.12-1.22,2.94-.64,.82-1.45,1.46-2.43,1.9-.98,.44-2.09,.67-3.33,.67Z"/>
      <path d="M343.24,818.22c-1.39,0-2.67-.38-3.83-1.12-1.16-.75-2.09-1.81-2.79-3.17s-1.04-2.97-1.04-4.81,.34-3.43,1.03-4.77c.68-1.34,1.59-2.38,2.73-3.1s2.38-1.09,3.74-1.09c1.26,0,2.37,.31,3.32,.92,.95,.61,1.7,1.49,2.22,2.65,.53,1.15,.79,2.54,.79,4.18h-1.08c0-1.14-.23-2.1-.67-2.88-.45-.78-1.04-1.37-1.75-1.77-.72-.4-1.49-.6-2.32-.6-.94,0-1.79,.26-2.57,.78-.77,.52-1.39,1.27-1.85,2.23-.46,.97-.69,2.12-.69,3.47s.23,2.54,.69,3.53,1.08,1.74,1.85,2.27c.77,.53,1.63,.79,2.57,.79,.78,0,1.53-.2,2.26-.61,.73-.41,1.32-1,1.79-1.79,.47-.79,.7-1.74,.7-2.85h1.08c0,1.67-.27,3.08-.82,4.24-.55,1.16-1.28,2.04-2.21,2.64-.93,.6-1.97,.9-3.12,.9Zm5.54-.43l-.47-4.03v-20.52h2.81v24.55h-2.34Z"/>
      <path d="M359.99,796.51c-.58,0-1.03-.17-1.37-.5s-.5-.77-.5-1.31,.17-.95,.5-1.26,.79-.47,1.37-.47,1.03,.16,1.37,.47,.5,.73,.5,1.26-.17,.98-.5,1.31-.79,.5-1.37,.5Zm-1.4,21.28v-17.24h2.81v17.24h-2.81Z"/>
      <path d="M373.93,818.22c-1.42,0-2.59-.25-3.51-.76-.92-.5-1.61-1.16-2.07-1.96-.46-.8-.68-1.65-.68-2.54,0-1.16,.29-2.11,.87-2.84s1.38-1.27,2.38-1.61c1.01-.34,2.14-.51,3.4-.51,.9,0,1.8,.09,2.71,.27,.91,.18,1.79,.43,2.65,.74v1.76c-.72-.29-1.53-.52-2.44-.68-.91-.17-1.74-.25-2.49-.25-1.15,0-2.12,.24-2.92,.71-.79,.47-1.19,1.28-1.19,2.42,0,.84,.3,1.56,.91,2.16,.61,.6,1.58,.9,2.91,.9,.94,0,1.78-.22,2.53-.66s1.34-.99,1.78-1.65c.44-.66,.66-1.32,.66-1.98h.68c0,1.15-.25,2.22-.75,3.2-.5,.98-1.21,1.78-2.13,2.38-.92,.6-2.03,.9-3.31,.9Zm5.87-.43l-.36-3.78v-7.38c0-1.55-.33-2.66-.99-3.34-.66-.68-1.65-1.02-2.97-1.02-.74,0-1.42,.11-2.02,.32-.61,.22-1.09,.55-1.44,1-.35,.45-.53,1.03-.53,1.74h-3.13c0-1.25,.31-2.25,.92-3.02,.61-.76,1.46-1.31,2.53-1.66,1.07-.34,2.3-.51,3.68-.51s2.49,.22,3.51,.67c1.02,.44,1.82,1.15,2.39,2.12s.86,2.22,.86,3.77v11.09h-2.45Z"/>
    </g>
    <g>
      <path d="M458.45,1017.82c-1.99,0-3.71-.5-5.15-1.5s-2.55-2.39-3.33-4.18c-.78-1.78-1.17-3.85-1.17-6.2,0-2.51,.42-4.62,1.27-6.34,.85-1.72,2-3.01,3.46-3.9,1.46-.88,3.1-1.32,4.92-1.32,2.41,0,4.35,.6,5.82,1.81,1.47,1.21,2.48,2.77,3.03,4.71l-3.02,.61c-.47-1.4-1.21-2.52-2.24-3.36-1.03-.83-2.22-1.25-3.59-1.25-1.19,0-2.28,.34-3.28,1.02-1,.68-1.81,1.69-2.42,3.03-.61,1.34-.92,3.01-.92,4.99,0,1.8,.24,3.4,.73,4.81,.49,1.4,1.22,2.51,2.2,3.31,.98,.8,2.21,1.21,3.7,1.21,1.79,0,3.21-.48,4.26-1.44,1.05-.96,1.57-2.22,1.57-3.78h3.06c0,1.62-.37,3.01-1.12,4.17-.74,1.16-1.78,2.05-3.12,2.67-1.34,.62-2.89,.94-4.65,.94Z"/>
      <path d="M478.9,1017.82c-1.55,0-2.93-.34-4.13-1.03-1.21-.68-2.16-1.7-2.85-3.04-.7-1.34-1.04-3-1.04-4.97s.35-3.64,1.04-4.98c.7-1.34,1.65-2.35,2.85-3.03,1.21-.68,2.58-1.03,4.13-1.03s2.91,.34,4.11,1.03c1.21,.68,2.15,1.69,2.85,3.03,.69,1.34,1.04,3,1.04,4.98s-.35,3.62-1.04,4.97c-.69,1.34-1.64,2.36-2.85,3.04-1.21,.68-2.58,1.03-4.11,1.03Zm-.07-2.45c1.12,0,2.06-.27,2.84-.8,.78-.53,1.37-1.29,1.77-2.28,.4-.98,.6-2.15,.6-3.51,0-2.05-.43-3.67-1.28-4.85-.85-1.18-2.12-1.77-3.8-1.77-1.13,0-2.08,.27-2.85,.8-.78,.53-1.36,1.3-1.76,2.29-.4,.99-.6,2.17-.6,3.54,0,2.03,.43,3.63,1.29,4.81,.86,1.18,2.12,1.77,3.79,1.77Z"/>
      <path d="M492.35,1017.39v-17.21h2.41l.4,3.96v13.25h-2.81Zm12.24,0v-10.12c0-1.64-.39-2.89-1.18-3.75-.79-.86-1.86-1.29-3.21-1.29-1.03,0-1.93,.28-2.68,.85-.76,.56-1.34,1.37-1.75,2.42-.41,1.05-.61,2.3-.61,3.75h-1.08c0-2,.26-3.71,.79-5.13,.53-1.42,1.3-2.5,2.31-3.25,1.01-.75,2.25-1.12,3.7-1.12,1.36,0,2.52,.3,3.48,.91,.97,.61,1.71,1.47,2.22,2.6,.52,1.13,.77,2.47,.77,4.01v10.12h-2.77Z"/>
      <path d="M511.66,1002.12v-1.94h10.98v1.94h-10.98Zm7.7,15.7c-.94,0-1.78-.18-2.52-.54s-1.33-.9-1.76-1.62c-.43-.72-.65-1.62-.65-2.7v-17.57h2.77v17.5c0,1.78,.83,2.66,2.48,2.66,.49,0,.97-.05,1.43-.16s.98-.27,1.56-.49l.4,2.02c-.61,.26-1.22,.48-1.83,.65-.61,.17-1.23,.25-1.88,.25Z"/>
      <path d="M533.58,1017.82c-1.49,0-2.82-.38-3.99-1.14-1.17-.76-2.09-1.82-2.77-3.18-.68-1.36-1.02-2.92-1.02-4.68,0-1.88,.34-3.5,1.01-4.86,.67-1.36,1.59-2.4,2.76-3.12,1.17-.73,2.5-1.09,4-1.09,1.31,0,2.42,.26,3.35,.79,.92,.53,1.67,1.24,2.23,2.14,.56,.9,.96,1.92,1.18,3.05,.22,1.13,.29,2.31,.19,3.52h-12.46v-1.73h10.6l-.83,.54c.04-.71,0-1.42-.12-2.12-.11-.71-.33-1.36-.64-1.95-.31-.59-.75-1.07-1.31-1.43-.56-.36-1.28-.54-2.16-.54-1.1,0-2.03,.28-2.77,.85s-1.3,1.3-1.67,2.22c-.37,.92-.56,1.91-.56,2.98v1.15c0,1.2,.18,2.27,.55,3.22,.37,.95,.91,1.7,1.65,2.25,.73,.55,1.66,.83,2.77,.83s2.03-.27,2.75-.81,1.16-1.34,1.31-2.39h2.92c-.18,1.14-.59,2.12-1.22,2.94-.64,.82-1.45,1.46-2.43,1.9-.98,.44-2.09,.67-3.33,.67Z"/>
      <path d="M546.09,1017.39v-17.21h2.41l.4,3.96v13.25h-2.81Zm12.24,0v-10.12c0-1.64-.39-2.89-1.18-3.75-.79-.86-1.86-1.29-3.21-1.29-1.03,0-1.93,.28-2.68,.85-.76,.56-1.34,1.37-1.75,2.42-.41,1.05-.61,2.3-.61,3.75h-1.08c0-2,.26-3.71,.79-5.13,.53-1.42,1.3-2.5,2.31-3.25,1.01-.75,2.25-1.12,3.7-1.12,1.36,0,2.52,.3,3.48,.91,.97,.61,1.71,1.47,2.22,2.6,.52,1.13,.77,2.47,.77,4.01v10.12h-2.77Z"/>
      <path d="M565.41,1002.12v-1.94h10.98v1.94h-10.98Zm7.7,15.7c-.94,0-1.78-.18-2.52-.54s-1.33-.9-1.76-1.62c-.43-.72-.65-1.62-.65-2.7v-17.57h2.77v17.5c0,1.78,.83,2.66,2.48,2.66,.49,0,.97-.05,1.43-.16s.98-.27,1.56-.49l.4,2.02c-.61,.26-1.22,.48-1.83,.65-.61,.17-1.23,.25-1.88,.25Z"/>
      <path d="M589.83,1017.39v-22.61h7.27c2.48,0,4.38,.63,5.7,1.88,1.31,1.25,1.97,2.96,1.97,5.1s-.66,3.81-1.97,5.05c-1.31,1.24-3.21,1.86-5.7,1.86h-4.43v8.71h-2.84Zm2.84-11.16h4.43c1.57,0,2.76-.4,3.57-1.21,.81-.8,1.21-1.89,1.21-3.26s-.41-2.5-1.21-3.33c-.81-.83-2-1.24-3.57-1.24h-4.43v9.04Z"/>
      <path d="M609.83,1017.39v-24.55h2.81v24.55h-2.81Z"/>
      <path d="M624.7,1017.82c-1.42,0-2.59-.25-3.51-.76-.92-.5-1.61-1.16-2.07-1.96-.46-.8-.68-1.65-.68-2.54,0-1.16,.29-2.11,.87-2.84s1.38-1.27,2.38-1.61c1.01-.34,2.14-.51,3.4-.51,.9,0,1.8,.09,2.71,.27,.91,.18,1.79,.43,2.65,.74v1.76c-.72-.29-1.53-.52-2.44-.68-.91-.17-1.74-.25-2.49-.25-1.15,0-2.12,.24-2.92,.71-.79,.47-1.19,1.28-1.19,2.42,0,.84,.3,1.56,.91,2.16,.61,.6,1.58,.9,2.91,.9,.94,0,1.78-.22,2.53-.66s1.34-.99,1.78-1.65c.44-.66,.66-1.32,.66-1.98h.68c0,1.15-.25,2.22-.75,3.2-.5,.98-1.21,1.78-2.13,2.38-.92,.6-2.03,.9-3.31,.9Zm5.87-.43l-.36-3.78v-7.38c0-1.55-.33-2.66-.99-3.34-.66-.68-1.65-1.02-2.97-1.02-.74,0-1.42,.11-2.02,.32-.61,.22-1.09,.55-1.44,1-.35,.45-.53,1.03-.53,1.74h-3.13c0-1.25,.31-2.25,.92-3.02,.61-.76,1.46-1.31,2.53-1.66,1.07-.34,2.3-.51,3.68-.51s2.49,.22,3.51,.67c1.02,.44,1.82,1.15,2.39,2.12s.86,2.22,.86,3.77v11.09h-2.45Z"/>
      <path d="M639.73,1017.39v-17.21h2.41l.4,3.96v13.25h-2.81Zm12.24,0v-10.12c0-1.64-.39-2.89-1.18-3.75-.79-.86-1.86-1.29-3.21-1.29-1.03,0-1.93,.28-2.68,.85-.76,.56-1.34,1.37-1.75,2.42-.41,1.05-.61,2.3-.61,3.75h-1.08c0-2,.26-3.71,.79-5.13,.53-1.42,1.3-2.5,2.31-3.25,1.01-.75,2.25-1.12,3.7-1.12,1.36,0,2.52,.3,3.48,.91,.97,.61,1.71,1.47,2.22,2.6,.52,1.13,.77,2.47,.77,4.01v10.12h-2.77Z"/>
      <path d="M480.74,1045.32v-1.94h9.18v1.94h-9.18Zm2.81,15.26v-19.87c0-1.14,.22-2.07,.66-2.8,.44-.73,1.03-1.26,1.76-1.61,.74-.35,1.56-.52,2.47-.52,.49,0,.99,.04,1.5,.11,.51,.07,1.02,.18,1.52,.32l-.54,2.23c-.36-.14-.72-.25-1.07-.32-.35-.07-.69-.11-1.02-.11-.38,0-.77,.07-1.15,.22s-.7,.41-.95,.81-.38,.97-.38,1.71v19.84h-2.81Z"/>
      <path d="M494.43,1043.34h2.81v10.73c0,1.44,.35,2.53,1.05,3.28,.7,.74,1.71,1.12,3.01,1.12,1.08,0,2.02-.29,2.82-.86,.8-.58,1.42-1.37,1.85-2.39,.44-1.01,.66-2.17,.66-3.48h1.04c0,1.93-.28,3.58-.84,4.95-.56,1.37-1.34,2.42-2.36,3.14-1.01,.73-2.2,1.09-3.57,1.09-1.3,0-2.43-.24-3.4-.72s-1.73-1.21-2.27-2.19-.81-2.22-.81-3.72v-10.94Zm5.08-3.26c-.54,0-.99-.17-1.34-.51-.35-.34-.53-.75-.53-1.23,0-.53,.18-.97,.53-1.31,.35-.35,.8-.52,1.34-.52s.99,.17,1.36,.52c.37,.35,.55,.79,.55,1.31,0,.48-.18,.89-.55,1.23-.37,.34-.82,.51-1.36,.51Zm6.01,0c-.52,0-.96-.17-1.32-.51-.37-.34-.55-.76-.55-1.27s.18-.94,.55-1.3c.37-.36,.81-.54,1.32-.54s.99,.18,1.36,.54,.55,.79,.55,1.3-.18,.93-.55,1.27c-.37,.34-.82,.51-1.36,.51Zm1.12,3.26h2.81v17.24h-2.81v-17.24Z"/>
      <path d="M516.74,1060.59v-17.24h2.81v17.24h-2.81Zm1.94-7.78c0-2.18,.21-4,.63-5.45,.42-1.45,1.04-2.53,1.84-3.24,.81-.71,1.8-1.07,2.96-1.07,.38,0,.74,.03,1.05,.08,.32,.05,.64,.14,.96,.24l-.18,2.77c-.34-.11-.7-.2-1.1-.28-.4-.08-.75-.12-1.06-.12-1.02,0-1.84,.29-2.47,.87s-1.08,1.4-1.36,2.46c-.28,1.06-.42,2.3-.42,3.73h-.86Z"/>
      <path d="M544.28,1061.02c-1.49,0-2.82-.38-3.99-1.14-1.17-.76-2.09-1.82-2.77-3.18-.68-1.36-1.02-2.92-1.02-4.68,0-1.88,.34-3.5,1.01-4.86,.67-1.36,1.59-2.4,2.76-3.12,1.17-.73,2.5-1.09,4-1.09,1.31,0,2.42,.26,3.35,.79,.92,.53,1.67,1.24,2.23,2.14,.56,.9,.96,1.92,1.18,3.05,.22,1.13,.29,2.31,.19,3.52h-12.46v-1.73h10.6l-.83,.54c.04-.71,0-1.42-.12-2.12-.11-.71-.33-1.36-.64-1.95-.31-.59-.75-1.07-1.31-1.43-.56-.36-1.28-.54-2.16-.54-1.1,0-2.03,.28-2.77,.85s-1.3,1.3-1.67,2.22c-.37,.92-.56,1.91-.56,2.98v1.15c0,1.2,.18,2.27,.55,3.22,.37,.95,.91,1.7,1.65,2.25,.73,.55,1.66,.83,2.77,.83s2.03-.27,2.75-.81,1.16-1.34,1.31-2.39h2.92c-.18,1.14-.59,2.12-1.22,2.94-.64,.82-1.45,1.46-2.43,1.9-.98,.44-2.09,.67-3.33,.67Z"/>
      <path d="M558.37,1039.31c-.58,0-1.03-.17-1.37-.5s-.5-.77-.5-1.31,.17-.95,.5-1.26,.79-.47,1.37-.47,1.03,.16,1.37,.47,.5,.73,.5,1.26-.17,.98-.5,1.31-.79,.5-1.37,.5Zm-1.4,21.28v-17.24h2.81v17.24h-2.81Z"/>
      <path d="M567.51,1060.59v-17.21h2.41l.4,3.96v13.25h-2.81Zm12.24,0v-10.12c0-1.64-.39-2.89-1.18-3.75-.79-.86-1.86-1.29-3.21-1.29-1.03,0-1.93,.28-2.68,.85-.76,.56-1.34,1.37-1.75,2.42-.41,1.05-.61,2.3-.61,3.75h-1.08c0-2,.26-3.71,.79-5.13,.53-1.42,1.3-2.5,2.31-3.25,1.01-.75,2.25-1.12,3.7-1.12,1.36,0,2.52,.3,3.48,.91,.97,.61,1.71,1.47,2.22,2.6,.52,1.13,.77,2.47,.77,4.01v10.12h-2.77Z"/>
      <path d="M595.21,1061.02c-1.49,0-2.82-.38-3.99-1.14-1.17-.76-2.09-1.82-2.77-3.18-.68-1.36-1.02-2.92-1.02-4.68,0-1.88,.34-3.5,1.01-4.86,.67-1.36,1.59-2.4,2.76-3.12,1.17-.73,2.5-1.09,4-1.09,1.31,0,2.42,.26,3.35,.79,.92,.53,1.67,1.24,2.23,2.14,.56,.9,.96,1.92,1.18,3.05,.22,1.13,.29,2.31,.19,3.52h-12.46v-1.73h10.6l-.83,.54c.04-.71,0-1.42-.12-2.12-.11-.71-.33-1.36-.64-1.95-.31-.59-.75-1.07-1.31-1.43-.56-.36-1.28-.54-2.16-.54-1.1,0-2.03,.28-2.77,.85s-1.3,1.3-1.67,2.22c-.37,.92-.56,1.91-.56,2.98v1.15c0,1.2,.18,2.27,.55,3.22,.37,.95,.91,1.7,1.65,2.25,.73,.55,1.66,.83,2.77,.83s2.03-.27,2.75-.81,1.16-1.34,1.31-2.39h2.92c-.18,1.14-.59,2.12-1.22,2.94-.64,.82-1.45,1.46-2.43,1.9-.98,.44-2.09,.67-3.33,.67Z"/>
      <path d="M607.72,1060.59v-17.21h2.41l.4,3.96v13.25h-2.81Zm12.24,0v-10.12c0-1.64-.39-2.89-1.18-3.75-.79-.86-1.86-1.29-3.21-1.29-1.03,0-1.93,.28-2.68,.85-.76,.56-1.34,1.37-1.75,2.42-.41,1.05-.61,2.3-.61,3.75h-1.08c0-2,.26-3.71,.79-5.13,.53-1.42,1.3-2.5,2.31-3.25,1.01-.75,2.25-1.12,3.7-1.12,1.36,0,2.52,.3,3.48,.91,.97,.61,1.71,1.47,2.22,2.6,.52,1.13,.77,2.47,.77,4.01v10.12h-2.77Z"/>
      <path d="M519.8,1103.79v-22.61h8.46c1.66,0,3.03,.27,4.12,.82,1.09,.55,1.91,1.27,2.45,2.16s.81,1.87,.81,2.92c0,1.3-.36,2.42-1.07,3.38-.71,.95-1.79,1.6-3.21,1.95,.92,.14,1.74,.47,2.44,.98,.7,.51,1.25,1.13,1.65,1.87,.4,.74,.59,1.53,.59,2.37,0,.77-.13,1.52-.39,2.25-.26,.73-.69,1.39-1.29,1.98-.6,.59-1.4,1.06-2.39,1.4s-2.23,.52-3.71,.52h-8.46Zm2.81-20.2v7.7h5.54c1.4,0,2.52-.34,3.36-1.03s1.25-1.67,1.25-2.93c0-1.18-.4-2.09-1.21-2.75-.81-.66-1.93-.99-3.36-.99h-5.58Zm0,17.75h5.62c1.72,0,2.95-.36,3.7-1.08,.75-.72,1.12-1.64,1.12-2.77s-.41-2.06-1.22-2.75c-.82-.69-2.02-1.04-3.6-1.04h-5.62v7.63Z"/>
      <path d="M542.18,1103.79v-24.55h2.81v24.55h-2.81Z"/>
      <path d="M558.49,1104.22c-1.55,0-2.92-.34-4.13-1.03-1.21-.68-2.16-1.7-2.85-3.04-.7-1.34-1.04-3-1.04-4.97s.35-3.64,1.04-4.98c.7-1.34,1.65-2.35,2.85-3.03,1.21-.68,2.58-1.03,4.13-1.03s2.91,.34,4.11,1.03c1.21,.68,2.15,1.69,2.84,3.03,.69,1.34,1.04,3,1.04,4.98s-.35,3.62-1.04,4.97c-.69,1.34-1.64,2.36-2.84,3.04-1.21,.68-2.58,1.03-4.11,1.03Zm-.07-2.45c1.12,0,2.06-.27,2.84-.8,.78-.53,1.37-1.29,1.77-2.28,.4-.98,.6-2.15,.6-3.51,0-2.05-.43-3.67-1.28-4.85-.85-1.18-2.12-1.77-3.8-1.77-1.13,0-2.08,.27-2.85,.8-.77,.53-1.36,1.3-1.76,2.29-.4,.99-.6,2.17-.6,3.54,0,2.03,.43,3.63,1.29,4.81,.86,1.18,2.12,1.77,3.79,1.77Z"/>
      <path d="M578.02,1112.64c-1.76,0-3.29-.25-4.59-.75s-2.3-1.16-3.01-2-1.07-1.75-1.07-2.76c0-1.33,.49-2.35,1.47-3.05,.98-.7,2.24-1.05,3.79-1.05l1.55,.97c-1.3,0-2.3,.27-3.01,.81s-1.06,1.28-1.06,2.21,.5,1.73,1.51,2.38c1.01,.65,2.48,.97,4.43,.97,1.44,0,2.7-.21,3.79-.62,1.09-.41,1.93-.95,2.54-1.62,.61-.67,.91-1.38,.91-2.15,0-.54-.2-1-.59-1.4-.4-.39-1-.58-1.82-.58h-6.7c-1.16,0-2.17-.18-3.01-.53-.85-.35-1.5-.82-1.95-1.4s-.68-1.21-.68-1.89c0-.72,.2-1.33,.61-1.84,.41-.5,.94-.89,1.59-1.15,.65-.26,1.36-.4,2.11-.4l.54,1.04c-.36,0-.72,.08-1.09,.24-.37,.16-.67,.4-.92,.72-.25,.32-.37,.72-.37,1.2,0,.55,.23,1.01,.68,1.39,.46,.37,1.28,.56,2.48,.56h6.7c1.62,0,2.89,.34,3.83,1.03,.93,.68,1.39,1.64,1.39,2.86,0,1.13-.4,2.21-1.21,3.25s-1.96,1.89-3.46,2.56-3.29,1-5.38,1Zm.5-13.9c-1.32,0-2.51-.26-3.57-.79-1.06-.53-1.9-1.27-2.52-2.21s-.93-2.05-.93-3.29,.31-2.36,.93-3.31,1.46-1.68,2.52-2.21c1.06-.52,2.25-.78,3.57-.78s2.45,.26,3.5,.78c1.05,.52,1.89,1.26,2.51,2.21,.62,.95,.94,2.05,.94,3.31s-.31,2.35-.94,3.29c-.62,.95-1.46,1.69-2.51,2.21-1.05,.53-2.22,.79-3.5,.79Zm0-2.02c1.32,0,2.35-.41,3.08-1.22,.73-.82,1.1-1.84,1.1-3.06s-.37-2.28-1.1-3.07c-.73-.79-1.76-1.18-3.08-1.18s-2.34,.39-3.09,1.18c-.75,.79-1.12,1.81-1.12,3.07s.38,2.24,1.12,3.06,1.78,1.22,3.09,1.22Zm5.65-7.85l-1.33-.54c0-1.01,.2-1.89,.59-2.66,.4-.76,.96-1.36,1.69-1.78,.73-.43,1.6-.64,2.61-.64l-.22,2.77c-1.08,0-1.91,.23-2.48,.69-.58,.46-.86,1.18-.86,2.15Z"/>
    </g>
    <g>
      <path d="M639.26,217.78h3.17l5.87,20.12h-.83l6.01-17.78h1.91l5.94,17.64h-.79l6.73-19.98h3.13l-7.99,22.61h-2.95l-5.22-15.34h.54l-5.4,15.34h-2.95l-7.16-22.61Z"/>
      <path d="M679.65,240.82c-1.55,0-2.92-.34-4.13-1.03-1.21-.68-2.16-1.7-2.85-3.04-.7-1.34-1.04-3-1.04-4.97s.35-3.64,1.04-4.98c.7-1.34,1.65-2.35,2.85-3.03,1.21-.68,2.58-1.03,4.13-1.03s2.91,.34,4.11,1.03c1.21,.68,2.15,1.69,2.84,3.03,.69,1.34,1.04,3,1.04,4.98s-.35,3.62-1.04,4.97c-.69,1.34-1.64,2.36-2.84,3.04-1.21,.68-2.58,1.03-4.11,1.03Zm-.07-2.45c1.12,0,2.06-.27,2.84-.8,.78-.53,1.37-1.29,1.77-2.28,.4-.98,.6-2.15,.6-3.51,0-2.05-.43-3.67-1.28-4.85-.85-1.18-2.12-1.77-3.8-1.77-1.13,0-2.08,.27-2.85,.8-.77,.53-1.36,1.3-1.76,2.29-.4,.99-.6,2.17-.6,3.54,0,2.03,.43,3.63,1.29,4.81,.86,1.18,2.12,1.77,3.79,1.77Z"/>
      <path d="M691.37,240.39v-2.27l10.15-12.67h-10.15v-2.27h13.32v2.27l-10.01,12.67h10.01v2.27h-13.32Z"/>
      <path d="M709.67,223.14h2.81v10.73c0,1.44,.35,2.53,1.05,3.28,.7,.74,1.71,1.12,3.01,1.12,1.08,0,2.02-.29,2.82-.86,.8-.58,1.42-1.37,1.85-2.39,.44-1.01,.66-2.17,.66-3.48h1.04c0,1.93-.28,3.58-.84,4.95-.56,1.37-1.34,2.42-2.36,3.14-1.01,.73-2.2,1.09-3.57,1.09-1.3,0-2.43-.24-3.4-.72s-1.73-1.21-2.27-2.19-.81-2.22-.81-3.72v-10.94Zm12.2,0h2.81v17.24h-2.81v-17.24Z"/>
      <path d="M746.5,240.82c-1.49,0-2.82-.38-3.99-1.14-1.17-.76-2.09-1.82-2.77-3.18-.68-1.36-1.02-2.92-1.02-4.68,0-1.88,.34-3.5,1.01-4.86,.67-1.36,1.59-2.4,2.76-3.12,1.17-.73,2.5-1.09,4-1.09,1.31,0,2.42,.26,3.35,.79,.92,.53,1.67,1.24,2.23,2.14,.56,.9,.96,1.92,1.18,3.05,.22,1.13,.29,2.31,.19,3.52h-12.46v-1.73h10.6l-.83,.54c.04-.71,0-1.42-.12-2.12-.11-.71-.33-1.36-.64-1.95-.31-.59-.75-1.07-1.31-1.43-.56-.36-1.28-.54-2.16-.54-1.1,0-2.03,.28-2.77,.85s-1.3,1.3-1.67,2.22c-.37,.92-.56,1.91-.56,2.98v1.15c0,1.2,.18,2.27,.55,3.22,.37,.95,.91,1.7,1.65,2.25,.73,.55,1.66,.83,2.77,.83s2.03-.27,2.75-.81,1.16-1.34,1.31-2.39h2.92c-.18,1.14-.59,2.12-1.22,2.94-.64,.82-1.45,1.46-2.43,1.9-.98,.44-2.09,.67-3.33,.67Z"/>
      <path d="M760.59,219.11c-.58,0-1.03-.17-1.37-.5s-.5-.77-.5-1.31,.17-.95,.5-1.26,.79-.47,1.37-.47,1.03,.16,1.37,.47,.5,.73,.5,1.26-.17,.98-.5,1.31-.79,.5-1.37,.5Zm-1.4,21.28v-17.24h2.81v17.24h-2.81Z"/>
      <path d="M769.74,240.39v-17.21h2.41l.4,3.96v13.25h-2.81Zm12.24,0v-10.12c0-1.64-.39-2.89-1.18-3.75-.79-.86-1.86-1.29-3.21-1.29-1.03,0-1.93,.28-2.68,.85-.76,.56-1.34,1.37-1.75,2.42-.41,1.05-.61,2.3-.61,3.75h-1.08c0-2,.26-3.71,.79-5.13,.53-1.42,1.3-2.5,2.31-3.25,1.01-.75,2.25-1.12,3.7-1.12,1.36,0,2.52,.3,3.48,.91,.97,.61,1.71,1.47,2.22,2.6,.52,1.13,.77,2.47,.77,4.01v10.12h-2.77Z"/>
      <path d="M797.44,240.82c-1.49,0-2.82-.38-3.99-1.14-1.17-.76-2.09-1.82-2.77-3.18-.68-1.36-1.02-2.92-1.02-4.68,0-1.88,.34-3.5,1.01-4.86,.67-1.36,1.59-2.4,2.76-3.12,1.17-.73,2.5-1.09,4-1.09,1.31,0,2.42,.26,3.35,.79,.92,.53,1.67,1.24,2.23,2.14,.56,.9,.96,1.92,1.18,3.05,.22,1.13,.29,2.31,.19,3.52h-12.46v-1.73h10.6l-.83,.54c.04-.71,0-1.42-.12-2.12-.11-.71-.33-1.36-.64-1.95-.31-.59-.75-1.07-1.31-1.43-.56-.36-1.28-.54-2.16-.54-1.1,0-2.03,.28-2.77,.85s-1.3,1.3-1.67,2.22c-.37,.92-.56,1.91-.56,2.98v1.15c0,1.2,.18,2.27,.55,3.22,.37,.95,.91,1.7,1.65,2.25,.73,.55,1.66,.83,2.77,.83s2.03-.27,2.75-.81,1.16-1.34,1.31-2.39h2.92c-.18,1.14-.59,2.12-1.22,2.94-.64,.82-1.45,1.46-2.43,1.9-.98,.44-2.09,.67-3.33,.67Z"/>
      <path d="M809.95,240.39v-17.21h2.41l.4,3.96v13.25h-2.81Zm12.24,0v-10.12c0-1.64-.39-2.89-1.18-3.75-.79-.86-1.86-1.29-3.21-1.29-1.03,0-1.93,.28-2.68,.85-.76,.56-1.34,1.37-1.75,2.42-.41,1.05-.61,2.3-.61,3.75h-1.08c0-2,.26-3.71,.79-5.13,.53-1.42,1.3-2.5,2.31-3.25,1.01-.75,2.25-1.12,3.7-1.12,1.36,0,2.52,.3,3.48,.91,.97,.61,1.71,1.47,2.22,2.6,.52,1.13,.77,2.47,.77,4.01v10.12h-2.77Z"/>
      <path d="M679.5,284.02c-1.99,0-3.71-.5-5.15-1.5-1.44-1-2.55-2.39-3.33-4.18-.78-1.78-1.17-3.85-1.17-6.2,0-2.51,.42-4.62,1.27-6.34,.85-1.72,2-3.01,3.46-3.9,1.46-.88,3.1-1.32,4.92-1.32,2.41,0,4.35,.6,5.82,1.81s2.48,2.77,3.03,4.71l-3.02,.61c-.47-1.4-1.22-2.52-2.24-3.36-1.03-.83-2.22-1.25-3.59-1.25-1.19,0-2.28,.34-3.29,1.02-1,.68-1.81,1.69-2.42,3.03-.61,1.34-.92,3.01-.92,4.99,0,1.8,.24,3.4,.73,4.81,.49,1.4,1.22,2.51,2.2,3.31,.98,.8,2.21,1.21,3.7,1.21,1.79,0,3.21-.48,4.26-1.44,1.05-.96,1.58-2.22,1.58-3.78h3.06c0,1.62-.37,3.01-1.12,4.17-.74,1.16-1.79,2.05-3.12,2.67-1.34,.62-2.89,.94-4.65,.94Z"/>
      <path d="M699.95,284.02c-1.55,0-2.92-.34-4.13-1.03-1.21-.68-2.16-1.7-2.85-3.04-.7-1.34-1.04-3-1.04-4.97s.35-3.64,1.04-4.98c.7-1.34,1.65-2.35,2.85-3.03,1.21-.68,2.58-1.03,4.13-1.03s2.91,.34,4.11,1.03c1.21,.68,2.15,1.69,2.84,3.03,.69,1.34,1.04,3,1.04,4.98s-.35,3.62-1.04,4.97c-.69,1.34-1.64,2.36-2.84,3.04-1.21,.68-2.58,1.03-4.11,1.03Zm-.07-2.45c1.12,0,2.06-.27,2.84-.8,.78-.53,1.37-1.29,1.77-2.28,.4-.98,.6-2.15,.6-3.51,0-2.05-.43-3.67-1.28-4.85-.85-1.18-2.12-1.77-3.8-1.77-1.13,0-2.08,.27-2.85,.8-.77,.53-1.36,1.3-1.76,2.29-.4,.99-.6,2.17-.6,3.54,0,2.03,.43,3.63,1.29,4.81,.86,1.18,2.12,1.77,3.79,1.77Z"/>
      <path d="M713.4,283.59v-17.21h2.41l.4,3.96v13.25h-2.81Zm12.24,0v-10.12c0-1.64-.39-2.89-1.18-3.75-.79-.86-1.86-1.29-3.21-1.29-1.03,0-1.93,.28-2.68,.85-.76,.56-1.34,1.37-1.75,2.42-.41,1.05-.61,2.3-.61,3.75h-1.08c0-2,.26-3.71,.79-5.13,.53-1.42,1.3-2.5,2.31-3.25,1.01-.75,2.25-1.12,3.7-1.12,1.36,0,2.52,.3,3.48,.91,.97,.61,1.71,1.47,2.22,2.6,.52,1.13,.77,2.47,.77,4.01v10.12h-2.77Z"/>
      <path d="M732.71,268.32v-1.94h10.98v1.94h-10.98Zm7.7,15.7c-.94,0-1.78-.18-2.52-.54s-1.33-.9-1.76-1.62c-.43-.72-.65-1.62-.65-2.7v-17.57h2.77v17.5c0,1.78,.83,2.66,2.48,2.66,.49,0,.97-.05,1.43-.16s.98-.27,1.56-.49l.4,2.02c-.61,.26-1.22,.48-1.83,.65-.61,.17-1.23,.25-1.88,.25Z"/>
      <path d="M754.63,284.02c-1.49,0-2.82-.38-3.99-1.14-1.17-.76-2.09-1.82-2.77-3.18-.68-1.36-1.02-2.92-1.02-4.68,0-1.88,.34-3.5,1.01-4.86,.67-1.36,1.59-2.4,2.76-3.12,1.17-.73,2.5-1.09,4-1.09,1.31,0,2.42,.26,3.35,.79,.92,.53,1.67,1.24,2.23,2.14,.56,.9,.96,1.92,1.18,3.05,.22,1.13,.29,2.31,.19,3.52h-12.46v-1.73h10.6l-.83,.54c.04-.71,0-1.42-.12-2.12-.11-.71-.33-1.36-.64-1.95-.31-.59-.75-1.07-1.31-1.43-.56-.36-1.28-.54-2.16-.54-1.1,0-2.03,.28-2.77,.85s-1.3,1.3-1.67,2.22c-.37,.92-.56,1.91-.56,2.98v1.15c0,1.2,.18,2.27,.55,3.22,.37,.95,.91,1.7,1.65,2.25,.73,.55,1.66,.83,2.77,.83s2.03-.27,2.75-.81,1.16-1.34,1.31-2.39h2.92c-.18,1.14-.59,2.12-1.22,2.94-.64,.82-1.45,1.46-2.43,1.9-.98,.44-2.09,.67-3.33,.67Z"/>
      <path d="M767.14,283.59v-17.21h2.41l.4,3.96v13.25h-2.81Zm12.24,0v-10.12c0-1.64-.39-2.89-1.18-3.75-.79-.86-1.86-1.29-3.21-1.29-1.03,0-1.93,.28-2.68,.85-.76,.56-1.34,1.37-1.75,2.42-.41,1.05-.61,2.3-.61,3.75h-1.08c0-2,.26-3.71,.79-5.13,.53-1.42,1.3-2.5,2.31-3.25,1.01-.75,2.25-1.12,3.7-1.12,1.36,0,2.52,.3,3.48,.91,.97,.61,1.71,1.47,2.22,2.6,.52,1.13,.77,2.47,.77,4.01v10.12h-2.77Z"/>
      <path d="M786.46,268.32v-1.94h10.98v1.94h-10.98Zm7.7,15.7c-.94,0-1.78-.18-2.52-.54s-1.33-.9-1.76-1.62c-.43-.72-.65-1.62-.65-2.7v-17.57h2.77v17.5c0,1.78,.83,2.66,2.48,2.66,.49,0,.97-.05,1.43-.16s.98-.27,1.56-.49l.4,2.02c-.61,.26-1.22,.48-1.83,.65-.61,.17-1.23,.25-1.88,.25Z"/>
      <path d="M692.21,326.79v-22.61h7.27c2.48,0,4.38,.63,5.7,1.88,1.31,1.25,1.97,2.96,1.97,5.1s-.66,3.81-1.97,5.05c-1.31,1.24-3.21,1.86-5.7,1.86h-4.43v8.71h-2.84Zm2.84-11.16h4.43c1.57,0,2.76-.4,3.57-1.21,.81-.8,1.21-1.89,1.21-3.26s-.41-2.5-1.21-3.33c-.81-.83-2-1.24-3.57-1.24h-4.43v9.04Z"/>
      <path d="M712.21,326.79v-24.55h2.81v24.55h-2.81Z"/>
      <path d="M727.08,327.22c-1.42,0-2.59-.25-3.51-.76-.92-.5-1.61-1.16-2.07-1.96-.46-.8-.68-1.65-.68-2.54,0-1.16,.29-2.11,.87-2.84s1.38-1.27,2.38-1.61c1.01-.34,2.14-.51,3.4-.51,.9,0,1.8,.09,2.71,.27,.91,.18,1.79,.43,2.65,.74v1.76c-.72-.29-1.53-.52-2.44-.68-.91-.17-1.74-.25-2.49-.25-1.15,0-2.12,.24-2.92,.71-.79,.47-1.19,1.28-1.19,2.42,0,.84,.3,1.56,.91,2.16,.61,.6,1.58,.9,2.91,.9,.94,0,1.78-.22,2.53-.66s1.34-.99,1.78-1.65c.44-.66,.66-1.32,.66-1.98h.68c0,1.15-.25,2.22-.75,3.2-.5,.98-1.21,1.78-2.13,2.38-.92,.6-2.03,.9-3.31,.9Zm5.87-.43l-.36-3.78v-7.38c0-1.55-.33-2.66-.99-3.34-.66-.68-1.65-1.02-2.97-1.02-.74,0-1.42,.11-2.02,.32-.61,.22-1.09,.55-1.44,1-.35,.45-.53,1.03-.53,1.74h-3.13c0-1.25,.31-2.25,.92-3.02,.61-.76,1.46-1.31,2.53-1.66,1.07-.34,2.3-.51,3.68-.51s2.49,.22,3.51,.67c1.02,.44,1.82,1.15,2.39,2.12s.86,2.22,.86,3.77v11.09h-2.45Z"/>
      <path d="M742.11,326.79v-17.21h2.41l.4,3.96v13.25h-2.81Zm12.24,0v-10.12c0-1.64-.39-2.89-1.18-3.75-.79-.86-1.86-1.29-3.21-1.29-1.03,0-1.93,.28-2.68,.85-.76,.56-1.34,1.37-1.75,2.42-.41,1.05-.61,2.3-.61,3.75h-1.08c0-2,.26-3.71,.79-5.13,.53-1.42,1.3-2.5,2.31-3.25,1.01-.75,2.25-1.12,3.7-1.12,1.36,0,2.52,.3,3.48,.91,.97,.61,1.71,1.47,2.22,2.6,.52,1.13,.77,2.47,.77,4.01v10.12h-2.77Z"/>
      <path d="M766.57,321.03v-1.62c0-1.04,.11-1.9,.33-2.57,.22-.67,.59-1.25,1.11-1.75,.52-.49,1.22-.98,2.12-1.48,.8-.43,1.45-.83,1.93-1.21,.48-.37,.82-.77,1.04-1.21,.21-.43,.31-.96,.31-1.58,0-.94-.38-1.72-1.14-2.34-.76-.62-1.81-.94-3.14-.94-1.48,0-2.6,.29-3.38,.87-.78,.58-1.27,1.4-1.48,2.44h-2.99c.17-1.75,.9-3.17,2.21-4.25,1.3-1.08,3.16-1.62,5.57-1.62,1.54,0,2.86,.27,3.97,.8,1.11,.53,1.96,1.25,2.56,2.14,.59,.89,.89,1.88,.89,2.96,0,1.24-.31,2.27-.94,3.1-.62,.83-1.63,1.62-3.02,2.37-.8,.44-1.44,.85-1.9,1.23s-.79,.81-.98,1.3c-.19,.49-.29,1.12-.29,1.9v1.44h-2.77Zm1.44,6.19c-.6,0-1.1-.2-1.49-.58-.4-.39-.59-.86-.59-1.41s.2-1.05,.58-1.46c.39-.41,.88-.61,1.49-.61s1.11,.2,1.54,.6c.43,.4,.64,.89,.64,1.45s-.21,1.03-.63,1.42-.93,.59-1.53,.59Z"/>
    </g>
    <g>
      <path d="M962.58,378.78h3.17l5.87,20.12h-.83l6.01-17.78h1.91l5.94,17.64h-.79l6.73-19.98h3.13l-7.99,22.61h-2.95l-5.22-15.34h.54l-5.4,15.34h-2.95l-7.16-22.61Z"/>
      <path d="M1001.53,401.82c-1.42,0-2.59-.25-3.51-.76-.92-.5-1.61-1.16-2.07-1.96-.46-.8-.68-1.65-.68-2.54,0-1.16,.29-2.11,.87-2.84s1.38-1.27,2.38-1.61c1.01-.34,2.14-.51,3.4-.51,.9,0,1.8,.09,2.71,.27,.91,.18,1.79,.43,2.65,.74v1.76c-.72-.29-1.53-.52-2.44-.68-.91-.17-1.74-.25-2.49-.25-1.15,0-2.12,.24-2.92,.71-.79,.47-1.19,1.28-1.19,2.42,0,.84,.3,1.56,.91,2.16,.61,.6,1.58,.9,2.91,.9,.94,0,1.78-.22,2.53-.66s1.34-.99,1.78-1.65c.44-.66,.66-1.32,.66-1.98h.68c0,1.15-.25,2.22-.75,3.2-.5,.98-1.21,1.78-2.13,2.38-.92,.6-2.03,.9-3.31,.9Zm5.87-.43l-.36-3.78v-7.38c0-1.55-.33-2.66-.99-3.34-.66-.68-1.65-1.02-2.97-1.02-.74,0-1.42,.11-2.02,.32-.61,.22-1.09,.55-1.44,1-.35,.45-.53,1.03-.53,1.74h-3.13c0-1.25,.31-2.25,.92-3.02,.61-.76,1.46-1.31,2.53-1.66,1.07-.34,2.3-.51,3.68-.51s2.49,.22,3.51,.67c1.02,.44,1.82,1.15,2.39,2.12s.86,2.22,.86,3.77v11.09h-2.45Z"/>
      <path d="M1022.76,401.82c-1.67,0-3.06-.24-4.18-.71-1.12-.47-1.96-1.13-2.54-1.96-.58-.83-.88-1.79-.92-2.87h2.7c.06,1.09,.5,1.91,1.32,2.46s1.94,.82,3.36,.82c.74,0,1.43-.12,2.05-.36,.62-.24,1.12-.57,1.49-.99,.37-.42,.56-.89,.56-1.42,0-.67-.25-1.2-.74-1.58-.49-.38-1.28-.72-2.36-1.01l-3.35-1.08c-1.45-.46-2.57-1.08-3.34-1.88-.77-.8-1.16-1.75-1.16-2.87,0-1.39,.61-2.51,1.84-3.35,1.22-.84,2.83-1.26,4.82-1.26,2.11,0,3.75,.43,4.91,1.3,1.16,.86,1.77,1.94,1.82,3.24h-2.77c-.11-.76-.49-1.33-1.15-1.72-.66-.39-1.6-.58-2.81-.58s-2.07,.26-2.73,.78-.98,1.1-.98,1.74c0,1.19,1.02,2.06,3.06,2.63l3.42,1.15c1.48,.44,2.61,1.03,3.39,1.75,.79,.72,1.18,1.64,1.18,2.75,0,.86-.28,1.68-.85,2.45-.56,.77-1.36,1.39-2.39,1.87-1.03,.48-2.26,.72-3.67,.72Z"/>
      <path d="M1044.03,401.39v-17.21h2.41l.32,3.46c.54-1.25,1.3-2.21,2.28-2.88,.98-.67,2.15-1.01,3.52-1.01s2.52,.3,3.48,.91c.97,.61,1.71,1.47,2.22,2.6,.52,1.13,.77,2.47,.77,4.01v10.12h-2.77v-10.12c0-1.64-.39-2.89-1.18-3.75-.79-.86-1.86-1.29-3.21-1.29-1.03,0-1.93,.28-2.68,.85-.76,.56-1.34,1.37-1.75,2.42-.41,1.05-.61,2.3-.61,3.75v8.14h-2.81Zm24.19,0v-10.12c0-1.64-.39-2.89-1.18-3.75-.79-.86-1.85-1.29-3.18-1.29-1.56,0-2.75,.6-3.58,1.81s-1.24,2.87-1.24,5h-1.3c0-1.55,.15-2.9,.46-4.07,.31-1.16,.75-2.13,1.34-2.91,.59-.77,1.3-1.35,2.14-1.74,.84-.38,1.79-.58,2.86-.58,1.36,0,2.52,.3,3.48,.91s1.71,1.47,2.22,2.6c.52,1.13,.77,2.47,.77,4.01v10.12h-2.81Z"/>
      <path d="M1077.21,384.14h2.81v10.73c0,1.44,.35,2.53,1.05,3.28,.7,.74,1.71,1.12,3.01,1.12,1.08,0,2.02-.29,2.82-.86,.8-.58,1.42-1.37,1.85-2.39,.44-1.01,.66-2.17,.66-3.48h1.04c0,1.93-.28,3.58-.84,4.95-.56,1.37-1.34,2.42-2.36,3.14-1.01,.73-2.2,1.09-3.57,1.09-1.3,0-2.43-.24-3.4-.72s-1.73-1.21-2.27-2.19-.81-2.22-.81-3.72v-10.94Zm12.2,0h2.81v17.24h-2.81v-17.24Z"/>
      <path d="M1105.7,401.82c-1.67,0-3.06-.24-4.18-.71-1.12-.47-1.96-1.13-2.54-1.96-.58-.83-.88-1.79-.92-2.87h2.7c.06,1.09,.5,1.91,1.32,2.46s1.94,.82,3.36,.82c.74,0,1.43-.12,2.05-.36,.62-.24,1.12-.57,1.49-.99,.37-.42,.56-.89,.56-1.42,0-.67-.25-1.2-.74-1.58-.49-.38-1.28-.72-2.36-1.01l-3.35-1.08c-1.45-.46-2.57-1.08-3.34-1.88-.77-.8-1.16-1.75-1.16-2.87,0-1.39,.61-2.51,1.84-3.35,1.22-.84,2.83-1.26,4.82-1.26,2.11,0,3.75,.43,4.91,1.3,1.16,.86,1.77,1.94,1.82,3.24h-2.77c-.11-.76-.49-1.33-1.15-1.72-.66-.39-1.6-.58-2.81-.58s-2.07,.26-2.73,.78-.98,1.1-.98,1.74c0,1.19,1.02,2.06,3.06,2.63l3.42,1.15c1.48,.44,2.61,1.03,3.39,1.75,.79,.72,1.18,1.64,1.18,2.75,0,.86-.28,1.68-.85,2.45-.56,.77-1.36,1.39-2.39,1.87-1.03,.48-2.26,.72-3.67,.72Z"/>
      <path d="M1124.62,401.82c-1.67,0-3.06-.24-4.18-.71-1.12-.47-1.96-1.13-2.54-1.96-.58-.83-.88-1.79-.92-2.87h2.7c.06,1.09,.5,1.91,1.32,2.46s1.94,.82,3.36,.82c.74,0,1.43-.12,2.05-.36,.62-.24,1.12-.57,1.49-.99,.37-.42,.56-.89,.56-1.42,0-.67-.25-1.2-.74-1.58-.49-.38-1.28-.72-2.36-1.01l-3.35-1.08c-1.45-.46-2.57-1.08-3.34-1.88-.77-.8-1.16-1.75-1.16-2.87,0-1.39,.61-2.51,1.84-3.35,1.22-.84,2.83-1.26,4.82-1.26,2.11,0,3.75,.43,4.91,1.3,1.16,.86,1.77,1.94,1.82,3.24h-2.77c-.11-.76-.49-1.33-1.15-1.72-.66-.39-1.6-.58-2.81-.58s-2.07,.26-2.73,.78-.98,1.1-.98,1.74c0,1.19,1.02,2.06,3.06,2.63l3.42,1.15c1.48,.44,2.61,1.03,3.39,1.75,.79,.72,1.18,1.64,1.18,2.75,0,.86-.28,1.68-.85,2.45-.56,.77-1.36,1.39-2.39,1.87-1.03,.48-2.26,.72-3.67,.72Z"/>
      <path d="M1010.58,444.59v-17.24h2.81v17.24h-2.81Zm1.94-7.78c0-2.18,.21-4,.63-5.45,.42-1.45,1.04-2.53,1.84-3.24,.81-.71,1.8-1.07,2.96-1.07,.38,0,.74,.03,1.05,.08,.32,.05,.64,.14,.96,.24l-.18,2.77c-.34-.11-.7-.2-1.1-.28-.4-.08-.75-.12-1.06-.12-1.02,0-1.84,.29-2.47,.87s-1.08,1.4-1.36,2.46c-.28,1.06-.42,2.3-.42,3.73h-.86Z"/>
      <path d="M1029.57,445.02c-1.49,0-2.82-.38-3.99-1.14-1.17-.76-2.09-1.82-2.77-3.18-.68-1.36-1.02-2.92-1.02-4.68,0-1.88,.34-3.5,1.01-4.86,.67-1.36,1.59-2.4,2.76-3.12,1.17-.73,2.5-1.09,4-1.09,1.31,0,2.42,.26,3.35,.79,.92,.53,1.67,1.24,2.23,2.14,.56,.9,.96,1.92,1.18,3.05,.22,1.13,.29,2.31,.19,3.52h-12.46v-1.73h10.6l-.83,.54c.04-.71,0-1.42-.12-2.12-.11-.71-.33-1.36-.64-1.95-.31-.59-.75-1.07-1.31-1.43-.56-.36-1.28-.54-2.16-.54-1.1,0-2.03,.28-2.77,.85s-1.3,1.3-1.67,2.22c-.37,.92-.56,1.91-.56,2.98v1.15c0,1.2,.18,2.27,.55,3.22,.37,.95,.91,1.7,1.65,2.25,.73,.55,1.66,.83,2.77,.83s2.03-.27,2.75-.81,1.16-1.34,1.31-2.39h2.92c-.18,1.14-.59,2.12-1.22,2.94-.64,.82-1.45,1.46-2.43,1.9-.98,.44-2.09,.67-3.33,.67Z"/>
      <path d="M1043.66,423.31c-.58,0-1.03-.17-1.37-.5s-.5-.77-.5-1.31,.17-.95,.5-1.26,.79-.47,1.37-.47,1.03,.16,1.37,.47,.5,.73,.5,1.26-.17,.98-.5,1.31-.79,.5-1.37,.5Zm-1.4,21.28v-17.24h2.81v17.24h-2.81Z"/>
      <path d="M1052.81,444.59v-17.21h2.41l.4,3.96v13.25h-2.81Zm12.24,0v-10.12c0-1.64-.39-2.89-1.18-3.75-.79-.86-1.86-1.29-3.21-1.29-1.03,0-1.93,.28-2.68,.85-.76,.56-1.34,1.37-1.75,2.42-.41,1.05-.61,2.3-.61,3.75h-1.08c0-2,.26-3.71,.79-5.13,.53-1.42,1.3-2.5,2.31-3.25,1.01-.75,2.25-1.12,3.7-1.12,1.36,0,2.52,.3,3.48,.91,.97,.61,1.71,1.47,2.22,2.6,.52,1.13,.77,2.47,.77,4.01v10.12h-2.77Z"/>
      <path d="M1077.27,438.83v-1.62c0-1.04,.11-1.9,.33-2.57,.22-.67,.59-1.25,1.11-1.75,.52-.49,1.22-.98,2.12-1.48,.8-.43,1.45-.83,1.93-1.21,.48-.37,.82-.77,1.04-1.21,.21-.43,.31-.96,.31-1.58,0-.94-.38-1.72-1.14-2.34-.76-.62-1.81-.94-3.14-.94-1.48,0-2.6,.29-3.38,.87-.78,.58-1.27,1.4-1.48,2.44h-2.99c.17-1.75,.9-3.17,2.21-4.25,1.3-1.08,3.16-1.62,5.57-1.62,1.54,0,2.86,.27,3.97,.8,1.11,.53,1.96,1.25,2.56,2.14,.59,.89,.89,1.88,.89,2.96,0,1.24-.31,2.27-.94,3.1-.62,.83-1.63,1.62-3.02,2.37-.8,.44-1.44,.85-1.9,1.23s-.79,.81-.98,1.3c-.19,.49-.29,1.12-.29,1.9v1.44h-2.77Zm1.44,6.19c-.6,0-1.1-.2-1.49-.58-.4-.39-.59-.86-.59-1.41s.2-1.05,.58-1.46c.39-.41,.88-.61,1.49-.61s1.11,.2,1.54,.6c.43,.4,.64,.89,.64,1.45s-.21,1.03-.63,1.42-.93,.59-1.53,.59Z"/>
    </g>
    <g>
      <path d="M1041.5,753.61c-1.51,0-2.9-.27-4.16-.82-1.26-.55-2.27-1.35-3.04-2.42-.77-1.07-1.16-2.39-1.19-3.96h2.74c0,1.06,.26,1.92,.77,2.6,.52,.68,1.2,1.18,2.05,1.51,.85,.33,1.78,.49,2.79,.49,1.09,0,2.04-.17,2.84-.52,.8-.35,1.42-.81,1.86-1.38,.44-.57,.66-1.2,.66-1.88,0-.96-.29-1.74-.88-2.33s-1.46-1.08-2.61-1.45l-4-1.4c-1.87-.67-3.29-1.44-4.25-2.3-.96-.86-1.44-2.08-1.44-3.64,0-1.75,.68-3.18,2.03-4.28,1.35-1.1,3.27-1.66,5.75-1.66,2.3,0,4.1,.53,5.4,1.59,1.3,1.06,2.04,2.49,2.23,4.27h-2.77c-.18-1.04-.67-1.86-1.47-2.44-.8-.58-1.93-.87-3.39-.87s-2.65,.33-3.47,.99c-.83,.66-1.24,1.49-1.24,2.5,0,.83,.26,1.48,.78,1.97,.52,.49,1.34,.92,2.46,1.3l4.68,1.62c1.62,.54,2.9,1.3,3.84,2.27s1.41,2.23,1.41,3.78c0,1.2-.32,2.29-.96,3.26-.64,.97-1.59,1.75-2.84,2.32-1.25,.58-2.78,.86-4.59,.86Z"/>
      <path d="M1055.99,753.18v-22.61h13.93v2.41h-11.12v7.6h10.47v2.41h-10.47v7.74h11.12v2.45h-13.93Z"/>
      <path d="M1084.25,753.61c-1.87,0-3.55-.43-5.02-1.3-1.48-.86-2.64-2.16-3.49-3.9-.85-1.73-1.28-3.9-1.28-6.51s.43-4.83,1.28-6.56c.85-1.73,2.02-3.03,3.49-3.89,1.48-.86,3.15-1.29,5.02-1.29s3.55,.43,5.02,1.3c1.48,.86,2.64,2.17,3.49,3.91,.85,1.74,1.28,3.92,1.28,6.53s-.43,4.81-1.28,6.54c-.85,1.73-2.02,3.03-3.49,3.88-1.48,.85-3.15,1.28-5.02,1.28Zm0-2.59c2.12,0,3.8-.77,5.03-2.32,1.23-1.55,1.84-3.82,1.84-6.82s-.62-5.2-1.84-6.79c-1.23-1.59-2.91-2.38-5.03-2.38s-3.77,.8-5.01,2.39c-1.24,1.6-1.86,3.87-1.86,6.82s.62,5.25,1.86,6.79c1.24,1.54,2.91,2.31,5.01,2.31Z"/>
      <path d="M1115.89,753.61c-1.99,0-3.71-.5-5.15-1.5-1.44-1-2.55-2.39-3.33-4.18-.78-1.78-1.17-3.85-1.17-6.2,0-2.51,.42-4.62,1.27-6.34,.85-1.72,2-3.01,3.46-3.9,1.46-.88,3.1-1.32,4.92-1.32,2.41,0,4.35,.6,5.82,1.81s2.48,2.77,3.03,4.71l-3.02,.61c-.47-1.4-1.22-2.52-2.24-3.36-1.03-.83-2.22-1.25-3.59-1.25-1.19,0-2.28,.34-3.29,1.02-1,.68-1.81,1.69-2.42,3.03-.61,1.34-.92,3.01-.92,4.99,0,1.8,.24,3.4,.73,4.81,.49,1.4,1.22,2.51,2.2,3.31,.98,.8,2.21,1.21,3.7,1.21,1.79,0,3.21-.48,4.26-1.44,1.05-.96,1.58-2.22,1.58-3.78h3.06c0,1.62-.37,3.01-1.12,4.17-.74,1.16-1.79,2.05-3.12,2.67-1.34,.62-2.89,.94-4.65,.94Z"/>
      <path d="M1136.34,753.61c-1.55,0-2.92-.34-4.13-1.03-1.21-.68-2.16-1.7-2.85-3.04-.7-1.34-1.04-3-1.04-4.97s.35-3.64,1.04-4.98c.7-1.34,1.65-2.35,2.85-3.03,1.21-.68,2.58-1.03,4.13-1.03s2.91,.34,4.11,1.03c1.21,.68,2.15,1.69,2.84,3.03,.69,1.34,1.04,3,1.04,4.98s-.35,3.62-1.04,4.97c-.69,1.34-1.64,2.36-2.84,3.04-1.21,.68-2.58,1.03-4.11,1.03Zm-.07-2.45c1.12,0,2.06-.27,2.84-.8,.78-.53,1.37-1.29,1.77-2.28,.4-.98,.6-2.15,.6-3.51,0-2.05-.43-3.67-1.28-4.85-.85-1.18-2.12-1.77-3.8-1.77-1.13,0-2.08,.27-2.85,.8-.77,.53-1.36,1.3-1.76,2.29-.4,.99-.6,2.17-.6,3.54,0,2.03,.43,3.63,1.29,4.81,.86,1.18,2.12,1.77,3.79,1.77Z"/>
      <path d="M1149.79,753.18v-17.21h2.41l.4,3.96v13.25h-2.81Zm12.24,0v-10.12c0-1.64-.39-2.89-1.18-3.75-.79-.86-1.86-1.29-3.21-1.29-1.03,0-1.93,.28-2.68,.85-.76,.56-1.34,1.37-1.75,2.42-.41,1.05-.61,2.3-.61,3.75h-1.08c0-2,.26-3.71,.79-5.13,.53-1.42,1.3-2.5,2.31-3.25,1.01-.75,2.25-1.12,3.7-1.12,1.36,0,2.52,.3,3.48,.91,.97,.61,1.71,1.47,2.22,2.6,.52,1.13,.77,2.47,.77,4.01v10.12h-2.77Z"/>
      <path d="M1169.1,737.91v-1.94h10.98v1.94h-10.98Zm7.7,15.7c-.94,0-1.78-.18-2.52-.54s-1.33-.9-1.76-1.62c-.43-.72-.65-1.62-.65-2.7v-17.57h2.77v17.5c0,1.78,.83,2.66,2.48,2.66,.49,0,.97-.05,1.43-.16s.98-.27,1.56-.49l.4,2.02c-.61,.26-1.22,.48-1.83,.65-.61,.17-1.23,.25-1.88,.25Z"/>
      <path d="M1191.02,753.61c-1.49,0-2.82-.38-3.99-1.14-1.17-.76-2.09-1.82-2.77-3.18-.68-1.36-1.02-2.92-1.02-4.68,0-1.88,.34-3.5,1.01-4.86,.67-1.36,1.59-2.4,2.76-3.12,1.17-.73,2.5-1.09,4-1.09,1.31,0,2.42,.26,3.35,.79,.92,.53,1.67,1.24,2.23,2.14,.56,.9,.96,1.92,1.18,3.05,.22,1.13,.29,2.31,.19,3.52h-12.46v-1.73h10.6l-.83,.54c.04-.71,0-1.42-.12-2.12-.11-.71-.33-1.36-.64-1.95-.31-.59-.75-1.07-1.31-1.43-.56-.36-1.28-.54-2.16-.54-1.1,0-2.03,.28-2.77,.85s-1.3,1.3-1.67,2.22c-.37,.92-.56,1.91-.56,2.98v1.15c0,1.2,.18,2.27,.55,3.22,.37,.95,.91,1.7,1.65,2.25,.73,.55,1.66,.83,2.77,.83s2.03-.27,2.75-.81,1.16-1.34,1.31-2.39h2.92c-.18,1.14-.59,2.12-1.22,2.94-.64,.82-1.45,1.46-2.43,1.9-.98,.44-2.09,.67-3.33,.67Z"/>
      <path d="M1203.53,753.18v-17.21h2.41l.4,3.96v13.25h-2.81Zm12.24,0v-10.12c0-1.64-.39-2.89-1.18-3.75-.79-.86-1.86-1.29-3.21-1.29-1.03,0-1.93,.28-2.68,.85-.76,.56-1.34,1.37-1.75,2.42-.41,1.05-.61,2.3-.61,3.75h-1.08c0-2,.26-3.71,.79-5.13,.53-1.42,1.3-2.5,2.31-3.25,1.01-.75,2.25-1.12,3.7-1.12,1.36,0,2.52,.3,3.48,.91,.97,.61,1.71,1.47,2.22,2.6,.52,1.13,.77,2.47,.77,4.01v10.12h-2.77Z"/>
      <path d="M1222.85,737.91v-1.94h10.98v1.94h-10.98Zm7.7,15.7c-.94,0-1.78-.18-2.52-.54s-1.33-.9-1.76-1.62c-.43-.72-.65-1.62-.65-2.7v-17.57h2.77v17.5c0,1.78,.83,2.66,2.48,2.66,.49,0,.97-.05,1.43-.16s.98-.27,1.56-.49l.4,2.02c-.61,.26-1.22,.48-1.83,.65-.61,.17-1.23,.25-1.88,.25Z"/>
      <path d="M1100.68,796.37v-22.61h7.27c2.48,0,4.38,.63,5.7,1.88,1.31,1.25,1.97,2.96,1.97,5.1s-.66,3.81-1.97,5.05c-1.31,1.24-3.21,1.86-5.7,1.86h-4.43v8.71h-2.84Zm2.84-11.16h4.43c1.57,0,2.76-.4,3.57-1.21,.81-.8,1.21-1.89,1.21-3.26s-.41-2.5-1.21-3.33c-.81-.83-2-1.24-3.57-1.24h-4.43v9.04Z"/>
      <path d="M1120.68,796.37v-24.55h2.81v24.55h-2.81Z"/>
      <path d="M1135.55,796.81c-1.42,0-2.59-.25-3.51-.76-.92-.5-1.61-1.16-2.07-1.96-.46-.8-.68-1.65-.68-2.54,0-1.16,.29-2.11,.87-2.84s1.38-1.27,2.38-1.61c1.01-.34,2.14-.51,3.4-.51,.9,0,1.8,.09,2.71,.27,.91,.18,1.79,.43,2.65,.74v1.76c-.72-.29-1.53-.52-2.44-.68-.91-.17-1.74-.25-2.49-.25-1.15,0-2.12,.24-2.92,.71-.79,.47-1.19,1.28-1.19,2.42,0,.84,.3,1.56,.91,2.16,.61,.6,1.58,.9,2.91,.9,.94,0,1.78-.22,2.53-.66s1.34-.99,1.78-1.65c.44-.66,.66-1.32,.66-1.98h.68c0,1.15-.25,2.22-.75,3.2-.5,.98-1.21,1.78-2.13,2.38-.92,.6-2.03,.9-3.31,.9Zm5.87-.43l-.36-3.78v-7.38c0-1.55-.33-2.66-.99-3.34-.66-.68-1.65-1.02-2.97-1.02-.74,0-1.42,.11-2.02,.32-.61,.22-1.09,.55-1.44,1-.35,.45-.53,1.03-.53,1.74h-3.13c0-1.25,.31-2.25,.92-3.02,.61-.76,1.46-1.31,2.53-1.66,1.07-.34,2.3-.51,3.68-.51s2.49,.22,3.51,.67c1.02,.44,1.82,1.15,2.39,2.12s.86,2.22,.86,3.77v11.09h-2.45Z"/>
      <path d="M1150.58,796.37v-17.21h2.41l.4,3.96v13.25h-2.81Zm12.24,0v-10.12c0-1.64-.39-2.89-1.18-3.75-.79-.86-1.86-1.29-3.21-1.29-1.03,0-1.93,.28-2.68,.85-.76,.56-1.34,1.37-1.75,2.42-.41,1.05-.61,2.3-.61,3.75h-1.08c0-2,.26-3.71,.79-5.13,.53-1.42,1.3-2.5,2.31-3.25,1.01-.75,2.25-1.12,3.7-1.12,1.36,0,2.52,.3,3.48,.91,.97,.61,1.71,1.47,2.22,2.6,.52,1.13,.77,2.47,.77,4.01v10.12h-2.77Z"/>
    </g>
    <g>
      <path d="M831.37,997.78h3.17l5.87,20.12h-.83l6.01-17.78h1.91l5.94,17.64h-.79l6.73-19.98h3.13l-7.99,22.61h-2.95l-5.22-15.34h.54l-5.4,15.34h-2.95l-7.16-22.61Z"/>
      <path d="M868.27,999.11c-.58,0-1.03-.17-1.37-.5s-.5-.77-.5-1.31,.17-.95,.5-1.26,.79-.47,1.37-.47,1.03,.16,1.37,.47,.5,.73,.5,1.26-.17,.98-.5,1.31-.79,.5-1.37,.5Zm-1.4,21.28v-17.24h2.81v17.24h-2.81Z"/>
      <path d="M883.39,1020.82c-1.49,0-2.82-.38-3.99-1.14-1.17-.76-2.09-1.82-2.77-3.18-.68-1.36-1.02-2.92-1.02-4.68,0-1.88,.34-3.5,1.01-4.86,.67-1.36,1.59-2.4,2.76-3.12,1.17-.73,2.5-1.09,4-1.09,1.31,0,2.42,.26,3.35,.79,.92,.53,1.67,1.24,2.23,2.14,.56,.9,.96,1.92,1.18,3.05,.22,1.13,.29,2.31,.19,3.52h-12.46v-1.73h10.6l-.83,.54c.04-.71,0-1.42-.12-2.12-.11-.71-.33-1.36-.64-1.95-.31-.59-.75-1.07-1.31-1.43-.56-.36-1.28-.54-2.16-.54-1.1,0-2.03,.28-2.77,.85s-1.3,1.3-1.67,2.22c-.37,.92-.56,1.91-.56,2.98v1.15c0,1.2,.18,2.27,.55,3.22,.37,.95,.91,1.7,1.65,2.25,.73,.55,1.66,.83,2.77,.83s2.03-.27,2.75-.81,1.16-1.34,1.31-2.39h2.92c-.18,1.14-.59,2.12-1.22,2.94-.64,.82-1.45,1.46-2.43,1.9-.98,.44-2.09,.67-3.33,.67Z"/>
      <path d="M904.45,1020.39v-22.61h2.81v22.61h-2.81Z"/>
      <path d="M920.69,1020.82c-1.39,0-2.67-.38-3.83-1.12-1.16-.75-2.09-1.81-2.79-3.17s-1.04-2.97-1.04-4.81,.34-3.43,1.03-4.77c.68-1.34,1.59-2.38,2.73-3.1s2.38-1.09,3.74-1.09c1.26,0,2.37,.31,3.32,.92,.95,.61,1.7,1.49,2.22,2.65,.53,1.15,.79,2.54,.79,4.18h-1.08c0-1.14-.23-2.1-.67-2.88-.45-.78-1.04-1.37-1.75-1.77-.72-.4-1.49-.6-2.32-.6-.94,0-1.79,.26-2.57,.78-.77,.52-1.39,1.27-1.85,2.23-.46,.97-.69,2.12-.69,3.47s.23,2.54,.69,3.53,1.08,1.74,1.85,2.27c.77,.53,1.63,.79,2.57,.79,.78,0,1.53-.2,2.26-.61,.73-.41,1.32-1,1.79-1.79,.47-.79,.7-1.74,.7-2.85h1.08c0,1.67-.27,3.08-.82,4.24-.55,1.16-1.28,2.04-2.21,2.64-.93,.6-1.97,.9-3.12,.9Zm5.54-.43l-.47-4.03v-20.52h2.81v24.55h-2.34Z"/>
      <path d="M941.84,1020.82c-1.49,0-2.82-.38-3.99-1.14-1.17-.76-2.09-1.82-2.77-3.18-.68-1.36-1.02-2.92-1.02-4.68,0-1.88,.34-3.5,1.01-4.86,.67-1.36,1.59-2.4,2.76-3.12,1.17-.73,2.5-1.09,4-1.09,1.31,0,2.42,.26,3.35,.79,.92,.53,1.67,1.24,2.23,2.14,.56,.9,.96,1.92,1.18,3.05,.22,1.13,.29,2.31,.19,3.52h-12.46v-1.73h10.6l-.83,.54c.04-.71,0-1.42-.12-2.12-.11-.71-.33-1.36-.64-1.95-.31-.59-.75-1.07-1.31-1.43-.56-.36-1.28-.54-2.16-.54-1.1,0-2.03,.28-2.77,.85s-1.3,1.3-1.67,2.22c-.37,.92-.56,1.91-.56,2.98v1.15c0,1.2,.18,2.27,.55,3.22,.37,.95,.91,1.7,1.65,2.25,.73,.55,1.66,.83,2.77,.83s2.03-.27,2.75-.81,1.16-1.34,1.31-2.39h2.92c-.18,1.14-.59,2.12-1.22,2.94-.64,.82-1.45,1.46-2.43,1.9-.98,.44-2.09,.67-3.33,.67Z"/>
      <path d="M960.32,1020.82c-1.49,0-2.82-.38-3.99-1.14-1.17-.76-2.09-1.82-2.77-3.18-.68-1.36-1.02-2.92-1.02-4.68,0-1.88,.34-3.5,1.01-4.86,.67-1.36,1.59-2.4,2.76-3.12,1.17-.73,2.5-1.09,4-1.09,1.31,0,2.42,.26,3.35,.79,.92,.53,1.67,1.24,2.23,2.14,.56,.9,.96,1.92,1.18,3.05,.22,1.13,.29,2.31,.19,3.52h-12.46v-1.73h10.6l-.83,.54c.04-.71,0-1.42-.12-2.12-.11-.71-.33-1.36-.64-1.95-.31-.59-.75-1.07-1.31-1.43-.56-.36-1.28-.54-2.16-.54-1.1,0-2.03,.28-2.77,.85s-1.3,1.3-1.67,2.22c-.37,.92-.56,1.91-.56,2.98v1.15c0,1.2,.18,2.27,.55,3.22,.37,.95,.91,1.7,1.65,2.25,.73,.55,1.66,.83,2.77,.83s2.03-.27,2.75-.81,1.16-1.34,1.31-2.39h2.92c-.18,1.14-.59,2.12-1.22,2.94-.64,.82-1.45,1.46-2.43,1.9-.98,.44-2.09,.67-3.33,.67Z"/>
      <path d="M972.83,1020.39v-17.21h2.41l.4,3.96v13.25h-2.81Zm12.24,0v-10.12c0-1.64-.39-2.89-1.18-3.75-.79-.86-1.86-1.29-3.21-1.29-1.03,0-1.93,.28-2.68,.85-.76,.56-1.34,1.37-1.75,2.42-.41,1.05-.61,2.3-.61,3.75h-1.08c0-2,.26-3.71,.79-5.13,.53-1.42,1.3-2.5,2.31-3.25,1.01-.75,2.25-1.12,3.7-1.12,1.36,0,2.52,.3,3.48,.91,.97,.61,1.71,1.47,2.22,2.6,.52,1.13,.77,2.47,.77,4.01v10.12h-2.77Z"/>
      <path d="M850.51,1048.32v-1.94h9.18v1.94h-9.18Zm2.81,15.26v-19.87c0-1.14,.22-2.07,.66-2.8,.44-.73,1.03-1.26,1.76-1.61,.74-.35,1.56-.52,2.47-.52,.49,0,.99,.04,1.5,.11,.51,.07,1.02,.18,1.52,.32l-.54,2.23c-.36-.14-.72-.25-1.07-.32-.35-.07-.69-.11-1.02-.11-.38,0-.77,.07-1.15,.22s-.7,.41-.95,.81-.38,.97-.38,1.71v19.84h-2.81Zm12.98-21.28c-.58,0-1.03-.17-1.37-.5s-.5-.77-.5-1.31,.17-.95,.5-1.26,.79-.47,1.37-.47,1.03,.16,1.37,.47,.5,.73,.5,1.26-.17,.98-.5,1.31-.79,.5-1.37,.5Zm-1.4,21.28v-17.24h2.81v17.24h-2.81Z"/>
      <path d="M875.46,1063.59v-17.21h2.41l.4,3.96v13.25h-2.81Zm12.24,0v-10.12c0-1.64-.39-2.89-1.18-3.75-.79-.86-1.86-1.29-3.21-1.29-1.03,0-1.93,.28-2.68,.85-.76,.56-1.34,1.37-1.75,2.42-.41,1.05-.61,2.3-.61,3.75h-1.08c0-2,.26-3.71,.79-5.13,.53-1.42,1.3-2.5,2.31-3.25,1.01-.75,2.25-1.12,3.7-1.12,1.36,0,2.52,.3,3.48,.91,.97,.61,1.71,1.47,2.22,2.6,.52,1.13,.77,2.47,.77,4.01v10.12h-2.77Z"/>
      <path d="M903.34,1064.02c-1.39,0-2.67-.38-3.83-1.12-1.16-.75-2.09-1.81-2.79-3.17s-1.04-2.97-1.04-4.81,.34-3.43,1.03-4.77c.68-1.34,1.59-2.38,2.73-3.1s2.38-1.09,3.74-1.09c1.26,0,2.37,.31,3.32,.92,.95,.61,1.7,1.49,2.22,2.65,.53,1.15,.79,2.54,.79,4.18h-1.08c0-1.14-.23-2.1-.67-2.88-.45-.78-1.04-1.37-1.75-1.77-.72-.4-1.49-.6-2.32-.6-.94,0-1.79,.26-2.57,.78-.77,.52-1.39,1.27-1.85,2.23-.46,.97-.69,2.12-.69,3.47s.23,2.54,.69,3.53,1.08,1.74,1.85,2.27c.77,.53,1.63,.79,2.57,.79,.78,0,1.53-.2,2.26-.61,.73-.41,1.32-1,1.79-1.79,.47-.79,.7-1.74,.7-2.85h1.08c0,1.67-.27,3.08-.82,4.24-.55,1.16-1.28,2.04-2.21,2.64-.93,.6-1.97,.9-3.12,.9Zm5.54-.43l-.47-4.03v-20.52h2.81v24.55h-2.34Z"/>
      <path d="M924.49,1064.02c-1.49,0-2.82-.38-3.99-1.14-1.17-.76-2.09-1.82-2.77-3.18-.68-1.36-1.02-2.92-1.02-4.68,0-1.88,.34-3.5,1.01-4.86,.67-1.36,1.59-2.4,2.76-3.12,1.17-.73,2.5-1.09,4-1.09,1.31,0,2.42,.26,3.35,.79,.92,.53,1.67,1.24,2.23,2.14,.56,.9,.96,1.92,1.18,3.05,.22,1.13,.29,2.31,.19,3.52h-12.46v-1.73h10.6l-.83,.54c.04-.71,0-1.42-.12-2.12-.11-.71-.33-1.36-.64-1.95-.31-.59-.75-1.07-1.31-1.43-.56-.36-1.28-.54-2.16-.54-1.1,0-2.03,.28-2.77,.85s-1.3,1.3-1.67,2.22c-.37,.92-.56,1.91-.56,2.98v1.15c0,1.2,.18,2.27,.55,3.22,.37,.95,.91,1.7,1.65,2.25,.73,.55,1.66,.83,2.77,.83s2.03-.27,2.75-.81,1.16-1.34,1.31-2.39h2.92c-.18,1.14-.59,2.12-1.22,2.94-.64,.82-1.45,1.46-2.43,1.9-.98,.44-2.09,.67-3.33,.67Z"/>
      <path d="M937,1063.59v-17.21h2.41l.4,3.96v13.25h-2.81Zm12.24,0v-10.12c0-1.64-.39-2.89-1.18-3.75-.79-.86-1.86-1.29-3.21-1.29-1.03,0-1.93,.28-2.68,.85-.76,.56-1.34,1.37-1.75,2.42-.41,1.05-.61,2.3-.61,3.75h-1.08c0-2,.26-3.71,.79-5.13,.53-1.42,1.3-2.5,2.31-3.25,1.01-.75,2.25-1.12,3.7-1.12,1.36,0,2.52,.3,3.48,.91,.97,.61,1.71,1.47,2.22,2.6,.52,1.13,.77,2.47,.77,4.01v10.12h-2.77Z"/>
      <path d="M961.46,1057.83v-1.62c0-1.04,.11-1.9,.33-2.57,.22-.67,.59-1.25,1.11-1.75,.52-.49,1.22-.98,2.12-1.48,.8-.43,1.45-.83,1.93-1.21,.48-.37,.82-.77,1.04-1.21,.21-.43,.31-.96,.31-1.58,0-.94-.38-1.72-1.14-2.34-.76-.62-1.81-.94-3.14-.94-1.48,0-2.6,.29-3.38,.87-.78,.58-1.27,1.4-1.48,2.44h-2.99c.17-1.75,.9-3.17,2.21-4.25,1.3-1.08,3.16-1.62,5.57-1.62,1.54,0,2.86,.27,3.97,.8,1.11,.53,1.96,1.25,2.56,2.14,.59,.89,.89,1.88,.89,2.96,0,1.24-.31,2.27-.94,3.1-.62,.83-1.63,1.62-3.02,2.37-.8,.44-1.44,.85-1.9,1.23s-.79,.81-.98,1.3c-.19,.49-.29,1.12-.29,1.9v1.44h-2.77Zm1.44,6.19c-.6,0-1.1-.2-1.49-.58-.4-.39-.59-.86-.59-1.41s.2-1.05,.58-1.46c.39-.41,.88-.61,1.49-.61s1.11,.2,1.54,.6c.43,.4,.64,.89,.64,1.45s-.21,1.03-.63,1.42-.93,.59-1.53,.59Z"/>
    </g>
    <g>
      <path d="M1555.16,672.19c-1.41,0-2.84-.11-4.28-.34-1.44-.22-2.79-.55-4.03-.97v-4.62c.87,.29,1.78,.54,2.74,.73,.96,.2,1.91,.35,2.87,.45s1.86,.16,2.71,.16c2.25,0,3.88-.38,4.87-1.13s1.49-1.83,1.49-3.21c0-1.19-.37-2.11-1.1-2.76s-2.07-1.22-4-1.71l-2.1-.55c-2.69-.69-4.71-1.74-6.08-3.16-1.37-1.42-2.05-3.29-2.05-5.62,0-2.86,1.02-5.1,3.07-6.72,2.04-1.62,5.11-2.44,9.2-2.44,1.33,0,2.62,.08,3.85,.24,1.24,.16,2.35,.39,3.33,.68v4.62c-1.02-.32-2.13-.56-3.32-.72-1.19-.16-2.38-.24-3.57-.24-1.69,0-3.05,.18-4.06,.52-1.01,.35-1.75,.84-2.21,1.48-.46,.64-.68,1.4-.68,2.28,0,1.12,.33,2,1,2.64,.67,.64,1.87,1.19,3.6,1.65l2.1,.55c1.97,.49,3.6,1.13,4.88,1.92,1.28,.79,2.23,1.76,2.85,2.9,.62,1.14,.92,2.5,.92,4.06,0,1.95-.48,3.61-1.43,5-.95,1.39-2.32,2.45-4.11,3.19-1.79,.74-3.94,1.11-6.46,1.11Z"/>
      <path d="M1577.63,672.19c-2.28,0-4.06-.59-5.34-1.77-1.28-1.18-1.92-2.75-1.92-4.71,0-2.1,.72-3.74,2.15-4.92,1.44-1.18,3.75-1.89,6.94-2.13l5.29-.5,.59,3.19-5.36,.48c-1.47,.14-2.53,.49-3.17,1.05-.64,.56-.97,1.33-.97,2.31s.29,1.76,.88,2.29c.59,.53,1.46,.8,2.6,.8,.76,0,1.52-.15,2.29-.44,.77-.29,1.47-.78,2.1-1.47v-9.01c0-1.16-.19-2.08-.56-2.74s-.96-1.13-1.76-1.41c-.8-.27-1.85-.41-3.14-.41-.87,0-1.85,.08-2.96,.23-1.11,.15-2.18,.39-3.23,.71v-4.22c1.08-.32,2.26-.57,3.54-.74,1.28-.17,2.48-.25,3.6-.25,2.25,0,4.11,.28,5.58,.85s2.55,1.52,3.27,2.86c.71,1.34,1.07,3.15,1.07,5.45v14.11h-4.56l-.4-2.37h-.27c-.7,.94-1.6,1.63-2.7,2.09-1.1,.46-2.29,.68-3.56,.68Zm-2.39-27.3c-.99,0-1.76-.26-2.3-.78-.54-.52-.81-1.23-.81-2.14s.27-1.63,.81-2.15c.54-.52,1.31-.79,2.3-.79s1.76,.26,2.3,.79c.54,.53,.81,1.24,.81,2.15s-.27,1.62-.81,2.14c-.54,.52-1.3,.78-2.3,.78Zm9.87,0c-.99,0-1.76-.26-2.3-.78-.54-.52-.81-1.23-.81-2.14s.27-1.63,.81-2.15c.54-.52,1.31-.79,2.3-.79s1.76,.26,2.3,.79c.54,.53,.81,1.24,.81,2.15s-.27,1.62-.81,2.14c-.54,.52-1.31,.78-2.3,.78Z"/>
      <path d="M1601.87,672.19c-1.5,0-2.82-.29-3.98-.86-1.15-.57-2.06-1.49-2.72-2.76-.66-1.27-.99-2.95-.99-5.05v-14.64h5.5v14.3c0,1.58,.34,2.68,1.02,3.3,.68,.62,1.56,.92,2.66,.92,.55,0,1.12-.08,1.71-.24,.59-.16,1.17-.41,1.71-.76,.55-.34,1.03-.77,1.45-1.29v-16.23h5.52v22.91h-4.58l-.38-2.37h-.25c-.9,.91-1.92,1.6-3.07,2.07-1.15,.47-2.35,.7-3.61,.7Z"/>
      <path d="M1619.21,671.79v-33.94h5.52v33.94h-5.52Z"/>
      <path d="M1641.07,672.21c-2.7,0-4.94-.41-6.71-1.23-1.77-.82-3.09-2.1-3.96-3.85-.87-1.75-1.3-4.02-1.3-6.8,0-2.59,.4-4.76,1.21-6.51,.8-1.75,1.96-3.07,3.48-3.96,1.51-.89,3.34-1.33,5.48-1.33s3.8,.44,5.22,1.33c1.42,.89,2.5,2.22,3.22,4,.73,1.78,1.09,3.99,1.09,6.64v1.49h-16.59v-3.32h12.39l-.97,.46c0-1.74-.17-3.11-.5-4.14s-.83-1.75-1.49-2.19-1.47-.66-2.44-.66-1.79,.22-2.48,.65c-.69,.43-1.21,1.16-1.56,2.18-.36,1.02-.54,2.4-.54,4.14v2.14c0,1.65,.23,2.97,.7,3.96s1.23,1.69,2.28,2.12c1.05,.43,2.46,.64,4.22,.64,.88,0,1.81-.07,2.77-.21,.97-.14,1.96-.34,2.98-.59v4.22c-1.18,.29-2.29,.5-3.35,.63-1.06,.13-2.11,.19-3.16,.19Z"/>
      <path d="M1652.9,671.79v-22.91h4.58l.38,2.42h.27c.88-.9,1.91-1.58,3.09-2.06,1.18-.48,2.44-.71,3.8-.71,1.48,0,2.8,.29,3.96,.86,1.16,.57,2.06,1.49,2.72,2.76,.66,1.27,.99,2.96,.99,5.07v14.57h-5.52v-14.26c0-1.58-.34-2.68-1.01-3.3-.67-.62-1.6-.92-2.77-.92-.56,0-1.14,.08-1.74,.23-.6,.15-1.18,.4-1.74,.73-.56,.34-1.05,.78-1.47,1.32v16.19h-5.52Z"/>
      <path d="M1675.51,653.27v-4.39h15.88v4.39h-15.88Zm12.12,18.94c-2.62,0-4.64-.66-6.06-1.97-1.42-1.32-2.13-3.41-2.13-6.28v-15.08l.99-8.17h4.54v22.39c0,1.69,.33,2.87,.99,3.53,.66,.66,1.69,.99,3.11,.99,.39,0,.79-.02,1.2-.07,.41-.05,.85-.12,1.34-.22v4.43c-.59,.13-1.23,.23-1.92,.33-.69,.09-1.38,.14-2.05,.14Z"/>
      <path d="M1695.08,671.79v-33.94h5.52v13.42h.27c.84-.9,1.82-1.58,2.93-2.05,1.11-.47,2.33-.7,3.67-.7s2.64,.28,3.76,.85,2.01,1.49,2.66,2.76c.65,1.27,.98,2.96,.98,5.06v14.6h-5.52v-14.24c0-1.6-.34-2.7-1.03-3.31-.69-.61-1.6-.91-2.75-.91-.57,0-1.16,.08-1.76,.23-.6,.15-1.18,.4-1.73,.75-.55,.34-1.04,.77-1.46,1.29v16.19h-5.52Z"/>
      <path d="M1730.99,672.21c-2.7,0-4.94-.41-6.71-1.23-1.77-.82-3.09-2.1-3.96-3.85-.87-1.75-1.3-4.02-1.3-6.8,0-2.59,.4-4.76,1.21-6.51,.8-1.75,1.96-3.07,3.48-3.96,1.51-.89,3.34-1.33,5.48-1.33s3.8,.44,5.22,1.33c1.42,.89,2.5,2.22,3.22,4,.73,1.78,1.09,3.99,1.09,6.64v1.49h-16.59v-3.32h12.39l-.97,.46c0-1.74-.17-3.11-.5-4.14s-.83-1.75-1.49-2.19-1.47-.66-2.44-.66-1.79,.22-2.48,.65c-.69,.43-1.21,1.16-1.56,2.18-.36,1.02-.54,2.4-.54,4.14v2.14c0,1.65,.23,2.97,.7,3.96s1.23,1.69,2.28,2.12c1.05,.43,2.46,.64,4.22,.64,.88,0,1.81-.07,2.77-.21,.97-.14,1.96-.34,2.98-.59v4.22c-1.18,.29-2.29,.5-3.35,.63-1.06,.13-2.11,.19-3.16,.19Z"/>
      <path d="M1742.82,671.79v-22.91h4.58l.38,2.44h.27c.84-.92,1.81-1.62,2.91-2.09,1.1-.47,2.3-.7,3.6-.7s2.52,.28,3.57,.84c1.05,.56,1.88,1.47,2.48,2.72,.6,1.25,.9,2.91,.9,4.97v14.74h-5.4v-14.28c0-1.58-.3-2.68-.91-3.29-.61-.61-1.42-.91-2.43-.91-.52,0-1.05,.08-1.6,.24s-1.06,.42-1.55,.77c-.49,.35-.92,.8-1.28,1.34v16.13h-5.52Zm26.31,0v-14.28c0-1.58-.32-2.68-.97-3.29-.64-.61-1.48-.91-2.5-.91-.53,0-1.08,.08-1.66,.25s-1.12,.44-1.64,.83c-.52,.39-.97,.9-1.34,1.54l-1.18-3.76c1.06-1.33,2.25-2.27,3.56-2.82,1.31-.55,2.6-.83,3.88-.83,1.41,0,2.67,.28,3.78,.85,1.11,.57,1.98,1.49,2.62,2.76,.64,1.27,.96,2.97,.96,5.08v14.57h-5.5Z"/>
      <path d="M1785.97,672.19c-2.28,0-4.06-.59-5.34-1.77-1.28-1.18-1.92-2.75-1.92-4.71,0-2.1,.72-3.74,2.15-4.92,1.43-1.18,3.75-1.89,6.94-2.13l5.29-.5,.59,3.19-5.35,.48c-1.47,.14-2.53,.49-3.17,1.05-.64,.56-.97,1.33-.97,2.31s.29,1.76,.88,2.29c.59,.53,1.46,.8,2.6,.8,.76,0,1.52-.15,2.29-.44,.77-.29,1.47-.78,2.1-1.47v-9.01c0-1.16-.19-2.08-.56-2.74s-.96-1.13-1.76-1.41c-.8-.27-1.85-.41-3.14-.41-.87,0-1.85,.08-2.96,.23-1.11,.15-2.18,.39-3.23,.71v-4.22c1.08-.32,2.26-.57,3.54-.74s2.48-.25,3.6-.25c2.25,0,4.11,.28,5.58,.85s2.55,1.52,3.27,2.86,1.07,3.15,1.07,5.45v14.11h-4.56l-.4-2.37h-.27c-.7,.94-1.6,1.63-2.7,2.09-1.1,.46-2.29,.68-3.56,.68Z"/>
    </g>
    <g>
      <path class="cls-4" d="M910.14,807.11c33.03,41.85,113.6,125.41,243.86,142.01,27.14,3.46,142.76,15.01,252.5-62.5,94.2-66.54,126.77-158.23,136-188"/>
      <polygon points="906.77 816.98 894.5 785.63 920.8 806.64 906.77 816.98"/>
    </g>
    <g>
      <path d="M1438.53,361.49c-2.42,0-4.59-.3-6.5-.89-1.91-.59-3.53-1.53-4.86-2.79-1.33-1.27-2.34-2.91-3.04-4.92s-1.05-4.44-1.05-7.27c0-3.63,.62-6.62,1.86-8.99,1.24-2.37,3.03-4.13,5.39-5.28,2.35-1.15,5.2-1.73,8.55-1.73,1.19,0,2.34,.07,3.44,.2,1.11,.13,2.19,.33,3.25,.6v4.68c-1.02-.27-2.05-.46-3.1-.59-1.04-.13-2.11-.19-3.2-.19-2.28,0-4.19,.37-5.71,1.11-1.53,.74-2.67,1.94-3.43,3.58s-1.14,3.82-1.14,6.52,.38,5,1.16,6.65c.77,1.65,1.9,2.82,3.39,3.54s3.33,1.07,5.51,1.07c1.09,0,2.17-.08,3.23-.25,1.06-.17,2.16-.43,3.3-.78v4.68c-1.01,.32-2.11,.58-3.32,.77-1.2,.19-2.44,.28-3.72,.28Z"/>
      <path d="M1449.47,361.09v-33.94h5.52v33.94h-5.52Z"/>
      <path d="M1467.95,361.49c-1.5,0-2.82-.29-3.98-.86-1.15-.57-2.06-1.49-2.72-2.76-.66-1.27-.99-2.95-.99-5.05v-14.64h5.5v14.3c0,1.58,.34,2.68,1.02,3.3,.68,.62,1.56,.92,2.66,.92,.55,0,1.12-.08,1.71-.24,.59-.16,1.17-.41,1.71-.76,.55-.34,1.03-.77,1.45-1.29v-16.23h5.52v22.91h-4.58l-.38-2.37h-.25c-.9,.91-1.92,1.6-3.07,2.07-1.15,.47-2.35,.7-3.61,.7Z"/>
      <path d="M1491.6,361.51c-1.26,0-2.48-.08-3.65-.24-1.18-.16-2.29-.4-3.34-.72v-4.14c1.12,.34,2.26,.59,3.41,.76,1.16,.17,2.33,.25,3.52,.25,1.68,0,2.88-.25,3.59-.75,.71-.5,1.07-1.19,1.07-2.07,0-.74-.2-1.31-.59-1.7-.39-.39-1.06-.68-2-.86l-3.51-.67c-2.13-.42-3.67-1.17-4.62-2.24s-1.43-2.48-1.43-4.23c0-2.1,.84-3.8,2.51-5.11,1.67-1.31,4.23-1.96,7.67-1.96,1.08,0,2.12,.06,3.12,.18,1,.12,1.92,.3,2.76,.54v4.14c-.9-.25-1.82-.44-2.78-.57s-1.94-.19-2.93-.19c-1.34,0-2.39,.13-3.14,.39-.75,.26-1.28,.61-1.58,1.04-.31,.43-.46,.91-.46,1.43,0,.63,.19,1.15,.57,1.56,.38,.41,1.04,.72,1.97,.91l3.49,.65c2.07,.41,3.61,1.11,4.61,2.11,1,1,1.5,2.45,1.5,4.36,0,2.21-.84,3.96-2.53,5.23-1.69,1.27-4.1,1.91-7.23,1.91Z"/>
      <path d="M1502.6,342.57v-4.39h15.88v4.39h-15.88Zm12.12,18.94c-2.62,0-4.64-.66-6.06-1.97-1.42-1.32-2.13-3.41-2.13-6.28v-15.08l.99-8.17h4.54v22.39c0,1.69,.33,2.87,.99,3.53,.66,.66,1.69,.99,3.11,.99,.39,0,.79-.02,1.2-.07,.41-.05,.85-.12,1.34-.22v4.43c-.59,.13-1.23,.23-1.92,.33-.69,.09-1.38,.14-2.05,.14Z"/>
      <path d="M1532.65,361.51c-2.7,0-4.94-.41-6.71-1.23-1.77-.82-3.09-2.1-3.96-3.85-.87-1.75-1.3-4.02-1.3-6.8,0-2.59,.4-4.76,1.21-6.51,.8-1.75,1.96-3.07,3.48-3.96,1.51-.89,3.34-1.33,5.48-1.33s3.8,.44,5.22,1.33c1.42,.89,2.5,2.22,3.22,4,.73,1.78,1.09,3.99,1.09,6.64v1.49h-16.59v-3.32h12.39l-.97,.46c0-1.74-.17-3.11-.5-4.14s-.83-1.75-1.49-2.19-1.47-.66-2.44-.66-1.79,.22-2.48,.65c-.69,.43-1.21,1.16-1.56,2.18-.36,1.02-.54,2.4-.54,4.14v2.14c0,1.65,.23,2.97,.7,3.96s1.23,1.69,2.28,2.12c1.05,.43,2.46,.64,4.22,.64,.88,0,1.81-.07,2.77-.21,.97-.14,1.96-.34,2.98-.59v4.22c-1.18,.29-2.29,.5-3.35,.63-1.06,.13-2.11,.19-3.16,.19Z"/>
      <path d="M1544.48,361.09v-22.91h4.54l.44,3h.27c.7-1.12,1.6-1.95,2.71-2.48,1.11-.53,2.3-.8,3.59-.8,.34,0,.66,.01,.98,.04,.31,.03,.6,.06,.85,.1v5.02c-.34-.06-.69-.09-1.06-.12-.37-.02-.74-.03-1.1-.03-.69,0-1.39,.09-2.1,.28s-1.39,.47-2.02,.85c-.63,.38-1.16,.85-1.58,1.43v15.6h-5.52Z"/>
      <path d="M1559.07,342.57v-4.39h15.88v4.39h-15.88Zm12.12,18.94c-2.62,0-4.64-.66-6.06-1.97-1.42-1.32-2.13-3.41-2.13-6.28v-15.08l.99-8.17h4.54v22.39c0,1.69,.33,2.87,.99,3.53,.66,.66,1.69,.99,3.11,.99,.39,0,.79-.02,1.2-.07,.41-.05,.85-.12,1.34-.22v4.43c-.59,.13-1.23,.23-1.92,.33-.69,.09-1.38,.14-2.05,.14Z"/>
      <path d="M1578.64,361.09v-33.94h5.52v13.42h.27c.84-.9,1.82-1.58,2.93-2.05,1.11-.47,2.33-.7,3.67-.7s2.64,.28,3.76,.85,2.01,1.49,2.66,2.76c.65,1.27,.98,2.96,.98,5.06v14.6h-5.52v-14.24c0-1.6-.34-2.7-1.03-3.31-.69-.61-1.6-.91-2.75-.91-.57,0-1.16,.08-1.76,.23-.6,.15-1.18,.4-1.73,.75-.55,.34-1.04,.77-1.46,1.29v16.19h-5.52Z"/>
      <path d="M1614.55,361.51c-2.7,0-4.94-.41-6.71-1.23-1.77-.82-3.09-2.1-3.96-3.85-.87-1.75-1.3-4.02-1.3-6.8,0-2.59,.4-4.76,1.21-6.51,.8-1.75,1.96-3.07,3.48-3.96,1.51-.89,3.34-1.33,5.48-1.33s3.8,.44,5.22,1.33c1.42,.89,2.5,2.22,3.22,4,.73,1.78,1.09,3.99,1.09,6.64v1.49h-16.59v-3.32h12.39l-.97,.46c0-1.74-.17-3.11-.5-4.14s-.83-1.75-1.49-2.19-1.47-.66-2.44-.66-1.79,.22-2.48,.65c-.69,.43-1.21,1.16-1.56,2.18-.36,1.02-.54,2.4-.54,4.14v2.14c0,1.65,.23,2.97,.7,3.96s1.23,1.69,2.28,2.12c1.05,.43,2.46,.64,4.22,.64,.88,0,1.81-.07,2.77-.21,.97-.14,1.96-.34,2.98-.59v4.22c-1.18,.29-2.29,.5-3.35,.63-1.06,.13-2.11,.19-3.16,.19Z"/>
      <path d="M1626.37,361.09v-22.91h4.58l.38,2.44h.27c.84-.92,1.81-1.62,2.91-2.09,1.1-.47,2.3-.7,3.6-.7s2.52,.28,3.57,.84c1.05,.56,1.88,1.47,2.48,2.72,.6,1.25,.9,2.91,.9,4.97v14.74h-5.4v-14.28c0-1.58-.3-2.68-.91-3.29-.61-.61-1.42-.91-2.43-.91-.52,0-1.05,.08-1.6,.24s-1.06,.42-1.55,.77c-.49,.35-.92,.8-1.28,1.34v16.13h-5.52Zm26.31,0v-14.28c0-1.58-.32-2.68-.97-3.29-.64-.61-1.48-.91-2.5-.91-.53,0-1.08,.08-1.66,.25s-1.12,.44-1.64,.83c-.52,.39-.97,.9-1.34,1.54l-1.18-3.76c1.06-1.33,2.25-2.27,3.56-2.82,1.31-.55,2.6-.83,3.88-.83,1.41,0,2.67,.28,3.78,.85,1.11,.57,1.98,1.49,2.62,2.76,.64,1.27,.96,2.97,.96,5.08v14.57h-5.5Z"/>
      <path d="M1674.34,361.51c-2.7,0-4.94-.41-6.71-1.23-1.77-.82-3.09-2.1-3.96-3.85-.87-1.75-1.3-4.02-1.3-6.8,0-2.59,.4-4.76,1.21-6.51,.8-1.75,1.96-3.07,3.48-3.96,1.51-.89,3.34-1.33,5.48-1.33s3.8,.44,5.22,1.33c1.42,.89,2.5,2.22,3.22,4,.73,1.78,1.09,3.99,1.09,6.64v1.49h-16.59v-3.32h12.39l-.97,.46c0-1.74-.17-3.11-.5-4.14s-.83-1.75-1.49-2.19-1.47-.66-2.44-.66-1.79,.22-2.48,.65c-.69,.43-1.21,1.16-1.56,2.18-.36,1.02-.54,2.4-.54,4.14v2.14c0,1.65,.23,2.97,.7,3.96s1.23,1.69,2.28,2.12c1.05,.43,2.46,.64,4.22,.64,.88,0,1.81-.07,2.77-.21,.97-.14,1.96-.34,2.98-.59v4.22c-1.18,.29-2.29,.5-3.35,.63-1.06,.13-2.11,.19-3.16,.19Z"/>
      <path d="M1686.16,361.09v-22.91h4.58l.38,2.42h.27c.88-.9,1.91-1.58,3.09-2.06,1.18-.48,2.44-.71,3.8-.71,1.48,0,2.8,.29,3.96,.86,1.16,.57,2.06,1.49,2.72,2.76,.66,1.27,.99,2.96,.99,5.07v14.57h-5.52v-14.26c0-1.58-.34-2.68-1.01-3.3-.67-.62-1.6-.92-2.77-.92-.56,0-1.14,.08-1.74,.23-.6,.15-1.18,.4-1.74,.73-.56,.34-1.05,.78-1.47,1.32v16.19h-5.52Z"/>
    </g>
    <g>
      <path class="cls-4" d="M1116.49,246.11c24.31-18.76,67.57-44.18,125.01-44.49,112.62-.61,175.17,95.87,179,102"/>
      <polygon points="1126.8 248.95 1096.5 263.63 1115.4 235.76 1126.8 248.95"/>
    </g>
  </g>
</svg>