<?xml version="1.0" encoding="UTF-8"?>
<svg id="Ebene_2" data-name="Ebene 2" xmlns="http://www.w3.org/2000/svg" viewBox="0 0 113.93 111.9">
  <defs>
    <style>
      .cls-1 {
        opacity: .3;
      }

      .cls-1, .cls-2 {
        fill: #fe6847;
      }
    </style>
  </defs>
  <g id="Ebene_1-2" data-name="Ebene 1">
    <g>
      <g>
        <path class="cls-2" d="M62.14,111.9c-6.53-.48-13-1.07-19.32-3.18-6.27-2.09-12.04-5.16-17.63-8.5-3.83-2.29-7.15-5.44-10.44-8.59-3.76-3.6-7.06-7.49-9.1-12.2-2.09-4.8-3.33-9.88-3.88-15.18-.29-2.8-.01-5.78-1.43-8.47-.67-1.29-.25-2.98,.18-4.15,1.12-3.01,.72-6.16,1.22-9.21,.83-5.06,2.45-9.73,4.72-14.23,3.98-7.89,10.22-13.73,17.66-18.17,7.04-4.2,14.63-7.16,22.69-9.02C49.77,.34,52.92-.09,55.62,.02c3.91,.16,7.96,.42,11.93,.95,6.3,.84,11.68,3.64,17.17,6.37,5.95,2.96,10.09,7.9,14.44,12.74,3.49,3.88,6.82,7.89,10.26,11.81,1.76,2,2.33,4.55,2.75,6.92,.83,4.67,2.06,9.36,1.68,14.17-.36,4.51-1.42,8.9-2.43,13.3-1.38,6.02-3.96,11.56-6.64,17.07-2.99,6.15-6.61,11.76-12.56,15.61-3.23,2.09-5.96,4.99-9.28,6.89-4.38,2.51-8.88,4.79-14.2,5.29-2.15,.2-4.33,.81-6.59,.77Zm-2.32-3.42c4.65,.24,8.98,.03,13.26-1.09,6.27-1.65,11.13-5.63,16.12-9.44,3.11-2.38,6.2-4.79,8.37-8.09,4.84-7.36,8.32-15.37,10.8-23.82,1.36-4.65,2.11-9.42,2.74-14.2,.28-2.16-.62-4.21-.83-6.34-.42-4.4-1.15-8.78-4.2-12.42-3.01-3.59-6.25-7-9.18-10.64-4.93-6.12-10.69-11.02-17.96-14.14-1.5-.64-3.23-.44-4.54-1.22-5.33-3.2-11.38-3.33-17.22-3.99-6.14-.69-12.1,.74-17.96,2.75-7.78,2.68-14.87,6.65-21.07,11.91C8.14,26.24,4.3,37.74,3.59,50.51c-.29,5.27,.72,10.41,1.37,15.6,.85,6.76,2.87,12.98,7.06,18.43,5.69,7.4,12.88,13.05,21.22,17,8.45,4.01,17.01,8.12,26.58,6.95Z"/>
        <path class="cls-2" d="M87.75,58.51c-1.62,.96-2.02,2.45-2.64,3.8-.46,1.01-.87,2.06-1.44,3-.59,.96-1.43,1.87-2.66,1.74-1.36-.14-1.11-1.52-1.54-2.4-2.29-4.68-2.83-9.91-4.69-14.72-.33-.86-.42-1.6,.6-1.93,1.02-.33,1.9-.18,2.25,1.05,.9,3.13,1.82,6.26,2.73,9.39,.13,.46,.25,.93,.45,1.36,.29,.62,.17,1.62,1.05,1.71,1,.11,1.19-.9,1.55-1.57,.97-1.82,2.25-3.46,2.88-5.48,.28-.91,1.08-1.7,2.16-1.58,1.14,.12,1.4,1.18,1.64,2.11,.52,2,.99,4.01,1.5,6.01,.11,.45,.21,1.01,.82,1,.48,0,.56-.51,.7-.86,1.63-3.99,4.81-7.13,6.22-11.25,.24-.7,.74-1.3,1.63-1.01,.79,.26,1.09,.95,1.02,1.71-.06,.62-.19,1.3-.52,1.8-2.69,4.13-5.02,8.47-7.48,12.73-1.41,2.44-2.8,2.29-3.95-.31-.86-1.96-1.48-4.02-2.29-6.28Z"/>
        <path class="cls-2" d="M47.32,62.39c1.67-2.37,2.7-4.65,3.7-6.94,.28-.64,.28-1.52,1.16-1.63,.97-.12,1.71,.48,2.15,1.26,.93,1.67,1.73,3.4,2.62,5.09,.25,.48,.43,1.12,1.07,1.17,.82,.06,.99-.71,1.25-1.24,1.31-2.72,2.61-5.45,3.85-8.21,.51-1.14,1-2.47,2.51-1.8,1.41,.62,.78,1.88,.27,2.88-1.83,3.62-3.64,7.23-5.1,11.03-1.06,2.76-2.5,2.86-4.47,.61-1.13-1.29-1.67-2.88-2.5-4.33-.3-.53-.44-1.36-1.22-1.29-.72,.06-.91,.86-1.1,1.42-.76,2.2-1.79,4.25-3.19,6.11-.42,.55-.69,1.39-1.57,1.23-.69-.13-.92-.81-1.15-1.42-2-5.38-2.65-11.11-4.18-16.61-.21-.74,.03-1.53,.91-1.68,1.09-.18,1.52,.61,1.75,1.54,.94,3.85,1.89,7.7,2.84,11.55,.07,.28,.18,.55,.41,1.25Z"/>
        <path class="cls-2" d="M18.11,61.7c.8-2.19,1.58-4.17,2.25-6.2,.32-.97,.3-2.3,1.64-2.24,1.3,.05,1.6,1.25,1.91,2.39,.61,2.18,1.4,4.3,2.36,7.16,1.73-3.62,3.15-6.59,4.57-9.57,.65-1.36,1.23-2.76,1.97-4.08,.42-.75,1.05-1.57,2.09-.9,.88,.57,1.02,1.54,.43,2.3-1.98,2.53-2.73,5.71-4.59,8.32-1.07,1.5-1.42,3.5-2.18,5.24-.48,1.11-1.19,2.29-2.47,2.36-1.36,.08-1.57-1.39-2.07-2.33-.7-1.32-1.29-2.69-2-4.2-1.13,.82-1.31,2-1.63,3.09-.26,.91-.51,1.83-.82,2.73-.26,.75-.89,1.13-1.62,1.26-.94,.17-1.21-.63-1.5-1.25-1.76-3.84-2.9-7.89-3.76-12.01-.26-1.24-.55-2.47-.68-3.72-.1-.93-.16-2.05,1.23-2.15,1.15-.08,1.37,.77,1.6,1.69,.81,3.3,.67,6.8,2.08,9.98,.28,.64,.3,1.4,1.2,2.14Z"/>
      </g>
      <path class="cls-1" d="M111.03,55.87c-2.67,15.27-4.2,23.98-10.98,33.19-9,12.23-25.3,22.7-43.03,21.83-10.87-.53-19.3-5.18-25.65-8.68-5.54-3.06-12.67-6.99-18.89-14.94C2.35,74.34,1.82,59.97,1.73,55.87c-.1-4.42-.23-20.71,11.38-34.98C32.35-2.75,64.76,2.52,66.09,2.76c12.96,2.33,22.18,9.07,23.87,10.34,6.02,4.51,9.76,9.26,13.02,13.4,3.79,4.82,6.17,7.89,7.67,12.48,1.8,5.51,1.48,10.57,.38,16.88Z"/>
    </g>
  </g>
</svg>